<?xml version="1.0" encoding="UTF-8"?>
<svg xmlns="http://www.w3.org/2000/svg" xmlns:xlink="http://www.w3.org/1999/xlink" viewBox="0 0 321.81 329.35">
  <defs>
    <style>
      .cls-1 {
        fill: url(#linear-gradient-15);
      }

      .cls-2 {
        fill: url(#linear-gradient-13);
      }

      .cls-3 {
        fill: #91a9b6;
        opacity: .9;
      }

      .cls-4 {
        fill: #ffe3ab;
      }

      .cls-5 {
        fill: #a5b8c3;
        opacity: .71;
      }

      .cls-6 {
        fill: url(#linear-gradient-2);
      }

      .cls-7 {
        fill: #d2d9df;
        opacity: .33;
      }

      .cls-8 {
        fill: url(#linear-gradient-10);
      }

      .cls-9 {
        fill: url(#linear-gradient-12);
      }

      .cls-10 {
        fill: #e9ecee;
        opacity: .14;
      }

      .cls-11 {
        fill: #86a3b0;
      }

      .cls-12 {
        fill: #d7dee2;
        opacity: .29;
      }

      .cls-13 {
        fill: url(#linear-gradient-4);
      }

      .cls-14 {
        fill: #b6c4cd;
        opacity: .57;
      }

      .cls-15 {
        fill: #ccd5db;
        opacity: .38;
      }

      .cls-16 {
        fill: #fff;
        opacity: 0;
      }

      .cls-17 {
        fill: url(#linear-gradient-3);
      }

      .cls-18 {
        fill: #f6f7f8;
        opacity: .05;
      }

      .cls-19 {
        fill: url(#linear-gradient-5);
      }

      .cls-20 {
        isolation: isolate;
      }

      .cls-21 {
        fill: #c1ccd3;
        opacity: .48;
      }

      .cls-22 {
        fill: #96adb9;
        opacity: .86;
      }

      .cls-23 {
        fill: url(#linear-gradient-8);
      }

      .cls-24 {
        fill: #c6d0d7;
        opacity: .43;
      }

      .cls-25 {
        fill: #e3e7ea;
        opacity: .19;
      }

      .cls-26 {
        fill: #9bb1bc;
        opacity: .81;
      }

      .cls-27 {
        fill: url(#linear-gradient-14);
      }

      .cls-28 {
        fill: #8ba6b3;
        opacity: .95;
      }

      .cls-29 {
        fill: #a0b4bf;
        opacity: .76;
      }

      .cls-30 {
        fill: url(#linear-gradient-17);
      }

      .cls-31 {
        fill: url(#linear-gradient-7);
      }

      .cls-32 {
        fill: url(#linear-gradient-9);
      }

      .cls-33 {
        mix-blend-mode: multiply;
      }

      .cls-34 {
        fill: url(#linear-gradient-11);
      }

      .cls-35 {
        fill: #eff1f2;
        opacity: .1;
      }

      .cls-36 {
        fill: #bbc8d0;
        opacity: .52;
      }

      .cls-37 {
        fill: url(#linear-gradient-6);
      }

      .cls-38 {
        fill: #abbcc6;
        opacity: .67;
      }

      .cls-39 {
        fill: #b0c0c9;
        opacity: .62;
      }

      .cls-40 {
        fill: url(#linear-gradient-16);
      }

      .cls-41 {
        fill: #dde2e6;
        opacity: .24;
      }

      .cls-42 {
        fill: url(#linear-gradient);
      }
    </style>
    <linearGradient id="linear-gradient" x1="142.79" y1="26.5" x2="176.2" y2="59.91" gradientUnits="userSpaceOnUse">
      <stop offset="0" stop-color="#ffd45c"/>
      <stop offset="1" stop-color="#f99d1c"/>
    </linearGradient>
    <linearGradient id="linear-gradient-2" x1="142.79" y1="259.37" x2="176.2" y2="292.78" xlink:href="#linear-gradient"/>
    <linearGradient id="linear-gradient-3" x1="2436.65" y1="177.78" x2="2403.23" y2="211.2" gradientTransform="translate(-151.44 2579.57) rotate(-90)" xlink:href="#linear-gradient"/>
    <linearGradient id="linear-gradient-4" x1="2436.65" y1="410.66" x2="2403.23" y2="444.08" gradientTransform="translate(-151.44 2579.57) rotate(-90)" xlink:href="#linear-gradient"/>
    <linearGradient id="linear-gradient-5" x1="2829.58" y1="1356.14" x2="2795.49" y2="1356.14" gradientTransform="translate(1106.98 3189.64) rotate(-135)" xlink:href="#linear-gradient"/>
    <linearGradient id="linear-gradient-6" x1="2829.58" y1="1589.01" x2="2795.49" y2="1589.01" gradientTransform="translate(1106.98 3189.64) rotate(-135)" xlink:href="#linear-gradient"/>
    <linearGradient id="linear-gradient-7" x1="1107.18" y1="2880.87" x2="1107.18" y2="2814.2" gradientTransform="translate(3038.21 1472.58) rotate(135)" xlink:href="#linear-gradient"/>
    <linearGradient id="linear-gradient-8" x1="1107.18" y1="3113.75" x2="1107.18" y2="3047.07" gradientTransform="translate(3038.21 1472.58) rotate(135)" xlink:href="#linear-gradient"/>
    <linearGradient id="linear-gradient-9" x1="249.65" y1="186.78" x2="284.49" y2="221.62" gradientUnits="userSpaceOnUse">
      <stop offset="0" stop-color="#fdba32"/>
      <stop offset="1" stop-color="#f99d1c"/>
    </linearGradient>
    <linearGradient id="linear-gradient-10" x1="34.49" y1="97.66" x2="69.33" y2="132.5" xlink:href="#linear-gradient-9"/>
    <linearGradient id="linear-gradient-11" x1="97.51" y1="34.63" x2="132.36" y2="69.48" xlink:href="#linear-gradient-9"/>
    <linearGradient id="linear-gradient-12" x1="186.62" y1="249.78" x2="221.48" y2="284.64" xlink:href="#linear-gradient-9"/>
    <linearGradient id="linear-gradient-13" x1="41.6" y1="193.87" x2="62.24" y2="214.51" xlink:href="#linear-gradient-9"/>
    <linearGradient id="linear-gradient-14" x1="256.75" y1="104.75" x2="277.4" y2="125.4" xlink:href="#linear-gradient-9"/>
    <linearGradient id="linear-gradient-15" x1="104.61" y1="256.89" x2="125.26" y2="277.54" xlink:href="#linear-gradient-9"/>
    <linearGradient id="linear-gradient-16" x1="193.72" y1="41.74" x2="214.37" y2="62.39" xlink:href="#linear-gradient-9"/>
    <linearGradient id="linear-gradient-17" x1="92.37" y1="92.51" x2="226.62" y2="226.76" xlink:href="#linear-gradient"/>
  </defs>
  <g class="cls-20">
    <g id="Layer_1">
      <g>
        <g>
          <g class="cls-33">
            <path class="cls-16" d="M241.39,152.78c-20.89-7.89-22.26-29.39-3.33-47.13,9.95-9.32,25.96-14.84,44.98-11.89,20.67,3.2,29.34,19.59,15.79,37.25-13.27,17.27-37.9,29.16-57.44,21.78Z"/>
            <path class="cls-18" d="M242.12,151.81c-20.53-7.46-21.86-28.59-3.33-45.71,9.93-9.17,25.69-14.44,44.05-11.63,20.02,3.06,28.46,18.96,15.07,36.22-12.92,16.69-36.67,28.1-55.78,21.11Z"/>
            <path class="cls-35" d="M242.85,150.84c-20.16-7.07-21.46-27.78-3.33-44.29,9.91-9.02,25.43-14.05,43.11-11.36,19.36,2.92,27.59,18.34,14.35,35.2-12.56,16.11-35.43,27.01-54.13,20.45Z"/>
            <path class="cls-10" d="M243.58,149.87c-19.8-6.66-21.06-26.96-3.33-42.87,9.89-8.87,25.17-13.65,42.17-11.1,18.71,2.78,26.67,17.67,13.62,34.18-12.25,15.5-34.2,25.93-52.47,19.79Z"/>
            <path class="cls-25" d="M244.32,148.9c-19.43-6.24-20.65-26.14-3.33-41.45,9.87-8.72,24.91-13.25,41.24-10.83,18.05,2.64,25.78,17.03,12.9,33.15-11.91,14.91-32.96,24.86-50.81,19.12Z"/>
            <path class="cls-41" d="M245.05,147.94c-19.07-5.83-20.24-25.32-3.33-40.03,9.85-8.56,24.64-12.85,40.3-10.56,17.4,2.5,24.89,16.39,12.18,32.13-11.57,14.32-31.73,23.79-49.16,18.46Z"/>
            <path class="cls-12" d="M245.78,146.97c-18.71-5.41-19.82-24.5-3.32-38.61,9.83-8.41,24.38-12.45,39.37-10.3,16.74,2.35,24,15.75,11.46,31.11-11.23,13.74-30.5,22.72-47.5,17.8Z"/>
            <path class="cls-7" d="M246.51,146c-18.35-4.99-19.41-23.67-3.32-37.19,9.82-8.26,24.12-12.05,38.43-10.03,16.09,2.21,23.12,15.11,10.73,30.08-10.88,13.15-29.27,21.65-45.84,17.14Z"/>
            <path class="cls-15" d="M247.24,145.03c-17.99-4.58-18.98-22.84-3.32-35.77,9.81-8.1,23.86-11.65,37.5-9.77,15.43,2.07,22.23,14.47,10.01,29.06-10.53,12.57-28.04,20.58-44.19,16.47Z"/>
            <path class="cls-24" d="M247.97,144.06c-17.64-4.15-18.56-22-3.32-34.35,9.8-7.94,23.59-11.22,36.56-9.5,14.77,1.96,21.35,13.84,9.29,28.04-10.18,11.99-26.81,19.51-42.53,15.81Z"/>
            <path class="cls-21" d="M248.7,143.09c-17.28-3.73-18.13-21.16-3.32-32.93,9.79-7.78,23.33-10.82,35.63-9.23,14.12,1.82,20.47,13.2,8.56,27.02-9.83,11.4-25.58,18.45-40.87,15.15Z"/>
            <path class="cls-36" d="M249.43,142.13c-16.92-3.31-17.69-20.32-3.32-31.51,9.78-7.62,23.06-10.42,34.69-8.97,13.46,1.68,19.59,12.57,7.84,25.99-9.48,10.83-24.36,17.39-39.22,14.48Z"/>
            <path class="cls-14" d="M250.16,141.16c-16.57-2.88-17.25-19.47-3.32-30.09,9.78-7.45,22.8-10.02,33.76-8.7,12.81,1.54,18.72,11.94,7.12,24.97-9.12,10.25-23.13,16.33-37.56,13.82Z"/>
            <path class="cls-39" d="M250.9,140.19c-16.22-2.45-16.81-18.61-3.32-28.67,9.78-7.28,22.54-9.62,32.82-8.44,12.15,1.4,17.84,11.31,6.4,23.95-8.76,9.67-21.91,15.27-35.9,13.16Z"/>
            <path class="cls-38" d="M251.63,139.22c-15.86-2.01-16.37-17.75-3.32-27.25,9.78-7.11,22.28-9.23,31.89-8.17,11.5,1.26,16.97,10.68,5.67,22.92-8.4,9.1-20.68,14.22-34.24,12.49Z"/>
            <path class="cls-5" d="M252.36,138.25c-15.51-1.58-15.92-16.89-3.32-25.83,9.78-6.94,22.01-8.83,30.95-7.9,10.84,1.12,16.11,10.06,4.95,21.9-8.04,8.53-19.46,13.16-32.59,11.83Z"/>
            <path class="cls-29" d="M253.09,137.28c-15.16-1.13-15.47-16.02-3.32-24.41,9.79-6.75,21.75-8.43,30.02-7.64,10.19.98,15.25,9.44,4.23,20.88-7.67,7.96-18.23,12.12-30.93,11.17Z"/>
            <path class="cls-26" d="M253.82,136.32c-14.8-.69-15.01-15.15-3.31-22.99,9.8-6.57,21.49-8.04,29.08-7.37,9.53.83,14.39,8.83,3.51,19.85-7.3,7.4-17.01,11.07-29.27,10.5Z"/>
            <path class="cls-22" d="M254.55,135.35c-14.45-.24-14.55-14.26-3.31-21.57,9.81-6.37,21.23-7.64,28.15-7.11,8.88.69,13.54,8.22,2.78,18.83-6.93,6.84-15.78,10.03-27.62,9.84Z"/>
            <path class="cls-3" d="M255.28,134.38c-14.1.22-14.09-13.38-3.31-20.15,9.83-6.17,20.96-7.25,27.21-6.84,8.22.54,12.69,7.62,2.06,17.81-6.55,6.28-14.56,9-25.96,9.18Z"/>
            <path class="cls-28" d="M256.01,133.41c-13.74.69-13.63-12.48-3.31-18.72s20.7-6.86,26.28-6.57c7.57.38,11.86,7.03,1.34,16.78-6.17,5.73-13.33,7.97-24.3,8.51Z"/>
            <path class="cls-11" d="M256.74,132.44c-13.38,1.17-13.16-11.58-3.31-17.3,9.88-5.74,20.44-6.46,25.34-6.31,6.91.23,11.03,6.45.62,15.76-5.79,5.18-12.1,6.95-22.65,7.85Z"/>
          </g>
          <g class="cls-33">
            <path class="cls-16" d="M216.66,97.68c-20.34,9.22-40.98-7.81-40.19-33.75.42-13.61,7.8-28.85,23.32-40.23,16.85-12.38,39.71,1.39,42.65,23.44,2.86,21.6-6.77,41.91-25.78,50.55Z"/>
            <path class="cls-18" d="M216.27,96.34c-19.78,9.27-39.92-7.39-38.97-32.61.51-13.49,7.9-28.38,22.85-39.39,16.28-12.02,38.41,1.17,41.17,22.83,2.71,20.94-6.62,40.56-25.05,49.17Z"/>
            <path class="cls-35" d="M215.89,95.01c-19.22,9.32-38.85-6.96-37.75-31.48.6-13.37,8-27.91,22.38-38.54,15.72-11.66,37.06.95,39.69,22.22s-6.47,39.2-24.32,47.79Z"/>
            <path class="cls-10" d="M215.51,93.67c-18.69,9.32-37.77-6.54-36.53-30.34.69-13.25,8.09-27.45,21.91-37.69,15.16-11.29,35.73.73,38.21,21.62,2.33,19.63-6.34,37.8-23.59,46.41Z"/>
            <path class="cls-25" d="M215.13,92.34c-18.14,9.36-36.69-6.12-35.31-29.2.79-13.13,8.19-26.98,21.43-36.84,14.6-10.93,34.41.51,36.73,21.01,2.15,18.97-6.2,36.44-22.86,45.03Z"/>
            <path class="cls-41" d="M214.75,91c-17.59,9.4-35.61-5.69-34.09-28.07.88-13.01,8.29-26.51,20.96-35.99,14.04-10.56,33.08.29,35.25,20.41,1.98,18.32-6.06,35.07-22.12,43.65Z"/>
            <path class="cls-12" d="M214.36,89.67c-17.04,9.44-34.52-5.27-32.88-26.93.98-12.89,8.39-26.05,20.49-35.14,13.48-10.2,31.76.07,33.78,19.8,1.8,17.66-5.91,33.7-21.39,42.27Z"/>
            <path class="cls-7" d="M213.98,88.33c-16.49,9.48-33.43-4.85-31.66-25.79,1.08-12.78,8.5-25.56,20.02-34.29,12.94-9.81,30.44-.15,32.3,19.19,1.63,17-5.77,32.34-20.66,40.89Z"/>
            <path class="cls-15" d="M213.6,86.99c-15.94,9.52-32.33-4.42-30.44-24.66,1.18-12.66,8.6-25.09,19.55-33.44,12.38-9.44,29.12-.37,30.82,18.59,1.46,16.34-5.63,30.97-19.93,39.51Z"/>
            <path class="cls-24" d="M213.22,85.66c-15.39,9.56-31.23-4-29.22-23.52,1.29-12.54,8.7-24.62,19.08-32.59,11.82-9.08,27.8-.59,29.34,17.98,1.3,15.68-5.48,29.61-19.2,38.13Z"/>
            <path class="cls-21" d="M212.84,84.32c-14.84,9.61-30.12-3.58-28-22.38,1.4-12.42,8.8-24.15,18.6-31.74,11.26-8.71,26.49-.81,27.86,17.37,1.14,15.02-5.34,28.25-18.47,36.75Z"/>
            <path class="cls-36" d="M212.46,82.99c-14.28,9.66-29-3.15-26.78-21.25,1.51-12.3,8.89-23.68,18.13-30.89,10.7-8.35,25.18-1.04,26.38,16.77.98,14.36-5.19,26.9-17.73,35.37Z"/>
            <path class="cls-14" d="M212.07,81.65c-13.73,9.71-27.88-2.73-25.57-20.11,1.62-12.18,8.99-23.22,17.66-30.04,10.14-7.98,23.87-1.26,24.91,16.16.82,13.7-5.05,25.54-17,34Z"/>
            <path class="cls-39" d="M211.69,80.32c-13.17,9.76-26.75-2.3-24.35-18.98,1.74-12.06,9.09-22.75,17.19-29.2,9.58-7.62,22.56-1.48,23.43,15.55.66,13.04-4.9,24.19-16.27,32.62Z"/>
            <path class="cls-38" d="M211.31,78.98c-12.62,9.82-25.62-1.88-23.13-17.84,1.86-11.94,9.19-22.28,16.72-28.35,9.02-7.26,21.26-1.7,21.95,14.95.51,12.38-4.75,22.84-15.54,31.24Z"/>
            <path class="cls-5" d="M210.93,77.64c-12.06,9.88-24.48-1.45-21.91-16.7,1.99-11.82,9.28-21.82,16.25-27.5,8.45-6.89,19.96-1.93,20.47,14.34.37,11.72-4.6,21.49-14.81,29.86Z"/>
            <path class="cls-29" d="M210.55,76.31c-11.49,9.94-23.33-1.02-20.69-15.57,2.12-11.7,9.38-21.35,15.78-26.65,7.89-6.53,18.67-2.15,18.99,13.74.22,11.05-4.44,20.15-14.08,28.48Z"/>
            <path class="cls-26" d="M210.17,74.97c-10.93,10-22.18-.59-19.47-14.43,2.26-11.58,9.47-20.89,15.3-25.8,7.33-6.17,17.39-2.38,17.51,13.13.08,10.39-4.29,18.81-13.35,27.1Z"/>
            <path class="cls-22" d="M209.78,73.64c-10.36,10.07-21.02-.16-18.25-13.29,2.41-11.45,9.57-20.42,14.83-24.95,6.76-5.81,16.12-2.6,16.04,12.52-.05,9.73-4.13,17.47-12.61,25.72Z"/>
            <path class="cls-3" d="M209.4,72.3c-9.78,10.14-19.85.27-17.04-12.16,2.57-11.32,9.66-19.96,14.36-24.1,6.2-5.46,14.85-2.82,14.56,11.92-.18,9.07-3.96,16.13-11.88,24.34Z"/>
            <path class="cls-28" d="M209.02,70.97c-9.2,10.22-18.68.71-15.82-11.02s9.75-19.51,13.89-23.25c5.62-5.11,13.6-3.04,13.08,11.31-.3,8.41-3.8,14.79-11.15,22.96Z"/>
            <path class="cls-11" d="M208.64,69.63c-8.61,10.29-17.5,1.15-14.6-9.88,2.91-11.05,9.84-19.04,13.42-22.4,5.06-4.75,12.36-3.26,11.6,10.7-.42,7.75-3.62,13.46-10.42,21.58Z"/>
          </g>
          <g class="cls-33">
            <path class="cls-16" d="M152.24,73.66c-6.43,21.41-27.79,24.24-46.79,6.56-9.99-9.28-16.59-24.86-14.95-44.04,1.77-20.84,25.9-23.91,44.43-11.6,18.14,12.05,23.32,29.08,17.3,49.08Z"/>
            <path class="cls-18" d="M151.23,72.99c-6.02,21.02-26.98,23.75-45.37,6.46-9.82-9.29-16.18-24.63-14.62-43.13,1.67-20.18,24.94-23.31,43.07-11.13,17.55,11.73,22.58,28.25,16.93,47.79Z"/>
            <path class="cls-35" d="M150.21,72.33c-5.66,20.62-26.22,23.32-43.95,6.37-9.68-9.26-15.76-24.39-14.29-42.21,1.58-19.51,23.95-22.68,41.7-10.66s21.8,27.4,16.55,46.51Z"/>
            <path class="cls-10" d="M149.19,71.67c-5.27,20.23-25.44,22.86-42.54,6.27-9.53-9.25-15.35-24.16-13.96-41.3,1.48-18.85,22.97-22.07,40.33-10.19,16.31,11.16,21.04,26.57,16.17,45.22Z"/>
            <path class="cls-25" d="M148.18,71.01c-4.89,19.84-24.65,22.4-41.12,6.17-9.38-9.24-14.93-23.93-13.64-40.39,1.38-18.19,21.99-21.45,38.96-9.72,15.7,10.86,20.28,25.73,15.8,43.93Z"/>
            <path class="cls-41" d="M147.16,70.34c-4.5,19.45-23.86,21.93-39.7,6.07-9.23-9.24-14.52-23.69-13.31-39.47,1.29-17.52,21.02-20.84,37.59-9.24,15.09,10.56,19.53,24.9,15.42,42.65Z"/>
            <path class="cls-12" d="M146.15,69.68c-4.11,19.06-23.07,21.46-38.29,5.97-9.07-9.23-14.1-23.46-12.98-38.56,1.19-16.86,20.04-20.23,36.22-8.77,14.48,10.25,18.77,24.06,15.04,41.36Z"/>
            <path class="cls-7" d="M145.13,69.02c-3.72,18.67-22.27,20.99-36.87,5.87-8.92-9.23-13.66-23.22-12.65-37.64,1.13-16.2,19.07-19.63,34.85-8.3,13.87,9.95,18.02,23.23,14.67,40.07Z"/>
            <path class="cls-15" d="M144.12,68.36c-3.32,18.28-21.47,20.51-35.46,5.77-8.76-9.23-13.24-22.99-12.32-36.73,1.04-15.53,18.09-19.02,33.48-7.83,13.26,9.64,17.27,22.39,14.29,38.78Z"/>
            <path class="cls-24" d="M143.1,67.7c-2.93,17.89-20.67,20.02-34.04,5.68-8.6-9.23-12.82-22.75-11.99-35.81.94-14.87,17.12-18.41,32.12-7.36,12.66,9.33,16.52,21.56,13.91,37.5Z"/>
            <path class="cls-21" d="M142.09,67.03c-2.53,17.51-19.86,19.54-32.62,5.58-8.44-9.23-12.4-22.52-11.66-34.9.85-14.21,16.15-17.81,30.75-6.89,12.05,9.02,15.78,20.73,13.54,36.21Z"/>
            <path class="cls-36" d="M141.07,66.37c-2.13,17.12-19.05,19.05-31.21,5.48-8.28-9.24-11.99-22.28-11.33-33.99.76-13.54,15.18-17.21,29.38-6.41,11.45,8.71,15.03,19.9,13.16,34.92Z"/>
            <path class="cls-14" d="M140.05,65.71c-1.73,16.74-18.24,18.55-29.79,5.38-8.11-9.25-11.57-22.05-11.01-33.07.66-12.88,14.21-16.62,28.01-5.94,10.85,8.39,14.29,19.07,12.78,33.64Z"/>
            <path class="cls-39" d="M139.04,65.05c-1.32,16.35-17.42,18.05-28.37,5.28-7.94-9.26-11.16-21.81-10.68-32.16.57-12.22,13.25-16.02,26.64-5.47,10.25,8.07,13.55,18.24,12.41,32.35Z"/>
            <path class="cls-38" d="M138.02,64.38c-.91,15.97-16.59,17.55-26.96,5.18-7.77-9.27-10.74-21.58-10.35-31.24.47-11.55,12.28-15.43,25.27-5,9.65,7.75,12.81,17.41,12.03,31.06Z"/>
            <path class="cls-5" d="M137.01,63.72c-.5,15.58-15.76,17.04-25.54,5.08-7.6-9.29-10.33-21.35-10.02-30.33.37-10.89,11.32-14.84,23.9-4.53,9.06,7.43,12.08,16.58,11.65,29.77Z"/>
            <path class="cls-29" d="M135.99,63.06c-.09,15.2-14.93,16.53-24.12,4.99-7.42-9.31-9.91-21.11-9.69-29.41.28-10.23,10.37-14.26,22.54-4.06,8.47,7.1,11.35,15.75,11.28,28.49Z"/>
            <path class="cls-26" d="M134.98,62.4c.34,14.82-14.09,16.01-22.71,4.89-7.23-9.33-9.5-20.88-9.36-28.5.18-9.57,9.42-13.68,21.17-3.59,7.88,6.77,10.62,14.92,10.9,27.2Z"/>
            <path class="cls-22" d="M133.96,61.74c.76,14.43-13.24,15.5-21.29,4.79-7.04-9.36-9.09-20.64-9.03-27.59.08-8.9,8.47-13.11,19.8-3.11,7.29,6.43,9.9,14.09,10.52,25.91Z"/>
            <path class="cls-3" d="M132.94,61.07c1.19,14.04-12.39,14.97-19.87,4.69-6.84-9.39-8.68-20.41-8.7-26.67-.03-8.24,7.53-12.55,18.43-2.64,6.71,6.1,9.18,13.25,10.15,24.63Z"/>
            <path class="cls-28" d="M131.93,60.41c1.63,13.65-11.53,14.45-18.46,4.59s-8.29-20.18-8.38-25.76c-.15-7.58,6.6-11.99,17.06-2.17,6.13,5.75,8.47,12.42,9.77,23.34Z"/>
            <path class="cls-11" d="M130.91,59.75c2.07,13.26-10.66,13.93-17.04,4.49-6.42-9.47-7.87-19.94-8.05-24.84-.24-6.91,5.68-11.45,15.69-1.7,5.56,5.41,7.75,11.58,9.39,22.05Z"/>
          </g>
          <g class="cls-33">
            <path class="cls-16" d="M225.2,215.63c-10.4-19.77,2.85-36.76,28.79-37.46,13.62-.37,29.25,6.11,41.53,20.96,13.34,16.11,8.95,34.12-12.9,38.32-21.39,4.12-47.71-3.32-57.42-21.82Z"/>
            <path class="cls-18" d="M226.39,215.39c-10.42-19.21,2.61-35.89,27.85-36.4,13.51-.27,28.79,6.24,40.66,20.53,12.94,15.57,8.71,33.07-12.76,37.08-20.74,3.93-46.08-3.3-55.74-21.21Z"/>
            <path class="cls-35" d="M227.58,215.15c-10.39-18.67,2.37-35.01,26.91-35.33,13.39-.17,28.33,6.36,39.78,20.11,12.55,15.03,8.46,31.97-12.63,35.83-20.1,3.68-44.42-3.3-54.06-20.61Z"/>
            <path class="cls-10" d="M228.77,214.91c-10.4-18.12,2.13-34.43,25.96-34.27,13.28.09,27.87,6.48,38.91,19.69,12.15,14.49,8.22,30.9-12.49,34.59-19.45,3.46-42.79-3.28-52.38-20.01Z"/>
            <path class="cls-25" d="M229.96,214.67c-10.4-17.57,1.9-33.62,25.02-33.21,13.16.24,27.41,6.61,38.03,19.27,11.75,13.95,7.98,29.84-12.35,33.35-18.81,3.25-41.15-3.27-50.7-19.41Z"/>
            <path class="cls-41" d="M231.15,214.43c-10.41-17.02,1.66-32.37,24.08-32.15,13.05.13,26.95,6.73,37.15,18.85,11.36,13.41,7.74,28.77-12.21,32.1-18.16,3.03-39.52-3.26-49.02-18.8Z"/>
            <path class="cls-12" d="M232.33,214.19c-10.41-16.47,1.42-31.48,23.14-31.08,12.93.23,26.49,6.86,36.28,18.42,10.96,12.87,7.5,27.7-12.07,30.86-17.51,2.82-37.89-3.24-47.34-18.2Z"/>
            <path class="cls-7" d="M233.52,213.95c-10.42-15.92,1.19-30.58,22.2-30.02,12.82.34,26.03,6.98,35.4,18,10.57,12.33,7.26,26.64-11.94,29.62-16.86,2.62-36.26-3.23-45.66-17.6Z"/>
            <path class="cls-15" d="M234.71,213.72c-10.43-15.37.95-29.68,21.26-28.96,12.71.45,25.54,7.12,34.53,17.58,10.15,11.81,7.02,25.58-11.8,28.37-16.22,2.41-34.63-3.21-43.98-16.99Z"/>
            <path class="cls-24" d="M235.9,213.48c-10.44-14.81.72-28.77,20.31-27.89,12.6.56,25.08,7.25,33.65,17.16,9.75,11.27,6.79,24.52-11.66,27.13-15.57,2.2-33-3.2-42.3-16.39Z"/>
            <path class="cls-21" d="M237.09,213.24c-10.46-14.26.48-27.86,19.37-26.83,12.48.68,24.62,7.37,32.78,16.73,9.35,10.73,6.55,23.46-11.52,25.89-14.92,2-31.38-3.18-40.62-15.79Z"/>
            <path class="cls-36" d="M238.28,213c-10.47-13.71.25-26.94,18.43-25.77,12.37.79,24.16,7.5,31.9,16.31,8.95,10.19,6.31,22.4-11.39,24.64-14.27,1.8-29.76-3.16-38.95-15.19Z"/>
            <path class="cls-14" d="M239.47,212.76c-10.49-13.15,0-26.01,17.49-24.7,12.26.92,23.7,7.62,31.03,15.89,8.56,9.66,6.08,21.35-11.25,23.4-13.62,1.61-28.14-3.14-37.27-14.58Z"/>
            <path class="cls-39" d="M240.66,212.52c-10.51-12.59-.23-25.08,16.55-23.64,12.14,1.04,23.24,7.74,30.15,15.47,8.16,9.12,5.84,20.3-11.11,22.15-12.97,1.42-26.52-3.12-35.59-13.98Z"/>
            <path class="cls-38" d="M241.85,212.28c-10.54-12.03-.46-24.14,15.61-22.58,12.03,1.17,22.78,7.87,29.27,15.05,7.76,8.58,5.61,19.26-10.97,20.91-12.32,1.23-24.9-3.1-33.91-13.38Z"/>
            <path class="cls-5" d="M243.04,212.04c-10.56-11.47-.7-23.2,14.66-21.52,11.92,1.31,22.32,7.99,28.4,14.62,7.37,8.04,5.37,18.22-10.84,19.67-11.66,1.04-23.29-3.07-32.23-12.78Z"/>
            <path class="cls-29" d="M244.23,211.8c-10.59-10.9-.94-22.25,13.72-20.45,11.8,1.45,21.86,8.11,27.52,14.2,6.97,7.49,5.14,17.19-10.7,18.42-11.01.86-21.68-3.04-30.55-12.17Z"/>
            <path class="cls-26" d="M245.41,211.56c-10.62-10.33-1.18-21.29,12.78-19.39,11.69,1.59,21.4,8.24,26.65,13.78,6.58,6.95,4.9,16.16-10.56,17.18-10.36.68-20.07-3.01-28.87-11.57Z"/>
            <path class="cls-22" d="M246.6,211.33c-10.66-9.76-1.42-20.33,11.84-18.33,11.57,1.75,20.94,8.36,25.77,13.36,6.19,6.41,4.67,15.14-10.42,15.94-9.71.51-18.46-2.98-27.19-10.97Z"/>
            <path class="cls-3" d="M247.79,211.09c-10.7-9.18-1.66-19.36,10.9-17.26,11.45,1.91,20.49,8.48,24.9,12.93,5.8,5.86,4.44,14.13-10.29,14.69-9.06.34-16.86-2.94-25.51-10.37Z"/>
            <path class="cls-28" d="M248.98,210.85c-10.74-8.6-1.91-18.38,9.96-16.2s20.04,8.59,24.02,12.51c5.42,5.31,4.2,13.14-10.15,13.45-8.4.18-15.25-2.9-23.83-9.76Z"/>
            <path class="cls-11" d="M250.17,210.61c-10.78-8.01-2.16-17.4,9.01-15.14,11.2,2.27,19.58,8.71,23.14,12.09,5.02,4.77,3.96,12.15-10.01,12.21-7.75.02-13.65-2.85-22.15-9.16Z"/>
          </g>
          <g class="cls-33">
            <path class="cls-16" d="M174.19,247.41c6.84-21.25,28.24-23.67,46.9-5.64,9.79,9.47,16.1,25.18,14.09,44.32-2.17,20.82-18.11,30.27-36.4,17.62-17.91-12.38-31.01-36.41-24.6-56.29Z"/>
            <path class="cls-18" d="M175,247.83c6.42-20.87,27.57-23.2,45.59-5.53,9.65,9.46,15.65,24.77,13.74,43.23-2.06,20.16-17.59,29.49-35.47,16.97-17.32-12.06-29.89-35.23-23.86-54.67Z"/>
            <path class="cls-35" d="M175.81,248.25c6.06-20.48,26.88-22.72,44.28-5.42,9.5,9.44,15.19,24.36,13.38,42.15-1.95,19.5-17.03,28.67-34.55,16.32-16.69-11.77-28.73-34.05-23.11-53.05Z"/>
            <path class="cls-10" d="M176.61,248.67c5.66-20.1,26.2-22.23,42.97-5.3,9.35,9.43,14.74,23.95,13.02,41.06-1.84,18.83-16.5,27.87-33.63,15.67-16.09-11.46-27.6-32.87-22.37-51.43Z"/>
            <path class="cls-25" d="M177.42,249.09c5.27-19.72,25.51-21.74,41.66-5.19,9.19,9.42,14.28,23.54,12.67,39.97-1.73,18.17-15.97,27.08-32.7,15.02-15.48-11.15-26.46-31.69-21.62-49.8Z"/>
            <path class="cls-41" d="M178.23,249.52c4.87-19.33,24.82-21.24,40.35-5.08,9.04,9.41,13.82,23.13,12.31,38.89-1.62,17.51-15.43,26.28-31.78,14.37-14.88-10.84-25.33-30.52-20.88-48.18Z"/>
            <path class="cls-12" d="M179.03,249.94c4.47-18.95,24.12-20.75,39.04-4.96,8.89,9.4,13.37,22.73,11.95,37.8-1.52,16.85-14.9,25.49-30.86,13.72-14.27-10.53-24.2-29.34-20.14-46.56Z"/>
            <path class="cls-7" d="M179.84,250.36c4.07-18.57,23.42-20.24,37.73-4.85,8.73,9.4,12.88,22.31,11.6,36.72-1.44,16.18-14.37,24.7-29.93,13.07-13.67-10.21-23.07-28.17-19.39-44.94Z"/>
            <path class="cls-15" d="M180.65,250.78c3.67-18.2,22.72-19.74,36.42-4.74,8.57,9.39,12.42,21.91,11.24,35.63-1.34,15.52-13.84,23.9-29.01,12.42-13.07-9.89-21.94-26.99-18.65-43.32Z"/>
            <path class="cls-24" d="M181.45,251.21c3.27-17.82,22.02-19.23,35.11-4.62,8.41,9.39,11.96,21.5,10.88,34.55-1.23,14.86-13.31,23.12-28.08,11.77-12.47-9.57-20.82-25.82-17.9-41.7Z"/>
            <path class="cls-21" d="M182.26,251.63c2.87-17.44,21.31-18.72,33.8-4.51,8.25,9.39,11.5,21.09,10.53,33.46-1.12,14.19-12.78,22.33-27.16,11.13-11.87-9.25-19.69-24.65-17.16-40.08Z"/>
            <path class="cls-36" d="M183.06,252.05c2.46-17.06,20.59-18.2,32.48-4.4,8.09,9.39,11.05,20.68,10.17,32.38-1.02,13.53-12.25,21.54-26.24,10.48-11.28-8.93-18.57-23.48-16.42-38.46Z"/>
            <path class="cls-14" d="M183.87,252.47c2.05-16.69,19.88-17.68,31.17-4.28,7.93,9.4,10.59,20.27,9.81,31.29-.91,12.87-11.73,20.76-25.31,9.83-10.68-8.6-17.45-22.3-15.67-36.84Z"/>
            <path class="cls-39" d="M184.68,252.89c1.64-16.31,19.15-17.15,29.86-4.17,7.76,9.4,10.13,19.87,9.46,30.21-.8,12.21-11.21,19.98-24.39,9.18-10.09-8.27-16.34-21.13-14.93-35.21Z"/>
            <path class="cls-38" d="M185.48,253.32c1.22-15.94,18.43-16.62,28.55-4.06,7.59,9.41,9.68,19.46,9.1,29.12-.69,11.55-10.69,19.21-23.47,8.53-9.5-7.94-15.23-19.96-14.18-33.59Z"/>
            <path class="cls-5" d="M186.29,253.74c.8-15.57,17.69-16.09,27.24-3.94,7.41,9.43,9.22,19.05,8.74,28.04-.58,10.88-10.17,18.44-22.54,7.88-8.91-7.6-14.12-18.79-13.44-31.97Z"/>
            <path class="cls-29" d="M187.1,254.16c.37-15.19,16.96-15.55,25.93-3.83,7.23,9.44,8.77,18.64,8.38,26.95-.47,10.22-9.66,17.67-21.62,7.23-8.33-7.26-13.01-17.62-12.69-30.35Z"/>
            <path class="cls-26" d="M187.9,254.58c-.05-14.82,16.21-15.01,24.62-3.72,7.04,9.46,8.32,18.23,8.03,25.87-.36,9.56-9.15,16.91-20.7,6.58-7.74-6.92-11.91-16.45-11.95-28.73Z"/>
            <path class="cls-22" d="M188.71,255.01c-.49-14.44,15.46-14.46,23.31-3.6,6.85,9.49,7.86,17.83,7.67,24.78-.25,8.9-8.64,16.15-19.77,5.93-7.16-6.58-10.81-15.28-11.21-27.11Z"/>
            <path class="cls-3" d="M189.52,255.43c-.93-14.06,14.71-13.92,22-3.49,6.65,9.52,7.41,17.42,7.31,23.69-.13,8.24-8.15,15.4-18.85,5.28-6.59-6.23-9.71-14.11-10.46-25.49Z"/>
            <path class="cls-28" d="M190.32,255.85c-1.37-13.68,13.95-13.37,20.69-3.38s6.97,17.01,6.96,22.61c-.01,7.58-7.66,14.66-17.93,4.63-6.02-5.88-8.62-12.93-9.72-23.87Z"/>
            <path class="cls-11" d="M191.13,256.27c-1.82-13.3,13.17-12.81,19.38-3.26,6.22,9.59,6.52,16.6,6.6,21.52.12,6.91-7.19,13.93-17,3.98-5.45-5.53-7.53-11.76-8.97-22.25Z"/>
          </g>
          <g class="cls-33">
            <path class="cls-16" d="M111.29,237.64c19.32-11.21,36.84,1.31,38.64,27.19.94,13.61-4.89,29.49-19.2,42.38-15.54,14-33.72,10.37-38.83-11.27-5.02-21.19,1.33-47.81,19.38-58.3Z"/>
            <path class="cls-18" d="M111.47,238.45c18.66-10.96,35.78.98,37.5,26.17.89,13.48-4.97,29.02-18.75,41.47-15.01,13.59-32.71,10.18-37.6-11.1-4.8-20.55,1.42-46.31,18.85-56.55Z"/>
            <path class="cls-35" d="M111.64,239.25c18-10.71,34.72.66,36.35,25.16.85,13.34-5.04,28.55-18.3,40.56-14.49,13.17-31.63,9.97-36.37-10.93-4.52-19.92,1.51-44.8,18.32-54.8Z"/>
            <path class="cls-10" d="M111.81,240.06c17.35-10.47,33.71.33,35.21,24.15.83,13.2-5.12,28.07-17.84,39.65-13.97,12.75-30.6,9.77-35.15-10.75-4.28-19.29,1.6-43.3,17.78-53.04Z"/>
            <path class="cls-25" d="M111.99,240.86c16.69-10.22,32.66.01,34.06,23.13.79,13.07-5.2,27.6-17.39,38.74-13.44,12.33-29.56,9.57-33.92-10.58-4.04-18.65,1.69-41.79,17.25-51.29Z"/>
            <path class="cls-41" d="M112.16,241.67c16.03-9.97,31.61-.31,32.92,22.12.75,12.93-5.27,27.13-16.94,37.83-12.92,11.91-28.53,9.38-32.69-10.41-3.8-18.02,1.78-40.28,16.72-49.54Z"/>
            <path class="cls-12" d="M112.33,242.48c15.38-9.72,30.56-.64,31.78,21.1.71,12.8-5.35,26.65-16.49,36.92-12.4,11.49-27.49,9.18-31.47-10.24-3.56-17.38,1.87-38.78,16.18-47.79Z"/>
            <path class="cls-7" d="M112.51,243.28c14.72-9.47,29.51-.96,30.63,20.09.67,12.66-5.42,26.18-16.04,36.01-11.87,11.07-26.46,8.99-30.24-10.07-3.32-16.74,1.97-37.27,15.65-46.04Z"/>
            <path class="cls-15" d="M112.68,244.09c14.06-9.22,28.46-1.29,29.49,19.08.63,12.52-5.5,25.7-15.59,35.1-11.35,10.66-25.43,8.79-29.01-9.89-3.09-16.1,2.06-35.77,15.11-44.28Z"/>
            <path class="cls-24" d="M112.86,244.9c13.41-8.98,27.4-1.61,28.34,18.06.59,12.39-5.6,25.21-15.14,34.19-10.85,10.21-24.4,8.6-27.79-9.72-2.86-15.46,2.15-34.26,14.58-42.53Z"/>
            <path class="cls-21" d="M113.03,245.7c12.75-8.73,26.34-1.93,27.2,17.05.55,12.25-5.67,24.74-14.68,33.28-10.33,9.79-23.38,8.4-26.56-9.55-2.63-14.82,2.24-32.75,14.05-40.78Z"/>
            <path class="cls-36" d="M113.2,246.51c12.09-8.48,25.29-2.26,26.05,16.04.51,12.12-5.75,24.26-14.23,32.37-9.81,9.37-22.35,8.21-25.33-9.38-2.4-14.18,2.33-31.25,13.51-39.03Z"/>
            <path class="cls-14" d="M113.38,247.32c11.45-8.21,24.23-2.58,24.91,15.02.46,11.98-5.83,23.79-13.78,31.46-9.29,8.95-21.33,8.02-24.11-9.2-2.18-13.54,2.44-29.72,12.98-37.27Z"/>
            <path class="cls-39" d="M113.55,248.12c10.8-7.96,23.17-2.9,23.76,14.01.42,11.85-5.9,23.31-13.33,30.55-8.76,8.53-20.32,7.82-22.88-9.03-1.96-12.9,2.53-28.21,12.44-35.52Z"/>
            <path class="cls-38" d="M113.72,248.93c10.14-7.71,22.1-3.23,22.62,12.99.37,11.71-5.98,22.84-12.88,29.64-8.24,8.12-19.3,7.63-21.65-8.86-1.75-12.26,2.62-26.71,11.91-33.77Z"/>
            <path class="cls-5" d="M113.9,249.73c9.49-7.46,21.04-3.55,21.48,11.98.33,11.57-6.05,22.37-12.43,28.72-7.72,7.7-18.3,7.44-20.43-8.69-1.53-11.62,2.71-25.2,11.38-32.02Z"/>
            <path class="cls-29" d="M114.07,250.54c8.83-7.21,19.97-3.87,20.33,10.97.28,11.44-6.13,21.9-11.97,27.81-7.19,7.28-17.29,7.25-19.2-8.52-1.33-10.97,2.8-23.7,10.84-30.27Z"/>
            <path class="cls-26" d="M114.24,251.35c8.17-6.97,18.9-4.19,19.19,9.95.23,11.3-6.2,21.43-11.52,26.9-6.67,6.86-16.3,7.06-17.97-8.34-1.12-10.33,2.9-22.19,10.31-28.51Z"/>
            <path class="cls-22" d="M114.42,252.15c7.52-6.72,17.83-4.52,18.04,8.94.17,11.17-6.27,20.95-11.07,25.99-6.14,6.45-15.31,6.87-16.75-8.17-.92-9.68,2.99-20.69,9.78-26.76Z"/>
            <path class="cls-3" d="M114.59,252.96c6.86-6.47,16.76-4.84,16.9,7.93.12,11.03-6.35,20.49-10.62,25.08-5.61,6.04-14.34,6.69-15.52-8-.73-9.04,3.08-19.19,9.24-25.01Z"/>
            <path class="cls-28" d="M114.76,253.77c6.2-6.23,15.67-5.16,15.75,6.91.04,10.9-6.41,20.02-10.17,24.17-5.07,5.63-13.37,6.5-14.29-7.83-.54-8.4,3.16-17.68,8.71-23.26Z"/>
            <path class="cls-11" d="M114.94,254.57c5.53-6,14.61-5.49,14.61,5.9,0,10.76-6.48,19.55-9.72,23.26-4.55,5.21-12.43,6.31-13.07-7.66-.36-7.75,3.24-16.19,8.17-21.5Z"/>
          </g>
          <g class="cls-33">
            <path class="cls-16" d="M73.62,182.68c22.06,3.46,27.9,21.52,12.98,42.75-7.84,11.15-25.31,16.82-44.55,17.81-20.89,1.07-32.71-13.22-23.04-33.24,9.47-19.61,33.97-30.57,54.61-27.32Z"/>
            <path class="cls-18" d="M73.13,183.27c21.39,3.24,27.26,20.6,12.71,41.25-7.79,11.02-24.93,16.54-43.49,17.53-20.22,1.08-31.81-12.73-22.19-32.33,9.24-18.97,32.98-29.48,52.97-26.44Z"/>
            <path class="cls-35" d="M72.63,183.87c20.73,3.02,26.62,19.69,12.44,39.74-7.74,10.88-24.55,16.27-42.42,17.25-19.55,1.08-30.85-12.22-21.35-31.43,9.06-18.31,31.98-28.4,51.33-25.56Z"/>
            <path class="cls-10" d="M72.14,184.46c20.06,2.8,25.98,18.77,12.17,38.23-7.69,10.75-24.18,16-41.36,16.97-18.88,1.09-29.92-11.72-20.51-30.52,8.84-17.67,30.98-27.32,49.7-24.68Z"/>
            <path class="cls-25" d="M71.65,185.05c19.39,2.58,25.39,17.88,11.9,36.72-7.61,10.63-23.8,15.73-40.29,16.69-18.21,1.09-28.99-11.22-19.66-29.61,8.63-17.02,29.98-26.23,48.06-23.8Z"/>
            <path class="cls-41" d="M71.16,185.65c18.73,2.35,24.75,16.97,11.63,35.21-7.56,10.5-23.42,15.45-39.23,16.41-17.54,1.1-28.06-10.72-18.82-28.7,8.41-16.38,28.99-25.15,46.42-22.92Z"/>
            <path class="cls-12" d="M70.66,186.24c18.06,2.13,24.12,16.05,11.35,33.7-7.5,10.37-23.04,15.18-38.16,16.13-16.87,1.1-27.13-10.22-17.98-27.8,8.2-15.73,27.99-24.07,44.78-22.04Z"/>
            <path class="cls-7" d="M70.17,186.83c17.4,1.91,23.49,15.14,11.08,32.19-7.45,10.24-22.66,14.91-37.1,15.85-16.2,1.11-26.21-9.72-17.13-26.89,7.98-15.09,26.99-22.98,43.14-21.16Z"/>
            <path class="cls-15" d="M69.68,187.43c16.73,1.69,22.85,14.22,10.81,30.69-7.39,10.11-22.28,14.64-36.03,15.57-15.53,1.11-25.29-9.22-16.29-25.98,7.76-14.45,25.99-21.9,41.51-20.28Z"/>
            <path class="cls-24" d="M69.19,188.02c16.06,1.47,22.22,13.31,10.54,29.18-7.34,9.98-21.9,14.36-34.97,15.29-14.86,1.12-24.36-8.72-15.45-25.07,7.53-13.8,25-20.81,39.87-19.4Z"/>
            <path class="cls-21" d="M68.69,188.61c15.4,1.25,21.58,12.39,10.27,27.67-7.29,9.85-21.52,14.06-33.9,15.01-14.19,1.09-23.44-8.23-14.6-24.16,7.3-13.16,24-19.73,38.23-18.52Z"/>
            <path class="cls-36" d="M68.2,189.21c14.73,1.06,20.94,11.47,10,26.16-7.24,9.72-21.15,13.79-32.84,14.73-13.52,1.09-22.53-7.73-13.76-23.26,7.08-12.53,23-18.62,36.59-17.64Z"/>
            <path class="cls-14" d="M67.71,189.8c14.06.85,20.3,10.55,9.73,24.65-7.18,9.58-20.77,13.52-31.77,14.45-12.85,1.09-21.61-7.24-12.91-22.35,6.84-11.89,22-17.53,34.96-16.75Z"/>
            <path class="cls-39" d="M67.22,190.39c13.4.63,19.66,9.63,9.46,23.14-7.13,9.45-20.39,13.24-30.71,14.17-12.18,1.1-20.7-6.74-12.07-21.44,6.61-11.25,21.01-16.45,33.32-15.87Z"/>
            <path class="cls-38" d="M66.72,190.99c12.73.41,19.02,8.71,9.19,21.63-7.08,9.31-20.01,12.97-29.64,13.89-11.51,1.1-19.8-6.25-11.23-20.53,6.37-10.62,20.01-15.37,31.68-14.99Z"/>
            <path class="cls-5" d="M66.23,191.58c12.06.19,18.37,7.79,8.92,20.13-7.03,9.18-19.63,12.7-28.58,13.61-10.84,1.11-18.89-5.77-10.38-19.63,6.13-9.98,19.01-14.28,30.04-14.11Z"/>
            <path class="cls-29" d="M65.74,192.17c11.4-.04,17.73,6.87,8.65,18.62-6.99,9.04-19.25,12.43-27.51,13.33-10.17,1.11-18-5.28-9.54-18.72,5.89-9.35,18.01-13.2,28.4-13.23Z"/>
            <path class="cls-26" d="M65.25,192.77c10.73-.26,17.08,5.94,8.38,17.11-6.94,8.91-18.87,12.16-26.45,13.05-9.5,1.12-17.1-4.8-8.7-17.81,5.64-8.72,17.02-12.12,26.77-12.35Z"/>
            <path class="cls-22" d="M64.75,193.36c10.07-.48,16.43,5.02,8.11,15.6-6.9,8.77-18.49,11.89-25.38,12.77-8.83,1.13-16.22-4.32-7.85-16.9,5.39-8.1,16.02-11.04,25.13-11.47Z"/>
            <path class="cls-3" d="M64.26,193.95c9.4-.7,15.78,4.09,7.84,14.09-6.85,8.63-18.11,11.62-24.32,12.49-8.16,1.14-15.34-3.85-7.01-16,5.13-7.48,15.02-9.96,23.49-10.59Z"/>
            <path class="cls-28" d="M63.77,194.55c8.74-.93,15.11,3.15,7.57,12.58-6.83,8.47-17.73,11.37-23.25,12.21-7.49,1.17-14.47-3.39-6.17-15.09,4.87-6.86,14.03-8.88,21.85-9.71Z"/>
            <path class="cls-11" d="M63.28,195.14c8.07-1.17,14.47,2.23,7.29,11.07-6.78,8.34-17.35,11.09-22.19,11.93-6.82,1.17-13.63-2.95-5.32-14.18,4.6-6.25,13.03-7.81,20.21-8.83Z"/>
          </g>
          <g class="cls-33">
            <path class="cls-16" d="M233.87,190.2c-19.01-17.4-11.28-41.02,16.6-51.93,14.65-5.74,34.15-4.8,53.28,6.5,20.78,12.27,23.07,33.55,1,46.66-21.61,12.83-53.1,15.04-70.88-1.23Z"/>
            <path class="cls-18" d="M235.07,189.47c-18.81-16.79-11.18-39.92,16-50.41,14.57-5.56,33.7-4.49,52.17,6.39,20.14,11.83,22.4,32.51.66,45.25-20.98,12.37-51.33,14.43-68.82-1.23Z"/>
            <path class="cls-35" d="M236.27,188.75c-18.61-16.17-11.12-38.93,15.39-48.89,14.48-5.44,33.25-4.18,51.05,6.27,19.5,11.4,21.7,31.41.32,43.85s-49.55,13.82-66.76-1.23Z"/>
            <path class="cls-10" d="M237.46,188.02c-18.37-15.61-11.03-37.89,14.78-47.37,14.39-5.28,32.8-3.86,49.93,6.16,18.86,10.97,21.02,30.35-.02,42.44-19.76,11.37-47.75,13.17-64.7-1.24Z"/>
            <path class="cls-25" d="M238.66,187.3c-18.16-15.01-10.94-36.84,14.18-45.84,14.31-5.13,32.35-3.55,48.82,6.04,18.22,10.54,20.34,29.28-.35,41.04-19.15,10.88-45.96,12.55-62.64-1.24Z"/>
            <path class="cls-41" d="M239.86,186.58c-17.95-14.41-10.85-35.78,13.57-44.32,14.22-4.97,31.89-3.23,47.7,5.93,17.58,10.11,19.66,28.21-.69,39.63-18.53,10.4-44.18,11.92-60.58-1.24Z"/>
            <path class="cls-12" d="M241.05,185.85c-17.74-13.81-10.76-34.72,12.96-42.8,14.14-4.81,31.44-2.92,46.59,5.81,16.94,9.68,18.99,27.15-1.03,38.23-17.91,9.91-42.41,11.3-58.52-1.24Z"/>
            <path class="cls-7" d="M242.25,185.13c-17.54-13.21-10.67-33.65,12.36-41.28,14.06-4.65,30.97-2.57,45.47,5.7,16.27,9.28,18.31,26.08-1.37,36.82-17.29,9.44-40.63,10.68-56.46-1.24Z"/>
            <path class="cls-15" d="M243.45,184.4c-17.33-12.61-10.57-32.58,11.75-39.75,13.98-4.49,30.52-2.25,44.36,5.58,15.63,8.85,17.64,25.02-1.7,35.42-16.66,8.96-38.85,10.06-54.4-1.25Z"/>
            <path class="cls-24" d="M244.65,183.68c-17.13-12-10.47-31.51,11.14-38.23,13.9-4.33,30.07-1.94,43.24,5.47,14.99,8.43,16.96,23.96-2.04,34.01-16.04,8.48-37.08,9.45-52.34-1.25Z"/>
            <path class="cls-21" d="M245.84,182.95c-16.92-11.4-10.37-30.42,10.54-36.71,13.82-4.16,29.62-1.62,42.13,5.35,14.35,8,16.29,22.9-2.38,32.61-15.41,8.01-35.31,8.83-50.28-1.25Z"/>
            <path class="cls-36" d="M247.04,182.23c-16.73-10.79-10.26-29.33,9.93-35.19,13.75-3.99,29.17-1.3,41.01,5.24,13.71,7.57,15.62,21.85-2.72,31.2-14.78,7.54-33.54,8.22-48.22-1.25Z"/>
            <path class="cls-14" d="M248.24,181.5c-16.53-10.18-10.16-28.24,9.32-33.66,13.67-3.81,28.71-.99,39.89,5.12,13.06,7.14,14.95,20.79-3.06,29.8-14.15,7.07-31.77,7.61-46.16-1.25Z"/>
            <path class="cls-39" d="M249.43,180.78c-16.33-9.56-10.05-27.13,8.72-32.14,13.6-3.63,28.26-.67,38.78,5,12.42,6.71,14.29,19.75-3.39,28.39-13.52,6.61-30,7-44.1-1.25Z"/>
            <path class="cls-38" d="M250.63,180.05c-16.14-8.95-9.94-26.02,8.11-30.62,13.53-3.44,27.81-.36,37.66,4.89,11.78,6.28,13.62,18.7-3.73,26.99-12.89,6.15-28.24,6.4-42.04-1.26Z"/>
            <path class="cls-5" d="M251.83,179.33c-15.95-8.32-9.83-24.91,7.51-29.1,13.46-3.25,27.36-.05,36.55,4.77,11.14,5.85,12.96,17.66-4.07,25.58-12.25,5.7-26.48,5.79-39.98-1.26Z"/>
            <path class="cls-29" d="M253.02,178.61c-15.76-7.7-9.71-23.78,6.9-27.57,13.39-3.06,26.91.27,35.43,4.66,10.5,5.41,12.3,16.63-4.41,24.17-11.61,5.24-24.71,5.2-37.92-1.26Z"/>
            <path class="cls-26" d="M254.22,177.88c-15.57-7.07-9.6-22.65,6.29-26.05,13.32-2.85,26.46.58,34.32,4.54,9.86,4.98,11.65,15.6-4.74,22.77-10.97,4.8-22.95,4.6-35.87-1.26Z"/>
            <path class="cls-22" d="M255.42,177.16c-15.38-6.43-9.48-21.51,5.69-24.53,13.25-2.64,26.01.89,33.2,4.43,9.22,4.54,10.99,14.59-5.08,21.36-10.33,4.36-21.2,4.01-33.81-1.26Z"/>
            <path class="cls-3" d="M256.62,176.43c-15.2-5.79-9.37-20.36,5.08-23.01,13.19-2.41,25.57,1.2,32.08,4.31,8.59,4.1,10.35,13.58-5.42,19.96-9.69,3.92-19.44,3.43-31.75-1.27Z"/>
            <path class="cls-28" d="M257.81,175.71c-15.01-5.14-9.25-19.21,4.47-21.48s25.12,1.5,30.97,4.2c7.95,3.66,9.7,12.59-5.76,18.55-9.04,3.49-17.68,2.85-29.69-1.27Z"/>
            <path class="cls-11" d="M259.01,174.98c-14.82-4.49-9.14-18.05,3.87-19.96,13.06-1.93,24.68,1.8,29.85,4.08,7.32,3.2,9.06,11.62-6.09,17.15-8.4,3.07-15.92,2.27-27.63-1.27Z"/>
          </g>
          <g class="cls-33">
            <path class="cls-16" d="M231.14,128.87c-25.78.04-36.04-22.6-22.9-49.49,6.93-14.12,21.93-26.62,43.66-31.23,23.61-5,40.58,15.27,33.17,39.86-7.25,24.06-29.83,40.82-53.94,40.86Z"/>
            <path class="cls-18" d="M231.53,127.53c-25.22.36-35.31-21.9-22.32-47.96,6.96-13.96,21.81-26.08,42.76-30.56,22.85-4.88,39.34,14.66,31.93,38.76-7.1,23.3-28.9,39.47-52.38,39.76Z"/>
            <path class="cls-35" d="M231.92,126.18c-24.65.68-34.54-21.19-21.73-46.43,7-13.79,21.69-25.55,41.86-29.89,22.08-4.77,38.04,14.03,30.69,37.66-7,22.51-27.97,38.12-50.82,38.66Z"/>
            <path class="cls-10" d="M232.31,124.84c-24.09.93-33.77-20.47-21.15-44.9,7.04-13.62,21.57-25.01,40.96-29.22,21.32-4.65,36.78,13.41,29.45,36.56-6.88,21.74-27.03,36.7-49.26,37.56Z"/>
            <path class="cls-25" d="M232.71,123.5c-23.53,1.22-33-19.76-20.57-43.36,7.08-13.44,21.45-24.47,40.06-28.56,20.56-4.54,35.51,12.79,28.21,35.46-6.75,20.96-26.1,35.33-47.7,36.46Z"/>
            <path class="cls-41" d="M233.1,122.15c-22.97,1.52-32.21-19.04-19.98-41.83,7.12-13.27,21.33-23.94,39.16-27.89,19.79-4.42,34.25,12.18,26.97,34.36-6.62,20.19-25.17,33.97-46.15,35.36Z"/>
            <path class="cls-12" d="M233.49,120.81c-22.41,1.82-31.43-18.32-19.4-40.3,7.17-13.1,21.21-23.4,38.26-27.22,19.03-4.31,32.99,11.56,25.73,33.26-6.49,19.41-24.24,32.6-44.59,34.26Z"/>
            <path class="cls-7" d="M233.88,119.47c-21.85,2.13-30.64-17.6-18.82-38.77,7.21-12.93,21.09-22.86,37.36-26.55,18.26-4.19,31.73,10.94,24.49,32.16-6.36,18.64-23.31,31.24-43.03,33.16Z"/>
            <path class="cls-15" d="M234.27,118.13c-21.29,2.43-29.84-16.87-18.24-37.24,7.27-12.75,20.97-22.33,36.46-25.88,17.5-4.08,30.47,10.32,23.25,31.06-6.22,17.87-22.37,29.87-41.47,32.06Z"/>
            <path class="cls-24" d="M234.67,116.78c-20.73,2.74-29.03-16.14-17.65-35.71,7.32-12.58,20.86-21.76,35.56-25.21,16.74-3.93,29.22,9.7,22.01,29.96-6.08,17.1-21.44,28.51-39.91,30.96Z"/>
            <path class="cls-21" d="M235.06,115.44c-20.18,3.05-28.23-15.41-17.07-34.17,7.37-12.4,20.74-21.22,34.66-24.54,15.98-3.81,27.96,9.08,20.77,28.86-5.94,16.33-20.51,27.16-38.36,29.86Z"/>
            <path class="cls-36" d="M235.45,114.1c-19.62,3.37-27.41-14.68-16.49-32.64,7.43-12.22,20.62-20.68,33.76-23.87,15.21-3.69,26.71,8.47,19.53,27.76-5.8,15.56-19.58,25.8-36.8,28.76Z"/>
            <path class="cls-14" d="M235.84,112.75c-19.06,3.68-26.59-13.94-15.9-31.11,7.5-12.04,20.5-20.15,32.86-23.21,14.45-3.58,25.47,7.85,18.29,26.66-5.65,14.79-18.65,24.45-35.24,27.66Z"/>
            <path class="cls-39" d="M236.23,111.41c-18.5,4-25.76-13.2-15.32-29.58,7.56-11.86,20.38-19.61,31.96-22.54,13.69-3.46,24.23,7.24,17.04,25.56-5.5,14.02-17.72,23.1-33.68,26.56Z"/>
            <path class="cls-38" d="M236.63,110.07c-17.94,4.33-24.93-12.46-14.74-28.05,7.64-11.67,20.26-19.07,31.06-21.87,12.92-3.34,22.99,6.62,15.8,24.46-5.34,13.25-16.79,21.76-32.13,25.46Z"/>
            <path class="cls-5" d="M237.02,108.72c-17.38,4.65-24.09-11.71-14.15-26.52,7.71-11.49,20.14-18.54,30.16-21.2,12.16-3.23,21.76,6.01,14.56,23.36-5.18,12.49-15.86,20.42-30.57,24.36Z"/>
            <path class="cls-29" d="M237.41,107.38c-16.81,4.99-23.25-10.96-13.57-24.98,7.79-11.29,20.02-18,29.26-20.53,11.39-3.12,20.53,5.41,13.32,22.26-5.02,11.72-14.92,19.08-29.01,23.26Z"/>
            <path class="cls-26" d="M237.8,106.04c-16.25,5.32-22.4-10.2-12.99-23.45,7.88-11.1,19.89-17.47,28.36-19.86,10.63-3,19.32,4.8,12.08,21.16-4.85,10.96-13.99,17.74-27.45,22.15Z"/>
            <path class="cls-22" d="M238.19,104.7c-15.68,5.66-21.54-9.44-12.4-21.92,7.97-10.89,19.77-16.94,27.46-19.19,9.86-2.89,18.11,4.2,10.84,20.06-4.68,10.21-13.05,16.41-25.89,21.05Z"/>
            <path class="cls-3" d="M238.59,103.35c-15.11,6.01-20.68-8.67-11.82-20.39,8.08-10.68,19.65-16.41,26.56-18.52,9.09-2.79,16.91,3.61,9.6,18.96-4.5,9.45-12.11,15.09-24.34,19.95Z"/>
            <path class="cls-28" d="M238.98,102.01c-14.53,6.37-19.81-7.89-11.24-18.86s19.52-15.89,25.66-17.86c8.32-2.69,15.72,3.02,8.36,17.86-4.32,8.7-11.16,13.77-22.78,18.85Z"/>
            <path class="cls-11" d="M239.37,100.67c-13.96,6.72-18.94-7.11-10.65-17.32,8.31-10.23,19.4-15.35,24.76-17.19,7.56-2.58,14.54,2.44,7.12,16.76-4.13,7.95-10.21,12.44-21.22,17.75Z"/>
          </g>
          <g class="cls-33">
            <path class="cls-16" d="M193.48,83.97c-17.62,18.81-45.83,12.23-56.41-15.78-5.57-14.71-4.4-34.22,7.12-53.2,12.52-20.62,43.67-20.02,56.52,2.21,12.58,21.74,9.24,49.2-7.24,66.78Z"/>
            <path class="cls-18" d="M192.55,82.83c-17,18.62-44.51,12.07-54.67-15.23-5.39-14.63-4.1-33.76,6.99-52.09,12.08-19.99,42.15-19.49,54.65,2.4,12.12,21.11,8.9,47.62-6.97,64.91Z"/>
            <path class="cls-35" d="M191.61,81.69c-16.42,18.39-43.29,11.95-52.93-14.67-5.26-14.53-3.79-33.31,6.86-50.97,11.64-19.35,40.58-18.93,52.77,2.6s8.52,46-6.7,63.05Z"/>
            <path class="cls-10" d="M190.68,80.56c-15.82,18.19-42.03,11.81-51.19-14.11-5.11-14.44-3.48-32.85,6.73-49.86,11.2-18.72,39.03-18.39,50.89,2.79,11.13,19.88,8.16,44.41-6.43,61.18Z"/>
            <path class="cls-25" d="M189.75,79.42c-15.22,17.98-40.75,11.67-49.45-13.56-4.95-14.36-3.17-32.4,6.61-48.75,10.76-18.08,37.49-17.85,49.01,2.98,10.65,19.26,7.81,42.81-6.16,59.32Z"/>
            <path class="cls-41" d="M188.82,78.28c-14.62,17.78-39.47,11.52-47.72-13-4.8-14.27-2.86-31.94,6.48-47.63C157.9.2,183.52.34,194.71,20.83c10.18,18.64,7.45,41.22-5.89,57.45Z"/>
            <path class="cls-12" d="M187.88,77.14c-14.01,17.58-38.19,11.37-45.98-12.44-4.64-14.19-2.55-31.48,6.35-46.52,9.89-16.81,34.4-16.77,45.26,3.37,9.7,18.01,7.1,39.63-5.63,55.59Z"/>
            <path class="cls-7" d="M186.95,76.01c-13.41,17.38-36.9,11.22-44.24-11.89-4.48-14.1-2.24-31.03,6.22-45.4,9.45-16.18,32.87-16.24,43.38,3.57,9.23,17.39,6.75,38.04-5.36,53.72Z"/>
            <path class="cls-15" d="M186.02,74.87c-12.8,17.18-35.6,11.07-42.5-11.33-4.32-14.02-1.9-30.56,6.09-44.29,9.04-15.53,31.33-15.7,41.5,3.76,8.76,16.76,6.39,36.45-5.09,51.86Z"/>
            <path class="cls-24" d="M185.08,73.73c-12.2,16.99-34.3,10.91-40.77-10.78-4.16-13.94-1.59-30.1,5.96-43.18,8.6-14.89,29.79-15.17,39.62,3.96,8.29,16.13,6.04,34.86-4.82,49.99Z"/>
            <path class="cls-21" d="M184.15,72.59c-11.59,16.79-32.99,10.76-39.03-10.22-3.99-13.86-1.28-29.64,5.84-42.06,8.17-14.25,28.26-14.63,37.75,4.15,7.83,15.5,5.7,33.28-4.55,48.13Z"/>
            <path class="cls-36" d="M183.22,71.46c-10.98,16.6-31.68,10.6-37.29-9.66-3.82-13.78-.97-29.19,5.71-40.95,7.73-13.62,26.73-14.1,35.87,4.35,7.37,14.87,5.35,31.7-4.28,46.26Z"/>
            <path class="cls-14" d="M182.28,70.32c-10.36,16.41-30.36,10.44-35.55-9.11-3.64-13.71-.66-28.73,5.58-39.83,7.29-12.98,25.2-13.57,33.99,4.54,6.91,14.23,5.01,30.12-4.02,44.4Z"/>
            <path class="cls-39" d="M181.35,69.18c-9.75,16.22-29.03,10.27-33.81-8.55-3.46-13.63-.35-28.27,5.45-38.72,6.85-12.34,23.68-13.05,32.11,4.73,6.45,13.6,4.66,28.54-3.75,42.54Z"/>
            <path class="cls-38" d="M180.42,68.04c-9.13,16.04-27.7,10.11-32.08-7.99-3.28-13.56-.04-27.82,5.32-37.6,6.42-11.71,22.16-12.52,30.23,4.93,6,12.96,4.33,26.96-3.48,40.67Z"/>
            <path class="cls-5" d="M179.48,66.91c-8.51,15.85-26.36,9.94-30.34-7.44-3.09-13.48.27-27.36,5.19-36.49,5.98-11.07,20.64-12,28.36,5.12,5.55,12.32,3.99,25.38-3.21,38.81Z"/>
            <path class="cls-29" d="M178.55,65.77c-7.88,15.67-25.01,9.77-28.6-6.88-2.89-13.41.58-26.91,5.07-35.38,5.54-10.44,19.14-11.48,26.48,5.32,5.11,11.68,3.66,23.81-2.94,36.94Z"/>
            <path class="cls-26" d="M177.62,64.63c-7.25,15.49-23.65,9.6-26.86-6.33-2.69-13.34.88-26.46,4.94-34.26,5.09-9.81,17.64-10.96,24.6,5.51,4.67,11.04,3.33,22.24-2.67,35.08Z"/>
            <path class="cls-22" d="M176.68,63.49c-6.61,15.31-22.29,9.43-25.13-5.77-2.48-13.27,1.19-26,4.81-33.15,4.65-9.17,16.14-10.45,22.72,5.71,4.23,10.4,3.01,20.67-2.41,33.21Z"/>
            <path class="cls-3" d="M175.75,62.36c-5.96,15.14-20.92,9.26-23.39-5.21-2.25-13.2,1.49-25.55,4.68-32.03,4.2-8.54,14.66-9.94,20.85,5.9,3.8,9.75,2.69,19.1-2.14,31.35Z"/>
            <path class="cls-28" d="M174.82,61.22c-5.31,14.96-19.54,9.09-21.65-4.66s1.78-25.1,4.55-30.92c3.74-7.92,13.2-9.43,18.97,6.09,3.38,9.1,2.37,17.53-1.87,29.48Z"/>
            <path class="cls-11" d="M173.88,60.08c-4.65,14.79-18.14,8.93-19.91-4.1-1.77-13.07,2.09-24.65,4.42-29.8,3.3-7.29,11.74-8.93,17.09,6.29,2.96,8.46,2.07,15.96-1.6,27.62Z"/>
          </g>
          <g class="cls-33">
            <path class="cls-16" d="M133.81,115.24c-6.12,25.02-30.58,29.59-53.52,10.37-12.07-10.12-20.62-27.66-19.87-49.88.78-24.12,18.36-36.33,40.45-23.26,21.63,12.79,38.68,39.36,32.94,62.77Z"/>
            <path class="cls-18" d="M132.6,114.53c-5.68,24.55-29.71,29.02-51.89,10.17-11.9-10.11-20.12-27.41-19.44-48.85.71-23.35,17.76-35.24,39.38-22.29,20.92,12.47,37.3,38.1,31.95,60.97Z"/>
            <path class="cls-35" d="M131.39,113.83c-5.29,24.07-28.83,28.45-50.26,9.97-11.72-10.11-19.63-27.17-19.01-47.81.64-22.58,17.14-34.11,38.31-21.32s35.87,36.82,30.96,59.16Z"/>
            <path class="cls-10" d="M130.18,113.13c-4.87,23.6-27.95,27.87-48.64,9.77-11.55-10.1-19.14-26.92-18.57-46.78.57-21.81,16.53-33,37.24-20.35,19.46,11.88,34.46,35.56,29.97,57.36Z"/>
            <path class="cls-25" d="M128.97,112.43c-4.44,23.12-27.07,27.29-47.01,9.57-11.37-10.1-18.65-26.68-18.14-45.75.5-21.04,15.92-31.89,36.17-19.38,18.74,11.57,33.06,34.3,28.98,55.55Z"/>
            <path class="cls-41" d="M127.76,111.73c-4.02,22.65-26.19,26.71-45.38,9.38-11.19-10.11-18.15-26.43-17.7-44.71.43-20.27,15.31-30.78,35.1-18.41,18.02,11.26,31.66,33.04,27.99,53.75Z"/>
            <path class="cls-12" d="M126.55,111.02c-3.59,22.18-25.3,26.12-43.76,9.18-11.01-10.11-17.66-26.19-17.27-43.68.36-19.5,14.7-29.68,34.03-17.44,17.3,10.95,30.27,31.77,27,51.94Z"/>
            <path class="cls-7" d="M125.34,110.32c-3.16,21.71-24.41,25.52-42.13,8.98-10.83-10.11-17.13-25.94-16.84-42.64.33-18.73,14.09-28.58,32.96-16.47,16.58,10.64,28.87,30.51,26.01,50.14Z"/>
            <path class="cls-15" d="M124.13,109.62c-2.73,21.24-23.52,24.92-40.51,8.78-10.65-10.12-16.64-25.7-16.4-41.61.26-17.96,13.49-27.48,31.89-15.5,15.86,10.32,27.47,29.25,25.02,48.33Z"/>
            <path class="cls-24" d="M122.92,108.92c-2.3,20.77-22.62,24.31-38.88,8.58-10.47-10.13-16.14-25.45-15.97-40.57.2-17.19,12.88-26.38,30.82-14.53,15.14,10,26.08,28,24.03,46.53Z"/>
            <path class="cls-21" d="M121.71,108.22c-1.87,20.31-21.72,23.7-37.25,8.38-10.28-10.14-15.65-25.21-15.53-39.54.13-16.42,12.28-25.28,29.75-13.56,14.43,9.68,24.69,26.74,23.04,44.72Z"/>
            <path class="cls-36" d="M120.5,107.51c-1.43,19.84-20.81,23.09-35.63,8.18-10.1-10.16-15.15-24.97-15.1-38.51.06-15.65,11.67-24.19,28.68-12.59,13.72,9.35,23.31,25.48,22.05,42.92Z"/>
            <path class="cls-14" d="M119.29,106.81c-.99,19.37-19.9,22.47-34,7.98-9.9-10.18-14.66-24.72-14.67-37.47,0-14.88,11.07-23.1,27.61-11.62,13,9.03,21.92,24.22,21.06,41.11Z"/>
            <path class="cls-39" d="M118.08,106.11c-.54,18.91-18.99,21.84-32.37,7.78-9.71-10.2-14.17-24.48-14.23-36.44-.08-14.11,10.47-22.01,26.54-10.65,12.29,8.7,20.54,22.97,20.07,39.31Z"/>
            <path class="cls-38" d="M116.87,105.41c-.1,18.44-18.06,21.21-30.75,7.58-9.51-10.22-13.68-24.23-13.8-35.4-.15-13.34,9.88-20.93,25.47-9.68,11.59,8.36,19.16,21.71,19.08,37.5Z"/>
            <path class="cls-5" d="M115.66,104.7c.36,17.98-17.14,20.58-29.12,7.39-9.31-10.25-13.18-23.99-13.36-34.37-.22-12.57,9.29-19.85,24.4-8.71,10.88,8.02,17.79,20.45,18.09,35.69Z"/>
            <path class="cls-29" d="M114.45,104c.81,17.51-16.21,19.94-27.5,7.19-9.11-10.28-12.69-23.74-12.93-33.34-.29-11.8,8.7-18.78,23.33-7.74,10.18,7.68,16.42,19.2,17.1,33.89Z"/>
            <path class="cls-26" d="M113.24,103.3c1.27,17.05-15.27,19.29-25.87,6.99-8.89-10.32-12.21-23.5-12.5-32.3-.37-11.03,8.11-17.71,22.26-6.77,9.48,7.34,15.05,17.94,16.11,32.08Z"/>
            <path class="cls-22" d="M112.03,102.6c1.74,16.58-14.32,18.65-24.24,6.79-8.67-10.36-11.72-23.25-12.06-31.27-.44-10.26,7.54-16.66,21.19-5.8,8.79,6.99,13.69,16.68,15.12,30.28Z"/>
            <path class="cls-3" d="M110.82,101.9c2.22,16.11-13.37,17.99-22.62,6.59-8.44-10.41-11.23-23.01-11.63-30.23-.52-9.49,6.97-15.61,20.12-4.83,8.1,6.63,12.33,15.42,14.13,28.47Z"/>
            <path class="cls-28" d="M109.61,101.19c2.7,15.64-12.41,17.34-20.99,6.39s-10.75-22.77-11.2-29.2c-.6-8.72,6.41-14.57,19.05-3.86,7.41,6.28,10.98,14.16,13.14,26.67Z"/>
            <path class="cls-11" d="M108.4,100.49c3.19,15.16-11.45,16.68-19.37,6.19-7.96-10.53-10.27-22.52-10.76-28.16-.69-7.95,5.86-13.54,17.98-2.89,6.73,5.92,9.64,12.89,12.15,24.86Z"/>
          </g>
          <g class="cls-33">
            <path class="cls-16" d="M71.53,290.06c-25.73,1.39-37.15-20.7-25.4-48.24,6.17-14.45,20.51-27.73,41.98-33.46,23.32-6.21,43.38,8.69,37.26,33.61-5.99,24.41-29.77,46.8-53.84,48.09Z"/>
            <path class="cls-18" d="M71.85,288.7c-25.15,1.68-36.36-20.04-24.74-46.74,6.22-14.29,20.42-27.19,41.12-32.74,22.56-6.06,42.01,8.36,35.86,32.79-5.88,23.64-28.8,45.19-52.24,46.69Z"/>
            <path class="cls-35" d="M72.17,287.34c-24.58,1.91-35.56-19.36-24.08-45.24,6.26-14.12,20.32-26.65,40.25-32.03,21.81-5.9,40.58,8.01,34.47,31.97s-27.84,43.53-50.64,45.3Z"/>
            <path class="cls-10" d="M72.5,285.98c-24,2.18-34.75-18.69-23.42-43.74,6.31-13.95,20.23-26.11,39.39-31.31,21.05-5.75,39.18,7.67,33.07,31.15-5.75,22.07-26.88,41.9-49.04,43.91Z"/>
            <path class="cls-25" d="M72.82,284.61c-23.43,2.45-33.94-18.02-22.76-42.24,6.36-13.78,20.14-25.57,38.52-30.6,20.29-5.59,37.79,7.33,31.68,30.33-5.66,21.29-25.92,40.27-47.44,42.51Z"/>
            <path class="cls-41" d="M73.14,283.25c-22.85,2.72-33.13-17.34-22.1-40.74,6.42-13.62,20.05-25.02,37.66-29.89,19.53-5.44,36.4,6.99,30.28,29.51-5.57,20.51-24.96,38.64-45.85,41.12Z"/>
            <path class="cls-12" d="M73.46,281.89c-22.28,2.99-32.31-16.66-21.44-39.24,6.47-13.45,19.96-24.48,36.8-29.17,18.78-5.28,35.01,6.65,28.89,28.69-5.48,19.73-24.01,37.01-44.25,39.73Z"/>
            <path class="cls-7" d="M73.78,280.53c-21.71,3.26-31.48-15.99-20.77-37.74,6.53-13.28,19.86-23.94,35.93-28.46,18.02-5.13,33.62,6.31,27.49,27.86-5.39,18.95-23.05,35.39-42.65,38.33Z"/>
            <path class="cls-15" d="M74.11,279.17c-21.13,3.53-30.65-15.3-20.11-36.24,6.59-13.11,19.77-23.4,35.07-27.74,17.26-4.98,32.23,5.97,26.1,27.04-5.29,18.17-22.09,33.77-41.05,36.94Z"/>
            <path class="cls-24" d="M74.43,277.81c-20.56,3.81-29.81-14.62-19.45-34.74,6.66-12.94,19.69-22.82,34.2-27.03,16.52-4.79,30.85,5.63,24.7,26.22-5.19,17.4-21.13,32.15-39.45,35.55Z"/>
            <path class="cls-21" d="M74.75,276.45c-19.98,4.09-28.96-13.93-18.79-33.24,6.72-12.76,19.6-22.28,33.34-26.31,15.76-4.63,29.47,5.29,23.31,25.4-5.09,16.62-20.17,30.53-37.85,34.15Z"/>
            <path class="cls-36" d="M75.07,275.08c-19.41,4.38-28.11-13.24-18.13-31.74,6.79-12.59,19.51-21.73,32.47-25.6,15-4.47,28.09,4.95,21.91,24.58-4.99,15.84-19.21,28.92-36.26,32.76Z"/>
            <path class="cls-14" d="M75.4,273.72c-18.84,4.66-27.26-12.55-17.47-30.24,6.87-12.41,19.41-21.19,31.61-24.89,14.25-4.32,26.72,4.62,20.52,23.76-4.88,15.07-18.25,27.31-34.66,31.37Z"/>
            <path class="cls-39" d="M75.72,272.36c-18.26,4.95-26.39-11.85-16.81-28.74,6.94-12.24,19.32-20.65,30.74-24.17,13.49-4.16,25.35,4.28,19.13,22.94-4.77,14.29-17.29,25.7-33.06,29.97Z"/>
            <path class="cls-38" d="M76.04,271c-17.69,5.25-25.52-11.15-16.15-27.24,7.03-12.05,19.23-20.11,29.88-23.46,12.74-4.01,23.98,3.94,17.73,22.12-4.65,13.52-16.33,24.09-31.46,28.58Z"/>
            <path class="cls-5" d="M76.36,269.64c-17.11,5.54-24.65-10.45-15.49-25.74,7.11-11.87,19.14-19.57,29.02-22.74,11.98-3.85,22.62,3.61,16.34,21.29-4.53,12.75-15.37,22.49-29.86,27.19Z"/>
            <path class="cls-29" d="M76.68,268.28c-16.53,5.85-23.77-9.74-14.83-24.24,7.21-11.68,19.05-19.03,28.15-22.03,11.22-3.7,21.27,3.28,14.94,20.47-4.41,11.98-14.41,20.89-28.26,25.79Z"/>
            <path class="cls-26" d="M77.01,266.91c-15.95,6.15-22.88-9.03-14.17-22.74,7.3-11.49,18.95-18.49,27.29-21.31,10.46-3.55,19.92,2.95,13.55,19.65-4.28,11.21-13.44,19.3-26.67,24.4Z"/>
            <path class="cls-22" d="M77.33,265.55c-15.37,6.47-21.99-8.31-13.51-21.24,7.41-11.29,18.86-17.95,26.42-20.6,9.7-3.4,18.58,2.63,12.15,18.83-4.15,10.44-12.48,17.71-25.07,23.01Z"/>
            <path class="cls-3" d="M77.65,264.19c-14.78,6.78-21.09-7.59-12.85-19.74,7.52-11.09,18.76-17.41,25.56-19.89,8.94-3.25,17.26,2.31,10.76,18.01-4.01,9.68-11.51,16.12-23.47,21.61Z"/>
            <path class="cls-28" d="M77.97,262.83c-14.19,7.11-20.18-6.86-12.18-18.24s18.67-16.89,24.69-19.17c8.18-3.12,15.94,2,9.36,17.19-3.86,8.92-10.53,14.54-21.87,20.22Z"/>
            <path class="cls-11" d="M78.3,261.47c-13.58,7.44-19.28-6.13-11.52-16.74,7.77-10.66,18.57-16.35,23.83-18.46,7.42-2.97,14.65,1.7,7.97,16.37-3.71,8.16-9.55,12.97-20.27,18.83Z"/>
          </g>
          <g class="cls-33">
            <path class="cls-16" d="M15.74,197.76c-22.55-12.46-20.56-37.23,3.98-54.37,12.9-9,32.09-12.66,53.33-6.15,23.08,7.07,30.27,27.23,11.88,45.14-18.01,17.54-48.1,27.03-69.2,15.39Z"/>
            <path class="cls-18" d="M16.73,196.77c-22.21-11.91-20.24-36.24,3.75-52.75,12.85-8.84,31.72-12.25,52.22-6,22.35,6.8,29.38,26.37,11.23,43.85-17.51,16.94-46.52,26.03-67.2,14.91Z"/>
            <path class="cls-35" d="M17.73,195.79c-21.87-11.36-19.92-35.25,3.52-51.13,12.8-8.67,31.36-11.84,51.11-5.85,21.63,6.53,28.45,25.47,10.57,42.56s-44.94,25.02-65.2,14.42Z"/>
            <path class="cls-10" d="M18.72,194.8c-21.51-10.86-19.59-34.25,3.29-49.51,12.75-8.5,30.99-11.43,49.99-5.71,20.9,6.26,27.54,24.59,9.91,41.28-16.56,15.68-43.34,23.97-63.19,13.94Z"/>
            <path class="cls-25" d="M19.71,193.82c-21.16-10.33-19.26-33.25,3.05-47.89,12.71-8.33,30.63-11.02,48.88-5.56,20.18,5.99,26.63,23.71,9.26,39.99-16.07,15.06-41.75,22.94-61.19,13.46Z"/>
            <path class="cls-41" d="M20.71,192.84C-.11,183.04,1.79,160.59,23.53,146.57c12.66-8.16,30.26-10.61,47.77-5.41,19.46,5.72,25.72,22.83,8.6,38.7-15.58,14.45-40.17,21.92-59.19,12.97Z"/>
            <path class="cls-12" d="M21.7,191.85c-20.48-9.26-18.58-31.24,2.59-44.64,12.62-7.99,29.9-10.2,46.66-5.26,18.73,5.45,24.81,21.95,7.94,37.41-15.09,13.83-38.59,20.9-57.19,12.49Z"/>
            <path class="cls-7" d="M22.7,190.87c-20.13-8.73-18.24-30.22,2.35-43.02,12.58-7.82,29.53-9.79,45.55-5.11,18.01,5.18,23.91,21.08,7.29,36.13-14.6,13.22-37,19.89-55.19,12.01Z"/>
            <path class="cls-15" d="M23.69,189.88c-19.79-8.19-17.9-29.2,2.12-41.4,12.54-7.64,29.16-9.34,44.44-4.96,17.27,4.95,23,20.2,6.63,34.84-14.11,12.61-35.42,18.87-53.19,11.52Z"/>
            <path class="cls-24" d="M24.69,188.9c-19.45-7.65-17.55-28.18,1.89-39.78,12.5-7.46,28.79-8.93,43.32-4.81,16.55,4.69,22.1,19.33,5.98,33.55-13.61,12-33.84,17.86-51.19,11.04Z"/>
            <path class="cls-21" d="M25.68,187.92c-19.12-7.11-17.19-27.15,1.65-38.15,12.46-7.28,28.42-8.51,42.21-4.66,15.82,4.42,21.2,18.46,5.32,32.26-13.11,11.4-32.27,16.84-49.18,10.55Z"/>
            <path class="cls-36" d="M26.67,186.93c-18.78-6.56-16.84-26.11,1.42-36.53,12.43-7.09,28.06-8.1,41.1-4.52,15.1,4.15,20.3,17.59,4.66,30.98-12.61,10.79-30.69,15.83-47.18,10.07Z"/>
            <path class="cls-14" d="M27.67,185.95c-18.45-6.02-16.48-25.07,1.19-34.91,12.4-6.9,27.69-7.69,39.99-4.37,14.37,3.89,19.41,16.72,4.01,29.69-12.11,10.19-29.12,14.83-45.18,9.59Z"/>
            <path class="cls-39" d="M28.66,184.96c-18.11-5.46-16.11-24.03.96-33.29,12.37-6.71,27.33-7.28,38.88-4.22,13.65,3.62,18.51,15.86,3.35,28.4-11.6,9.59-27.54,13.82-43.18,9.1Z"/>
            <path class="cls-38" d="M29.66,183.98c-17.78-4.91-15.75-22.97.72-31.67,12.34-6.52,26.96-6.87,37.76-4.07,12.93,3.35,17.63,15,2.69,27.12-11.09,9-25.97,12.82-41.18,8.62Z"/>
            <path class="cls-5" d="M30.65,183c-17.45-4.35-15.38-21.91.49-30.04,12.32-6.31,26.6-6.46,36.65-3.92,12.2,3.08,16.74,14.15,2.04,25.83-10.58,8.41-24.4,11.82-39.18,8.14Z"/>
            <path class="cls-29" d="M31.65,182.01c-17.12-3.79-15-20.85.26-28.42,12.3-6.11,26.23-6.05,35.54-3.77,11.48,2.81,15.86,13.3,1.38,24.54-10.07,7.82-22.82,10.83-37.18,7.65Z"/>
            <path class="cls-26" d="M32.64,181.03c-16.79-3.22-14.63-19.77.02-26.8,12.28-5.89,25.87-5.64,34.43-3.62,10.76,2.54,14.98,12.46.72,23.25-9.55,7.23-21.25,9.84-35.17,7.17Z"/>
            <path class="cls-22" d="M33.63,180.04c-16.46-2.65-14.25-18.69-.21-25.18,12.27-5.67,25.5-5.24,33.32-3.47,10.03,2.26,14.11,11.62.07,21.97-9.03,6.65-19.68,8.86-33.17,6.69Z"/>
            <path class="cls-3" d="M34.63,179.06c-16.13-2.07-13.87-17.6-.44-23.56,12.25-5.43,25.14-4.83,32.2-3.33,9.31,1.99,13.25,10.8-.59,20.68-8.51,6.08-18.11,7.88-31.17,6.2Z"/>
            <path class="cls-28" d="M35.62,178.08c-15.8-1.45-13.48-16.51-.68-21.93s24.78-4.43,31.09-3.18c8.59,1.71,12.39,9.98-1.25,19.39-7.99,5.51-16.54,6.92-29.17,5.72Z"/>
            <path class="cls-11" d="M36.62,177.09c-15.46-.9-13.11-15.41-.91-20.31,12.24-4.94,24.41-4.04,29.98-3.03,7.87,1.41,11.53,9.18-1.9,18.11-7.46,4.94-14.96,5.92-27.17,5.23Z"/>
          </g>
          <g class="cls-33">
            <path class="cls-16" d="M201.34,246.66c-4.01-25.45,16.78-39.08,45.37-30.21,15.03,4.65,29.69,17.56,37.59,38.32,8.57,22.56-2.92,40.61-28.34,37.09-24.89-3.46-50.87-21.39-54.62-45.2Z"/>
            <path class="cls-18" d="M202.5,246.7c-4.24-24.84,16.24-38.35,44.01-29.59,14.86,4.74,29.1,17.41,36.7,37.57,8.24,21.86-2.61,39.27-27.58,35.81-24.09-3.35-49.23-20.64-53.13-43.79Z"/>
            <path class="cls-35" d="M203.65,246.74c-4.42-24.25,15.74-37.71,42.66-28.96,14.7,4.78,28.51,17.26,35.81,36.82,7.91,21.16-2.3,37.94-26.82,34.53-23.29-3.25-47.54-19.89-51.64-42.39Z"/>
            <path class="cls-10" d="M204.8,246.78c-4.63-23.65,15.22-37.02,41.3-28.33,14.54,4.85,27.92,17.11,34.92,36.06,7.57,20.45-1.99,36.61-26.06,33.24-22.49-3.14-45.88-19.15-50.16-40.98Z"/>
            <path class="cls-25" d="M205.96,246.82c-4.83-23.05,14.69-36.33,39.94-27.7,14.38,4.92,27.33,16.97,34.03,35.31,7.24,19.75-1.68,35.27-25.3,31.96-21.69-3.04-44.23-18.4-48.67-39.58Z"/>
            <path class="cls-41" d="M207.11,246.86c-5.04-22.45,14.17-35.63,38.58-27.07,14.21,4.99,26.74,16.82,33.14,34.56,6.9,19.05-1.37,33.94-24.54,30.68-20.89-2.93-42.57-17.66-47.18-38.17Z"/>
            <path class="cls-12" d="M208.27,246.9c-5.26-21.85,13.65-34.93,37.23-26.44,14.05,5.06,26.15,16.67,32.24,33.81,6.57,18.35-1.06,32.61-23.78,29.4-20.09-2.83-40.92-16.91-45.69-36.77Z"/>
            <path class="cls-7" d="M209.42,246.94c-5.47-21.25,13.12-34.22,35.87-25.81,13.89,5.13,25.56,16.52,31.35,33.05,6.23,17.65-.76,31.28-23.02,28.12-19.29-2.72-39.26-16.17-44.21-35.36Z"/>
            <path class="cls-15" d="M210.57,246.98c-5.68-20.65,12.6-33.5,34.51-25.18,13.72,5.21,24.97,16.38,30.46,32.3,5.9,16.95-.45,29.94-22.26,26.84-18.49-2.62-37.61-15.42-42.72-33.96Z"/>
            <path class="cls-24" d="M211.73,247.01c-5.9-20.05,12.07-32.78,33.15-24.55,13.56,5.29,24.38,16.23,29.57,31.55,5.57,16.25-.14,28.61-21.5,25.56-17.69-2.51-35.97-14.67-41.23-32.56Z"/>
            <path class="cls-21" d="M212.88,247.05c-6.12-19.45,11.54-32.05,31.8-23.92,13.39,5.38,23.79,16.08,28.68,30.8,5.23,15.55.17,27.28-20.74,24.27-16.88-2.41-34.32-13.93-39.74-31.15Z"/>
            <path class="cls-36" d="M214.03,247.09c-6.35-18.85,11.01-31.32,30.44-23.29,13.22,5.46,23.17,15.94,27.79,30.04,4.87,14.85.48,25.94-19.98,22.99-16.08-2.3-32.68-13.18-38.26-29.75Z"/>
            <path class="cls-14" d="M215.19,247.13c-6.57-18.25,10.47-30.58,29.08-22.66,13.05,5.55,22.58,15.79,26.9,29.29s.79,24.61-19.22,21.71c-15.28-2.2-31.04-12.43-36.77-28.34Z"/>
            <path class="cls-39" d="M216.34,247.17c-6.8-17.65,9.93-29.83,27.72-22.03,12.88,5.65,21.99,15.65,26.01,28.54s1.1,23.28-18.46,20.43c-14.48-2.09-29.4-11.69-35.28-26.94Z"/>
            <path class="cls-38" d="M217.5,247.21c-7.03-17.04,9.39-29.08,26.37-21.4,12.71,5.75,21.4,15.5,25.12,27.79s1.41,21.95-17.7,19.15c-13.68-1.99-27.77-10.94-33.79-25.53Z"/>
            <path class="cls-5" d="M218.65,247.25c-7.27-16.44,8.85-28.32,25.01-20.77,12.54,5.85,20.81,15.35,24.23,27.03s1.72,20.61-16.93,17.87c-12.88-1.88-26.14-10.19-32.3-24.13Z"/>
            <path class="cls-29" d="M219.8,247.29c-7.51-15.83,8.3-27.55,23.65-20.14,12.36,5.97,20.22,15.2,23.34,26.28s2.03,19.28-16.17,16.58c-12.08-1.78-24.51-9.44-30.82-22.73Z"/>
            <path class="cls-26" d="M220.96,247.33c-7.76-15.22,7.75-26.77,22.29-19.51,12.18,6.08,19.63,15.05,22.45,25.53,2.86,10.65,2.34,17.95-15.41,15.3-11.28-1.67-22.89-8.68-29.33-21.32Z"/>
            <path class="cls-22" d="M222.11,247.37c-8.01-14.61,7.2-25.99,20.94-18.88,11.99,6.21,19.05,14.9,21.56,24.78,2.53,9.94,2.65,16.62-14.65,14.02-10.48-1.57-21.27-7.92-27.84-19.92Z"/>
            <path class="cls-3" d="M223.26,247.4c-8.26-13.99,6.64-25.21,19.58-18.25,11.8,6.34,18.46,14.75,20.67,24.02s2.96,15.28-13.89,12.74c-9.68-1.46-19.65-7.16-26.35-18.51Z"/>
            <path class="cls-28" d="M224.42,247.44c-8.52-13.37,6.07-24.41,18.22-17.62,11.6,6.49,17.89,14.6,19.78,23.27,1.89,8.53,3.27,13.95-13.13,11.46-8.88-1.36-18.04-6.4-24.87-17.11Z"/>
            <path class="cls-11" d="M225.57,247.48c-8.8-12.73,5.5-23.61,16.87-16.99,11.4,6.64,17.3,14.45,18.89,22.52,1.55,7.83,3.57,12.62-12.37,10.18-8.08-1.25-16.44-5.62-23.38-15.7Z"/>
          </g>
          <g class="cls-33">
            <path class="cls-16" d="M187.44,241.88c-18.32-18.11-41.51-9.2-51.02,19.18-5,14.92-3.1,34.36,9.15,52.89,13.3,20.16,34.67,21.37,46.65-1.33,11.74-22.23,12.36-53.79-4.79-70.74Z"/>
            <path class="cls-18" d="M186.79,242.84c-17.7-17.94-40.6-9.21-49.71,18.45-4.82,14.84-2.87,33.79,9.06,51.73,12.93,19.47,33.41,20.84,45.17-1.46,11.36-21.52,12.01-52.02-4.51-68.71Z"/>
            <path class="cls-35" d="M186.15,243.8c-17.07-17.77-39.8-9.25-48.41,17.71-4.7,14.73-2.65,33.22,8.97,50.57,12.55,18.79,32.14,20.31,43.68-1.59,10.97-20.8,11.67-50.25-4.24-66.69Z"/>
            <path class="cls-10" d="M185.51,244.76c-16.5-17.56-38.94-9.27-47.1,16.98-4.55,14.64-2.42,32.66,8.88,49.4,12.18,18.11,30.88,19.78,42.2-1.72,10.59-20.09,11.27-48.44-3.97-64.66Z"/>
            <path class="cls-25" d="M184.87,245.72c-15.89-17.38-38.07-9.29-45.8,16.24-4.4,14.55-2.2,32.09,8.79,48.24,11.81,17.43,29.62,19.25,40.71-1.86,10.21-19.38,10.91-46.65-3.7-62.63Z"/>
            <path class="cls-41" d="M184.23,246.68c-15.28-17.2-37.2-9.3-44.5,15.51-4.25,14.45-1.97,31.53,8.69,47.08,11.43,16.75,28.36,18.73,39.23-1.99,9.83-18.67,10.55-44.87-3.43-60.6Z"/>
            <path class="cls-12" d="M183.59,247.64c-14.67-17.02-36.32-9.32-43.19,14.78-4.1,14.36-1.75,30.96,8.6,45.92,11.06,16.07,27.1,18.2,37.74-2.12,9.44-17.96,10.18-43.09-3.16-58.57Z"/>
            <path class="cls-7" d="M182.94,248.6c-14.06-16.84-35.44-9.33-41.89,14.04-3.94,14.27-1.53,30.4,8.51,44.75,10.69,15.38,25.83,17.67,36.26-2.25,9.06-17.25,9.82-41.32-2.88-56.54Z"/>
            <path class="cls-15" d="M182.3,249.56c-13.45-16.67-34.55-9.34-40.58,13.31-3.78,14.19-1.3,29.83,8.42,43.59,10.31,14.7,24.57,17.14,34.78-2.38,8.68-16.53,9.46-39.54-2.61-54.51Z"/>
            <path class="cls-24" d="M181.66,250.52c-12.83-16.5-33.65-9.35-39.28,12.58-3.62,14.1-1.08,29.27,8.33,42.43,9.94,14.02,23.31,16.61,33.29-2.52,8.3-15.82,9.11-37.77-2.34-52.49Z"/>
            <path class="cls-21" d="M181.02,251.48c-12.22-16.33-32.75-9.35-37.98,11.84-3.45,14.01-.83,28.68,8.24,41.26,9.6,13.32,22.05,16.08,31.81-2.65,7.92-15.11,8.75-36-2.07-50.46Z"/>
            <path class="cls-36" d="M180.38,252.44c-11.6-16.16-31.84-9.36-36.67,11.11-3.29,13.93-.6,28.11,8.15,40.1,9.22,12.64,20.78,15.56,30.32-2.78,7.53-14.4,8.4-34.23-1.8-48.43Z"/>
            <path class="cls-14" d="M179.74,253.4c-10.98-15.99-30.93-9.36-35.37,10.37-3.11,13.84-.38,27.55,8.06,38.94,8.85,11.95,19.52,15.03,28.84-2.91,7.15-13.69,8.05-32.46-1.53-46.4Z"/>
            <path class="cls-39" d="M179.09,254.36c-10.36-15.83-30.01-9.36-34.06,9.64-2.94,13.76-.15,26.98,7.97,37.78,8.48,11.27,18.26,14.5,27.35-3.05,6.77-12.98,7.7-30.69-1.25-44.37Z"/>
            <path class="cls-38" d="M178.45,255.32c-9.73-15.67-29.08-9.36-32.76,8.91-2.75,13.68.07,26.42,7.87,36.61s17,13.97,25.87-3.18c6.39-12.27,7.35-28.93-.98-42.34Z"/>
            <path class="cls-5" d="M177.81,256.27c-9.1-15.51-28.15-9.36-31.46,8.17-2.57,13.6.29,25.85,7.78,35.45s15.74,13.44,24.38-3.31c6-11.55,7.01-27.17-.71-40.32Z"/>
            <path class="cls-29" d="M177.17,257.23c-8.47-15.35-27.2-9.35-30.15,7.44-2.37,13.52.52,25.29,7.69,34.29s14.47,12.91,22.9-3.44c5.62-10.84,6.67-25.41-.44-38.29Z"/>
            <path class="cls-26" d="M176.53,258.19c-7.83-15.2-26.25-9.35-28.85,6.7-2.17,13.44.74,24.72,7.6,33.13s13.21,12.39,21.42-3.57c5.24-10.13,6.33-23.65-.17-36.26Z"/>
            <path class="cls-22" d="M175.89,259.15c-7.19-15.04-25.3-9.34-27.54,5.97-1.96,13.36.96,24.16,7.51,31.96s11.95,11.86,19.93-3.71c4.86-9.42,6-21.89.1-34.23Z"/>
            <path class="cls-3" d="M175.24,260.11c-6.53-14.89-24.33-9.34-26.24,5.24-1.74,13.28,1.18,23.6,7.42,30.8s10.69,11.33,18.45-3.84c4.48-8.71,5.67-20.13.37-32.2Z"/>
            <path class="cls-28" d="M174.6,261.07c-5.88-14.74-23.36-9.34-24.94,4.5s1.39,23.05,7.33,29.64c5.83,6.52,9.43,10.8,16.96-3.97,4.09-8,5.35-18.38.65-30.17Z"/>
            <path class="cls-11" d="M173.96,262.03c-5.21-14.59-22.38-9.34-23.63,3.77-1.27,13.12,1.61,22.48,7.24,28.48,5.46,5.84,8.16,10.27,15.48-4.1,3.71-7.29,5.04-16.62.92-28.14Z"/>
          </g>
        </g>
        <g>
          <path class="cls-4" d="M174.98,41.64c0,18.42-17.03,33.34-17.03,33.34,0,0-17.04-14.92-17.04-33.34s17.04-33.34,17.04-33.34c0,0,17.03,14.92,17.03,33.34Z"/>
          <path class="cls-4" d="M174.98,274.53c0,18.4-17.03,33.32-17.03,33.32,0,0-17.04-14.92-17.04-33.32s17.04-33.34,17.04-33.34c0,0,17.03,14.92,17.03,33.34Z"/>
          <path class="cls-4" d="M41.5,141.04c18.42,0,33.34,17.05,33.34,17.05,0,0-14.92,17.03-33.34,17.03s-33.34-17.03-33.34-17.03c0,0,14.93-17.05,33.34-17.05Z"/>
          <path class="cls-4" d="M274.38,141.04c18.42,0,33.35,17.05,33.35,17.05,0,0-14.93,17.03-33.35,17.03s-33.33-17.03-33.33-17.03c0,0,14.92-17.05,33.33-17.05Z"/>
          <path class="cls-4" d="M63.55,228.36c13.03-13.01,35.62-11.5,35.62-11.5,0,0,1.5,22.6-11.52,35.61-13.02,13.03-35.62,11.54-35.62,11.54,0,0-1.49-22.62,11.51-35.64Z"/>
          <path class="cls-4" d="M228.23,63.69c13.02-13.01,35.62-11.52,35.62-11.52,0,0,1.49,22.6-11.52,35.62-13.02,13.03-35.62,11.52-35.62,11.52,0,0-1.49-22.6,11.52-35.62Z"/>
          <path class="cls-4" d="M228.23,252.46c-13.02-13.01-11.52-35.61-11.52-35.61,0,0,22.61-1.5,35.62,11.5,13.02,13.03,11.52,35.64,11.52,35.64,0,0-22.61,1.48-35.62-11.54Z"/>
          <path class="cls-4" d="M63.55,87.8c-13.01-13.01-11.51-35.62-11.51-35.62,0,0,22.6-1.48,35.62,11.52,13.03,13.03,11.52,35.62,11.52,35.62,0,0-22.6,1.5-35.62-11.52Z"/>
        </g>
        <g>
          <path class="cls-4" d="M260.3,215.24c-13.6-5.64-19.42-22.79-19.42-22.79,0,0,16.25-8.03,29.86-2.4,13.6,5.64,19.42,22.81,19.42,22.81,0,0-16.25,8.03-29.86,2.38Z"/>
          <path class="cls-4" d="M45.15,126.12c-13.61-5.62-19.42-22.79-19.42-22.79,0,0,16.24-8.03,29.85-2.38,13.61,5.62,19.43,22.79,19.43,22.79,0,0-16.26,8.03-29.86,2.38Z"/>
          <path class="cls-4" d="M125.97,45.3c5.62,13.59-2.38,29.84-2.38,29.84,0,0-17.17-5.8-22.79-19.41-5.64-13.61,2.38-29.86,2.38-29.86,0,0,17.17,5.82,22.79,19.43Z"/>
          <path class="cls-4" d="M215.09,260.45c5.64,13.59-2.38,29.84-2.38,29.84,0,0-17.17-5.82-22.81-19.41-5.62-13.61,2.4-29.86,2.4-29.86,0,0,17.16,5.82,22.79,19.43Z"/>
          <path class="cls-4" d="M45.15,190.04c13.6-5.62,29.86,2.4,29.86,2.4,0,0-5.82,17.15-19.43,22.79-13.61,5.64-29.85-2.38-29.85-2.38,0,0,5.81-17.17,19.42-22.81Z"/>
          <path class="cls-4" d="M260.3,100.94c13.61-5.64,29.86,2.38,29.86,2.38,0,0-5.82,17.17-19.42,22.79-13.61,5.64-29.86-2.38-29.86-2.38,0,0,5.82-17.17,19.42-22.79Z"/>
          <path class="cls-4" d="M100.8,260.45c5.62-13.61,22.79-19.43,22.79-19.43,0,0,8.01,16.25,2.38,29.86-5.62,13.59-22.79,19.41-22.79,19.41,0,0-8.03-16.25-2.38-29.84Z"/>
          <path class="cls-4" d="M189.9,45.3c5.64-13.61,22.81-19.43,22.81-19.43,0,0,8.03,16.25,2.38,29.86-5.63,13.61-22.79,19.41-22.79,19.41,0,0-8.03-16.25-2.4-29.84Z"/>
        </g>
        <g>
          <path class="cls-42" d="M176.54,43.19c0,18.42-17.04,33.36-17.04,33.36,0,0-17.04-14.94-17.04-33.36s17.04-33.32,17.04-33.32c0,0,17.04,14.92,17.04,33.32Z"/>
          <path class="cls-6" d="M176.54,276.08c0,18.4-17.04,33.34-17.04,33.34,0,0-17.04-14.94-17.04-33.34s17.04-33.34,17.04-33.34c0,0,17.04,14.94,17.04,33.34Z"/>
          <path class="cls-17" d="M43.06,142.6c18.41,0,33.33,17.03,33.33,17.03,0,0-14.92,17.05-33.33,17.05s-33.35-17.05-33.35-17.05c0,0,14.93-17.03,33.35-17.03Z"/>
          <path class="cls-13" d="M275.93,142.6c18.42,0,33.34,17.03,33.34,17.03,0,0-14.92,17.05-33.34,17.05s-33.34-17.05-33.34-17.05c0,0,14.93-17.03,33.34-17.03Z"/>
          <path class="cls-19" d="M65.11,229.92c13.02-13.03,35.62-11.52,35.62-11.52,0,0,1.49,22.6-11.52,35.62-13.03,13.03-35.62,11.52-35.62,11.52,0,0-1.49-22.6,11.52-35.62Z"/>
          <path class="cls-37" d="M229.78,65.26c13.03-13.03,35.62-11.52,35.62-11.52,0,0,1.49,22.6-11.52,35.62-13.03,13.01-35.62,11.52-35.62,11.52,0,0-1.5-22.62,11.52-35.62Z"/>
          <path class="cls-31" d="M229.78,254.03c-13.03-13.03-11.52-35.62-11.52-35.62,0,0,22.6-1.5,35.62,11.52,13.02,13.03,11.52,35.62,11.52,35.62,0,0-22.6,1.5-35.62-11.52Z"/>
          <path class="cls-23" d="M65.11,89.36c-13.02-13.03-11.52-35.62-11.52-35.62,0,0,22.6-1.5,35.62,11.52,13.01,13.01,11.52,35.62,11.52,35.62,0,0-22.61,1.48-35.62-11.52Z"/>
        </g>
        <g>
          <path class="cls-32" d="M261.85,216.8c-13.61-5.64-19.41-22.81-19.41-22.81,0,0,16.25-8.03,29.85-2.38,13.6,5.64,19.42,22.79,19.42,22.79,0,0-16.25,8.03-29.86,2.4Z"/>
          <path class="cls-8" d="M46.69,127.68c-13.6-5.64-19.41-22.81-19.41-22.81,0,0,16.25-8.01,29.85-2.38,13.6,5.64,19.42,22.79,19.42,22.79,0,0-16.25,8.03-29.86,2.4Z"/>
          <path class="cls-34" d="M127.53,46.84c5.62,13.61-2.39,29.86-2.39,29.86,0,0-17.16-5.82-22.8-19.41-5.63-13.61,2.38-29.86,2.38-29.86,0,0,17.18,5.8,22.81,19.41Z"/>
          <path class="cls-9" d="M216.64,261.99c5.64,13.61-2.38,29.86-2.38,29.86,0,0-17.16-5.82-22.79-19.43-5.63-13.61,2.38-29.86,2.38-29.86,0,0,17.17,5.82,22.79,19.43Z"/>
          <path class="cls-2" d="M46.7,191.6c13.6-5.64,29.85,2.38,29.85,2.38,0,0-5.82,17.17-19.42,22.79-13.6,5.64-29.85-2.38-29.85-2.38,0,0,5.81-17.15,19.42-22.79Z"/>
          <path class="cls-27" d="M261.85,102.48c13.61-5.62,29.86,2.38,29.86,2.38,0,0-5.82,17.17-19.42,22.81-13.6,5.62-29.85-2.4-29.85-2.4,0,0,5.8-17.15,19.41-22.79Z"/>
          <path class="cls-1" d="M102.34,261.99c5.64-13.61,22.8-19.43,22.8-19.43,0,0,8.02,16.25,2.39,29.86-5.63,13.61-22.81,19.43-22.81,19.43,0,0-8.02-16.25-2.38-29.86Z"/>
          <path class="cls-40" d="M191.46,46.84c5.63-13.61,22.79-19.41,22.79-19.41,0,0,8.03,16.25,2.38,29.86-5.62,13.59-22.79,19.41-22.79,19.41,0,0-8.02-16.25-2.38-29.86Z"/>
        </g>
        <g class="cls-33">
          <path class="cls-16" d="M265.44,279.2c-48.16,39.98-114.07,48.52-172.49,12.09-77.81-48.52-59.93-114.14-24.21-115.66,35.09-1.48,64.71,10.21,87.29-13.46,26.3-27.54,26.47-57.87,33.44-89.63,7.73-35.35,52.53-46.66,100.9,4.79,52.57,55.92,35.76,151.52-24.93,201.87Z"/>
          <path class="cls-18" d="M263.99,276.22c-46.82,39.16-110.67,47.87-167.68,13.22-76.25-46.14-60.21-109.93-25.61-111.67,33.8-1.6,64.21,11.06,87.74-13.94,26.19-27.84,26.16-57.64,32.59-88.92,7.21-34.47,50.75-45.39,97.39,4.99,50.44,54.16,34.73,146.84-24.43,196.33Z"/>
          <path class="cls-35" d="M262.54,273.23c-45.48,38.33-107.27,47.22-162.88,14.35-74.69-43.76-60.49-105.82-27.01-107.68,32.5-1.81,63.72,11.92,88.19-14.43,26.1-28.12,25.73-57.44,31.74-88.21,6.56-33.62,48.82-43.98,93.88,5.19,48.15,52.54,33.69,142.16-23.93,190.78Z"/>
          <path class="cls-10" d="M261.09,270.25c-44.13,37.51-103.78,46.41-158.07,15.48-73-41.6-60.78-101.65-28.41-103.69,31.2-1.97,63.24,12.79,88.64-14.92,26.02-28.39,25.36-57.22,30.88-87.51,5.97-32.75,46.96-42.65,90.38,5.4,45.95,50.85,32.66,137.47-23.42,185.24Z"/>
          <path class="cls-25" d="M259.63,267.27c-42.79,36.69-100.36,45.72-153.26,16.61-71.41-39.29-61.06-97.48-29.81-99.7,29.91-2.12,62.76,13.66,89.09-15.41,25.95-28.65,24.99-57,30.03-86.8,5.39-31.87,45.11-41.32,86.87,5.6s31.62,132.79-22.92,179.69Z"/>
          <path class="cls-41" d="M258.18,264.28c-41.45,35.86-96.93,45.02-148.45,17.74-69.82-36.98-61.34-93.32-31.21-95.71,28.61-2.27,62.29,14.54,89.54-15.89s24.63-56.77,29.18-86.09c4.82-31,43.26-39.99,83.36,5.8s30.59,128.1-22.42,174.15Z"/>
          <path class="cls-12" d="M256.73,261.3c-40.11,35.04-93.52,44.33-143.65,18.87-68.23-34.66-61.63-89.14-32.61-91.72,27.32-2.42,61.82,15.42,89.98-16.38,25.83-29.16,24.27-56.55,28.33-85.38,4.24-30.12,41.41-38.67,79.85,6.01,39.36,45.74,29.56,123.42-21.92,168.6Z"/>
          <path class="cls-7" d="M255.28,258.32c-38.76,34.22-90.1,43.65-138.84,20-66.65-32.34-61.91-84.97-34.01-87.73,26.02-2.57,61.36,16.3,90.43-16.87,25.77-29.41,23.91-56.32,27.48-84.67,3.68-29.24,39.56-37.35,76.35,6.21,37.18,44.02,28.52,118.74-21.41,163.06Z"/>
          <path class="cls-15" d="M253.82,255.33c-37.42,33.4-86.7,42.96-134.03,21.13-65.08-30.01-62.2-80.8-35.41-83.74,24.72-2.71,60.91,17.19,90.88-17.36,25.72-29.65,23.56-56.09,26.63-83.97s37.71-36.04,72.84,6.41c35,42.3,27.49,114.05-20.91,157.51Z"/>
          <path class="cls-24" d="M252.37,252.35c-36.08,32.57-83.29,42.28-129.22,22.26-63.51-27.68-62.49-76.62-36.81-79.75,23.43-2.85,60.46,18.09,91.33-17.84,25.68-29.89,23.22-55.86,25.78-83.26s35.88-34.73,69.33,6.62c32.82,40.57,26.45,109.37-20.41,151.97Z"/>
          <path class="cls-21" d="M250.92,249.37c-34.73,31.75-79.89,41.61-124.42,23.39-61.94-25.35-62.77-72.43-38.21-75.76,22.13-2.99,60.01,18.99,91.78-18.33,25.64-30.12,22.88-55.62,24.93-82.55,2.03-26.59,34.04-33.43,65.83,6.82s25.42,104.69-19.9,146.42Z"/>
          <path class="cls-36" d="M249.46,246.38c-33.39,30.93-76.49,40.94-119.61,24.52-60.39-23-63.06-68.25-39.61-71.76,20.83-3.12,59.57,19.89,92.23-18.82,25.6-30.35,22.54-55.39,24.08-81.84,1.49-25.7,32.21-32.14,62.32,7.03,28.5,37.08,24.39,100-19.4,140.88Z"/>
          <path class="cls-14" d="M248.01,243.4c-31.99,30.17-73.1,40.28-114.8,25.65-58.84-20.65-63.35-64.06-41.01-67.77,19.53-3.25,59.13,20.8,92.67-19.31,25.57-30.58,22.22-55.15,23.23-81.14s30.39-30.86,58.81,7.23c26.35,35.32,23.43,95.41-18.9,135.33Z"/>
          <path class="cls-39" d="M246.56,240.41c-30.64,29.35-69.72,39.63-109.99,26.78-57.29-18.28-63.64-59.86-42.41-63.78,18.23-3.37,58.7,21.71,93.12-19.79,25.54-30.81,21.9-54.91,22.37-80.43.44-23.93,28.58-29.59,55.3,7.43,24.21,33.55,22.4,90.72-18.4,129.79Z"/>
          <path class="cls-38" d="M245.11,237.43c-29.3,28.52-66.33,38.99-105.19,27.91-55.75-15.9-63.93-55.66-43.81-59.79,16.93-3.48,58.28,22.63,93.57-20.28,25.52-31.03,21.6-54.68,21.52-79.72-.07-23.04,26.79-28.33,51.8,7.64,22.09,31.77,21.36,86.03-17.89,124.24Z"/>
          <path class="cls-5" d="M243.65,234.45c-27.96,27.69-62.95,38.36-100.38,29.04-54.22-13.5-64.21-51.44-45.21-55.8,15.64-3.59,57.86,23.55,94.02-20.77,25.5-31.25,21.3-54.44,20.67-79.01-.57-22.15,25-27.08,48.29,7.84,19.98,29.97,20.33,81.35-17.39,118.7Z"/>
          <path class="cls-29" d="M242.2,231.46c-26.68,26.81-59.58,37.74-95.57,30.17-52.69-11.09-64.5-47.22-46.61-51.81,14.34-3.68,57.45,24.48,94.47-21.25,25.47-31.47,21.02-54.2,19.82-78.3-1.06-21.26,23.24-25.85,44.78,8.04,17.9,28.16,19.21,76.58-16.89,113.15Z"/>
          <path class="cls-26" d="M240.75,228.48c-25.33,25.99-56.2,37.14-90.76,31.3-51.16-8.65-64.78-42.98-48.01-47.82,13.05-3.77,57.04,25.4,94.92-21.74,25.46-31.69,20.75-53.97,18.97-77.6-1.54-20.37,21.51-24.63,41.28,8.25,15.83,26.34,18.18,71.9-16.39,107.61Z"/>
          <path class="cls-22" d="M239.29,225.5c-23.99,25.16-52.83,36.56-85.96,32.43-49.63-6.18-65.06-38.72-49.41-43.83,11.76-3.84,56.63,26.34,95.36-22.23,25.44-31.9,20.5-53.74,18.12-76.89-2-19.49,19.82-23.44,37.77,8.45,13.79,24.51,17.15,67.22-15.88,102.06Z"/>
          <path class="cls-3" d="M237.84,222.51c-22.65,24.34-49.45,35.99-81.15,33.56-48.1-3.69-65.32-34.44-50.81-39.84,10.48-3.9,56.23,27.27,95.81-22.72,25.43-32.12,20.26-53.51,17.27-76.18-2.46-18.61,18.18-22.26,34.26,8.66,11.79,22.66,16.11,62.53-15.38,96.52Z"/>
          <path class="cls-28" d="M236.39,219.53c-21.3,23.52-46.06,35.45-76.34,34.69-46.56-1.16-65.57-30.14-52.21-35.85,9.21-3.94,55.9,28.26,96.26-23.2,25.45-32.3,20.05-53.29,16.42-75.47-2.9-17.74,16.6-21.11,30.75,8.86,9.82,20.8,15.08,57.85-14.88,90.97Z"/>
          <path class="cls-11" d="M234.94,216.55c-19.96,22.7-42.67,34.92-71.53,35.82-45,1.41-65.79-25.8-53.61-31.86,7.96-3.96,55.46,29.16,96.71-23.69,25.41-32.54,19.84-53.09,15.57-74.77-3.34-16.87,15.12-19.98,27.25,9.06,7.9,18.95,14.04,53.16-14.38,85.43Z"/>
        </g>
        <path class="cls-4" d="M252.87,158.09c0,52.42-42.5,94.92-94.92,94.92s-94.93-42.5-94.93-94.92,42.5-94.94,94.93-94.94,94.92,42.5,94.92,94.94Z"/>
        <path class="cls-30" d="M254.42,159.63c0,52.42-42.5,94.94-94.92,94.94s-94.93-42.52-94.93-94.94,42.5-94.92,94.93-94.92,94.92,42.5,94.92,94.92Z"/>
      </g>
    </g>
  </g>
</svg>