<?xml version="1.0" encoding="UTF-8"?>
<svg xmlns="http://www.w3.org/2000/svg" viewBox="0 0 478.79 299.46">
  <defs>
    <style>
      .cls-1 {
        fill: #b3c1cd;
        opacity: .62;
      }

      .cls-2 {
        fill: #eaecef;
        opacity: .14;
      }

      .cls-3, .cls-4 {
        fill: #fff;
      }

      .cls-5 {
        fill: #bec9d3;
        opacity: .52;
      }

      .cls-6 {
        fill: #d9dee4;
        opacity: .29;
      }

      .cls-4 {
        opacity: 0;
      }

      .cls-7 {
        fill: #f6f7f8;
        opacity: .05;
      }

      .cls-8 {
        fill: #a9b9c6;
        opacity: .71;
      }

      .cls-9 {
        fill: #aebdc9;
        opacity: .67;
      }

      .cls-10 {
        fill: #c3cdd6;
        opacity: .48;
      }

      .cls-11 {
        isolation: isolate;
      }

      .cls-12 {
        fill: #eaf2f5;
      }

      .cls-13 {
        fill: #c8d1da;
        opacity: .43;
      }

      .cls-14 {
        fill: #90a7b8;
        opacity: .95;
      }

      .cls-15 {
        fill: #f0f1f3;
        opacity: .1;
      }

      .cls-16 {
        fill: #9aaebd;
        opacity: .86;
      }

      .cls-17 {
        mix-blend-mode: multiply;
      }

      .cls-18 {
        fill: #8ba4b5;
      }

      .cls-19 {
        fill: #d3dae0;
        opacity: .33;
      }

      .cls-20 {
        fill: #a4b5c3;
        opacity: .76;
      }

      .cls-21 {
        fill: #e4e7eb;
        opacity: .19;
      }

      .cls-22 {
        fill: #ced5dd;
        opacity: .38;
      }

      .cls-23 {
        fill: #dfe3e8;
        opacity: .24;
      }

      .cls-24 {
        fill: #9fb2c0;
        opacity: .81;
      }

      .cls-25 {
        fill: #b9c5d0;
        opacity: .57;
      }

      .cls-26 {
        fill: #95aabb;
        opacity: .9;
      }
    </style>
  </defs>
  <g class="cls-11">
    <g id="Layer_1">
      <g>
        <g>
          <g class="cls-17">
            <path class="cls-4" d="M455.15,242.44c32.72-27.7,26.85-113.52,10.13-136.48-21.95-30.16-45.28-48.52-65.35-58.55-20.11-10.04-76.64-18.77-102.3-18.77-35.93,0-71.19,8.71-100.24,16.48-31.36,8.4-92.93,30.96-122.16,63.01-34.19,37.48-4.02,112.01,4.69,122.93,16.33,20.45,36.08,40.76,60.91,52.66,23.76,11.39,44.38,10.82,62.13,12.05,13.47.96,73.27,7.62,108.29.31,24.84-5.18,66.91-12.85,78.9-18.79,11.18-5.53,38.88-12.73,65.02-34.84Z"/>
            <path class="cls-7" d="M449.86,239.62c32.25-26.85,26.84-109.8,10.33-133.03-21.57-30.23-44.71-47.57-64.59-57.45-19.68-9.79-73.71-18.49-99.09-18.75-35.03-.23-70.16,8.12-98.94,15.87-31.14,8.39-92.02,30.97-120.23,61.84-33,36.1-4.78,108.63,4.46,120.13,15.83,19.8,34.5,39.93,59.38,51.53,23.49,11.03,43.81,10.02,61.02,11.4,13.28,1.06,71.02,8.51,106.04,1.3,25-5.13,65.51-13.48,77.16-19.27,11.11-5.53,38.47-12.02,64.44-33.55Z"/>
            <path class="cls-15" d="M444.57,236.81c31.82-25.95,26.83-106.09,10.52-129.58-21.18-30.3-44.14-46.62-63.82-56.35-19.25-9.54-70.79-18.31-95.88-18.74-34.12-.59-69.12,7.53-97.63,15.25-30.93,8.39-91.11,30.99-118.3,60.67-31.8,34.72-5.5,105.22,4.24,117.33,15.37,19.12,32.95,39.03,57.86,50.4,23.25,10.61,43.24,9.24,59.91,10.74,13.1,1.18,68.76,9.41,103.78,2.29,25.16-5.09,64.11-14.11,75.43-19.75,11.04-5.53,38.11-11.26,63.87-32.26Z"/>
            <path class="cls-2" d="M439.29,233.99c31.36-25.08,26.88-102.42,10.72-126.13-20.73-30.42-43.57-45.67-63.05-55.25-18.82-9.29-67.86-18.07-92.66-18.72-33.22-.88-68.09,6.94-96.32,14.64-30.72,8.38-90.2,31-116.37,59.51-30.61,33.34-6.24,101.82,4.02,114.53,14.89,18.46,31.38,38.17,56.33,49.27,22.99,10.23,42.67,8.47,58.8,10.08,12.92,1.29,66.51,10.3,101.53,3.28,25.32-5.04,62.71-14.73,73.7-20.23,10.97-5.52,37.72-10.52,63.29-30.97Z"/>
            <path class="cls-21" d="M434,231.17c30.9-24.21,26.88-98.72,10.92-122.67-20.32-30.51-43-44.72-62.29-54.15-18.39-9.03-64.93-17.83-89.45-18.71-32.31-1.16-67.05,6.36-95.01,14.02-30.5,8.38-89.29,31.02-114.43,58.34-29.42,31.96-6.98,98.42,3.79,111.73,14.4,17.8,29.8,37.3,54.81,48.14,22.72,9.85,42.1,7.7,57.69,9.43,12.74,1.41,64.25,11.2,99.28,4.27,25.48-5,61.31-15.34,71.97-20.71s37.33-9.79,62.72-29.68Z"/>
            <path class="cls-23" d="M428.71,228.36c30.43-23.34,26.89-95.01,11.12-119.22-19.92-30.59-42.43-43.77-61.52-53.05-17.96-8.78-62-17.59-86.23-18.7-31.41-1.43-66.02,5.77-93.7,13.41-30.29,8.38-88.38,31.04-112.5,57.17-28.23,30.57-7.72,95.02,3.57,108.93,13.92,17.14,28.23,36.45,53.28,47.01,22.46,9.47,41.53,6.93,56.58,8.77,12.55,1.54,61.99,12.09,97.02,5.26,25.63-4.96,59.91-15.96,70.23-21.19,10.84-5.49,36.94-9.06,62.14-28.39Z"/>
            <path class="cls-6" d="M423.42,225.54c29.97-22.48,26.89-91.31,11.32-115.77-19.52-30.67-41.86-42.82-60.76-51.95-17.53-8.53-59.07-17.35-83.02-18.68-30.5-1.7-64.98,5.18-92.39,12.79-30.08,8.37-87.47,31.05-110.57,56-27.03,29.19-8.46,91.63,3.35,106.13,13.42,16.49,26.65,35.59,51.76,45.88,22.19,9.1,40.96,6.17,55.47,8.12,12.37,1.66,59.74,12.99,94.77,6.25,25.79-4.91,58.51-16.58,68.5-21.67,10.77-5.49,36.54-8.33,61.57-27.1Z"/>
            <path class="cls-19" d="M418.14,222.72c29.5-21.62,26.89-87.6,11.52-112.32-19.12-30.75-41.29-41.87-59.99-50.85-17.11-8.28-56.14-17.1-79.8-18.67-29.59-1.96-63.95,4.59-91.08,12.17-29.86,8.37-86.56,31.07-108.64,54.84-25.84,27.81-9.2,88.23,3.12,103.33,12.93,15.84,25.07,34.74,50.23,44.75,21.93,8.72,40.39,5.41,54.37,7.46,12.19,1.79,57.48,13.88,92.52,7.24,25.95-4.87,57.11-17.2,66.77-22.15,10.7-5.48,36.15-7.6,60.99-25.81Z"/>
            <path class="cls-22" d="M412.85,219.9c29.02-20.77,26.89-83.89,11.72-108.87-18.73-30.82-40.72-40.93-59.22-49.75-16.68-8.03-53.21-16.84-76.59-18.65-28.69-2.22-62.91,4-89.78,11.56-29.65,8.36-85.65,31.08-106.71,53.67-24.65,26.43-9.94,84.84,2.9,100.53,12.43,15.19,23.49,33.89,48.71,43.62,21.66,8.36,39.82,4.66,53.26,6.81,12.01,1.92,55.23,14.77,90.26,8.23,26.11-4.83,55.71-17.83,65.03-22.63,10.64-5.48,35.75-6.87,60.42-24.52Z"/>
            <path class="cls-13" d="M407.56,217.09c28.55-19.91,26.89-80.18,11.91-105.41-18.34-30.9-40.17-39.94-58.46-48.65-16.26-7.75-50.28-16.59-73.37-18.64-27.78-2.46-61.88,3.41-88.47,10.94-29.44,8.36-84.73,31.1-104.78,52.5-23.45,25.05-10.69,81.44,2.68,97.73,11.93,14.54,21.91,33.05,47.18,42.49,21.39,7.99,39.25,3.91,52.15,6.15,11.83,2.05,52.97,15.67,88.01,9.22,26.27-4.78,54.31-18.45,63.3-23.11,10.57-5.47,35.35-6.15,59.84-23.23Z"/>
            <path class="cls-10" d="M402.27,214.27c28.07-19.06,26.88-76.47,12.11-101.96-17.95-30.97-39.6-38.99-57.69-47.55-15.84-7.49-47.34-16.32-70.16-18.62-26.87-2.7-60.84,2.82-87.16,10.33-29.22,8.35-83.82,31.12-102.85,51.34-22.26,23.67-11.43,78.05,2.46,94.93,11.43,13.9,20.33,32.21,45.66,41.37,21.11,7.63,38.68,3.17,51.04,5.49,11.65,2.19,50.72,16.56,85.76,10.21,26.42-4.74,52.91-19.08,61.57-23.59,10.5-5.47,34.94-5.43,59.27-21.94Z"/>
            <path class="cls-5" d="M396.98,211.45c27.59-18.21,26.88-72.76,12.31-98.51-17.56-31.04-39.03-38.04-56.93-46.45-15.41-7.24-44.41-16.06-66.94-18.61-25.97-2.94-59.81,2.23-85.85,9.71-29.01,8.35-82.91,31.13-100.92,50.17-21.07,22.29-12.18,74.66,2.23,92.14,10.93,13.25,18.74,31.37,44.14,40.24,20.84,7.28,38.11,2.43,49.93,4.84s48.46,17.46,83.5,11.2c26.58-4.69,51.5-19.7,59.84-24.07,10.43-5.46,34.54-4.71,58.69-20.65Z"/>
            <path class="cls-25" d="M391.7,208.64c27.11-17.37,26.87-69.05,12.51-95.06-17.18-31.11-38.46-37.09-56.16-45.35-14.98-6.99-41.48-15.78-63.73-18.59-25.06-3.16-58.78,1.65-84.54,9.1-28.8,8.34-82,31.15-98.99,49-19.88,20.91-12.93,71.27,2.01,89.34,10.42,12.61,17.16,30.54,42.61,39.11,20.57,6.92,37.53,1.7,48.82,4.18s46.21,18.35,81.25,12.19c26.74-4.65,50.1-20.33,58.1-24.55,10.36-5.46,34.13-4,58.12-19.36Z"/>
            <path class="cls-1" d="M386.41,205.82c26.62-16.53,26.86-65.33,12.71-91.6-16.79-31.18-37.89-36.14-55.39-44.25-14.55-6.74-38.55-15.5-60.51-18.58-24.15-3.38-57.74,1.06-83.23,8.48-28.58,8.34-81.09,31.16-97.06,47.83-18.68,19.53-13.68,67.88,1.79,86.54,9.92,11.97,15.57,29.71,41.09,37.98,20.29,6.57,36.96.98,47.71,3.53s43.95,19.25,79,13.18c26.9-4.61,48.7-20.96,56.37-25.03,10.29-5.46,33.72-3.28,57.54-18.07Z"/>
            <path class="cls-9" d="M381.12,203c26.14-15.7,26.85-61.62,12.91-88.15-16.41-31.25-37.31-35.19-54.63-43.15-14.12-6.49-35.62-15.21-57.3-18.56-23.25-3.59-56.71.47-81.92,7.86-28.37,8.33-80.18,31.18-95.13,46.67-17.49,18.14-14.43,64.5,1.56,83.74,9.41,11.32,13.98,28.89,39.56,36.85,20.01,6.23,36.39.26,46.6,2.87,10.92,2.79,41.7,20.14,76.74,14.17,27.06-4.56,47.29-21.59,54.64-25.51,10.22-5.46,33.31-2.58,56.97-16.78Z"/>
            <path class="cls-8" d="M375.83,200.18c25.64-14.87,26.83-57.9,13.11-84.7-16.04-31.32-36.74-34.25-53.86-42.05-13.69-6.24-32.69-14.92-54.08-18.55-22.35-3.79-55.67-.12-80.62,7.25-28.16,8.33-79.27,31.19-93.2,45.5-16.3,16.76-15.18,61.11,1.34,80.94,8.9,10.68,12.39,28.07,38.04,35.72,19.73,5.89,35.81-.45,45.49,2.22,10.74,2.96,39.44,21.04,74.49,15.16,27.22-4.52,45.89-22.21,52.91-25.99,10.15-5.46,32.89-1.87,56.39-15.49Z"/>
            <path class="cls-20" d="M370.54,197.37c25.15-14.04,26.81-54.18,13.3-81.25-15.66-31.38-36.17-33.3-53.1-40.95-13.26-5.99-29.77-14.61-50.87-18.53-21.45-3.99-54.64-.71-79.31,6.63-27.94,8.32-78.36,31.21-91.27,44.33-15.1,15.38-15.94,57.73,1.12,78.14,8.4,10.04,10.79,27.26,36.51,34.59,19.45,5.55,35.23-1.15,44.38,1.56,10.55,3.13,37.19,21.93,72.23,16.15,27.37-4.48,44.49-22.84,51.17-26.47,10.07-5.46,32.48-1.17,55.82-14.2Z"/>
            <path class="cls-24" d="M365.26,194.55c24.65-13.22,26.79-50.47,13.5-77.79-15.29-31.45-35.58-32.39-52.33-39.85-12.82-5.77-26.84-14.29-47.65-18.52-20.55-4.17-53.6-1.3-78,6.02-27.73,8.32-77.45,31.23-89.33,43.16-13.91,14-16.71,54.35.89,75.34,7.89,9.4,9.2,26.45,34.99,33.46,19.18,5.21,34.65-1.85,43.27.9,10.36,3.31,34.93,22.83,69.98,17.14,27.53-4.43,43.08-23.48,49.44-26.95,10-5.46,32.06-.48,55.24-12.91Z"/>
            <path class="cls-16" d="M359.97,191.73c24.16-12.41,26.77-46.75,13.7-74.34-14.92-31.51-35.01-31.44-51.57-38.75-12.39-5.52-23.92-13.97-44.44-18.5s-52.57-1.89-76.69,5.4c-27.52,8.31-76.54,31.24-87.4,42-12.72,12.62-17.47,50.98.67,72.54,7.38,8.77,7.61,25.65,33.46,32.33,18.9,4.88,34.07-2.55,42.17.25,10.16,3.51,32.67,23.72,67.73,18.12,27.69-4.39,41.68-24.11,47.71-27.43,9.93-5.46,31.64.2,54.67-11.62Z"/>
            <path class="cls-26" d="M354.68,188.92c23.66-11.6,26.7-43.01,13.9-70.89-14.6-31.55-34.44-30.49-50.8-37.65-11.96-5.27-21.01-13.63-41.22-18.49-18.76-4.51-51.53-2.47-75.38,4.79-27.3,8.31-75.63,31.26-85.47,40.83-11.53,11.24-18.25,47.61.45,69.74,6.87,8.13,6.01,24.86,31.94,31.2,18.62,4.56,33.48-3.23,41.06-.41,9.96,3.71,30.42,24.62,65.47,19.11,27.85-4.35,40.27-24.74,45.98-27.91,9.85-5.47,31.21.88,54.09-10.33Z"/>
            <path class="cls-14" d="M349.39,186.1c23.14-10.84,26.7-39.3,14.1-67.44-14.22-31.63-33.87-29.54-50.03-36.55-11.53-5.02-18.1-13.27-38.01-18.47-17.87-4.67-50.5-3.06-74.07,4.17-27.09,8.31-74.72,31.27-83.54,39.66-10.33,9.86-19.07,44.28.22,66.94,6.34,7.5,4.41,24.11,30.41,30.07,18.33,4.26,32.88-3.91,39.95-1.06,9.75,3.93,28.16,25.51,63.22,20.1,28.01-4.3,38.86-25.37,44.24-28.39,9.78-5.48,30.77,1.51,53.51-9.04Z"/>
            <path class="cls-18" d="M344.11,183.28c22.66-10,26.69-35.59,14.3-63.98-13.83-31.7-33.3-28.59-49.27-35.45-11.1-4.77-15.2-12.91-34.79-18.46-16.99-4.82-49.46-3.65-72.76,3.55-26.88,8.3-73.81,31.29-81.61,38.5-9.14,8.48-19.82,40.9,0,64.14,5.84,6.86,2.82,23.28,28.89,28.95,18.06,3.91,32.29-4.59,38.84-1.72,9.53,4.16,25.91,26.41,60.97,21.09,28.16-4.26,37.45-26.02,42.51-28.87,9.69-5.51,30.36,2.23,52.94-7.75Z"/>
          </g>
          <path class="cls-3" d="M313.82,76.66c-1.22,0-2.43.04-3.63.12-6.52-18.54-24.19-31.84-44.97-31.84-6.21,0-12.13,1.19-17.56,3.34-6.45-17.79-23.48-30.51-43.49-30.51s-36.14,12.05-42.96,29.12c-2.28-.39-4.61-.62-7-.62-21.02,0-38.31,15.94-40.46,36.37-2.93-.59-5.96-.9-9.07-.9-25.34,0-45.88,20.55-45.88,45.9s20.54,45.88,45.88,45.88c.39,0,.8-.04,1.19-.04,4.48,18.54,21.16,32.3,41.08,32.3,15.42,0,28.91-8.26,36.29-20.57,10.07,17.21,28.73,28.79,50.12,28.79,23.65,0,44-14.18,53.04-34.49,8.08,4.63,17.43,7.3,27.42,7.3,30.42,0,55.09-24.65,55.09-55.08s-24.67-55.08-55.09-55.08Z"/>
          <path class="cls-12" d="M315.71,78.55c-1.22,0-2.42.04-3.63.12-6.51-18.55-24.2-31.86-44.97-31.86-6.19,0-12.12,1.21-17.55,3.36-6.45-17.79-23.49-30.51-43.5-30.51s-36.14,12.05-42.95,29.1c-2.28-.39-4.62-.61-7.01-.61-21.02,0-38.3,15.94-40.45,36.39-2.93-.61-5.97-.92-9.08-.92-25.33,0-45.87,20.55-45.87,45.88s20.54,45.88,45.87,45.88c.4,0,.8-.02,1.19-.02,4.49,18.54,21.18,32.3,41.09,32.3,15.41,0,28.9-8.24,36.28-20.59,10.07,17.23,28.74,28.79,50.12,28.79,23.67,0,44.01-14.18,53.05-34.49,8.07,4.65,17.42,7.3,27.41,7.3,30.42,0,55.09-24.65,55.09-55.08s-24.67-55.06-55.09-55.06Z"/>
        </g>
        <g>
          <g class="cls-17">
            <path class="cls-4" d="M298.04,158.69c18.48-27.44,9.53-78.12-3.36-95.84-16.94-23.26-43.45-26.48-58.93-34.22C220.24,20.88,190.83,0,171.03,0c-27.71,0-41.8,10.25-64.21,16.25-24.2,6.46-65.27,44.22-87.82,68.95C-7.38,114.12-.67,157.62,6.06,166.05c12.59,15.76,27.83,31.43,46.98,40.62,18.34,8.79,34.25,8.34,47.94,9.3,10.38.72,22.49,5.86,49.51.21,19.16-3.98,28.31-5.55,38.15-8.61,20.87-6.48,87.04-15.68,109.39-48.89Z"/>
            <path class="cls-7" d="M294.46,157.74c18.43-26.5,10-76.1-2.66-93.63-16.78-23.25-43.01-26.06-58.34-33.68-15.19-7.56-43.69-28.67-63.27-28.87-27.02-.18-41.62,9.63-63.82,15.61-24.03,6.46-64.24,43.83-86,67.64C-5.09,112.67.01,155.13,7.15,164.02c12.2,15.26,27,30.68,46.22,39.46,18.48,8.39,34,7.41,47.28,8.47,10.24.81,22.49,6.26,49.51.69,19.28-3.95,28.54-5.86,38.09-8.67,20.25-5.95,84.09-14.24,106.21-46.23Z"/>
            <path class="cls-15" d="M290.89,156.78c18.31-25.61,10.46-74.08-1.97-91.41-16.61-23.24-42.57-25.63-57.75-33.13-14.86-7.37-42.46-28.78-61.82-29.11-26.32-.45-41.45,9.01-63.44,14.96-23.87,6.46-63.2,43.44-84.17,66.34C-2.8,111.22.72,152.62,8.24,161.98c11.85,14.74,26.18,29.93,45.46,38.3,18.62,7.99,33.75,6.49,46.61,7.64,10.1.9,22.49,6.67,49.51,1.17,19.41-3.92,28.76-6.17,38.03-8.72,19.63-5.41,81.06-12.86,103.02-43.58Z"/>
            <path class="cls-2" d="M287.31,155.83c18.24-24.7,10.92-72.06-1.27-89.2-16.45-23.23-42.13-25.21-57.16-32.59-14.52-7.17-41.23-28.85-60.37-29.36-25.62-.67-41.28,8.38-63.06,14.32-23.7,6.46-62.16,43.04-82.35,65.03C-.51,109.77,1.41,150.12,9.33,159.94c11.48,14.23,25.33,29.23,44.7,37.13,18.73,7.64,33.5,5.57,45.95,6.81,9.96.99,22.49,7.08,49.51,1.65,19.53-3.88,28.99-6.48,37.97-8.78,19.02-4.88,78.07-11.45,99.84-40.92Z"/>
            <path class="cls-21" d="M283.74,154.88c18.16-23.78,11.39-70.03-.58-86.99-16.28-23.22-41.7-24.78-56.57-32.05-14.19-6.98-39.99-28.92-58.91-29.6-24.93-.89-41.1,7.76-62.67,13.68-23.54,6.45-61.13,42.65-80.53,63.73C1.78,108.31,2.11,147.62,10.43,157.9c11.1,13.72,24.5,28.49,43.94,35.97s33.25,4.65,45.29,5.98c9.82,1.09,22.49,7.48,49.52,2.13,19.65-3.85,29.21-6.79,37.91-8.84,18.4-4.35,75.09-10.04,96.65-38.27Z"/>
            <path class="cls-23" d="M280.16,153.92c18.09-22.86,11.85-68.01.12-84.78-16.12-23.21-41.26-24.35-55.98-31.5-13.86-6.78-38.76-28.99-57.46-29.84-24.23-1.1-40.93,7.14-62.29,13.03-23.37,6.45-60.09,42.26-78.7,62.43-21.78,23.6-23.05,61.86-14.33,72.6,10.73,13.21,23.67,27.75,43.19,34.8,19,6.86,33.01,3.74,44.62,5.15,9.68,1.18,22.49,7.89,49.52,2.61,19.77-3.82,29.44-7.1,37.85-8.89,17.78-3.81,72.11-8.63,93.47-35.61Z"/>
            <path class="cls-6" d="M276.58,152.97c18.02-21.95,12.28-65.96.81-82.56-16-23.17-40.82-23.93-55.39-30.96-13.53-6.59-37.53-29.05-56-30.08-23.53-1.31-40.76,6.52-61.9,12.39-23.21,6.45-59.05,41.87-76.88,61.12-20.86,22.53-23.73,59.75-14.61,70.95,10.35,12.71,22.84,27.01,42.43,33.64,19.14,6.47,32.76,2.82,43.96,4.32,9.54,1.28,22.49,8.29,49.52,3.09,19.9-3.78,29.66-7.42,37.79-8.95,17.16-3.28,69.14-7.21,90.28-32.96Z"/>
            <path class="cls-19" d="M273.01,152.02c17.96-21.03,12.74-63.94,1.51-80.35-15.84-23.15-40.39-23.47-54.8-30.42-13.21-6.37-36.29-29.11-54.55-30.32-22.83-1.51-40.59,5.89-61.52,11.74-23.04,6.45-58.01,41.48-75.05,59.82-19.93,21.46-24.41,57.64-14.89,69.3s22.02,26.27,41.67,32.47,32.51,1.92,43.3,3.5c9.4,1.38,22.49,8.7,49.52,3.57,20.02-3.75,29.89-7.73,37.73-9,16.55-2.74,66.17-5.79,87.1-30.31Z"/>
            <path class="cls-22" d="M269.43,151.06c17.9-20.11,13.2-61.91,2.21-78.14-15.68-23.14-39.96-23.04-54.22-29.87-12.88-6.17-35.06-29.17-53.1-30.56-22.13-1.71-40.41,5.27-61.14,11.1-22.87,6.44-56.98,41.09-73.23,58.51-19.01,20.4-25.08,55.53-15.17,67.65s21.19,25.53,40.91,31.31c19.42,5.69,32.26,1.01,42.63,2.67,9.26,1.48,22.49,9.1,49.52,4.05,20.14-3.72,30.11-8.04,37.67-9.06,15.93-2.21,63.2-4.38,83.91-27.65Z"/>
            <path class="cls-13" d="M265.86,150.11c17.84-19.19,13.66-59.89,2.9-75.93-15.52-23.13-39.52-22.62-53.63-29.33-12.55-5.97-33.82-29.22-51.64-30.8-21.43-1.9-40.24,4.65-60.75,10.46-22.71,6.44-55.94,40.69-71.4,57.21-18.09,19.33-25.76,53.42-15.45,65.99,9.2,11.21,20.36,24.79,40.15,30.15,19.55,5.3,32.02.11,41.97,1.84,9.12,1.58,22.49,9.51,49.52,4.53,20.27-3.68,30.34-8.35,37.61-9.12,15.31-1.67,60.24-2.96,80.73-25Z"/>
            <path class="cls-10" d="M262.28,149.16c17.78-18.27,14.13-57.87,3.6-73.71-15.36-23.11-39.08-22.19-53.04-28.79-12.22-5.78-32.59-29.27-50.19-31.04-20.73-2.08-40.07,4.02-60.37,9.81-22.54,6.44-54.9,40.3-69.58,55.91-17.17,18.27-26.45,51.31-15.73,64.34,8.81,10.71,19.54,24.04,39.39,28.98s31.77-.78,41.31,1.01c8.98,1.69,22.49,9.91,49.52,5,20.39-3.65,30.56-8.65,37.55-9.17,14.7-1.1,57.28-1.53,77.54-22.34Z"/>
            <path class="cls-5" d="M258.7,148.2c17.73-17.34,14.59-55.84,4.29-71.5-15.19-23.1-38.65-21.76-52.45-28.24-11.89-5.58-31.35-29.32-48.74-31.28-20.03-2.26-39.89,3.4-59.98,9.17-22.38,6.43-53.87,39.91-67.75,54.6-16.25,17.2-27.13,49.21-16,62.69,8.43,10.21,18.71,23.29,38.63,27.82,19.83,4.5,31.52-1.67,40.64.18s22.49,10.32,49.52,5.48c20.51-3.62,30.79-8.96,37.48-9.23,14.08-.57,54.33-.11,74.35-19.69Z"/>
            <path class="cls-25" d="M255.13,147.25c17.69-16.41,15.05-53.82,4.99-69.29-15.03-23.09-38.21-21.34-51.86-27.7-11.56-5.39-30.12-29.36-47.28-31.52-19.33-2.44-39.72,2.78-59.6,8.53-22.21,6.43-52.83,39.52-65.93,53.3-15.33,16.14-27.81,47.1-16.28,61.04,8.04,9.72,17.89,22.54,37.87,26.65s31.27-2.56,39.98-.65,22.49,10.73,49.52,5.96c20.63-3.58,31.01-9.23,37.42-9.28,13.46-.1,51.39,1.32,71.17-17.03Z"/>
            <path class="cls-1" d="M251.55,146.3c17.65-15.48,15.52-51.8,5.68-67.08-14.86-23.08-37.77-20.91-51.27-27.16-11.23-5.2-28.89-29.4-45.83-31.76-18.63-2.6-39.55,2.15-59.22,7.88-22.05,6.43-51.79,39.13-64.11,51.99-14.41,15.07-28.5,45-16.56,59.39,7.65,9.22,17.06,21.79,37.11,25.49,20.11,3.7,31.02-3.44,39.32-1.48s22.49,11.13,49.52,6.44c20.76-3.55,31.24-9.58,37.36-9.34,12.84.5,48.44,2.76,67.98-14.38Z"/>
            <path class="cls-9" d="M247.98,145.34c17.61-14.54,15.99-49.78,6.38-64.86-14.69-23.08-37.33-20.48-50.68-26.61-10.9-5-27.65-29.43-44.38-32.01-17.93-2.77-39.38,1.53-58.83,7.24-21.88,6.43-50.76,38.74-62.28,50.69-13.49,14-29.19,42.89-16.84,57.73,7.26,8.72,16.24,21.04,36.35,24.32s30.77-4.32,38.66-2.3c8.42,2.15,22.49,11.54,49.52,6.92,20.88-3.52,31.46-9.89,37.3-9.39,12.22,1.04,45.51,4.2,64.8-11.73Z"/>
            <path class="cls-8" d="M244.4,144.39c17.58-13.6,16.45-47.76,7.08-62.65-14.52-23.07-36.89-20.06-50.09-26.07-10.56-4.81-26.42-29.45-42.92-32.25s-39.2.91-58.45,6.6c-21.72,6.42-49.72,38.35-60.46,49.39-12.57,12.94-29.88,40.79-17.12,56.08,6.87,8.23,15.41,20.29,35.59,23.16s30.52-5.19,37.99-3.13c8.28,2.28,22.49,11.94,49.53,7.4,21-3.48,31.68-10.2,37.24-9.45,11.6,1.57,42.58,5.65,61.61-9.07Z"/>
            <path class="cls-20" d="M240.82,143.44c17.56-12.65,16.92-45.74,7.77-60.44-14.35-23.06-36.45-19.64-49.51-25.53-10.23-4.62-25.19-29.47-41.47-32.49s-39.03.28-58.06,5.95c-21.55,6.42-48.68,37.95-58.63,48.08-11.65,11.87-30.57,38.69-17.4,54.43,6.48,7.74,14.59,19.53,34.83,21.99s30.26-6.06,37.33-3.96c8.14,2.41,22.49,12.35,49.53,7.88,21.12-3.45,31.91-10.52,37.18-9.51,10.98,2.1,39.66,7.1,58.43-6.42Z"/>
            <path class="cls-24" d="M237.25,142.49c17.54-11.69,17.39-43.72,8.47-58.23-14.18-23.06-36.01-19.21-48.92-24.99-9.9-4.43-23.96-29.48-40.01-32.73s-38.86-.34-57.68,5.31c-21.38,6.42-47.64,37.56-56.81,46.78-10.73,10.81-31.26,36.6-17.67,52.78,6.08,7.24,13.76,18.78,34.07,20.83,20.67,2.09,30.01-6.92,36.67-4.79,7.99,2.56,22.49,12.75,49.53,8.36,21.25-3.42,32.13-10.83,37.12-9.56,10.36,2.64,36.74,8.57,55.24-3.76Z"/>
            <path class="cls-16" d="M233.67,141.53c17.52-10.71,17.88-41.71,9.16-56.01-13.96-23.08-35.56-18.82-48.33-24.44-9.56-4.25-22.74-29.48-38.56-32.97s-38.68-.96-57.29,4.67c-21.22,6.41-46.61,37.17-54.98,45.47-9.81,9.74-31.96,34.5-17.95,51.13,5.69,6.75,12.94,18.02,33.31,19.67s29.75-7.78,36-5.62c7.84,2.71,22.49,13.16,49.53,8.84,21.37-3.38,32.36-11.14,37.06-9.62,9.75,3.16,33.82,10.04,52.06-1.11Z"/>
            <path class="cls-26" d="M230.1,140.58c17.51-9.73,18.35-39.69,9.86-53.8-13.8-23.07-35.12-18.39-47.74-23.9-9.23-4.06-21.52-29.47-37.11-33.21-14.47-3.48-38.51-1.59-56.91,4.02-21.05,6.41-45.57,36.78-53.16,44.17-8.89,8.67-32.67,32.41-18.23,49.48,5.3,6.26,12.11,17.26,32.55,18.5s29.49-8.63,35.34-6.45c7.68,2.87,22.49,13.56,49.53,9.32,21.49-3.35,32.59-11.47,37-9.67,9.14,3.68,30.91,11.53,48.87,1.55Z"/>
            <path class="cls-14" d="M226.52,139.63c17.5-8.73,18.81-37.67,10.55-51.59-13.63-23.06-34.69-17.96-47.15-23.36-8.9-3.87-20.3-29.45-35.65-33.45-13.79-3.6-38.34-2.21-56.53,3.38-20.89,6.41-44.53,36.39-51.34,42.87-7.97,7.61-33.4,30.35-18.51,47.82,4.9,5.77,11.29,16.47,31.79,17.34,21.09.83,29.22-9.48,34.68-7.28,7.52,3.04,22.49,13.97,49.53,9.79,21.62-3.31,32.81-11.78,36.94-9.73,8.52,4.21,28,13.03,45.69,4.2Z"/>
            <path class="cls-18" d="M222.94,138.67c17.49-7.71,19.28-35.64,11.25-49.37-13.47-23.05-34.25-17.54-46.56-22.81-8.56-3.67-19.08-29.43-34.2-33.69-13.11-3.73-38.16-2.83-56.14,2.73-20.72,6.41-43.5,36-49.51,41.56-7.05,6.54-34.08,28.24-18.79,46.17,4.51,5.27,10.46,15.72,31.04,16.17,21.23.43,28.96-10.33,34.01-8.11,7.35,3.2,22.49,14.38,49.53,10.27,21.74-3.28,33.04-12.09,36.88-9.79,7.9,4.75,25.09,14.55,42.5,6.86Z"/>
          </g>
          <path class="cls-3" d="M206.32,59.26c-4.87-.27-9.57.41-13.95,1.86-5.75-29.08-30.63-51.7-61.59-53.32-30.03-1.54-56.41,17.13-65.94,44.1h-.04c-25.4-1.33-47.05,18.18-48.38,43.59-1.32,25.39,18.19,47.05,43.59,48.36,13.1.68,25.19-4.18,34.01-12.52,8.82,5.14,18.96,8.32,29.86,8.89,19.45,1.02,37.39-6.48,50.21-19.22,6.58,8.48,16.67,14.14,28.23,14.75,21.12,1.11,39.14-15.14,40.24-36.25,1.09-21.13-15.14-39.14-36.26-40.23Z"/>
        </g>
      </g>
    </g>
  </g>
</svg>