<?xml version="1.0" encoding="UTF-8"?>
<svg xmlns="http://www.w3.org/2000/svg" viewBox="0 0 507.34 334.31">
  <defs>
    <style>
      .cls-1 {
        fill: #eff8fb;
      }

      .cls-2 {
        fill: #b3c1cd;
        opacity: .62;
      }

      .cls-3 {
        fill: #eaecef;
        opacity: .14;
      }

      .cls-4, .cls-5 {
        fill: #fff;
      }

      .cls-6 {
        fill: #bec9d3;
        opacity: .52;
      }

      .cls-7 {
        fill: #d9dee4;
        opacity: .29;
      }

      .cls-5 {
        opacity: 0;
      }

      .cls-8 {
        fill: #f6f7f8;
        opacity: .05;
      }

      .cls-9 {
        fill: #a9b9c6;
        opacity: .71;
      }

      .cls-10 {
        fill: #aebdc9;
        opacity: .67;
      }

      .cls-11 {
        fill: #c3cdd6;
        opacity: .48;
      }

      .cls-12 {
        isolation: isolate;
      }

      .cls-13 {
        fill: #eaf2f5;
      }

      .cls-14 {
        fill: #e5f2f5;
      }

      .cls-15 {
        fill: #c8d1da;
        opacity: .43;
      }

      .cls-16 {
        fill: #90a7b8;
        opacity: .95;
      }

      .cls-17 {
        fill: #f0f1f3;
        opacity: .1;
      }

      .cls-18 {
        fill: #9aaebd;
        opacity: .86;
      }

      .cls-19 {
        mix-blend-mode: multiply;
      }

      .cls-20 {
        fill: #8ba4b5;
      }

      .cls-21 {
        fill: #d3dae0;
        opacity: .33;
      }

      .cls-22 {
        fill: #a4b5c3;
        opacity: .76;
      }

      .cls-23 {
        fill: #e4e7eb;
        opacity: .19;
      }

      .cls-24 {
        fill: #ced5dd;
        opacity: .38;
      }

      .cls-25 {
        fill: #dfe3e8;
        opacity: .24;
      }

      .cls-26 {
        fill: #9fb2c0;
        opacity: .81;
      }

      .cls-27 {
        fill: #b9c5d0;
        opacity: .57;
      }

      .cls-28 {
        fill: #95aabb;
        opacity: .9;
      }
    </style>
  </defs>
  <g class="cls-12">
    <g id="Layer_1">
      <g>
        <g>
          <g class="cls-19">
            <path class="cls-5" d="M475.98,251.14c37.68-37.83,35.82-68.12,23.26-100.59-9.47-24.47-13.89-40.68-29.67-63.18-14.2-20.27-44.26-46.15-89.26-52.56-43.57-6.19-146.89,64.82-182.5,74.36-38.42,10.27-85.34,37.4-134.62,57.32C37.99,176.68.74,208.93.08,226.04c-1.04,27.83,8.16,39.2,20.52,50.37,12.35,11.19,37.91,30.57,53.12,37.87,14.47,6.93,52.03,17.05,64.69,18.4,27.75,2.97,37.85-5.53,59.96-3.16,28.79,3.11,38.4,5.14,51.52,4.75,12.05-.35,21.86-2.87,28.4-3.16,9.55-.41,24.02.88,35.78-1.58,30.43-6.33,35.18-4.06,50.82-8.93,33.14-10.29,80.14-38.38,111.09-69.45Z"/>
            <path class="cls-8" d="M471.66,249.7c36.62-36.22,34.89-66.06,22.41-97.55-9.58-23.92-14.45-39.61-29.95-61.51-14.02-19.81-42.45-45.37-87.16-52.64-43.08-6.89-143.67,63.27-178.94,72.77-38.16,10.27-83.41,37.3-131.61,56.78C41.72,177.53,1.91,208.09,1.56,225.61c-.54,26.9,8.83,37.62,21.19,48.57,12.45,11.02,37.36,30.21,52.46,37.01s50.64,15.49,63.57,16.81c27.46,2.86,37.54-4.33,59.54-2.08,28.67,2.96,37.75,4.56,50.81,4.24,11.77-.3,21.35-2.44,28.41-2.7,10.13-.37,24.31.33,35.9-2.06,29.65-6.1,34.36-3.66,50.31-8.7,32.66-10.23,77.53-37.17,107.9-66.99Z"/>
            <path class="cls-17" d="M467.34,248.26c35.69-34.47,34.07-64.04,21.55-94.52-9.61-23.41-15.02-38.53-30.23-59.84-13.83-19.35-40.61-44.69-85.06-52.71s-140.45,61.72-175.39,71.18c-37.9,10.26-81.47,37.2-128.61,56.24C45.45,178.37,3.08,207.24,3.04,225.17c-.06,25.96,9.51,36.05,21.87,46.78,12.55,10.85,36.83,29.84,51.8,36.15s49.26,13.9,62.45,15.21c27.16,2.69,37.23-3.14,59.13-1,28.55,2.81,37.1,4,50.1,3.74,11.5-.23,20.85-2,28.43-2.23,10.72-.33,24.59-.22,36.01-2.54,28.86-5.88,33.53-3.29,49.8-8.48,32.16-10.25,75.03-35.86,104.72-64.54Z"/>
            <path class="cls-3" d="M463.02,246.82c34.68-32.8,33.18-62,20.7-91.48-9.68-22.87-15.58-37.46-30.51-58.17-13.65-18.89-38.79-43.95-82.97-52.79s-137.23,60.16-171.83,69.6c-37.63,10.26-79.54,37.09-125.61,55.7-23.63,9.55-68.57,36.71-68.3,55.07.37,25.01,10.18,34.47,22.54,44.98,12.65,10.68,36.32,29.45,51.14,35.29,15.76,6.21,47.87,12.33,61.33,13.62,26.87,2.57,36.92-1.95,58.71.08,28.43,2.66,36.44,3.43,49.39,3.23,11.22-.18,20.34-1.57,28.44-1.77,11.3-.29,24.88-.77,36.13-3.02,28.08-5.66,32.71-2.91,49.3-8.26,31.67-10.22,72.47-34.6,101.53-62.08Z"/>
            <path class="cls-23" d="M458.71,245.38c33.68-31.12,32.29-59.96,19.85-88.45-9.76-22.34-16.14-36.38-30.79-56.49-13.47-18.42-36.97-43.2-80.87-52.87-41.55-9.15-134.01,58.61-168.27,68.01-37.37,10.25-77.6,36.99-122.6,55.16-23.11,9.33-70.61,34.78-70.03,53.58.75,24.06,10.82,32.92,23.22,43.18s35.81,29.04,50.48,34.43c16.21,5.96,46.49,10.76,60.22,12.03,26.57,2.44,36.61-.75,58.29,1.16,28.31,2.51,35.79,2.87,48.68,2.73,10.95-.12,19.84-1.13,28.46-1.3,11.88-.25,25.16-1.32,36.24-3.49,27.3-5.44,31.89-2.52,48.79-8.04,31.18-10.19,69.91-33.34,98.34-59.62Z"/>
            <path class="cls-25" d="M454.39,243.94c32.66-29.45,31.4-57.91,18.99-85.41-9.84-21.81-16.71-35.3-31.07-54.82-13.29-17.96-35.14-42.45-78.77-52.94-41.04-9.88-130.79,57.05-164.72,66.42-37.11,10.25-75.66,36.89-119.6,54.61-22.58,9.11-72.67,32.85-71.75,52.09,1.1,23.1,11.49,31.35,23.9,41.38,12.82,10.36,35.31,28.62,49.82,33.57,16.67,5.69,45.1,9.2,59.1,10.43,26.27,2.32,36.3.44,57.88,2.24,28.19,2.37,35.14,2.3,47.97,2.22,10.67-.06,19.33-.69,28.47-.84,12.46-.21,25.45-1.85,36.36-3.97,26.52-5.16,31.07-2.13,48.28-7.82,30.69-10.15,67.35-32.09,95.15-57.16Z"/>
            <path class="cls-7" d="M450.07,242.5c31.65-27.78,30.5-55.87,18.14-82.38-9.92-21.27-17.27-34.23-31.35-53.15-13.11-17.5-33.32-41.69-76.67-53.02-40.53-10.6-127.57,55.5-161.16,64.84-36.85,10.25-73.73,36.78-116.59,54.07-22.05,8.9-74.74,30.91-73.48,50.59,1.42,22.15,12.16,29.78,24.57,39.58,12.91,10.2,34.82,28.18,49.16,32.71,17.14,5.41,43.72,7.63,57.98,8.84,25.97,2.2,35.99,1.63,57.46,3.32,28.07,2.22,34.49,1.88,47.26,1.72,10.39-.14,18.83-.26,28.49-.37,13.04-.18,25.74-2.4,36.47-4.45,25.74-4.92,30.25-1.74,47.77-7.6,30.21-10.1,64.78-30.83,91.96-54.7Z"/>
            <path class="cls-21" d="M445.75,241.06c30.62-26.12,29.6-53.82,17.29-79.34-10-20.74-17.84-33.15-31.63-51.48-12.92-17.04-31.49-40.93-74.58-53.1-40.03-11.31-124.35,53.95-157.6,63.25-36.59,10.24-71.79,36.68-113.59,53.53-21.53,8.68-76.82,28.96-75.21,49.1,1.7,21.18,12.83,28.21,25.25,37.79s34.34,27.73,48.5,31.85c17.61,5.12,42.33,6.06,56.86,7.25,25.68,2.09,35.68,2.83,57.04,4.4,27.96,2.07,33.83,1.33,46.55,1.21,10.12-.1,18.32.18,28.5.09,13.63-.14,26.02-2.94,36.59-4.93,24.96-4.69,29.43-1.34,47.27-7.38,29.72-10.06,62.2-29.58,88.77-52.24Z"/>
            <path class="cls-24" d="M441.43,239.62c29.59-24.46,28.69-51.77,16.43-76.31-10.09-20.2-18.37-32.1-31.91-49.81-12.71-16.6-29.67-40.16-72.48-53.18-39.52-12.02-121.13,52.39-154.05,61.66-36.33,10.24-69.86,36.58-110.58,52.99-21,8.46-78.92,27.02-76.94,47.61s13.49,26.63,25.92,35.99c13.1,9.86,33.87,27.26,47.84,30.99,18.09,4.82,40.94,4.5,55.74,5.65,25.38,1.98,35.37,4.02,56.63,5.48,27.84,1.92,33.18.58,45.84.71,9.84.1,17.82.61,28.52.56,14.21-.1,26.31-3.49,36.7-5.41,24.18-4.46,28.61-.95,46.76-7.15,29.24-10,59.63-28.33,85.58-49.78Z"/>
            <path class="cls-15" d="M437.11,238.18c28.56-22.8,27.77-49.72,15.58-73.27-10.18-19.67-18.93-31.03-32.2-48.13-12.52-16.14-27.85-39.38-70.38-53.25-39.02-12.72-117.91,50.84-150.49,60.08-36.07,10.23-67.92,36.47-107.58,52.44-20.48,8.24-81.03,25.07-78.66,46.12,2.16,19.26,14.16,25.06,26.6,34.19,13.2,9.69,33.4,26.79,47.18,30.13,18.58,4.51,39.56,2.94,54.63,4.06,25.08,1.87,35.06,5.21,56.21,6.56,27.72,1.77,32.53,0,45.13.2,9.56.15,17.31,1.05,28.53,1.02,14.79-.06,26.59-4.04,36.82-5.88,23.4-4.23,27.79-.55,46.25-6.93,28.75-9.95,57.04-27.08,82.39-47.32Z"/>
            <path class="cls-11" d="M432.8,236.74c27.51-21.15,26.85-47.67,14.72-70.24-10.28-19.13-19.49-29.96-32.48-46.46-12.34-15.68-26.03-38.6-68.28-53.33-38.51-13.42-114.69,49.28-146.93,58.49-35.8,10.23-65.99,36.37-104.57,51.9-19.95,8.03-83.16,23.12-80.39,44.62,2.36,18.3,14.83,23.48,27.27,32.39,13.3,9.52,32.93,26.29,46.52,29.27,19.07,4.18,38.17,1.38,53.51,2.47,24.78,1.76,34.75,6.41,55.79,7.64,27.6,1.63,31.88-.57,44.42-.3,9.29.19,16.81,1.48,28.55,1.49,15.37-.02,26.88-4.58,36.93-6.36,22.62-4,26.98-.15,45.74-6.71,28.27-9.89,54.45-25.84,79.2-44.86Z"/>
            <path class="cls-6" d="M428.48,235.3c26.46-19.51,25.93-45.62,13.87-67.2-10.38-18.59-20.05-28.88-32.76-44.79-12.15-15.22-24.21-37.82-66.19-53.41-38.01-14.12-111.47,47.73-143.38,56.9-35.54,10.22-64.05,36.27-101.57,51.36-19.43,7.81-85.31,21.17-82.12,43.13,2.52,17.34,15.51,21.91,27.95,30.6,13.4,9.35,32.47,25.79,45.86,28.41,19.57,3.83,36.78-.18,52.39.87,24.48,1.66,34.43,7.6,55.38,8.72,27.48,1.48,31.22-1.14,43.71-.81,9.01.24,16.3,1.92,28.56,1.95,15.96.02,27.16-5.13,37.05-6.84,21.83-3.77,26.16.25,45.23-6.49,27.79-9.83,51.86-24.6,76.01-42.4Z"/>
            <path class="cls-27" d="M424.16,233.86c25.4-17.87,24.99-43.56,13.02-64.17-10.49-18.05-20.62-27.8-33.04-43.12s-22.39-37.03-64.09-53.48c-37.51-14.8-108.24,46.17-139.82,55.32-35.28,10.22-62.12,36.16-98.56,50.82-18.9,7.59-87.49,19.22-83.85,41.64,2.66,16.39,16.18,20.33,28.63,28.8,13.5,9.18,32,25.27,45.2,27.55,20.07,3.46,35.4-1.74,51.27-.72,24.18,1.55,34.12,8.79,54.96,9.8,27.36,1.33,30.57-1.72,43-1.31,8.73.29,15.8,2.35,28.58,2.42,16.54.06,27.45-5.68,37.17-7.32,21.05-3.55,25.34.66,44.73-6.27,27.31-9.76,49.26-23.36,72.82-39.94Z"/>
            <path class="cls-2" d="M419.84,232.42c24.33-16.24,24.05-41.5,12.16-61.13-10.6-17.5-21.18-26.73-33.32-41.44s-20.57-36.23-61.99-53.56c-37.01-15.49-105.02,44.62-136.26,53.73-35.02,10.21-60.18,36.06-95.56,50.28-18.38,7.38-89.69,17.28-85.57,40.15,2.78,15.44,16.85,18.75,29.3,27,13.6,9.01,31.54,24.74,44.54,26.69,20.57,3.08,34.01-3.3,50.15-2.31,23.88,1.45,33.81,9.99,54.54,10.89,27.24,1.18,29.92-2.3,42.29-1.82,8.46.33,15.29,2.79,28.59,2.88,17.12.1,27.73-6.23,37.28-7.8,20.27-3.32,24.53,1.07,44.22-6.05,26.84-9.69,46.64-22.13,69.63-37.49Z"/>
            <path class="cls-10" d="M415.52,230.98c23.25-14.63,23.11-39.44,11.31-58.1-10.72-16.96-21.75-25.65-33.6-39.77s-18.76-35.43-59.9-53.64c-36.52-16.17-101.8,43.07-132.71,52.14-34.76,10.21-58.25,35.96-92.56,49.73-17.85,7.16-91.93,15.34-87.3,38.65,2.88,14.49,17.52,17.17,29.98,25.2,13.7,8.83,31.08,24.21,43.88,25.83,21.07,2.67,32.62-4.85,49.04-3.91,23.58,1.36,33.5,11.18,54.13,11.97,27.12,1.04,29.27-2.89,41.58-2.32,8.18.37,14.79,3.22,28.61,3.35,17.7.14,28.02-6.78,37.4-8.27,19.48-3.1,23.71,1.47,43.71-5.83,26.36-9.62,44.02-20.92,66.45-35.03Z"/>
            <path class="cls-9" d="M411.21,229.54c22.15-13.03,22.15-37.37,10.45-55.06-10.84-16.4-22.32-24.57-33.88-38.1s-16.95-34.62-57.8-53.72c-36.02-16.84-98.58,41.51-129.15,50.56-34.5,10.2-56.31,35.85-89.55,49.19-17.33,6.94-94.21,13.41-89.03,37.16,2.96,13.54,18.2,15.59,30.65,23.4,13.8,8.65,30.62,23.66,43.22,24.97,21.57,2.24,31.23-6.4,47.92-5.5,23.28,1.26,33.19,12.37,53.71,13.05,27,.89,28.61-3.47,40.87-2.83,7.9.42,14.28,3.66,28.62,3.81,18.28.18,28.3-7.33,37.51-8.75,18.7-2.88,22.9,1.89,43.2-5.61,25.88-9.55,41.39-19.71,63.26-32.57Z"/>
            <path class="cls-22" d="M406.89,228.1c21.05-11.44,21.19-35.29,9.6-52.03-10.98-15.85-22.89-23.49-34.16-36.43-11.25-12.91-15.15-33.81-55.7-53.79-35.53-17.51-95.36,39.96-125.6,48.97-34.24,10.2-54.37,35.75-86.55,48.65-16.8,6.73-96.54,11.5-90.76,35.67,3.02,12.61,18.87,14.01,31.33,21.61,13.9,8.48,30.16,23.1,42.56,24.11,22.07,1.79,29.85-7.95,46.8-7.09,22.98,1.17,32.88,13.56,53.29,14.13,26.88.74,27.96-4.06,40.15-3.33,7.63.46,13.78,4.09,28.64,4.28,18.87.21,28.58-7.88,37.63-9.23,17.91-2.67,22.09,2.3,42.7-5.38,25.41-9.47,38.76-18.52,60.07-30.11Z"/>
            <path class="cls-26" d="M402.57,226.66c19.94-9.88,20.23-33.21,8.75-48.99-11.11-15.28-23.46-22.41-34.44-34.76s-13.35-32.99-53.6-53.87c-35.05-18.18-92.14,38.4-122.04,47.38-33.98,10.19-52.44,35.65-83.54,48.11-16.28,6.51-98.93,9.61-92.48,34.17,3.06,11.68,19.55,12.43,32,19.81,14,8.3,29.69,22.53,41.9,23.25,22.57,1.32,28.46-9.5,45.68-8.69,22.68,1.08,32.57,14.76,52.88,15.21,26.77.59,27.31-4.65,39.44-3.84,7.35.49,13.27,4.53,28.65,4.74,19.45.25,28.87-8.44,37.74-9.71,17.13-2.45,21.28,2.72,42.19-5.16,24.93-9.4,36.11-17.36,56.88-27.65Z"/>
            <path class="cls-18" d="M398.25,225.22c18.82-8.34,19.25-31.12,7.89-45.96s-24.05-21.31-34.72-33.08c-10.92-11.95-11.55-32.17-51.51-53.95-34.57-18.84-88.92,36.85-118.48,45.8-33.71,10.19-50.5,35.54-80.54,47.56-15.75,6.29-101.39,7.75-94.21,32.68,3.1,10.76,20.23,10.82,32.68,18.01,14.12,8.09,29.22,21.96,41.24,22.39,23.06.82,27.07-11.05,44.56-10.28,22.38.99,32.26,15.95,52.46,16.29,26.65.44,26.66-5.25,38.73-4.34,7.08.53,12.77,4.96,28.67,5.21,20.03.29,29.15-8.99,37.86-10.19,16.34-2.24,20.47,3.14,41.68-4.94,24.46-9.32,33.44-16.22,53.69-25.19Z"/>
            <path class="cls-28" d="M393.93,223.78c17.69-6.83,18.27-29.03,7.04-42.93s-24.61-20.24-35-31.41c-10.74-11.49-9.76-31.34-49.41-54.03-34.09-19.5-85.7,35.3-114.93,44.21-33.45,10.19-48.57,35.44-77.53,47.02-15.23,6.08-103.93,5.92-95.94,31.19,3.12,9.85,20.9,9.25,33.36,16.21,14.22,7.92,28.75,21.77,40.58,21.53,23.55-.49,25.68-12.57,43.45-11.87,22.08.94,31.95,17.14,52.04,17.37,26.53.3,26.01-5.85,38.02-4.85,6.8.57,12.26,5.4,28.68,5.67,20.61.33,29.43-9.55,37.97-10.67,15.56-2.03,19.66,3.56,41.17-4.72,23.99-9.23,30.78-15.11,50.5-22.73Z"/>
            <path class="cls-16" d="M389.61,222.34c16.57-5.36,17.28-26.92,6.19-39.89-11.58-13.54-25.18-19.16-35.29-29.74-10.55-11.03-8-30.45-47.31-54.1-33.64-20.11-82.48,33.74-111.37,42.62-33.19,10.18-46.63,35.34-74.53,46.48-14.7,5.86-106.58,4.14-97.67,29.7,3.13,8.96,21.58,7.67,34.03,14.41,14.32,7.75,28.28,20.79,39.92,20.67,24.04-.26,24.3-14.12,42.33-13.47,21.78.83,31.64,18.34,51.63,18.45,26.41.15,25.36-6.45,37.31-5.35,6.52.6,11.76,5.83,28.7,6.14,21.2.37,29.72-10.11,38.09-11.14,14.77-1.82,18.86,4.01,40.66-4.5,23.53-9.12,28.1-14.06,47.31-20.27Z"/>
            <path class="cls-20" d="M385.3,220.9c15.45-3.93,16.29-24.8,5.33-36.86-11.76-12.93-25.74-18.09-35.57-28.07-10.37-10.57-6.19-29.67-45.21-54.18-33.14-20.8-79.26,32.19-107.81,41.04-32.93,10.18-44.7,35.23-71.52,45.94-14.18,5.64-109.38,2.44-99.39,28.2,3.12,8.09,22.25,6.09,34.71,12.62,14.41,7.58,27.79,20.2,39.26,19.8,24.51-.84,22.91-15.68,41.21-15.06,21.48.72,31.33,19.53,51.21,19.53,26.29,0,24.71-7.07,36.6-5.86,6.25.62,11.25,6.27,28.71,6.6,21.78.41,30-10.68,38.2-11.62,13.98-1.64,18.05,4.41,40.16-4.28,23.05-9.06,25.43-13.07,44.12-17.81Z"/>
          </g>
          <path class="cls-1" d="M375.35,168.56c-3.4-11.87-10.57-22.21-20.18-29.55,2.44-6.52,3.93-13.52,4.24-20.82,1.6-37.32-27.36-68.87-64.69-70.47-28.54-1.23-53.67,15.43-64.65,40-1.95-.23-3.93-.43-5.94-.53-23.57-1-44.88,9.98-58.05,27.52-3.71-1.45-7.71-2.36-11.92-2.54-20.28-.88-37.44,14.86-38.31,35.16-.14,3.34.21,6.58.92,9.71-7.39,1.23-13.76,5.64-17.55,11.86-6.14-8.28-15.82-13.83-26.92-14.3-15.38-.66-28.85,8.59-34.32,22.09-.68-.08-1.37-.16-2.08-.2-14.03-.59-25.9,10.29-26.5,24.34-.6,14.04,10.29,25.9,24.33,26.5,7.23.31,13.86-2.44,18.69-7.07,4.89,2.97,10.58,4.8,16.7,5.08,5.53,12.27,17.57,21.04,31.91,21.64,14.88.64,28.05-7.68,34.36-20.16,4.21,1.91,8.83,3.11,13.72,3.32,1.54.06,3.06,0,4.56-.12,8.61,11.5,22.13,19.2,37.62,19.86,15.12.64,28.93-5.55,38.48-15.82,5.86,11.27,17.4,19.18,31.02,19.77,14.45.62,27.27-7.23,33.79-19.1,7.11,3.69,15.14,5.92,23.67,6.29,18.63.8,35.55-7.44,46.48-20.84,2.58.94,5.31,1.52,8.2,1.66,14.73.62,27.15-10.8,27.79-25.51.62-14.67-10.72-27.07-25.37-27.77Z"/>
          <path class="cls-14" d="M376.41,169.61c-3.4-11.87-10.57-22.21-20.2-29.55,2.46-6.52,3.93-13.52,4.26-20.82,1.58-37.32-27.36-68.87-64.69-70.47-28.52-1.23-53.67,15.43-64.65,40-1.95-.23-3.95-.43-5.94-.53-23.59-1-44.88,9.98-58.05,27.52-3.71-1.45-7.71-2.36-11.92-2.56-20.29-.86-37.44,14.88-38.31,35.16-.14,3.36.21,6.6.91,9.73-7.38,1.23-13.75,5.64-17.54,11.86-6.14-8.28-15.83-13.83-26.92-14.3-15.38-.66-28.85,8.59-34.32,22.09-.68-.08-1.38-.16-2.08-.2-14.03-.61-25.91,10.29-26.5,24.34-.61,14.04,10.29,25.9,24.33,26.5,7.23.31,13.86-2.44,18.69-7.07,4.89,2.97,10.58,4.8,16.69,5.08,5.54,12.25,17.58,21.04,31.92,21.64,14.88.64,28.05-7.68,34.37-20.16,4.2,1.91,8.82,3.11,13.71,3.3,1.54.08,3.06.02,4.56-.12,8.61,11.52,22.13,19.22,37.62,19.88,15.12.64,28.91-5.55,38.48-15.82,5.86,11.25,17.4,19.18,31,19.77,14.47.62,27.29-7.23,33.81-19.1,7.11,3.69,15.12,5.92,23.67,6.29,18.61.8,35.55-7.46,46.48-20.86,2.58.96,5.31,1.54,8.2,1.68,14.71.62,27.15-10.8,27.79-25.51.62-14.67-10.72-27.07-25.37-27.77Z"/>
        </g>
        <g>
          <g class="cls-19">
            <path class="cls-5" d="M333.81,205.8c17.36-30.39-.33-71.86-8.71-93.48-6.31-16.31-27.27-38.54-43.65-46.72-16.41-8.2-22.62-16.89-45.02-19.14-29.18-2.93-67.91,19.38-91.63,25.72-25.61,6.86-69.51,27.81-93.38,53.98-27.91,30.61-28.56,54.94-21.05,72.75,8.03,19.02,21.38,29.47,29.61,36.91,8.23,7.46,17.33,14.02,27.47,18.89,19.4,9.32,36.24,8.85,50.72,9.84,11,.76,39.35,3.07,67.94-2.89,20.27-4.24,38.61-7.29,49.04-10.53,22.07-6.86,64.16-19.98,78.65-45.35Z"/>
            <path class="cls-8" d="M330.67,204.43c17.36-29.44.55-69.52-7.77-90.49-6.38-15.94-26.42-37.14-42.65-45.2-16.06-8-21.39-18.41-43.98-21.22-28.83-3.59-67.73,19.84-91.22,26.17-25.43,6.85-68.9,27.33-91.94,52.54-26.94,29.48-29.07,53.74-21.27,71.69,8.05,18.53,21.38,28.21,29.9,35.44s17.58,13.37,27.67,17.99c19.53,8.94,35.86,7.66,49.9,8.76,10.85.85,38.55,3.58,67.14-2.3,20.4-4.2,37.86-7.43,47.98-10.4,21.42-6.29,61.91-18.49,76.23-42.97Z"/>
            <path class="cls-17" d="M327.52,203.06c17.27-28.54,1.5-67.21-6.84-87.51-6.4-15.6-25.57-35.75-41.64-43.69-15.71-7.79-20.16-19.93-42.93-23.31-28.47-4.23-67.55,20.31-90.82,26.61-25.26,6.85-68.3,26.86-90.5,51.1-25.96,28.35-29.58,52.55-21.49,70.63,8.06,18.03,21.38,26.95,30.19,33.96s17.82,12.72,27.86,17.1c19.66,8.56,35.48,6.47,49.08,7.68,10.7.95,37.75,4.09,66.34-1.71,20.53-4.17,37.1-7.58,46.93-10.28,20.76-5.72,59.57-17.05,73.82-40.58Z"/>
            <path class="cls-3" d="M324.38,201.69c17.23-27.61,2.42-64.89-5.9-84.53-6.45-15.24-24.73-34.36-40.64-42.18-15.35-7.59-18.92-21.43-41.89-25.39-28.11-4.85-67.36,20.77-90.41,27.05-25.08,6.84-67.69,26.38-89.06,49.65-24.99,27.22-30.09,51.35-21.72,69.57s21.37,25.69,30.49,32.49c8.64,6.45,18.07,12.07,28.05,16.2,19.79,8.19,35.1,5.29,48.26,6.6,10.55,1.05,36.94,4.6,65.54-1.13,20.66-4.13,36.35-7.72,45.87-10.15,20.11-5.16,57.29-15.58,71.4-38.19Z"/>
            <path class="cls-23" d="M321.23,200.32c17.19-26.69,3.33-62.56-4.96-81.55-6.5-14.88-23.88-32.97-39.63-40.66-15-7.38-17.69-22.92-40.85-27.48-27.75-5.46-67.18,21.24-90.01,27.5-24.91,6.84-67.08,25.9-87.61,48.21-24.02,26.09-30.61,50.16-21.94,68.51,8.05,17.05,21.35,24.43,30.78,31.01,8.76,6.12,18.32,11.42,28.25,15.31,19.92,7.8,34.72,4.12,47.44,5.52,10.4,1.14,36.14,5.11,64.75-.54,20.79-4.09,35.59-7.87,44.81-10.03,19.46-4.59,55-14.11,68.98-35.81Z"/>
            <path class="cls-25" d="M318.09,198.95c17.16-25.76,4.24-60.24-4.02-78.56-6.55-14.53-23.04-31.58-38.63-39.15-14.65-7.18-16.45-24.4-39.81-29.56-27.38-6.05-67,21.7-89.6,27.94-24.73,6.84-66.47,25.42-86.17,46.77-23.04,24.96-31.13,48.96-22.17,67.45,8.03,16.57,21.33,23.18,31.07,29.54,8.88,5.79,18.57,10.76,28.44,14.41,20.06,7.42,34.34,2.94,46.62,4.44,10.25,1.24,35.34,5.62,63.95.05,20.92-4.06,34.84-8.01,43.75-9.9,18.81-4.02,52.72-12.64,66.56-33.42Z"/>
            <path class="cls-7" d="M314.94,197.58c17.13-24.83,5.15-57.91-3.09-75.58-6.61-14.17-22.21-30.16-37.63-37.63-14.32-6.94-15.21-25.87-38.76-31.65-27.02-6.62-66.82,22.17-89.19,28.38-24.56,6.83-65.86,24.94-84.73,45.32-22.07,23.84-31.66,47.77-22.39,66.39,8.01,16.08,21.3,21.94,31.36,28.06,8.99,5.47,18.82,10.1,28.64,13.52,20.2,7.03,33.95,1.77,45.8,3.35,10.1,1.35,34.54,6.14,63.15.64,21.05-4.02,34.08-8.16,42.69-9.77,18.15-3.46,50.44-11.17,64.14-31.04Z"/>
            <path class="cls-21" d="M311.8,196.21c17.1-23.9,6.05-55.59-2.15-72.6-6.66-13.82-21.36-28.77-36.62-36.12-13.97-6.73-13.97-27.33-37.72-33.73-26.66-7.18-66.63,22.64-88.79,28.83-24.38,6.83-65.26,24.47-83.29,43.88-21.09,22.71-32.2,46.58-22.61,65.33,7.98,15.6,21.27,20.69,31.66,26.59,9.09,5.16,19.08,9.44,28.83,12.62,20.34,6.63,33.57.61,44.98,2.27,9.95,1.45,33.74,6.65,62.35,1.22,21.18-3.98,33.33-8.3,41.63-9.65,17.5-2.89,48.17-9.7,61.73-28.65Z"/>
            <path class="cls-24" d="M308.66,194.84c17.08-22.97,6.96-53.26-1.21-69.61-6.72-13.46-20.52-27.37-35.62-34.61-13.62-6.52-12.73-28.78-36.68-35.81-26.3-7.73-66.45,23.1-88.38,29.27-24.21,6.83-64.65,23.99-81.85,42.44-20.12,21.58-32.74,45.39-22.84,64.27,7.94,15.13,21.24,19.46,31.95,25.11,9.19,4.85,19.33,8.78,29.03,11.73,20.49,6.23,33.19-.55,44.16,1.19,9.8,1.56,32.94,7.16,61.55,1.81,21.31-3.95,32.57-8.45,40.58-9.52,16.85-2.32,45.9-8.23,59.31-26.27Z"/>
            <path class="cls-15" d="M305.51,193.47c17.07-22.04,7.85-50.93-.27-66.63-6.78-13.1-19.68-25.98-34.61-33.09-13.27-6.32-11.5-30.21-35.64-37.9-25.94-8.26-66.27,23.57-87.97,29.72-24.04,6.82-64.04,23.51-80.41,40.99-19.15,20.45-33.29,44.2-23.06,63.21,7.89,14.65,21.19,18.23,32.24,23.64,9.29,4.55,19.59,8.11,29.22,10.83,20.63,5.83,32.81-1.71,43.34.11,9.66,1.67,32.14,7.67,60.75,2.4,21.44-3.91,31.82-8.59,39.52-9.4,16.19-1.76,43.63-6.75,56.89-23.88Z"/>
            <path class="cls-11" d="M302.37,192.09c17.05-21.11,8.75-48.61.66-63.65-6.84-12.74-18.83-24.59-33.61-31.58-12.92-6.11-10.26-31.64-34.59-39.98-25.59-8.78-66.09,24.03-87.57,30.16-23.86,6.82-63.43,23.03-78.97,39.55-18.17,19.32-33.85,43.02-23.29,62.15,7.83,14.19,21.15,17,32.53,22.16,9.38,4.25,19.85,7.44,29.41,9.94,20.78,5.42,32.43-2.86,42.52-.97,9.51,1.78,31.34,8.18,59.95,2.99,21.57-3.88,31.06-8.72,38.46-9.27,15.54-1.16,41.37-5.28,54.47-21.5Z"/>
            <path class="cls-6" d="M299.22,190.72c17.05-20.17,9.63-46.27,1.6-60.67-6.91-12.38-17.99-23.2-32.6-30.06-12.57-5.9-9.04-33.05-33.55-42.07s-65.9,24.5-87.16,30.6c-23.69,6.81-62.83,22.55-77.53,38.11-17.2,18.2-34.42,41.84-23.51,61.09,7.77,13.72,21.1,15.79,32.83,20.69,9.47,3.96,20.11,6.77,29.61,9.04,20.94,5.01,32.05-4.01,41.7-2.05s30.54,8.69,59.16,3.58c21.7-3.84,30.31-8.86,37.4-9.15,14.89-.59,39.11-3.8,52.05-19.11Z"/>
            <path class="cls-27" d="M296.08,189.35c17.05-19.23,10.52-43.94,2.54-57.68-6.98-12.02-17.14-21.8-31.6-28.55-12.22-5.7-7.81-34.45-32.51-44.15-24.9-9.78-65.72,24.97-86.75,31.05-23.51,6.81-62.22,22.08-76.09,36.66-16.22,17.07-34.99,40.67-23.73,60.03,7.71,13.26,21.05,14.57,33.12,19.21,9.56,3.68,20.37,6.1,29.8,8.15,21.09,4.58,31.67-5.15,40.88-3.14s29.74,9.2,58.36,4.16c21.82-3.8,29.55-8.98,36.34-9.02,14.24-.09,36.86-2.32,49.63-16.72Z"/>
            <path class="cls-2" d="M292.93,187.98c17.06-18.29,11.4-41.61,3.48-54.7-7.05-11.66-16.3-20.41-30.59-27.03-11.87-5.49-6.59-35.84-31.47-46.24s-65.54,25.43-86.35,31.49c-23.34,6.81-61.61,21.6-74.64,35.22-15.25,15.94-35.57,39.5-23.96,58.97,7.63,12.8,21,13.37,33.41,17.74,9.65,3.39,20.62,5.42,30,7.26,21.24,4.16,31.29-6.29,40.06-4.22s28.94,9.72,57.56,4.75c21.95-3.77,28.79-9.15,35.28-8.9,13.58.54,34.61-.83,47.22-14.34Z"/>
            <path class="cls-10" d="M289.79,186.61c17.07-17.33,12.28-39.27,4.41-51.72-7.13-11.29-15.45-19.02-29.59-25.52-11.51-5.29-5.38-37.22-30.42-48.32s-65.36,25.9-85.94,31.93c-23.16,6.8-61,21.12-73.2,33.78-14.28,14.81-36.16,38.34-24.18,57.91,7.56,12.34,20.95,12.18,33.7,16.26,9.74,3.12,20.88,4.74,30.19,6.36,21.4,3.72,30.91-7.43,39.24-5.3,8.91,2.27,28.14,10.23,56.76,5.34,22.08-3.73,28.04-9.3,34.23-8.77,12.93,1.11,32.37.66,44.8-11.95Z"/>
            <path class="cls-9" d="M286.64,185.24c17.1-16.38,13.15-36.93,5.35-48.74-7.21-10.93-14.6-17.64-28.59-24.01-11.16-5.09-4.18-38.59-29.38-50.4-23.9-11.21-65.18,26.36-85.53,32.38-22.99,6.8-60.39,20.64-71.76,32.33-13.3,13.68-36.77,37.19-24.41,56.85,7.47,11.89,20.89,10.99,34,14.79,9.83,2.85,21.14,4.06,30.39,5.47,21.55,3.28,30.52-8.55,38.42-6.38,8.76,2.41,27.34,10.74,55.96,5.93,22.21-3.69,27.28-9.45,33.17-8.64,12.27,1.67,30.14,2.16,42.38-9.57Z"/>
            <path class="cls-22" d="M283.5,183.87c17.13-15.41,14.01-34.59,6.29-45.75-7.3-10.55-13.76-16.25-27.58-22.49-10.81-4.88-2.98-39.94-28.34-52.49-23.58-11.67-64.99,26.83-85.13,32.82-22.82,6.8-59.79,20.16-70.32,30.89-12.33,12.55-37.38,36.04-24.63,55.79,7.38,11.44,20.84,9.81,34.29,13.31,9.91,2.58,21.4,3.37,30.58,4.57,21.71,2.83,30.13-9.68,37.61-7.46,8.61,2.55,26.54,11.25,55.16,6.51,22.34-3.66,26.53-9.59,32.11-8.52,11.62,2.24,27.91,3.66,39.96-7.18Z"/>
            <path class="cls-26" d="M280.35,182.5c17.16-14.43,14.88-32.24,7.23-42.77s-12.91-14.86-26.58-20.98c-10.46-4.68-1.79-41.29-27.3-54.57-23.27-12.12-64.81,27.3-84.72,33.26-22.64,6.79-59.18,19.69-68.88,29.45-11.36,11.43-38.01,34.9-24.86,54.73,7.29,10.99,20.79,8.64,34.58,11.84,10,2.32,21.66,2.69,30.78,3.68,21.86,2.38,29.74-10.79,36.79-8.54,8.45,2.7,25.74,11.76,54.37,7.1,22.47-3.62,25.77-9.74,31.05-8.39,10.96,2.8,25.68,5.17,37.54-4.8Z"/>
            <path class="cls-18" d="M277.21,181.13c17.21-13.43,15.73-29.89,8.16-39.79-7.49-9.8-12.06-13.48-25.57-19.46-10.11-4.48-.61-42.63-26.25-56.66-22.96-12.56-64.63,27.76-84.32,33.71-22.47,6.79-58.57,19.21-67.44,28-10.38,10.3-38.64,33.77-25.08,53.67,7.2,10.55,20.73,7.47,34.87,10.36,10.09,2.06,21.92,1.99,30.97,2.78,22.02,1.92,29.35-11.91,35.97-9.63,8.29,2.86,24.94,12.27,53.57,7.69,22.6-3.59,25.02-9.9,29.99-8.27,10.32,3.34,23.46,6.69,35.13-2.41Z"/>
            <path class="cls-28" d="M274.07,179.76c17.26-12.42,16.59-27.53,9.1-36.81s-11.2-12.12-24.57-17.95c-9.74-4.3.56-43.96-25.21-58.74-22.66-13-64.45,28.23-83.91,34.15-22.29,6.78-57.96,18.73-66,26.56-9.41,9.17-39.29,32.66-25.3,52.61,7.1,10.12,20.68,6.31,35.17,8.89,10.18,1.81,22.18,1.3,31.16,1.89,22.17,1.45,28.96-13.01,35.15-10.71,8.13,3.03,24.14,12.79,52.77,8.28,22.73-3.55,24.26-10.04,28.93-8.14,9.67,3.91,21.25,8.22,32.71-.03Z"/>
            <path class="cls-16" d="M270.92,178.39c17.32-11.39,17.43-25.16,10.04-33.82s-10.36-10.73-23.56-16.44c-9.39-4.09,1.72-45.27-24.17-60.83-22.37-13.44-64.26,28.69-83.5,34.6-22.12,6.78-57.36,18.25-64.56,25.12-8.43,8.04-39.96,31.56-25.53,51.55,6.99,9.69,20.63,5.16,35.46,7.41,10.28,1.56,22.44.61,31.36.99,22.32.97,28.56-14.12,34.33-11.79,7.95,3.21,23.34,13.3,51.97,8.87,22.86-3.51,23.51-10.19,27.87-8.02,9.01,4.47,19.03,9.76,30.29,2.36Z"/>
            <path class="cls-20" d="M267.78,177.01c17.38-10.35,18.28-22.79,10.98-30.84-7.81-8.61-9.51-9.34-22.56-14.92-9.04-3.89,2.87-46.58-23.12-62.91-22.09-13.87-64.08,29.16-83.1,35.04-21.94,6.78-56.75,17.77-63.12,23.67-7.46,6.91-40.64,30.47-25.75,50.49,6.88,9.26,20.59,4,35.75,5.94,10.37,1.31,22.7-.1,31.55.1,22.47.47,28.15-15.21,33.51-12.87,7.77,3.4,22.54,13.81,51.17,9.45,22.99-3.48,22.75-10.33,26.82-7.89,8.36,5.04,16.82,11.31,27.87,4.75Z"/>
          </g>
          <path class="cls-4" d="M268.64,130.84c1.72-6.23,2.66-12.77,2.66-19.55,0-40.33-32.7-73.05-73.03-73.05-34.16,0-62.83,23.46-70.82,55.12-.73-.02-1.47-.06-2.22-.06-15.97,0-29.99,8.22-38.12,20.66-4.17-1.72-8.73-2.68-13.53-2.68-19.54,0-35.38,15.84-35.38,35.37s15.84,35.39,35.38,35.39c8.6,0,16.48-3.09,22.61-8.18,7.89,6.54,18,10.47,29.03,10.47,12.31,0,23.47-4.9,31.67-12.85,11.78,8.09,26,12.85,41.37,12.85,14.02,0,27.13-3.96,38.26-10.84,5.04,6.33,12.81,10.39,21.52,10.39,15.23,0,27.58-12.34,27.58-27.58,0-11.48-7.01-21.31-16.99-25.47Z"/>
          <path class="cls-14" d="M269.69,131.9c1.72-6.23,2.66-12.77,2.66-19.55,0-40.33-32.7-73.05-73.03-73.05-34.16,0-62.83,23.46-70.82,55.12-.73-.02-1.48-.06-2.23-.06-15.96,0-29.99,8.22-38.11,20.66-4.17-1.72-8.73-2.68-13.53-2.68-19.54,0-35.38,15.84-35.38,35.37s15.84,35.39,35.38,35.39c8.6,0,16.48-3.09,22.62-8.18,7.87,6.52,17.99,10.45,29.01,10.45,12.32,0,23.49-4.9,31.68-12.85,11.76,8.11,26,12.85,41.37,12.85,14.02,0,27.13-3.96,38.26-10.82,5.04,6.33,12.81,10.39,21.52,10.39,15.23,0,27.58-12.34,27.58-27.58,0-11.48-7.01-21.33-16.99-25.47Z"/>
        </g>
        <g>
          <g class="cls-19">
            <path class="cls-5" d="M468.91,227.54c21.46-18.14,17.62-74.43,6.64-89.47-14.39-19.79-29.69-31.82-42.85-38.4-13.18-6.6-50.23-12.3-67.07-12.3-23.57,0-46.68,5.7-65.74,10.8-20.55,5.51-60.92,20.29-80.08,41.31-22.42,24.57-2.66,73.46,3.07,80.61,10.7,13.42,23.65,26.72,39.94,34.53,15.59,7.46,29.1,7.09,40.74,7.91,8.83.61,48.03,4.98,71,.2,16.27-3.4,43.87-8.44,51.74-12.32,7.3-3.63,25.47-8.34,42.62-22.85Z"/>
            <path class="cls-8" d="M465.44,225.7c21.15-17.59,17.61-72,6.77-87.21-14.14-19.83-29.31-31.19-42.35-37.68-12.9-6.44-48.32-12.12-64.96-12.29-22.98-.15-46,5.32-64.88,10.4-20.41,5.5-60.32,20.3-78.81,40.54-21.64,23.66-3.13,71.22,2.92,78.77,10.4,12.97,22.61,26.17,38.94,33.79,15.41,7.23,28.72,6.59,40.01,7.48,8.71.69,46.55,5.57,69.52.85,16.37-3.37,42.95-8.85,50.6-12.64,7.26-3.63,25.2-7.87,42.24-22Z"/>
            <path class="cls-17" d="M461.97,223.85c20.84-17.04,17.61-69.57,6.9-84.95-13.89-19.88-28.94-30.57-41.85-36.95-12.62-6.27-46.4-12-62.86-12.28-22.39-.39-45.32,4.93-64.02,9.99-20.27,5.5-59.73,20.32-77.55,39.78-20.86,22.76-3.62,68.99,2.77,76.93,10.09,12.54,21.59,25.59,37.94,33.05,15.25,6.96,28.35,6.07,39.29,7.05,8.58.77,45.07,6.16,68.04,1.5,16.48-3.34,42.04-9.24,49.47-12.95s24.94-7.41,41.86-21.16Z"/>
            <path class="cls-3" d="M458.51,222c20.56-16.44,17.6-67.13,7.03-82.69-13.63-19.93-28.57-29.95-41.34-36.23-12.34-6.1-44.48-11.85-60.75-12.27-21.79-.57-44.64,4.55-63.16,9.59-20.13,5.5-59.13,20.33-76.28,39.02-20.08,21.85-4.1,66.76,2.63,75.1,9.77,12.1,20.56,25.02,36.94,32.31,15.08,6.71,27.97,5.56,38.56,6.62,8.46.84,43.59,6.74,66.56,2.15,16.58-3.31,41.12-9.65,48.33-13.27s24.71-6.9,41.49-20.31Z"/>
            <path class="cls-23" d="M455.04,220.16c20.26-15.87,17.63-64.72,7.16-80.43-13.34-20-28.19-29.33-40.84-35.51-12.06-5.94-42.56-11.69-58.64-12.26-21.2-.76-43.96,4.16-62.3,9.19-19.99,5.5-58.53,20.34-75.02,38.25-19.29,20.95-4.58,64.53,2.48,73.26,9.45,11.67,19.53,24.45,35.94,31.57,14.9,6.46,27.6,5.06,37.83,6.19,8.34.92,42.11,7.33,65.08,2.8,16.69-3.28,40.2-10.06,47.19-13.59s24.45-6.42,41.11-19.46Z"/>
            <path class="cls-25" d="M451.57,218.31c19.96-15.3,17.63-62.3,7.29-78.16-13.07-20.06-27.82-28.71-40.34-34.79-11.77-5.77-40.64-11.53-56.53-12.25-20.6-.94-43.28,3.77-61.45,8.78-19.85,5.49-57.94,20.35-73.75,37.49-18.51,20.04-5.07,62.31,2.34,71.43,9.13,11.24,18.5,23.89,34.94,30.82,14.73,6.21,27.22,4.55,37.11,5.76,8.22,1,40.63,7.92,63.61,3.45,16.8-3.25,39.28-10.46,46.06-13.9s24.2-5.94,40.73-18.62Z"/>
            <path class="cls-7" d="M448.11,216.46c19.65-14.74,17.63-59.87,7.42-75.9-12.81-20.11-27.46-28.06-39.84-34.07-11.5-5.58-38.72-11.37-54.43-12.24-20.01-1.11-42.61,3.39-60.59,8.38-19.71,5.49-57.34,20.36-72.49,36.72-17.73,19.14-5.56,60.08,2.19,69.59,8.81,10.81,17.47,23.33,33.94,30.08,14.56,5.97,26.85,4.05,36.38,5.33,8.1,1.08,39.15,8.51,62.13,4.1,16.9-3.23,38.37-10.87,44.92-14.22,7.05-3.59,23.94-5.46,40.36-17.77Z"/>
            <path class="cls-21" d="M444.64,214.62c19.35-14.17,17.63-57.44,7.55-73.64-12.55-20.16-27.08-27.43-39.34-33.35-11.22-5.42-36.8-11.21-52.32-12.23-19.41-1.28-41.93,3-59.73,7.98-19.57,5.49-56.74,20.37-71.22,35.96-16.95,18.23-6.04,57.85,2.04,67.75s16.43,22.77,32.94,29.34c14.38,5.72,26.48,3.55,35.65,4.9,7.99,1.17,37.68,9.09,60.65,4.75,17.01-3.2,37.45-11.28,43.78-14.53,7-3.59,23.68-4.98,39.98-16.92Z"/>
            <path class="cls-24" d="M441.17,212.77c19.04-13.61,17.63-55.01,7.68-71.38-12.29-20.21-26.71-26.81-38.83-32.62-10.94-5.25-34.88-11.04-50.21-12.22-18.82-1.45-41.25,2.62-58.87,7.57-19.43,5.49-56.15,20.38-69.96,35.19-16.16,17.32-6.53,55.62,1.9,65.92,8.15,9.96,15.39,22.21,31.94,28.6,14.2,5.48,26.1,3.06,34.92,4.47,7.87,1.25,36.2,9.68,59.17,5.4,17.11-3.17,36.53-11.69,42.65-14.85,6.96-3.59,23.42-4.5,39.6-16.07Z"/>
            <path class="cls-15" d="M437.7,210.93c18.73-13.05,17.63-52.58,7.81-69.12-12.03-20.26-26.34-26.18-38.33-31.9-10.66-5.08-32.95-10.87-48.1-12.21-18.22-1.61-40.57,2.23-58.01,7.17-19.29,5.48-55.55,20.39-68.69,34.43-15.38,16.42-7.02,53.4,1.75,64.08,7.83,9.54,14.36,21.66,30.94,27.86,14.03,5.24,25.73,2.57,34.2,4.03,7.75,1.34,34.72,10.27,57.7,6.05,17.22-3.14,35.61-12.1,41.51-15.16,6.91-3.58,23.16-4.03,39.23-15.23Z"/>
            <path class="cls-11" d="M434.24,209.08c18.41-12.49,17.63-50.14,7.94-66.85-11.77-20.31-25.96-25.56-37.83-31.18-10.38-4.92-31.03-10.7-46-12.2-17.63-1.77-39.89,1.84-57.15,6.76-19.15,5.48-54.96,20.4-67.43,33.66-14.6,15.51-7.5,51.17,1.61,62.25,7.5,9.11,13.32,21.11,29.94,27.12,13.85,5.01,25.35,2.08,33.47,3.6,7.63,1.43,33.24,10.86,56.22,6.7,17.32-3.11,34.69-12.51,40.37-15.48,6.87-3.58,22.9-3.55,38.85-14.38Z"/>
            <path class="cls-6" d="M430.77,207.23c18.1-11.94,17.63-47.71,8.07-64.59-11.52-20.35-25.59-24.94-37.33-30.46-10.1-4.75-29.11-10.52-43.89-12.19-17.03-1.93-39.21,1.46-56.29,6.36-19.01,5.48-54.36,20.42-66.16,32.9-13.82,14.61-7.99,48.95,1.46,60.41,7.17,8.69,12.28,20.56,28.94,26.38,13.67,4.77,24.98,1.6,32.74,3.17s31.76,11.45,54.74,7.35c17.43-3.08,33.77-12.92,39.24-15.79,6.82-3.58,22.63-3.08,38.47-13.53Z"/>
            <path class="cls-27" d="M427.3,205.39c17.78-11.39,17.62-45.28,8.2-62.33-11.26-20.4-25.22-24.32-36.82-29.74-9.82-4.59-27.19-10.34-41.78-12.18-16.43-2.07-38.53,1.07-55.43,5.96-18.87,5.47-53.76,20.43-64.9,32.13-13.04,13.7-8.48,46.72,1.31,58.57,6.84,8.27,11.24,20.01,27.94,25.64,13.49,4.54,24.6,1.12,32.01,2.74s30.28,12.03,53.26,8c17.53-3.05,32.85-13.34,38.1-16.11,6.77-3.58,22.37-2.61,38.1-12.68Z"/>
            <path class="cls-2" d="M423.83,203.54c17.47-10.84,17.61-42.84,8.33-60.07-11.01-20.45-24.84-23.69-36.32-29.02-9.53-4.42-25.27-10.16-39.67-12.17-15.84-2.22-37.85.69-54.57,5.55-18.73,5.47-53.17,20.44-63.63,31.37-12.25,12.79-8.98,44.5,1.17,56.74,6.5,7.85,10.2,19.46,26.94,24.89,13.31,4.31,24.22.64,31.29,2.31s28.8,12.62,51.78,8.65c17.64-3.02,31.93-13.75,36.96-16.42,6.73-3.58,22.1-2.15,37.72-11.84Z"/>
            <path class="cls-10" d="M420.37,201.7c17.15-10.29,17.6-40.41,8.46-57.81-10.76-20.49-24.47-23.07-35.82-28.29-9.25-4.26-23.35-9.97-37.57-12.16-15.24-2.35-37.17.3-53.71,5.15-18.59,5.47-52.57,20.45-62.37,30.61-11.47,11.89-9.47,42.28,1.02,54.9,6.17,7.43,9.15,18.92,25.94,24.15,13.12,4.09,23.85.17,30.56,1.88,7.15,1.82,27.32,13.21,50.31,9.3,17.74-2.99,31.01-14.16,35.83-16.74,6.68-3.58,21.83-1.68,37.34-10.99Z"/>
            <path class="cls-9" d="M416.9,199.85c16.82-9.74,17.59-37.97,8.59-55.54-10.52-20.53-24.09-22.45-35.32-27.57-8.97-4.09-21.43-9.77-35.46-12.15s-36.5-.09-52.85,4.75c-18.45,5.47-51.98,20.46-61.1,29.84-10.69,10.98-9.97,40.06.88,53.07,5.84,7,8.11,18.39,24.94,23.41,12.94,3.86,23.47-.3,29.83,1.45,7.03,1.93,25.85,13.8,48.83,9.95,17.85-2.97,30.09-14.57,34.69-17.05,6.63-3.58,21.56-1.22,36.97-10.14Z"/>
            <path class="cls-22" d="M413.43,198c16.5-9.2,17.58-35.53,8.72-53.28-10.27-20.58-23.72-21.83-34.82-26.85-8.69-3.93-19.51-9.57-33.35-12.14s-35.82-.47-51.99,4.34c-18.31,5.46-51.38,20.47-59.84,29.08-9.91,10.08-10.46,37.84.73,51.23,5.5,6.58,7.07,17.85,23.94,22.67,12.76,3.64,23.09-.76,29.11,1.02,6.91,2.05,24.37,14.39,47.35,10.6,17.95-2.94,29.17-14.99,33.55-17.37,6.59-3.58,21.29-.76,36.59-9.29Z"/>
            <path class="cls-26" d="M409.97,196.16c16.18-8.67,17.57-33.09,8.85-51.02-10.02-20.62-23.34-21.21-34.31-26.13-8.4-3.77-17.6-9.36-31.24-12.13s-35.14-.86-51.13,3.94c-18.18,5.46-50.78,20.48-58.58,28.31-9.12,9.17-10.96,35.62.58,49.39,5.17,6.17,6.02,17.32,22.94,21.93,12.57,3.42,22.71-1.22,28.38.59,6.78,2.17,22.89,14.97,45.87,11.25,18.06-2.91,28.25-15.4,32.42-17.68,6.54-3.59,21.01-.31,36.21-8.45Z"/>
            <path class="cls-18" d="M406.5,194.31c15.85-8.13,17.55-30.66,8.98-48.76-9.78-20.66-22.97-20.59-33.81-25.41-8.12-3.6-15.68-9.15-29.14-12.12s-34.46-1.24-50.27,3.54c-18.04,5.46-50.19,20.49-57.31,27.55-8.34,8.26-11.47,33.41.44,47.56,4.84,5.75,4.98,16.8,21.94,21.19,12.39,3.21,22.32-1.68,27.65.16,6.65,2.29,21.41,15.56,44.39,11.9,18.16-2.88,27.33-15.82,31.28-18,6.48-3.6,20.74.15,35.84-7.6Z"/>
            <path class="cls-28" d="M403.03,192.46c15.52-7.6,17.51-28.21,9.11-46.5-9.57-20.69-22.58-19.99-33.31-24.69-7.83-3.46-13.77-8.92-27.03-12.11-12.3-2.96-33.78-1.63-49.41,3.13-17.9,5.45-49.59,20.5-56.05,26.78-7.56,7.36-11.97,31.2.29,45.72,4.5,5.33,3.93,16.28,20.94,20.45,12.21,2.99,21.94-2.13,26.92-.27,6.52,2.43,19.93,16.15,42.92,12.55,18.27-2.85,26.41-16.23,30.14-18.31,6.44-3.6,20.46.59,35.46-6.75Z"/>
            <path class="cls-16" d="M399.56,190.62c15.19-7.08,17.51-25.77,9.24-44.23-9.32-20.73-22.21-19.37-32.81-23.96-7.55-3.29-11.87-8.69-24.92-12.1-11.71-3.06-33.1-2.02-48.55,2.73-17.76,5.45-48.99,20.52-54.78,26.02-6.78,6.45-12.51,29.02.15,43.89,4.16,4.92,2.88,15.76,19.95,19.71,12.02,2.78,21.55-2.57,26.2-.7,6.38,2.57,18.45,16.74,41.44,13.2,18.37-2.82,25.49-16.64,29.01-18.63,6.39-3.6,20.18,1.03,35.08-5.91Z"/>
            <path class="cls-20" d="M396.1,188.77c14.86-6.56,17.5-23.34,9.37-41.97-9.06-20.78-21.84-18.75-32.3-23.24-7.27-3.12-9.96-8.46-22.81-12.09-11.13-3.16-32.42-2.4-47.7,2.32-17.62,5.45-48.4,20.53-53.52,25.25-6,5.55-13.01,26.8,0,42.05,3.83,4.49,1.84,15.25,18.95,18.96,11.84,2.58,21.15-3.01,25.47-1.13,6.23,2.73,16.97,17.32,39.96,13.85,18.48-2.79,24.57-17.05,27.87-18.95,6.35-3.59,19.9,1.46,34.71-5.06Z"/>
          </g>
          <path class="cls-4" d="M376.25,118.85c-.82,0-1.6.02-2.38.08-4.3-12.17-15.86-20.88-29.49-20.88-4.06,0-7.95.78-11.52,2.19-4.22-11.66-15.39-20-28.52-20s-23.69,7.91-28.14,19.08c-1.5-.25-3.03-.39-4.61-.39-13.77,0-25.1,10.43-26.5,23.85-1.93-.39-3.93-.59-5.98-.59-16.6,0-30.08,13.46-30.08,30.08s13.48,30.08,30.08,30.08c.27,0,.55-.02.78-.02,2.95,12.15,13.89,21.19,26.95,21.19,10.12,0,18.95-5.41,23.79-13.5,6.6,11.29,18.83,18.87,32.85,18.87,15.53,0,28.87-9.3,34.79-22.62,5.29,3.05,11.43,4.8,17.99,4.8,19.94,0,36.11-16.17,36.11-36.11s-16.17-36.11-36.11-36.11Z"/>
          <path class="cls-13" d="M377.48,120.08c-.8,0-1.58.04-2.38.1-4.28-12.17-15.86-20.9-29.47-20.9-4.08,0-7.97.8-11.52,2.21-4.22-11.68-15.39-20-28.52-20s-23.71,7.89-28.16,19.08c-1.48-.25-3.03-.41-4.61-.41-13.77,0-25.1,10.45-26.5,23.85-1.93-.37-3.93-.59-5.96-.59-16.6,0-30.08,13.48-30.08,30.08s13.48,30.08,30.08,30.08c.27,0,.51,0,.78-.02,2.93,12.17,13.89,21.19,26.95,21.19,10.1,0,18.93-5.41,23.79-13.5,6.6,11.29,18.83,18.87,32.85,18.87,15.51,0,28.85-9.28,34.77-22.6,5.31,3.05,11.45,4.79,17.99,4.79,19.94,0,36.11-16.15,36.11-36.11s-16.17-36.11-36.11-36.11Z"/>
        </g>
        <g>
          <g class="cls-19">
            <path class="cls-5" d="M445.24,163.95c25.55-26.5,23.83-80.82,9.71-100.21-18.54-25.49-41.04-34.88-57.99-43.36-16.97-8.48-41.66-16.35-63.11-19.55-26.5-3.98-55.78,7.44-80.31,14-26.5,7.11-108.21,34.65-132.9,61.74-13.65,14.96-17.08,34.36-15.02,52.29,2.29,20,11.14,38.05,15.02,42.91,13.8,17.25,64.17,34.53,85.13,44.59,20.08,9.63,37.48,9.14,52.48,10.18,11.37.8,43.14-.04,72.73-6.21,20.96-4.37,41.8-20.64,51.91-25.64,9.43-4.69,42.95-10.62,62.34-30.72Z"/>
            <path class="cls-8" d="M441.42,162.01c25.22-25.64,23.9-78.36,10.01-97.64-18.12-25.14-40.17-34.05-56.94-42.39-16.6-8.26-40.1-15.98-61.51-19.39-25.89-4.02-54.42,6.85-78.8,13.47-26.28,7.15-108.43,34.62-132.47,60.45-13.62,14.64-17.04,33.93-14.69,51.55,2.61,19.64,12.09,36.83,16.32,41.67,14,16.04,61.91,33.76,82.89,43.56,19.83,9.32,36.88,7.71,51.42,8.86,11.2.89,41.81,1.43,71.93-4.95,21.04-4.45,40.97-21.03,50.8-25.91,9.37-4.68,41.68-9.74,61.04-29.28Z"/>
            <path class="cls-17" d="M437.6,160.07c24.98-24.68,23.97-75.89,10.32-95.06-17.7-24.79-39.3-33.21-55.89-41.42-16.23-8.04-38.53-15.7-59.92-19.22-25.26-4.16-53.05,6.25-77.28,12.93-26.06,7.19-108.68,34.57-132.05,59.17-13.6,14.32-17,33.5-14.36,50.81,2.93,19.28,13.02,35.59,17.61,40.42,14.11,14.86,59.67,32.93,80.66,42.53,19.61,8.97,36.28,6.29,50.37,7.54,11.04.98,40.48,2.9,71.12-3.7,21.13-4.52,40.15-21.4,49.69-26.17,9.31-4.65,40.47-8.8,59.73-27.83Z"/>
            <path class="cls-3" d="M433.78,158.13c24.69-23.78,24.04-73.43,10.62-92.48-17.29-24.44-38.43-32.38-54.85-40.45-15.86-7.83-36.96-15.38-58.32-19.06-24.63-4.24-51.69,5.66-75.77,12.39-25.84,7.23-108.93,34.51-131.62,57.89-13.58,13.99-16.96,33.08-14.02,50.08,3.24,18.93,13.93,34.34,18.91,39.18,14.12,13.74,57.42,32.13,78.42,41.5,19.38,8.64,35.69,4.87,49.31,6.22,10.88,1.08,39.15,4.36,70.31-2.44,21.22-4.6,39.32-21.78,48.58-26.43,9.24-4.64,39.22-7.89,58.43-26.38Z"/>
            <path class="cls-23" d="M429.97,156.2c24.4-22.88,24.11-70.96,10.93-89.9-16.87-24.09-37.56-31.55-53.8-39.49-15.49-7.61-35.39-15.05-56.73-18.89-24.01-4.32-50.33,5.06-74.25,11.85-25.62,7.27-109.2,34.45-131.19,56.6-13.57,13.67-16.92,32.65-13.69,49.34,3.56,18.57,14.83,33.09,20.2,37.94,14.04,12.67,55.16,31.33,76.19,40.47,19.14,8.32,35.09,3.45,48.25,4.9,10.72,1.18,37.81,5.83,69.51-1.18,21.31-4.67,38.49-22.17,47.46-26.7s37.98-6.98,57.12-24.94Z"/>
            <path class="cls-25" d="M426.15,154.26c24.1-21.98,24.18-68.5,11.23-87.32-16.46-23.74-36.69-30.71-52.75-38.52-15.12-7.4-33.82-14.72-55.13-18.73-23.38-4.4-48.96,4.47-72.74,11.31-25.4,7.3-109.48,34.37-130.76,55.32-13.56,13.34-16.88,32.23-13.36,48.61,3.87,18.21,15.71,31.83,21.5,36.69,13.89,11.65,52.91,30.54,73.95,39.44,18.9,8,34.49,2.04,47.19,3.58,10.56,1.28,36.48,7.3,68.7.07,21.39-4.75,37.66-22.55,46.35-26.96s36.72-6.07,55.82-23.49Z"/>
            <path class="cls-7" d="M422.33,152.32c23.79-21.09,24.29-66.06,11.54-84.75-15.99-23.42-35.82-29.88-51.7-37.55-14.75-7.18-32.26-14.39-53.54-18.56-22.76-4.46-47.6,3.87-71.22,10.77-25.18,7.34-109.78,34.29-130.34,54.03-13.55,13.01-16.84,31.8-13.03,47.87,4.19,17.85,16.57,30.58,22.8,35.45,13.67,10.69,50.65,29.74,71.72,38.41,18.66,7.68,33.9.64,46.14,2.26,10.4,1.38,35.15,8.77,67.89,1.33,21.48-4.82,36.84-22.94,45.24-27.22,9.04-4.61,35.47-5.17,54.51-22.05Z"/>
            <path class="cls-21" d="M418.51,150.38c23.48-20.2,24.37-63.6,11.84-82.17-15.57-23.08-34.95-29.04-50.66-36.58-14.38-6.97-30.69-14.05-51.95-18.4-22.14-4.53-46.24,3.27-69.71,10.23-24.95,7.38-110.09,34.19-129.91,52.75-13.55,12.68-16.8,31.37-12.7,47.14,4.5,17.49,17.42,29.33,24.09,34.21,13.39,9.78,48.39,28.95,69.49,37.38,18.42,7.36,33.3-.77,45.08.94,10.24,1.49,33.82,10.23,67.08,2.58,21.57-4.9,36.01-23.32,44.13-27.49,8.98-4.6,34.21-4.26,53.21-20.6Z"/>
            <path class="cls-24" d="M414.69,148.44c23.17-19.31,24.44-61.14,12.15-79.59-15.15-22.73-34.09-28.18-49.61-35.61-14.02-6.72-29.12-13.71-50.35-18.23-21.51-4.58-44.87,2.68-68.19,9.7-24.73,7.42-110.41,34.09-129.48,51.46-13.56,12.35-16.76,30.95-12.37,46.4,4.82,17.14,18.25,28.08,25.39,32.96,13.06,8.92,46.13,28.17,67.25,36.35,18.18,7.05,32.7-2.16,44.02-.37,10.08,1.59,32.48,11.7,66.28,3.84,21.66-4.97,35.18-23.71,43.02-27.75,8.91-4.59,32.95-3.36,51.9-19.15Z"/>
            <path class="cls-15" d="M410.88,146.5c22.86-18.42,24.52-58.67,12.45-77.01-14.73-22.38-33.23-27.34-48.56-34.65-13.65-6.5-27.56-13.37-48.76-18.07s-43.51,2.08-66.68,9.16c-24.51,7.46-110.75,33.97-129.05,50.18-13.57,12.02-16.72,30.52-12.04,45.66,5.13,16.78,18.32,28.27,26.68,31.72,11.07,10.21,43.87,27.38,65.02,35.32,17.94,6.74,32.11-3.56,42.96-1.69,9.92,1.7,31.15,13.17,65.47,5.1,21.74-5.04,34.35-24.1,41.9-28.01,8.85-4.59,31.69-2.46,50.6-17.71Z"/>
            <path class="cls-11" d="M407.06,144.57c22.53-17.54,24.59-56.21,12.76-74.43-14.31-22.04-32.36-26.5-47.52-33.68-13.28-6.29-25.99-13.02-47.16-17.9s-42.15,1.49-65.16,8.62c-24.29,7.5-111.11,33.84-128.63,48.89-13.59,11.68-16.68,30.1-11.7,44.93,5.45,16.42,19.12,27.18,27.98,30.48,10.76,9.42,41.61,26.6,62.78,34.29,17.69,6.43,31.51-4.95,41.91-3.01,9.76,1.82,29.82,14.64,64.66,6.35,21.83-5.12,33.52-24.49,40.79-28.28,8.78-4.58,30.42-1.57,49.29-16.26Z"/>
            <path class="cls-6" d="M403.24,142.63c22.21-16.67,24.66-53.75,13.06-71.86-13.89-21.69-31.49-25.67-46.47-32.71-12.91-6.07-24.43-12.66-45.57-17.74-19.65-4.72-40.78.89-63.65,8.08-24.07,7.54-111.48,33.69-128.2,47.61-13.62,11.34-16.64,29.67-11.37,44.19,5.76,16.06,19.92,26.1,29.28,29.23,10.46,8.64,39.34,25.82,60.55,33.26,17.44,6.12,30.91-6.33,40.85-4.33,9.6,1.93,28.48,16.1,63.85,7.61,21.92-5.19,32.69-24.87,39.68-28.54,8.71-4.57,29.15-.68,47.99-14.81Z"/>
            <path class="cls-27" d="M399.42,140.69c21.88-15.8,24.74-51.28,13.37-69.28-13.48-21.34-30.62-24.83-45.42-31.74-12.54-5.85-22.86-12.3-43.98-17.58-19.03-4.75-39.42.3-62.13,7.54-23.85,7.58-111.86,33.53-127.77,46.33-13.66,10.99-16.59,29.24-11.04,43.46,6.08,15.7,20.72,25.01,30.57,27.99,10.15,7.86,37.08,25.05,58.31,32.23,17.2,5.82,30.31-7.71,39.79-5.65s27.15,17.57,63.05,8.87c22.01-5.27,31.86-25.26,38.57-28.8,8.64-4.56,27.88.21,46.69-13.37Z"/>
            <path class="cls-2" d="M395.6,138.75c21.55-14.93,24.81-48.82,13.67-66.7-13.06-20.98-29.75-24-44.37-30.77-12.16-5.64-21.3-11.94-42.38-17.41-18.42-4.78-38.06-.3-60.62,7-23.63,7.62-112.26,33.35-127.34,45.04-13.71,10.62-16.55,28.82-10.71,42.72,6.39,15.35,21.52,23.92,31.87,26.74,9.85,7.08,34.81,24.28,56.08,31.21,16.95,5.52,29.71-9.09,38.73-6.97s25.82,19.04,62.24,10.12c22.09-5.34,31.03-25.65,37.45-29.07,8.58-4.56,26.6,1.09,45.38-11.92Z"/>
            <path class="cls-10" d="M391.79,136.81c21.21-14.07,24.87-46.35,13.98-64.12-12.65-20.63-28.88-23.16-43.33-29.8-11.79-5.42-19.74-11.56-40.79-17.25-17.8-4.81-36.69-.89-59.1,6.46-23.4,7.66-112.68,33.16-126.92,43.76s-16.51,28.39-10.38,41.99c6.71,14.99,22.93,21.03,33.16,25.5s32.54,23.51,53.84,30.18c16.7,5.22,29.11-10.46,37.68-8.29,9.12,2.31,24.49,20.51,61.43,11.38,22.18-5.42,30.2-26.04,36.34-29.33,8.51-4.55,25.32,1.97,44.08-10.48Z"/>
            <path class="cls-9" d="M387.97,134.87c20.86-13.22,24.94-43.88,14.28-61.54-12.24-20.28-28.01-22.33-42.28-28.84-11.42-5.21-18.18-11.18-39.19-17.08-17.19-4.82-35.33-1.49-57.59,5.93-23.18,7.7-113.11,32.94-126.49,42.47s-16.47,27.97-10.05,41.25c7.02,14.63,23.66,19.97,34.46,24.26,10.01,3.97,30.27,22.75,51.61,29.15,16.45,4.93,28.51-11.82,36.62-9.61,8.96,2.45,23.15,21.98,60.62,12.64,22.27-5.49,29.37-26.43,35.23-29.59,8.44-4.55,24.03,2.84,42.77-9.03Z"/>
            <path class="cls-22" d="M384.15,132.94c20.52-12.37,25.01-41.41,14.59-58.96-11.83-19.93-27.14-21.5-41.23-27.87-11.05-4.99-16.62-10.8-37.6-16.92-16.58-4.84-33.97-2.08-56.07,5.39-22.96,7.73-113.55,32.71-126.06,41.19-13.93,9.44-16.43,27.54-9.71,40.51,7.34,14.27,24.38,18.97,35.76,23.01,9.53,3.38,28,21.99,49.38,28.12,16.2,4.64,27.91-13.18,35.56-10.93,8.79,2.59,21.82,23.44,59.82,13.89,22.36-5.57,28.54-26.82,34.12-29.86,8.37-4.55,22.74,3.71,41.47-7.58Z"/>
            <path class="cls-26" d="M380.33,131c20.17-11.54,25.07-38.95,14.89-56.39-11.42-19.57-26.27-20.67-40.19-26.9-10.68-4.78-15.07-10.4-36.01-16.75-15.97-4.84-32.6-2.68-54.56,4.85-22.74,7.77-114.01,32.45-125.64,39.9-14.04,9-16.39,27.11-9.38,39.78,7.65,13.91,25.08,18.04,37.05,21.77,9.07,2.83,25.73,21.24,47.14,27.09,15.95,4.36,27.3-14.53,34.5-12.24,8.62,2.74,20.49,24.91,59.01,15.15,22.44-5.64,27.7-27.22,33-30.12,8.3-4.54,21.45,4.57,40.16-6.14Z"/>
            <path class="cls-18" d="M376.51,129.06c19.82-10.71,25.1-36.46,15.2-53.81-11.05-19.19-25.4-19.84-39.14-25.93-10.3-4.57-13.52-10-34.41-16.59-15.36-4.85-31.24-3.27-53.04,4.31-22.52,7.81-114.48,32.17-125.21,38.62-14.16,8.52-16.35,26.69-9.05,39.04,7.97,13.55,25.78,17.18,38.35,20.53,8.61,2.29,23.46,20.49,44.91,26.06,15.7,4.07,26.7-15.88,33.45-13.56,8.45,2.9,19.15,26.38,58.2,16.41,22.53-5.71,26.87-27.61,31.89-30.38,8.23-4.54,20.15,5.41,38.86-4.69Z"/>
            <path class="cls-28" d="M372.7,127.12c19.46-9.89,25.17-33.99,15.5-51.23-10.64-18.84-24.51-19.03-38.09-24.96-9.92-4.38-11.98-9.58-32.82-16.42-14.76-4.85-29.88-3.87-51.53,3.77-22.3,7.85-114.96,31.86-124.78,37.33-14.32,7.98-16.31,26.26-8.72,38.31,8.29,13.2,26.48,16.42,39.64,19.28,8.18,1.78,21.19,19.75,42.67,25.03,15.44,3.79,26.08-17.22,32.39-14.88,8.27,3.07,17.82,27.85,57.4,17.66,22.62-5.79,26.04-28,30.78-30.65,8.15-4.55,18.86,6.25,37.55-3.24Z"/>
            <path class="cls-16" d="M368.88,125.18c19.11-9.08,25.24-31.53,15.81-48.65-10.22-18.49-23.64-18.2-37.04-24-9.55-4.16-10.44-9.15-31.22-16.26-14.15-4.84-28.51-4.46-50.01,3.23-22.08,7.89-115.43,31.52-124.35,36.05-14.5,7.36-16.27,25.84-8.39,37.57,8.6,12.84,27.18,15.76,40.94,18.04,7.78,1.29,18.9,19.06,40.44,24,15.19,3.55,25.47-18.56,31.33-16.2,8.09,3.25,16.49,29.31,56.59,18.92,22.71-5.86,25.2-28.4,29.67-30.91,8.08-4.56,17.56,7.08,36.25-1.8Z"/>
            <path class="cls-20" d="M365.06,123.25c18.75-8.28,25.31-29.06,16.11-46.07-9.8-18.14-22.77-17.36-36-23.03-9.18-3.95-8.91-8.71-29.63-16.09-13.55-4.82-27.15-5.06-48.5,2.7-21.86,7.93-115.91,31.15-123.93,34.77-14.72,6.62-16.23,25.41-8.06,36.84,8.92,12.48,27.9,15.23,42.24,16.8,7.42.82,16.64,18.28,38.2,22.97,14.94,3.24,24.84-19.88,30.27-17.52,7.89,3.46,15.16,30.78,55.78,20.18,22.79-5.94,24.37-28.79,28.55-31.17,8.01-4.55,16.25,7.89,34.94-.35Z"/>
          </g>
          <path class="cls-4" d="M349.18,48.4c-1.64,0-3.26.1-4.84.29-6.05-17.89-22.99-30.76-42.93-30.76-9.2,0-17.75,2.75-24.9,7.48-4.9-13.42-17.79-23.01-32.91-23.01-17.03,0-31.25,12.21-34.36,28.36-4.82-3.59-10.8-5.7-17.27-5.7-14.8,0-27.01,11.09-28.75,25.45-.08,0-.14-.02-.21-.02-23.04,0-41.71,18.67-41.71,41.72s18.67,41.7,41.71,41.7c7.34,0,14.24-1.91,20.23-5.25,2.17,14.47,14.63,25.57,29.69,25.57,11.91,0,22.19-6.93,27.03-16.99,9.2,13.5,24.69,22.36,42.27,22.36,22.68,0,41.89-14.77,48.55-35.23,5.51,2.85,11.76,4.45,18.4,4.45,22.21,0,40.21-17.99,40.21-40.2s-18.01-40.21-40.21-40.21Z"/>
          <path class="cls-1" d="M350.41,49.53c-1.66,0-3.26.12-4.86.29-6.05-17.89-22.97-30.76-42.91-30.76-9.2,0-17.75,2.75-24.9,7.48-4.92-13.42-17.77-23.01-32.91-23.01-17.05,0-31.25,12.21-34.36,28.34-4.84-3.57-10.8-5.68-17.27-5.68-14.8,0-27.01,11.11-28.75,25.45-.08,0-.16-.02-.21-.02-23.05,0-41.71,18.67-41.71,41.72s18.66,41.7,41.71,41.7c7.32,0,14.24-1.91,20.23-5.25,2.17,14.47,14.63,25.57,29.67,25.57,11.91,0,22.21-6.93,27.05-16.99,9.2,13.5,24.69,22.36,42.25,22.36,22.7,0,41.89-14.79,48.57-35.23,5.51,2.85,11.76,4.45,18.4,4.45,22.21,0,40.21-17.99,40.21-40.2s-18.01-40.21-40.21-40.21Z"/>
        </g>
        <g>
          <g class="cls-19">
            <path class="cls-5" d="M283.09,216.98c13.14-19.55,6.78-55.66-2.42-68.28-12.07-16.58-27.85-23.93-38.87-29.45-11.05-5.53-35.12-15.33-49.22-15.33-19.77,0-29.8,7.29-45.76,11.56-17.25,4.63-46.51,31.52-62.59,49.14-18.79,20.61-14.01,51.6-9.22,57.62,8.97,11.23,19.83,22.4,33.49,28.95,13.07,6.27,24.39,5.96,34.15,6.62,7.4.53,16.03,4.18,35.28.18,13.65-2.85,20.18-3.96,27.19-6.15,14.88-4.61,62.03-11.17,77.97-34.84Z"/>
            <path class="cls-8" d="M280.36,216.12c13.11-18.88,7.57-53.79-1.52-66.55-11.86-16.62-27.75-23.53-38.66-28.98-10.82-5.39-34.25-15.42-48.2-15.56-19.27-.13-29.68,6.84-45.49,11.1-17.13,4.63-45.77,31.24-61.29,48.21-18.13,19.85-14.5,50.1-9.42,56.44,8.7,10.88,19.24,21.87,32.95,28.12,13.16,5.99,24.22,5.28,33.68,6.03,7.3.58,15.96,4.19,35.21.24,13.74-2.83,20.37-4.09,27.18-6.09,14.44-4.23,59.79-10.15,75.56-32.95Z"/>
            <path class="cls-17" d="M277.64,215.26c13.04-18.24,8.35-51.92-.62-64.83-11.64-16.66-27.66-23.14-38.46-28.5-10.58-5.25-33.39-15.56-47.17-15.79-18.77-.32-29.56,6.4-45.21,10.65-17.01,4.62-45.04,30.96-59.99,47.28-17.48,19.09-14.99,48.6-9.62,55.26,8.42,10.52,18.66,21.34,32.4,27.29,13.26,5.7,24.04,4.62,33.21,5.44,7.2.64,15.89,4.2,35.14.3,13.83-2.8,20.56-4.21,27.17-6.03,14-3.85,57.49-9.16,73.15-31.06Z"/>
            <path class="cls-3" d="M274.91,214.4c12.98-17.59,9.14-50.05.28-63.1-11.43-16.7-27.56-22.75-38.26-28.03-10.35-5.11-32.52-15.66-46.15-16.02-18.28-.48-29.43,5.96-44.94,10.19-16.89,4.62-44.3,30.68-58.69,46.35-16.82,18.33-15.46,47.09-9.81,54.09,8.18,10.14,18.07,20.8,31.86,26.46,13.36,5.42,23.87,3.97,32.73,4.85,7.1.71,15.82,4.21,35.07.36,13.91-2.78,20.76-4.33,27.16-5.97,13.56-3.47,55.23-8.15,70.74-29.17Z"/>
            <path class="cls-23" d="M272.19,213.54c12.93-16.94,9.96-48.2,1.19-61.37-11.18-16.77-27.46-22.36-38.06-27.55-10.11-4.97-31.66-15.77-45.13-16.25-17.78-.64-29.31,5.51-44.67,9.73-16.77,4.61-43.56,30.4-57.39,45.42-16.17,17.57-15.94,45.59-10.01,52.91,7.91,9.78,17.46,20.3,31.32,25.63,13.45,5.17,23.69,3.31,32.26,4.26,7,.77,15.75,4.22,35,.42,14-2.75,20.95-4.45,27.15-5.91,13.12-3.09,52.96-7.15,68.33-27.28Z"/>
            <path class="cls-25" d="M269.46,212.68c12.88-16.29,10.76-46.34,2.09-59.65-10.96-16.81-27.37-21.97-37.85-27.08-9.87-4.83-30.79-15.88-44.1-16.49-17.28-.79-29.19,5.07-44.39,9.27-16.66,4.61-42.82,30.12-56.09,44.49-15.51,16.81-16.42,44.08-10.21,51.73,7.64,9.42,16.87,19.78,30.78,24.8,13.54,4.89,23.51,2.66,31.79,3.67,6.9.84,15.68,4.23,34.93.48,14.09-2.73,21.15-4.57,27.14-5.85,12.68-2.71,50.7-6.14,65.92-25.39Z"/>
            <path class="cls-7" d="M266.74,211.82c12.83-15.63,11.55-44.47,2.99-57.92-10.74-16.86-27.27-21.58-37.65-26.6-9.64-4.7-29.92-15.98-43.08-16.72-16.78-.93-29.06,4.63-44.12,8.82-16.54,4.61-42.08,29.84-54.79,43.56-14.85,16.05-16.91,42.58-10.41,50.56,7.37,9.06,16.28,19.25,30.24,23.97,13.64,4.61,23.34,2.01,31.32,3.08,6.8.91,15.61,4.24,34.86.54,14.18-2.7,21.34-4.7,27.13-5.78,12.24-2.33,48.44-5.14,63.5-23.5Z"/>
            <path class="cls-21" d="M264.01,210.96c12.78-14.98,12.35-42.6,3.89-56.19-10.52-16.9-27.17-21.18-37.45-26.13-9.4-4.56-29.06-16.09-42.06-16.95-16.28-1.08-28.94,4.19-43.85,8.36-16.42,4.6-41.34,29.56-53.49,42.63-14.2,15.29-17.39,41.07-10.61,49.38s15.69,18.72,29.7,23.14,23.16,1.36,30.85,2.49c6.7.98,15.54,4.24,34.79.6,14.26-2.68,21.54-4.82,27.12-5.72,11.8-1.95,46.18-4.13,61.09-21.61Z"/>
            <path class="cls-24" d="M261.29,210.1c12.74-14.32,13.14-40.73,4.8-54.46-10.3-16.94-27.08-20.79-37.25-25.65-9.16-4.42-28.19-16.19-41.03-17.18-15.79-1.22-28.82,3.74-43.57,7.9-16.3,4.6-40.6,29.28-52.19,41.7-13.54,14.53-17.87,39.57-10.81,48.21s15.1,18.19,29.16,22.31,22.99.72,30.37,1.9c6.6,1.05,15.47,4.25,34.73.66,14.35-2.65,21.73-4.94,27.11-5.66,11.36-1.57,43.92-3.12,58.68-19.72Z"/>
            <path class="cls-15" d="M258.56,209.24c12.7-13.67,13.93-38.86,5.7-52.74-10.08-16.98-26.98-20.4-37.04-25.18-8.93-4.28-27.32-16.28-40.01-17.41-15.29-1.36-28.69,3.3-43.3,7.44-16.18,4.6-39.86,29-50.89,40.77-12.89,13.78-18.36,38.07-11.01,47.03,6.55,7.99,14.52,17.66,28.61,21.48s22.81.08,29.9,1.31c6.5,1.13,15.4,4.26,34.66.72,14.44-2.63,21.93-5.05,27.1-5.6,10.92-1.16,41.67-2.11,56.27-17.83Z"/>
            <path class="cls-11" d="M255.84,208.38c12.66-13.01,14.72-36.99,6.6-51.01-9.87-17.02-26.89-19.99-36.84-24.7-8.7-4.12-26.46-16.38-38.99-17.64-14.79-1.49-28.57,2.86-43.03,6.99-16.06,4.59-39.12,28.72-49.59,39.84-12.23,13.02-18.84,36.57-11.2,45.85,6.28,7.63,13.93,17.13,28.07,20.65s22.63-.56,29.43.72c6.4,1.2,15.33,4.27,34.59.78,14.53-2.6,22.12-5.17,27.09-5.54,10.48-.78,39.42-1.1,53.86-15.94Z"/>
            <path class="cls-6" d="M253.11,207.52c12.63-12.35,15.51-35.12,7.5-49.28-9.65-17.06-26.8-19.6-36.64-24.23-8.47-3.98-25.59-16.47-37.97-17.87-14.29-1.62-28.44,2.42-42.75,6.53-15.95,4.59-38.39,28.44-48.29,38.91-11.58,12.26-19.33,35.06-11.4,44.68,6,7.28,13.34,16.6,27.53,19.82,14.13,3.21,22.46-1.19,28.96.12s15.26,4.28,34.52.84c14.61-2.58,22.31-5.29,27.09-5.48,10.03-.39,37.18-.08,51.45-14.04Z"/>
            <path class="cls-27" d="M250.39,206.66c12.59-11.69,16.3-33.25,8.4-47.56-9.44-17.1-26.7-19.2-36.43-23.75-8.23-3.84-24.72-16.56-36.94-18.1-13.79-1.74-28.32,1.97-42.48,6.07-15.83,4.58-37.65,28.16-46.99,37.98-10.92,11.5-19.81,33.56-11.6,43.5,5.73,6.93,12.75,16.07,26.99,18.99,14.23,2.92,22.28-1.83,28.49-.47s15.19,4.29,34.45.9c14.7-2.55,22.51-5.38,27.08-5.42,9.59-.08,34.94.93,49.04-12.15Z"/>
            <path class="cls-2" d="M247.66,205.8c12.57-11.03,17.09-31.38,9.31-45.83-9.23-17.14-26.61-18.81-36.23-23.27-7.99-3.71-23.86-16.64-35.92-18.33-13.29-1.86-28.2,1.53-42.21,5.61-15.71,4.58-36.91,27.88-45.68,37.05-10.27,10.74-20.3,32.06-11.8,42.32,5.45,6.57,12.16,15.53,26.45,18.16s22.1-2.46,28.01-1.06,15.12,4.3,34.38.96c14.79-2.53,22.7-5.53,27.07-5.35,9.15.37,32.7,1.95,46.63-10.26Z"/>
            <path class="cls-10" d="M244.94,204.94c12.54-10.36,17.87-29.51,10.21-44.1-9.02-17.18-26.51-18.42-36.03-22.8-7.76-3.57-22.99-16.72-34.9-18.56-12.8-1.98-28.07,1.09-41.93,5.16-15.59,4.58-36.17,27.6-44.38,36.12-9.61,9.98-20.79,30.56-12,41.15,5.17,6.22,11.58,14.99,25.91,17.33s21.93-3.08,27.54-1.65c6,1.53,15.05,4.31,34.31,1.02,14.88-2.5,22.9-5.65,27.06-5.29,8.71.75,30.47,2.98,44.22-8.37Z"/>
            <path class="cls-9" d="M242.21,204.08c12.52-9.69,18.66-27.64,11.11-42.37-8.82-17.21-26.41-18.03-35.83-22.32-7.52-3.43-22.12-16.8-33.87-18.79s-27.95.64-41.66,4.7c-15.47,4.57-35.43,27.32-43.08,35.19-8.95,9.22-21.28,29.07-12.2,39.97,4.89,5.87,10.99,14.46,25.37,16.5s21.75-3.7,27.07-2.24c5.9,1.62,14.98,4.32,34.24,1.08,14.96-2.47,23.09-5.77,27.05-5.23,8.27,1.13,28.25,4.01,41.81-6.48Z"/>
            <path class="cls-22" d="M239.49,203.23c12.5-9.01,19.44-25.76,12.01-40.65-8.61-17.25-26.31-17.64-35.62-21.85-7.28-3.29-21.26-16.87-32.85-19.02s-27.83.2-41.39,4.24c-15.36,4.57-34.69,27.04-41.78,34.26-8.3,8.46-21.77,27.57-12.4,38.79,4.61,5.52,10.4,13.92,24.83,15.67,14.63,1.78,21.57-4.32,26.6-2.83,5.8,1.72,14.91,4.33,34.17,1.14,15.05-2.45,23.28-5.9,27.04-5.17,7.82,1.51,26.02,5.05,39.4-4.59Z"/>
            <path class="cls-26" d="M236.76,202.37c12.49-8.32,20.22-23.89,12.91-38.92-8.4-17.28-26.22-17.25-35.42-21.37-7.05-3.16-20.4-16.93-31.83-19.25s-27.7-.24-41.11,3.78c-15.24,4.57-33.95,26.76-40.48,33.33-7.64,7.7-22.27,26.08-12.59,37.62,4.33,5.17,9.81,13.38,24.28,14.84s21.38-4.94,26.13-3.42c5.69,1.82,14.84,4.34,34.1,1.2,15.14-2.42,23.48-6.02,27.03-5.11,7.38,1.89,23.8,6.09,36.99-2.7Z"/>
            <path class="cls-18" d="M234.04,201.51c12.48-7.63,21.01-22.01,13.82-37.19-8.2-17.32-26.11-16.88-35.22-20.9-6.8-3.03-19.54-16.99-30.8-19.48s-27.58-.68-40.84,3.33c-15.12,4.56-33.21,26.48-39.18,32.4-6.99,6.94-22.76,24.58-12.79,36.44,4.05,4.82,9.23,12.84,23.74,14.01s21.2-5.55,25.65-4.01c5.58,1.93,14.77,4.35,34.03,1.26,15.23-2.4,23.67-6.14,27.02-5.05,6.94,2.27,21.58,7.14,34.58-.81Z"/>
            <path class="cls-28" d="M231.31,200.65c12.47-6.93,21.76-20.13,14.72-35.47-8.02-17.34-26.01-16.49-35.01-20.42-6.57-2.89-18.68-17.04-29.78-19.71-10.33-2.48-27.45-1.13-40.57,2.87-15,4.56-32.47,26.2-37.88,31.47-6.33,6.19-23.26,23.09-12.99,35.26,3.77,4.47,8.64,12.28,23.2,13.18,14.93.88,21.01-6.15,25.18-4.6,5.47,2.04,14.7,4.36,33.96,1.32,15.31-2.37,23.86-6.27,27.01-4.99,6.5,2.64,19.37,8.2,32.17,1.08Z"/>
            <path class="cls-16" d="M228.59,199.79c12.46-6.22,22.55-18.26,15.62-33.74-7.81-17.38-25.92-16.09-34.81-19.95-6.33-2.76-17.82-17.09-28.76-19.95-9.84-2.57-27.33-1.57-40.29,2.41-14.88,4.55-31.74,25.92-36.58,30.54-5.68,5.43-23.77,21.61-13.19,34.09,3.49,4.12,8.05,11.74,22.66,12.35,15.03.6,20.83-6.76,24.71-5.19,5.35,2.16,14.63,4.37,33.89,1.38,15.4-2.35,24.06-6.39,27-4.92,6.06,3.02,17.15,9.26,29.75,2.97Z"/>
            <path class="cls-20" d="M225.86,198.93c12.46-5.49,23.34-16.39,16.52-32.01-7.6-17.42-25.82-15.7-34.61-19.47-6.09-2.62-16.97-17.13-27.73-20.18-9.36-2.66-27.21-2.01-40.02,1.95-14.77,4.55-31,25.64-35.28,29.61-5.02,4.67-24.29,20.14-13.39,32.91,3.2,3.77,7.46,11.21,22.12,11.52,15.13.31,20.63-7.36,24.24-5.78,5.23,2.29,14.56,4.37,33.82,1.45,15.49-2.32,24.26-6.52,26.99-4.86,5.62,3.38,14.94,10.35,27.34,4.86Z"/>
          </g>
          <path class="cls-4" d="M217.72,146.12c-3.48-.18-6.82.31-9.94,1.33-4.1-20.72-21.84-36.84-43.89-37.97-21.4-1.11-40.2,12.19-46.98,31.41h-.03c-18.1-.94-33.54,12.97-34.47,31.05-.94,18.11,12.97,33.54,31.06,34.47,9.33.49,17.94-2.99,24.24-8.93,6.29,3.65,13.51,5.94,21.28,6.33,13.87.72,26.64-4.61,35.78-13.69,4.69,6.04,11.87,10.1,20.12,10.51,15.04.78,27.89-10.78,28.67-25.84.78-15.04-10.78-27.87-25.84-28.67Z"/>
        </g>
      </g>
    </g>
  </g>
</svg>