<?xml version="1.0" encoding="UTF-8"?>
<svg xmlns="http://www.w3.org/2000/svg" xmlns:xlink="http://www.w3.org/1999/xlink" viewBox="0 0 507.34 361.81">
  <defs>
    <style>
      .cls-1 {
        fill: #61c1ee;
      }

      .cls-2 {
        fill: #94acb8;
        opacity: .87;
      }

      .cls-3 {
        fill: url(#linear-gradient-2);
      }

      .cls-4 {
        fill: #b8c6ce;
        opacity: .55;
      }

      .cls-5 {
        fill: #f4f5f6;
        opacity: .06;
      }

      .cls-6 {
        fill: #b3c1cd;
        opacity: .62;
      }

      .cls-7 {
        fill: #eaecef;
        opacity: .14;
      }

      .cls-8 {
        fill: #86a3b0;
      }

      .cls-9 {
        fill: #eff1f2;
        opacity: .1;
      }

      .cls-10 {
        fill: #98aeba;
        opacity: .84;
      }

      .cls-11 {
        fill: #c7d1d8;
        opacity: .42;
      }

      .cls-12 {
        fill: #d3dadf;
        opacity: .32;
      }

      .cls-13 {
        fill: #aabbc5;
        opacity: .68;
      }

      .cls-14 {
        fill: #bec9d3;
        opacity: .52;
      }

      .cls-15 {
        fill: #1b8dcd;
      }

      .cls-16 {
        fill: #a2b6c1;
        opacity: .74;
      }

      .cls-17 {
        fill: #9bb1bc;
        opacity: .81;
      }

      .cls-18 {
        fill: #dfe4e7;
        opacity: .23;
      }

      .cls-19 {
        fill: #d9dee4;
        opacity: .29;
      }

      .cls-20 {
        fill: #e7eaec;
        opacity: .16;
      }

      .cls-21 {
        fill: #2c89ca;
      }

      .cls-22 {
        fill: #c4ced5;
        opacity: .45;
      }

      .cls-23 {
        fill: #91aab6;
        opacity: .9;
      }

      .cls-24 {
        fill: #fff;
        opacity: 0;
      }

      .cls-25 {
        fill: url(#linear-gradient-3);
      }

      .cls-26 {
        fill: #f6f7f8;
        opacity: .05;
      }

      .cls-27 {
        fill: #a9b9c6;
        opacity: .71;
      }

      .cls-28 {
        fill: #aebdc9;
        opacity: .67;
      }

      .cls-29 {
        fill: #c3cdd6;
        opacity: .48;
      }

      .cls-30 {
        fill: #adbec7;
        opacity: .65;
      }

      .cls-31 {
        fill: #cbd4da;
        opacity: .39;
      }

      .cls-32 {
        isolation: isolate;
      }

      .cls-33 {
        fill: #f8f9fa;
        opacity: .03;
      }

      .cls-34 {
        fill: #6fc8f1;
      }

      .cls-35 {
        fill: #c8d1da;
        opacity: .43;
      }

      .cls-36 {
        fill: #90a7b8;
        opacity: .95;
      }

      .cls-37 {
        fill: #a6b9c3;
        opacity: .71;
      }

      .cls-38 {
        fill: #b1c0ca;
        opacity: .61;
      }

      .cls-39 {
        fill: #dbe0e4;
        opacity: .26;
      }

      .cls-40 {
        fill: #d7dde2;
        opacity: .29;
      }

      .cls-41 {
        fill: #bcc9d1;
        opacity: .52;
      }

      .cls-42 {
        fill: #77d2f7;
      }

      .cls-43 {
        fill: #f0f1f3;
        opacity: .1;
      }

      .cls-44 {
        fill: #9aaebd;
        opacity: .86;
      }

      .cls-45 {
        mix-blend-mode: multiply;
      }

      .cls-46 {
        fill: #b8e4f6;
      }

      .cls-47 {
        fill: #8da7b4;
        opacity: .94;
      }

      .cls-48 {
        fill: #9fb3bf;
        opacity: .77;
      }

      .cls-49 {
        fill: #8aa5b2;
        opacity: .97;
      }

      .cls-50 {
        fill: #8ba4b5;
      }

      .cls-51 {
        fill: #6ccff6;
      }

      .cls-52 {
        fill: #d3dae0;
        opacity: .33;
      }

      .cls-53 {
        fill: #a4b5c3;
        opacity: .76;
      }

      .cls-54 {
        fill: #b5c3cc;
        opacity: .58;
      }

      .cls-55 {
        fill: #c0ccd3;
        opacity: .48;
      }

      .cls-56 {
        fill: #e3e7ea;
        opacity: .19;
      }

      .cls-57 {
        fill: #ebedef;
        opacity: .13;
      }

      .cls-58 {
        fill: #e4e7eb;
        opacity: .19;
      }

      .cls-59 {
        fill: #ced5dd;
        opacity: .38;
      }

      .cls-60 {
        fill: url(#linear-gradient);
      }

      .cls-61 {
        fill: #cfd7dd;
        opacity: .35;
      }

      .cls-62 {
        fill: #177fc3;
      }

      .cls-63 {
        fill: #dfe3e8;
        opacity: .24;
      }

      .cls-64 {
        fill: #9fb2c0;
        opacity: .81;
      }

      .cls-65 {
        fill: #b9c5d0;
        opacity: .57;
      }

      .cls-66 {
        fill: #95aabb;
        opacity: .9;
      }
    </style>
    <linearGradient id="linear-gradient" x1="118.71" y1="86.65" x2="321.83" y2="289.77" gradientUnits="userSpaceOnUse">
      <stop offset="0" stop-color="#1163a2"/>
      <stop offset="1" stop-color="#094e81"/>
    </linearGradient>
    <linearGradient id="linear-gradient-2" x1="39.26" y1="114.86" x2="286.68" y2="114.86" gradientUnits="userSpaceOnUse">
      <stop offset="0" stop-color="#186cb5"/>
      <stop offset="1" stop-color="#0661ab"/>
    </linearGradient>
    <linearGradient id="linear-gradient-3" x1="210.27" y1="148.31" x2="413.6" y2="148.31" xlink:href="#linear-gradient-2"/>
  </defs>
  <g class="cls-32">
    <g id="Layer_1">
      <g>
        <g>
          <g class="cls-45">
            <path class="cls-24" d="M475.97,253.65c37.68-37.83,35.83-68.14,23.27-100.61-9.47-24.45-13.88-40.66-29.67-63.18-14.2-20.25-44.26-46.13-89.26-52.54-43.57-6.21-146.89,64.82-182.49,74.36-38.43,10.27-85.35,37.38-134.64,57.32C37.99,179.2.73,211.45.08,228.54c-1.05,27.83,8.15,39.22,20.51,50.39,12.36,11.17,37.91,30.57,53.12,37.85,14.46,6.93,52.03,17.07,64.67,18.42,27.76,2.95,37.88-5.55,59.96-3.16,28.8,3.11,38.4,5.12,51.54,4.73,12.04-.35,21.86-2.87,28.41-3.14,9.54-.41,35.85,6.33,47.6,3.89,30.43-6.35,23.33-9.55,38.99-14.41,33.13-10.29,80.14-38.36,111.08-69.43Z"/>
            <path class="cls-26" d="M471.65,252.21c36.62-36.22,34.9-66.08,22.42-97.57-9.58-23.9-14.44-39.59-29.95-61.51-14.02-19.79-42.45-45.35-87.16-52.62-43.08-6.91-143.67,63.27-178.93,72.77-38.17,10.27-83.42,37.28-131.63,56.78C41.72,180.05,1.91,210.61,1.56,228.11c-.53,26.9,8.83,37.64,21.18,48.59,12.46,11,37.37,30.2,52.46,36.99,14.88,6.69,50.64,15.51,63.55,16.82,27.46,2.84,37.57-4.35,59.54-2.08,28.68,2.96,37.75,4.54,50.83,4.22,11.76-.3,21.35-2.43,28.42-2.68,10.12-.37,35.57,5.52,47.15,3.15,29.65-6.12,23.08-8.89,39.05-13.93,32.65-10.23,77.53-37.16,107.9-66.98Z"/>
            <path class="cls-43" d="M467.34,250.77c35.68-34.47,34.08-64.06,21.56-94.53-9.61-23.39-15.01-38.51-30.23-59.84-13.83-19.33-40.62-44.66-85.06-52.69-42.57-7.69-140.45,61.72-175.38,71.18-37.9,10.26-81.48,37.18-128.63,56.24C45.45,180.89,3.08,209.75,3.04,227.68c-.06,25.96,9.5,36.06,21.86,46.79,12.56,10.83,36.84,29.83,51.8,36.13,15.31,6.45,49.26,13.95,62.43,15.23,27.17,2.74,37.26-3.16,59.13-1,28.56,2.81,37.09,3.96,50.12,3.72,11.49-.26,20.85-2,28.44-2.22,10.71-.33,35.29,4.71,46.7,2.41,28.86-5.9,22.82-8.26,39.1-13.45,32.15-10.25,75.03-35.85,104.71-64.52Z"/>
            <path class="cls-7" d="M463.02,249.33c34.68-32.8,33.19-62.02,20.71-91.5-9.68-22.85-15.57-37.44-30.51-58.17-13.65-18.87-38.79-43.92-82.97-52.77s-137.23,60.16-171.82,69.59c-37.64,10.26-79.55,37.08-125.62,55.7-23.62,9.55-68.56,36.71-68.29,55.06.37,25.01,10.14,34.51,22.54,44.99s36.32,29.43,51.14,35.27c15.75,6.2,47.87,12.36,61.32,13.64,26.87,2.56,36.94-1.96,58.71.08,28.44,2.66,36.44,3.42,49.41,3.21,11.21-.18,20.34-1.56,28.45-1.75,11.29-.29,35.02,3.9,46.26,1.67,28.08-5.68,22.56-7.61,39.16-12.96,31.66-10.22,72.47-34.59,101.52-62.06Z"/>
            <path class="cls-58" d="M458.7,247.89c33.67-31.12,32.3-59.97,19.85-88.46-9.75-22.32-16.14-36.36-30.79-56.49-13.47-18.4-36.97-43.17-80.87-52.85-41.55-9.16-134.01,58.61-168.27,68-37.38,10.25-77.61,36.97-122.62,55.16-23.1,9.33-70.61,34.78-70.02,53.57.76,24.06,10.81,32.94,23.21,43.2,12.72,10.52,35.81,29.03,50.48,34.41,16.2,5.95,46.49,10.79,60.2,12.04,26.58,2.43,36.63-.77,58.29,1.16,28.32,2.51,35.79,2.85,48.7,2.71,10.94-.12,19.84-1.13,28.46-1.29,11.87-.25,34.74,3.12,45.81.93,27.31-5.39,22.3-6.96,39.21-12.48,31.17-10.18,69.91-33.34,98.33-59.6Z"/>
            <path class="cls-63" d="M454.38,246.45c32.66-29.45,31.41-57.92,19-85.43-9.83-21.79-16.7-35.28-31.07-54.82-13.29-17.94-35.14-42.42-78.77-52.92-41.05-9.88-130.79,57.05-164.71,66.42-37.12,10.25-75.67,36.87-119.61,54.61-22.57,9.12-72.67,32.85-71.75,52.08,1.11,23.1,11.48,31.37,23.89,41.4s35.32,28.6,49.82,33.55c16.66,5.68,45.1,9.22,59.08,10.45,26.28,2.31,36.32.42,57.88,2.24,28.2,2.37,35.14,2.28,47.99,2.21,10.66-.06,19.33-.69,28.48-.82,12.46-.21,34.46,2.31,45.36.19,26.53-5.15,22.05-6.3,39.27-12,30.68-10.14,67.34-32.08,95.14-57.15Z"/>
            <path class="cls-19" d="M450.06,245.01c31.64-27.78,30.51-55.88,18.14-82.39-9.91-21.25-17.26-34.21-31.35-53.15-13.11-17.48-33.32-41.66-76.67-53-40.54-10.6-127.57,55.5-161.15,64.83-36.86,10.25-73.74,36.77-116.61,54.07-22.05,8.9-74.74,30.91-73.47,50.59,1.42,22.14,12.14,29.8,24.56,39.6s34.83,28.17,49.16,32.69c17.13,5.41,43.72,7.65,57.97,8.85,25.98,2.19,36.01,1.62,57.46,3.32,28.08,2.22,34.48,1.86,47.28,1.7,10.38-.13,18.83-.25,28.49-.36,13.04-.18,34.19,1.51,44.92-.54,25.74-4.92,21.79-5.65,39.32-11.51,30.2-10.1,64.78-30.83,91.95-54.69Z"/>
            <path class="cls-52" d="M445.75,243.57c30.62-26.12,29.61-53.83,17.29-79.36-10-20.72-17.79-33.16-31.63-51.48-12.88-17.05-31.5-40.9-74.58-53.08-40.03-11.32-124.35,53.95-157.6,63.24-36.6,10.24-71.8,36.67-113.6,53.53-21.52,8.68-76.82,28.96-75.2,49.1,1.7,21.18,12.81,28.23,25.24,37.8,13.01,10.02,34.35,27.71,48.5,31.83,17.6,5.12,42.33,6.09,56.85,7.26,25.68,2.08,35.69,2.81,57.04,4.4,27.96,2.07,33.83,1.3,46.57,1.2,10.11-.08,18.32.18,28.5.1,13.62-.14,33.91.7,44.47-1.28,24.96-4.69,21.54-5,39.38-11.03,29.71-10.05,62.2-29.58,88.77-52.23Z"/>
            <path class="cls-59" d="M441.43,242.13c29.59-24.45,28.7-51.78,16.43-76.32-10.09-20.18-18.35-32.09-31.91-49.81-12.7-16.59-29.67-40.13-72.48-53.16-39.53-12.03-121.13,52.39-154.04,61.65-36.33,10.24-69.87,36.56-110.59,52.99-21,8.47-78.91,27.02-76.93,47.6s13.48,26.65,25.92,36c13.1,9.85,33.87,27.25,47.84,30.97,18.08,4.82,40.94,4.52,55.73,5.67,25.38,1.96,35.38,4.01,56.63,5.48,27.84,1.92,33.18.57,45.85.69,9.83.1,17.82.62,28.52.57,14.21-.1,33.63-.1,44.02-2.02,24.18-4.46,21.28-4.34,39.43-10.54,29.23-10,59.62-28.33,85.58-49.78Z"/>
            <path class="cls-35" d="M437.11,240.69c28.55-22.8,27.78-49.73,15.58-73.28-10.18-19.65-18.91-31.02-32.19-48.13-12.51-16.13-27.85-39.36-70.38-53.23-39.02-12.73-117.91,50.84-150.49,60.07-36.07,10.23-67.93,36.46-107.59,52.44-20.47,8.25-81.03,25.07-78.66,46.11,2.17,19.25,14.15,25.08,26.59,34.2,13.2,9.68,33.4,26.77,47.18,30.11,18.57,4.5,39.56,2.96,54.61,4.07,25.08,1.86,35.07,5.2,56.21,6.56,27.72,1.77,32.52,0,45.14.19,9.55.15,17.31,1.05,28.53,1.03,14.79-.06,33.35-.91,43.58-2.76,23.4-4.23,21.03-3.68,39.49-10.06,28.75-9.94,57.04-27.08,82.39-47.32Z"/>
            <path class="cls-29" d="M432.79,239.25c27.51-21.14,26.86-47.67,14.72-70.25-10.27-19.11-19.47-29.94-32.47-46.46-12.33-15.67-26.03-38.58-68.28-53.31-38.52-13.43-114.69,49.28-146.93,58.48-35.81,10.23-66,36.36-104.58,51.9-19.95,8.04-83.16,23.12-80.39,44.62,2.36,18.29,14.82,23.5,27.27,32.4,13.3,9.51,32.93,26.27,46.52,29.25,19.06,4.17,38.17,1.4,53.5,2.48,24.78,1.75,34.76,6.4,55.79,7.64,27.6,1.63,31.87-.58,44.43-.31,9.28.2,16.81,1.49,28.54,1.5,15.37-.02,33.08-1.72,43.13-3.5,22.61-4,20.78-3.02,39.54-9.58,28.27-9.88,54.45-25.84,79.2-44.86Z"/>
            <path class="cls-14" d="M428.48,237.81c26.46-19.5,25.93-45.62,13.87-67.21-10.38-18.57-20.04-28.87-32.75-44.79s-24.21-37.79-66.19-53.39c-38.02-14.12-111.47,47.73-143.37,56.89-35.55,10.22-64.06,36.26-101.58,51.36-19.43,7.82-85.31,21.17-82.11,43.13,2.52,17.33,15.5,21.92,27.95,30.6,13.4,9.34,32.47,25.77,45.86,28.39,19.56,3.82,36.78-.16,52.38.88,24.48,1.64,34.44,7.59,55.38,8.72,27.48,1.48,31.22-1.16,43.72-.82,9,.24,16.3,1.93,28.56,1.96,15.96.02,32.8-2.53,42.68-4.24,21.83-3.78,20.53-2.35,39.6-9.09,27.79-9.82,51.86-24.6,76.01-42.4Z"/>
            <path class="cls-65" d="M424.16,236.37c25.4-17.86,25-43.56,13.01-64.18-10.48-18.03-20.6-27.79-33.03-43.12-11.96-14.75-22.39-37-64.09-53.47-37.52-14.81-108.25,46.17-139.82,55.3-35.29,10.22-62.13,36.16-98.57,50.82-18.9,7.61-87.49,19.22-83.84,41.64,2.66,16.38,16.17,20.35,28.62,28.81,13.49,9.17,32.01,25.25,45.2,27.53,20.06,3.46,35.4-1.72,51.26-.71,24.18,1.54,34.13,8.78,54.96,9.8,27.36,1.33,30.57-1.73,43.01-1.32,8.72.29,15.8,2.36,28.57,2.42,16.54.06,32.52-3.33,42.23-4.97,21.04-3.55,20.27-1.69,39.65-8.61,27.31-9.75,49.25-23.37,72.83-39.95Z"/>
            <path class="cls-6" d="M419.84,234.93c24.32-16.24,24.06-41.5,12.16-61.14-10.59-17.49-21.17-26.72-33.31-41.44s-20.58-36.21-61.99-53.54c-37.02-15.5-105.02,44.62-136.26,53.72-35.02,10.21-60.19,36.05-95.57,50.28-18.38,7.39-89.69,17.27-85.57,40.15,2.78,15.42,16.84,18.77,29.3,27.01,13.59,8.99,31.55,24.72,44.54,26.67,20.56,3.07,34.01-3.28,50.15-2.31,23.88,1.44,33.82,9.98,54.54,10.89,27.25,1.18,29.91-2.32,42.3-1.83,8.45.33,15.29,2.8,28.58,2.89,17.12.1,32.24-4.14,41.79-5.71,20.26-3.33,20.02-1.02,39.71-8.13,26.83-9.69,46.64-22.14,69.64-37.49Z"/>
            <path class="cls-28" d="M415.52,233.48c23.24-14.62,23.11-39.43,11.31-58.11-10.71-16.94-21.73-25.64-33.59-39.77s-18.77-35.41-59.9-53.62c-36.53-16.18-101.8,43.07-132.71,52.13-34.76,10.21-58.26,35.95-92.56,49.73-17.85,7.17-91.93,15.34-87.3,38.66,2.88,14.47,17.52,17.19,29.97,25.21,13.69,8.82,31.08,24.19,43.88,25.81,21.06,2.67,32.62-4.84,49.03-3.9,23.58,1.35,33.51,11.17,54.13,11.97,27.13,1.04,29.26-2.9,41.59-2.33,8.17.38,14.79,3.24,28.6,3.35,17.71.14,31.96-4.95,41.34-6.45,19.48-3.11,19.77-.35,39.76-7.64,26.35-9.62,44.02-20.93,66.45-35.03Z"/>
            <path class="cls-27" d="M411.2,232.04c22.15-13.02,22.16-37.36,10.45-55.07-10.83-16.39-22.3-24.56-33.87-38.1s-16.96-34.6-57.8-53.7c-36.04-16.85-98.58,41.51-129.15,50.54-34.5,10.2-56.32,35.85-89.56,49.19-17.33,6.96-94.22,13.41-89.03,37.17,2.96,13.53,18.19,15.6,30.65,23.41,13.8,8.64,30.62,23.64,43.22,24.95,21.56,2.24,31.23-6.39,47.91-5.49,23.28,1.25,33.19,12.37,53.71,13.05,27.01.89,28.61-3.48,40.88-2.83,7.89.42,14.28,3.67,28.61,3.82,18.29.18,31.69-5.76,40.89-7.19,18.69-2.89,19.53.32,39.82-7.16,25.88-9.54,41.39-19.72,63.26-32.58Z"/>
            <path class="cls-53" d="M406.89,230.6c21.05-11.43,21.2-35.28,9.6-52.03-10.97-15.83-22.87-23.48-34.15-36.43s-15.15-33.79-55.7-53.77c-35.55-17.52-95.36,39.96-125.59,48.95-34.24,10.2-54.38,35.75-86.55,48.65-16.8,6.74-96.55,11.5-90.75,35.68,3.02,12.59,18.87,14.02,31.33,21.61,13.9,8.46,30.16,23.08,42.56,24.09,22.06,1.79,29.85-7.94,46.8-7.09,22.98,1.16,32.88,13.56,53.29,14.13,26.89.74,27.95-4.07,40.17-3.34,7.62.46,13.78,4.11,28.62,4.28,18.87.21,31.41-6.58,40.45-7.93,17.91-2.68,19.28,1,39.87-6.68,25.4-9.47,38.75-18.54,60.07-30.12Z"/>
            <path class="cls-64" d="M402.57,229.16c19.94-9.87,20.23-33.2,8.74-49-11.1-15.26-23.44-22.4-34.43-34.76s-13.35-32.97-53.6-53.85c-35.06-18.19-92.14,38.4-122.04,47.37-33.98,10.19-52.45,35.64-83.55,48.11-16.28,6.53-98.93,9.61-92.48,34.19,3.06,11.66,19.54,12.44,32,19.81,14,8.29,29.69,22.51,41.9,23.23,22.56,1.32,28.46-9.49,45.68-8.68,22.68,1.07,32.57,14.75,52.88,15.21,26.77.59,27.3-4.66,39.46-3.84,7.34.5,13.27,4.54,28.64,4.75,19.45.25,31.13-7.39,40-8.67,17.12-2.46,19.03,1.68,39.93-6.19,24.93-9.39,36.1-17.37,56.88-27.66Z"/>
            <path class="cls-44" d="M398.25,227.72c18.82-8.33,19.26-31.11,7.89-45.96-11.25-14.69-24.01-21.32-34.72-33.08s-11.56-32.15-51.51-53.93c-34.58-18.85-88.92,36.85-118.48,45.78-33.72,10.19-50.51,35.54-80.54,47.56-15.75,6.31-101.4,7.75-94.21,32.7,3.09,10.74,20.22,10.85,32.68,18.01,14.1,8.1,29.23,21.94,41.24,22.37,23.06.82,27.07-11.04,44.56-10.28,22.38.98,32.26,15.95,52.46,16.29,26.65.44,26.65-5.26,38.74-4.35,7.07.53,12.77,4.98,28.65,5.21,20.04.29,30.85-8.2,39.55-9.41,16.33-2.25,18.79,2.36,39.98-5.71,24.45-9.31,33.44-16.24,53.7-25.2Z"/>
            <path class="cls-66" d="M393.93,226.28c17.69-6.82,18.28-29.01,7.03-42.93s-24.6-20.22-35-31.41c-10.74-11.47-9.76-31.33-49.41-54.01-34.1-19.51-85.7,35.3-114.92,44.19-33.45,10.19-48.58,35.44-77.53,47.02-15.23,6.1-103.94,5.92-95.94,31.2,3.11,9.83,20.9,9.25,33.35,16.21,14.22,7.9,28.75,21.74,40.58,21.51,23.54-.46,25.69-12.58,43.45-11.87,22.08.89,31.94,17.14,52.04,17.37,26.53.3,26-5.86,38.03-4.85,6.79.57,12.26,5.42,28.66,5.67,20.62.33,30.57-9.02,39.11-10.14,15.55-2.04,18.56,3.08,40.04-5.23,24-9.18,30.77-15.14,50.51-22.75Z"/>
            <path class="cls-36" d="M389.61,224.84c16.57-5.35,17.29-26.91,6.18-39.89s-25.17-19.14-35.28-29.74c-10.55-11.01-8-30.45-47.31-54.08-33.65-20.12-82.48,33.74-111.37,42.6-33.19,10.18-46.64,35.34-74.53,46.48-14.7,5.88-106.6,4.14-97.67,29.71,3.12,8.94,21.58,7.67,34.03,14.42,14.32,7.73,28.28,20.77,39.92,20.65,24.03-.25,24.3-14.11,42.33-13.46,21.78.83,31.63,18.34,51.63,18.45,26.41.15,25.35-6.47,37.32-5.36,6.52.6,11.76,5.85,28.68,6.14,21.2.37,30.29-9.85,38.66-10.88,14.76-1.86,18.31,3.75,40.09-4.74,23.52-9.12,28.1-14.09,47.32-20.29Z"/>
            <path class="cls-50" d="M385.3,223.4c15.45-3.91,16.29-24.79,5.32-36.86-11.75-12.91-25.73-18.07-35.56-28.07-10.37-10.55-6.19-29.67-45.21-54.16-33.15-20.82-79.26,32.19-107.81,41.02-32.93,10.18-44.71,35.23-71.52,45.94-14.18,5.66-109.39,2.44-99.39,28.22,3.12,8.07,22.25,6.09,34.71,12.62,14.41,7.56,27.79,20.18,39.26,19.79,24.5-.82,22.91-15.66,41.21-15.06,21.48.72,31.32,19.53,51.21,19.53,26.29,0,24.7-7.05,36.61-5.86,6.24.64,11.25,6.29,28.69,6.6,21.79.41,30.01-10.66,38.21-11.62,13.97-1.64,18.06,4.41,40.15-4.26,23.04-9.06,25.43-13.09,44.13-17.83Z"/>
          </g>
          <path class="cls-15" d="M375.35,171.06c-3.39-11.88-10.56-22.19-20.18-29.55,2.43-6.5,3.92-13.5,4.23-20.82,1.6-37.3-27.34-68.87-64.67-70.47-28.53-1.21-53.67,15.43-64.65,40.02-1.95-.25-3.93-.45-5.94-.53-23.57-1.02-44.89,9.96-58.06,27.52-3.71-1.46-7.71-2.38-11.92-2.56-20.28-.88-37.44,14.86-38.3,35.16-.15,3.34.21,6.6.91,9.73-7.39,1.21-13.75,5.62-17.55,11.84-6.14-8.28-15.82-13.83-26.91-14.3-15.38-.66-28.85,8.61-34.32,22.11-.68-.1-1.38-.18-2.08-.2-14.03-.61-25.91,10.27-26.5,24.32-.61,14.04,10.28,25.92,24.33,26.5,7.23.31,13.86-2.42,18.69-7.07,4.89,2.97,10.58,4.8,16.69,5.1,5.54,12.25,17.57,21.02,31.92,21.64,14.88.62,28.05-7.7,34.37-20.16,4.2,1.91,8.82,3.09,13.71,3.3,1.54.06,3.06,0,4.56-.12,8.61,11.5,22.13,19.2,37.62,19.86,15.11.64,28.92-5.55,38.47-15.8,5.88,11.25,17.41,19.16,31.01,19.75,14.46.62,27.29-7.21,33.81-19.1,7.12,3.69,15.13,5.94,23.67,6.31,18.62.78,35.54-7.46,46.49-20.86,2.56.96,5.3,1.54,8.18,1.66,14.72.64,27.16-10.78,27.79-25.51.63-14.67-10.71-27.07-25.37-27.77Z"/>
          <path class="cls-60" d="M376.4,172.11c-3.4-11.88-10.56-22.19-20.18-29.55,2.43-6.5,3.92-13.5,4.23-20.82,1.6-37.32-27.35-68.87-64.67-70.47-28.53-1.21-53.67,15.43-64.65,40.02-1.95-.25-3.94-.45-5.94-.53-23.58-1.02-44.89,9.96-58.06,27.52-3.71-1.46-7.71-2.38-11.92-2.56-20.28-.88-37.43,14.86-38.3,35.16-.15,3.34.21,6.6.91,9.73-7.39,1.21-13.75,5.62-17.55,11.84-6.14-8.28-15.82-13.83-26.93-14.3-15.37-.66-28.84,8.61-34.31,22.11-.69-.1-1.37-.18-2.07-.2-14.03-.61-25.91,10.27-26.5,24.32-.61,14.04,10.28,25.92,24.33,26.5,7.23.31,13.86-2.42,18.69-7.07,4.88,2.97,10.57,4.8,16.69,5.1,5.53,12.25,17.57,21.02,31.92,21.64,14.88.62,28.05-7.7,34.36-20.16,4.2,1.91,8.82,3.09,13.71,3.3,1.54.06,3.07,0,4.57-.12,8.61,11.5,22.13,19.2,37.62,19.86,15.11.64,28.92-5.55,38.47-15.82,5.88,11.27,17.41,19.18,31.01,19.77,14.45.62,27.29-7.21,33.81-19.1,7.12,3.69,15.13,5.94,23.66,6.31,18.62.78,35.55-7.46,46.49-20.86,2.56.96,5.31,1.54,8.19,1.66,14.72.64,27.16-10.78,27.79-25.51.62-14.67-10.72-27.07-25.37-27.77Z"/>
        </g>
        <g>
          <g class="cls-45">
            <path class="cls-24" d="M333.8,208.32c17.36-30.41-.33-71.86-8.7-93.5-6.32-16.31-27.27-38.52-43.65-46.72-16.43-8.2-22.62-16.89-45.02-19.14-29.19-2.91-67.92,19.37-91.64,25.72-25.61,6.86-69.51,27.83-93.38,54-27.91,30.61-28.55,54.92-21.04,72.75,8.03,19.02,21.37,29.45,29.61,36.91,8.23,7.44,17.33,14.02,27.46,18.87,19.4,9.32,36.24,8.85,50.73,9.84,10.99.78,39.35,3.09,67.94-2.89,20.27-4.22,38.61-7.27,49.03-10.51,22.08-6.88,64.16-19.98,78.65-45.35Z"/>
            <path class="cls-26" d="M330.66,206.95c17.36-29.45.55-69.52-7.76-90.51-6.39-15.94-26.42-37.13-42.65-45.2-16.08-8-21.39-18.42-43.98-21.23-28.83-3.58-67.74,19.84-91.23,26.17-25.43,6.85-68.9,27.35-91.94,52.56-26.94,29.48-29.06,53.73-21.26,71.69s21.37,28.2,29.9,35.44,17.59,13.35,27.66,17.97c19.55,8.9,35.86,7.64,49.91,8.76,10.84.86,38.55,3.6,67.14-2.3,20.4-4.18,37.86-7.41,47.98-10.38,21.43-6.31,61.91-18.49,76.23-42.97Z"/>
            <path class="cls-43" d="M327.51,205.58c17.27-28.55,1.51-67.21-6.83-87.53-6.41-15.6-25.57-35.74-41.64-43.69-15.72-7.79-20.16-19.94-42.94-23.31-28.47-4.22-67.55,20.31-90.83,26.61-25.26,6.85-68.3,26.87-90.5,51.11-25.96,28.35-29.57,52.53-21.48,70.63s21.37,26.94,30.19,33.96,17.83,12.72,27.85,17.08c19.66,8.55,35.48,6.46,49.09,7.68,10.69.96,37.75,4.11,66.34-1.71,20.53-4.15,37.1-7.56,46.92-10.26,20.77-5.74,59.58-17.05,73.82-40.58Z"/>
            <path class="cls-7" d="M324.37,204.21c17.23-27.63,2.43-64.89-5.89-84.54-6.45-15.24-24.73-34.35-40.64-42.18-15.37-7.59-18.92-21.44-41.89-25.4-28.11-4.84-67.37,20.77-90.42,27.06-25.08,6.84-67.69,26.4-89.05,49.67-24.99,27.22-30.08,51.34-21.71,69.57,8.06,17.54,21.36,25.68,30.49,32.49,8.64,6.44,18.08,12.07,28.05,16.19,19.79,8.18,35.1,5.28,48.27,6.6,10.54,1.05,36.94,4.62,65.54-1.12,20.66-4.11,36.35-7.7,45.86-10.13,20.12-5.18,57.29-15.58,71.4-38.2Z"/>
            <path class="cls-58" d="M321.23,202.83c17.2-26.7,3.34-62.57-4.95-81.56-6.5-14.89-23.88-32.96-39.63-40.66-15.02-7.38-17.69-22.93-40.85-27.48-27.75-5.45-67.19,21.24-90.01,27.5-24.91,6.84-67.08,25.92-87.61,48.22-24.02,26.09-30.6,50.15-21.93,68.51,8.05,17.05,21.34,24.43,30.78,31.01,8.76,6.11,18.33,11.42,28.24,15.29,19.93,7.79,34.72,4.11,47.45,5.52,10.39,1.15,36.14,5.13,64.74-.54,20.79-4.08,35.59-7.85,44.8-10.01,19.46-4.61,55-14.11,68.98-35.81Z"/>
            <path class="cls-63" d="M318.08,201.46c17.16-25.77,4.25-60.24-4.02-78.57-6.56-14.53-23.04-31.57-38.63-39.15-14.67-7.18-16.45-24.41-39.81-29.57-27.39-6.04-67,21.7-89.61,27.95-24.73,6.84-66.47,25.44-86.17,46.78-23.04,24.96-31.13,48.95-22.16,67.45,8.03,16.57,21.32,23.18,31.07,29.54,8.87,5.79,18.58,10.76,28.44,14.4,20.07,7.41,34.34,2.93,46.63,4.44,10.24,1.25,35.34,5.64,63.94.05,20.92-4.04,34.84-8,43.75-9.88,18.81-4.04,52.72-12.64,66.56-33.43Z"/>
            <path class="cls-19" d="M314.94,200.09c17.13-24.85,5.16-57.92-3.08-75.59-6.61-14.18-22.19-30.18-37.62-37.63-14.32-6.98-15.21-25.88-38.77-31.65-27.02-6.62-66.82,22.17-89.2,28.39-24.56,6.83-65.86,24.96-84.73,45.33-22.07,23.84-31.66,47.76-22.38,66.39,8.01,16.08,21.29,21.93,31.36,28.06,8.98,5.47,18.83,10.1,28.63,13.5,20.21,7.02,33.96,1.77,45.81,3.35,10.1,1.35,34.54,6.15,63.15.64,21.05-4.01,34.08-8.14,42.69-9.76,18.16-3.48,50.44-11.17,64.14-31.04Z"/>
            <path class="cls-52" d="M311.79,198.72c17.1-23.92,6.06-55.59-2.14-72.6-6.67-13.82-21.35-28.79-36.62-36.12-13.97-6.77-13.97-27.34-37.73-33.74-26.66-7.18-66.63,22.64-88.79,28.83-24.38,6.83-65.25,24.48-83.29,43.89-21.09,22.71-32.19,46.57-22.61,65.33,7.97,15.6,21.26,20.69,31.65,26.59,9.09,5.16,19.09,9.44,28.82,12.61,20.35,6.62,33.58.6,44.99,2.27,9.95,1.46,33.74,6.66,62.35,1.23,21.18-3.97,33.33-8.29,41.63-9.64,17.5-2.91,48.17-9.7,61.73-28.66Z"/>
            <path class="cls-59" d="M308.65,197.35c17.08-22.99,6.96-53.27-1.2-69.62-6.72-13.46-20.52-27.37-35.61-34.61-13.63-6.54-12.73-28.79-36.69-35.82-26.3-7.72-66.45,23.1-88.39,29.28-24.21,6.83-64.65,24-81.85,42.44-20.12,21.58-32.74,45.39-22.83,64.27,7.93,15.13,21.23,19.45,31.95,25.11,9.19,4.85,19.34,8.78,29.02,11.72,20.5,6.22,33.2-.56,44.17,1.19,9.8,1.56,32.94,7.17,61.55,1.82,21.31-3.94,32.57-8.42,40.57-9.51,16.85-2.31,45.9-8.23,59.31-26.27Z"/>
            <path class="cls-35" d="M305.51,195.98c17.07-22.05,7.86-50.94-.27-66.64-6.79-13.1-19.67-25.98-34.61-33.09-13.28-6.33-11.5-30.23-35.64-37.91-25.95-8.25-66.27,23.57-87.98,29.72-24.03,6.82-64.04,23.52-80.4,41-19.15,20.45-33.29,44.2-23.06,63.21,7.89,14.66,21.19,18.22,32.24,23.64,9.29,4.55,19.6,8.11,29.21,10.82,20.64,5.82,32.82-1.72,43.35.11,9.66,1.67,32.14,7.68,60.75,2.41,21.44-3.9,31.82-8.56,39.52-9.39,16.2-1.74,43.63-6.75,56.89-23.89Z"/>
            <path class="cls-29" d="M302.36,194.6c17.05-21.12,8.75-48.61.67-63.65-6.85-12.75-18.83-24.58-33.6-31.58-12.94-6.12-10.27-31.65-34.6-39.99-25.59-8.77-66.08,24.03-87.57,30.17-23.86,6.82-63.43,23.04-78.96,39.55-18.17,19.32-33.85,43.02-23.28,62.15,7.83,14.19,21.14,17,32.53,22.16,9.38,4.26,19.86,7.44,29.41,9.93,20.79,5.41,32.44-2.87,42.53-.97,9.51,1.79,31.34,8.19,59.95,3,21.57-3.87,31.06-8.71,38.46-9.26,15.55-1.17,41.37-5.28,54.47-21.5Z"/>
            <path class="cls-14" d="M299.22,193.23c17.05-20.18,9.64-46.28,1.61-60.67-6.92-12.39-17.98-23.19-32.6-30.06-12.59-5.92-9.04-33.06-33.56-42.08s-65.9,24.5-87.16,30.61c-23.68,6.81-62.82,22.56-77.52,38.11-17.2,18.2-34.41,41.85-23.51,61.09,7.77,13.72,21.1,15.78,32.82,20.69,9.47,3.97,20.12,6.77,29.6,9.04,20.95,4.99,32.06-4.02,41.71-2.05,9.36,1.9,30.54,8.7,59.15,3.59,21.7-3.83,30.31-8.85,37.4-9.14,14.89-.6,39.11-3.8,52.05-19.12Z"/>
            <path class="cls-65" d="M296.07,191.86c17.05-19.24,10.52-43.95,2.54-57.68-6.99-12.02-17.14-21.8-31.59-28.55-12.23-5.71-7.82-34.46-32.52-44.16-24.9-9.78-65.72,24.97-86.76,31.06-23.51,6.81-62.21,22.08-76.08,36.66-16.22,17.07-34.98,40.67-23.73,60.03,7.71,13.26,21.05,14.57,33.11,19.21,9.56,3.68,20.38,6.1,29.8,8.14,21.1,4.57,31.68-5.16,40.89-3.14s29.74,9.21,58.35,4.17c21.83-3.79,29.55-8.95,36.34-9.01,14.23-.12,36.86-2.32,49.63-16.74Z"/>
            <path class="cls-6" d="M292.93,190.49c17.06-18.3,11.4-41.61,3.48-54.7-7.06-11.66-16.29-20.41-30.59-27.03-11.88-5.51-6.6-35.85-31.48-46.25s-65.53,25.43-86.35,31.5c-23.33,6.81-61.6,21.61-74.64,35.21-15.25,15.94-35.57,39.51-23.96,58.97,7.63,12.8,21,13.37,33.41,17.74,9.65,3.4,20.64,5.42,29.99,7.25,21.25,4.15,31.3-6.3,40.07-4.22s28.94,9.72,57.55,4.76c21.96-3.76,28.79-9.14,35.29-8.89,13.58.53,34.61-.83,47.22-14.35Z"/>
            <path class="cls-28" d="M289.79,189.12c17.07-17.34,12.28-39.27,4.42-51.71-7.14-11.3-15.45-19.02-29.58-25.52-11.53-5.3-5.39-37.23-30.44-48.33-24.23-10.74-65.35,25.9-85.94,31.95-23.16,6.8-61,21.13-73.2,33.77-14.28,14.81-36.16,38.35-24.18,57.91,7.56,12.34,20.94,12.17,33.7,16.26,9.74,3.13,20.9,4.74,30.19,6.35,21.41,3.71,30.91-7.43,39.25-5.3,8.92,2.28,28.14,10.23,56.75,5.35,22.09-3.72,28.04-9.29,34.23-8.76,12.92,1.1,32.37.66,44.8-11.97Z"/>
            <path class="cls-27" d="M286.64,187.74c17.09-16.38,13.15-36.93,5.35-48.73-7.22-10.93-14.6-17.63-28.58-24.01-11.18-5.1-4.18-38.6-29.39-50.42-23.9-11.2-65.16,26.36-85.54,32.39-22.98,6.8-60.39,20.65-71.75,32.32-13.3,13.68-36.76,37.19-24.4,56.85,7.47,11.89,20.89,10.98,33.99,14.79,9.83,2.86,21.16,4.06,30.38,5.46,21.56,3.27,30.53-8.56,38.43-6.38,8.77,2.41,27.34,10.74,55.96,5.94,22.22-3.69,27.28-9.44,33.17-8.64,12.27,1.66,30.14,2.16,42.38-9.58Z"/>
            <path class="cls-53" d="M283.5,186.37c17.12-15.42,14.02-34.59,6.29-45.74-7.31-10.55-13.76-16.24-27.57-22.49-10.83-4.9-2.99-39.96-28.35-52.5-23.58-11.66-64.98,26.83-85.13,32.84-22.81,6.8-59.78,20.17-70.31,30.88-12.33,12.55-37.38,36.05-24.63,55.79,7.39,11.44,20.84,9.8,34.28,13.31,9.91,2.59,21.42,3.38,30.58,4.57,21.72,2.82,30.14-9.68,37.61-7.46,8.61,2.55,26.54,11.26,55.16,6.53,22.35-3.65,26.53-9.58,32.11-8.51,11.61,2.22,27.91,3.66,39.96-7.2Z"/>
            <path class="cls-64" d="M280.35,185c17.16-14.44,14.88-32.24,7.23-42.76s-12.91-14.86-26.57-20.98c-10.48-4.7-1.8-41.31-27.31-54.59-23.26-12.11-64.8,27.3-84.72,33.28-22.63,6.79-59.17,19.69-68.87,29.43-11.36,11.43-38,34.91-24.85,54.73,7.29,10.99,20.79,8.63,34.57,11.84,10,2.33,21.68,2.69,30.77,3.67,21.87,2.37,29.75-10.8,36.8-8.54,8.46,2.7,25.74,11.77,54.36,7.12,22.48-3.62,25.77-9.73,31.06-8.39,10.96,2.79,25.68,5.17,37.54-4.81Z"/>
            <path class="cls-44" d="M277.21,183.63c17.21-13.44,15.73-29.89,8.17-39.77s-12.06-13.47-25.56-19.46c-10.13-4.49-.62-42.64-26.27-56.67-22.96-12.56-64.61,27.76-84.32,33.72-22.46,6.79-58.56,19.21-67.43,27.99-10.38,10.3-38.64,33.79-25.08,53.67,7.2,10.55,20.73,7.46,34.87,10.36,10.09,2.07,21.94,2,30.97,2.78,22.03,1.9,29.36-11.91,35.98-9.63,8.3,2.86,24.94,12.28,53.56,7.71,22.61-3.58,25.02-9.88,30-8.26,10.3,3.34,23.46,6.69,35.13-2.43Z"/>
            <path class="cls-66" d="M274.07,182.26c17.26-12.43,16.59-27.53,9.1-36.79s-11.22-12.09-24.56-17.95c-9.77-4.29.55-43.97-25.23-58.76-22.66-13-64.43,28.23-83.91,34.17-22.28,6.78-57.95,18.73-65.99,26.54-9.41,9.17-39.29,32.67-25.3,52.61,7.1,10.12,20.68,6.3,35.16,8.89,10.18,1.82,22.2,1.31,31.16,1.89,22.18,1.43,28.97-13.01,35.16-10.71,8.13,3.03,24.14,12.79,52.76,8.3,22.74-3.55,24.26-10.04,28.94-8.14,9.66,3.89,21.24,8.22,32.71-.04Z"/>
            <path class="cls-36" d="M270.92,180.89c17.32-11.4,17.43-25.16,10.04-33.8s-10.36-10.73-23.55-16.44c-9.41-4.11,1.71-45.29-24.19-60.84-22.37-13.43-64.25,28.69-83.5,34.61-22.11,6.78-57.35,18.25-64.55,25.1-8.43,8.04-39.96,31.57-25.53,51.55,6.99,9.68,20.63,5.15,35.45,7.41,10.28,1.57,22.46.61,31.36.99,22.33.95,28.57-14.12,34.34-11.79,7.96,3.21,23.34,13.3,51.96,8.88,22.87-3.51,23.51-10.19,27.88-8.02,9,4.45,19.03,9.76,30.29,2.34Z"/>
            <path class="cls-50" d="M267.78,179.51c17.38-10.35,18.28-22.79,10.98-30.82-7.82-8.61-9.51-9.34-22.55-14.92-9.06-3.91,2.86-46.6-23.14-62.93-22.08-13.87-64.06,29.16-83.1,35.06-21.93,6.78-56.74,17.77-63.11,23.65-7.46,6.91-40.64,30.49-25.75,50.49,6.88,9.26,20.59,4,35.74,5.94,10.37,1.33,22.71-.08,31.55.1,22.48.49,28.16-15.21,33.52-12.87,7.78,3.4,22.54,13.81,51.16,9.47,23-3.48,22.75-10.33,26.83-7.89,8.35,5.02,16.82,11.31,27.87,4.73Z"/>
          </g>
          <path class="cls-1" d="M268.63,133.36c1.73-6.23,2.68-12.79,2.68-19.57,0-40.33-32.71-73.03-73.04-73.03-34.16,0-62.83,23.44-70.82,55.12-.74-.04-1.47-.06-2.23-.06-15.96,0-29.99,8.22-38.11,20.66-4.17-1.74-8.73-2.7-13.53-2.7-19.54,0-35.38,15.84-35.38,35.39s15.84,35.37,35.38,35.37c8.6,0,16.47-3.07,22.62-8.18,7.87,6.54,17.98,10.47,29.01,10.47,12.32,0,23.49-4.9,31.68-12.85,11.76,8.11,26.01,12.85,41.37,12.85,14.02,0,27.13-3.96,38.25-10.82,5.05,6.33,12.81,10.39,21.54,10.39,15.22,0,27.57-12.36,27.57-27.6,0-11.46-7.01-21.31-17-25.45Z"/>
          <path class="cls-3" d="M269.68,134.42c1.73-6.23,2.67-12.79,2.67-19.57,0-40.33-32.7-73.03-73.04-73.03-34.15,0-62.82,23.44-70.81,55.12-.74-.04-1.48-.06-2.23-.06-15.96,0-29.99,8.22-38.12,20.64-4.17-1.72-8.73-2.68-13.52-2.68-19.54,0-35.38,15.84-35.38,35.39s15.84,35.37,35.38,35.37c8.6,0,16.47-3.07,22.61-8.18,7.88,6.54,18,10.47,29.02,10.47,12.32,0,23.49-4.9,31.68-12.85,11.76,8.11,26.01,12.85,41.36,12.85,14.03,0,27.13-3.96,38.25-10.82,5.06,6.31,12.82,10.39,21.54,10.39,15.23,0,27.58-12.36,27.58-27.6,0-11.46-7.02-21.31-17-25.45Z"/>
        </g>
        <g>
          <g class="cls-45">
            <path class="cls-24" d="M468.91,230.06c21.46-18.16,17.6-74.43,6.64-89.49-14.39-19.79-29.71-31.82-42.85-38.4-13.18-6.58-50.25-12.3-67.08-12.3-23.55,0-46.68,5.72-65.72,10.82-20.57,5.49-60.94,20.29-80.11,41.31-22.41,24.57-2.64,73.44,3.08,80.61,10.71,13.4,23.66,26.72,39.94,34.51,15.58,7.48,29.1,7.11,40.74,7.91,8.82.62,48.04,4.98,71.01.2,16.28-3.4,43.87-8.42,51.72-12.3,7.33-3.63,25.49-8.36,42.64-22.85Z"/>
            <path class="cls-26" d="M465.44,228.21c21.14-17.61,17.59-72,6.77-87.23-14.14-19.83-29.33-31.19-42.35-37.68-12.9-6.42-48.34-12.12-64.97-12.3-22.96-.15-46,5.34-64.87,10.42-20.43,5.49-60.34,20.3-78.84,40.54-21.63,23.66-3.13,71.22,2.93,78.77,10.39,12.97,22.64,26.14,38.94,33.77,15.41,7.22,28.73,6.58,40.01,7.48,8.7.69,46.56,5.57,69.53.84,16.38-3.37,42.95-8.83,50.58-12.62,7.29-3.63,25.22-7.89,42.26-22.01Z"/>
            <path class="cls-43" d="M461.98,226.37c20.87-17.01,17.59-69.57,6.9-84.96-13.89-19.88-28.96-30.57-41.85-36.95-12.62-6.25-46.42-12-62.86-12.29-22.37-.39-45.32,4.95-64.01,10.01-20.29,5.48-59.74,20.32-77.57,39.78-20.85,22.76-3.62,69,2.78,76.93,10.06,12.55,21.61,25.57,37.94,33.03,15.24,6.96,28.35,6.07,39.29,7.05,8.58.77,45.08,6.16,68.05,1.49,16.49-3.34,42.03-9.24,49.45-12.94,7.24-3.63,24.99-7.39,41.88-21.16Z"/>
            <path class="cls-7" d="M458.51,224.52c20.57-16.44,17.62-67.16,7.03-82.7-13.59-19.96-28.58-29.95-41.34-36.23-12.34-6.09-44.5-11.85-60.76-12.28-21.78-.57-44.64,4.56-63.15,9.61-20.15,5.48-59.14,20.33-76.31,39.02-20.07,21.85-4.09,66.76,2.64,75.1,9.76,12.1,20.58,25.01,36.94,32.29,15.07,6.71,27.98,5.56,38.56,6.62,8.46.84,43.6,6.74,66.57,2.14,16.59-3.31,41.12-9.64,48.31-13.25s24.73-6.9,41.5-20.31Z"/>
            <path class="cls-58" d="M455.04,222.67c20.26-15.87,17.62-64.73,7.16-80.44-13.33-20.01-28.21-29.33-40.84-35.51-12.06-5.92-42.57-11.69-58.65-12.27-21.19-.76-43.97,4.18-62.29,9.2-20,5.48-58.55,20.34-75.04,38.25-19.28,20.95-4.58,64.53,2.49,73.26,9.45,11.67,19.55,24.44,35.94,31.55,14.9,6.46,27.6,5.06,37.83,6.19,8.34.92,42.12,7.33,65.09,2.79,16.7-3.28,40.2-10.04,47.18-13.57s24.48-6.42,41.13-19.47Z"/>
            <path class="cls-63" d="M451.57,220.82c19.96-15.31,17.62-62.3,7.29-78.17-13.06-20.06-27.83-28.71-40.34-34.79-11.78-5.76-40.65-11.54-56.54-12.26-20.59-.94-43.29,3.79-61.44,8.8-19.86,5.48-57.95,20.35-73.77,37.49-18.5,20.04-5.06,62.3,2.34,71.43,9.13,11.24,18.51,23.88,34.94,30.81,14.73,6.22,27.23,4.56,37.11,5.76,8.22,1,40.65,7.92,63.62,3.44,16.8-3.25,39.28-10.45,46.04-13.88,7.11-3.61,24.22-5.94,40.75-18.62Z"/>
            <path class="cls-19" d="M448.11,218.98c19.65-14.74,17.63-59.87,7.42-75.91-12.8-20.12-27.46-28.08-39.84-34.07-11.5-5.59-38.73-11.38-54.43-12.25-20-1.11-42.61,3.4-60.58,8.39-19.72,5.48-57.35,20.36-72.51,36.72-17.72,19.14-5.55,60.08,2.2,69.59,8.8,10.81,17.48,23.32,33.94,30.07,14.56,5.97,26.86,4.06,36.38,5.33,8.1,1.09,39.17,8.51,62.14,4.09,16.9-3.23,38.36-10.86,44.91-14.2,7.07-3.6,23.96-5.46,40.37-17.77Z"/>
            <path class="cls-52" d="M444.64,217.13c19.35-14.18,17.63-57.44,7.55-73.65-12.54-20.17-27.08-27.46-39.34-33.35-11.21-5.43-36.81-11.21-52.32-12.24-19.41-1.28-41.93,3.01-59.72,7.99-19.58,5.48-56.75,20.37-71.24,35.96-16.94,18.23-6.04,57.85,2.05,67.75s16.44,22.76,32.94,29.33c14.38,5.73,26.48,3.56,35.65,4.9,7.99,1.17,37.69,9.1,60.66,4.74,17.01-3.2,37.45-11.27,43.77-14.51,7.02-3.6,23.7-4.98,39.99-16.93Z"/>
            <path class="cls-59" d="M441.17,215.28c19.04-13.62,17.63-55.01,7.68-71.38-12.28-20.22-26.71-26.84-38.83-32.62-10.93-5.27-34.89-11.05-50.22-12.23-18.81-1.45-41.25,2.63-58.86,7.58-19.44,5.47-56.16,20.38-69.97,35.19-16.15,17.32-6.52,55.63,1.9,65.92s15.41,22.2,31.94,28.59c14.2,5.49,26.11,3.07,34.92,4.47,7.87,1.25,36.21,9.68,59.18,5.39,17.11-3.17,36.53-11.68,42.64-14.83,6.97-3.59,23.44-4.51,39.62-16.08Z"/>
            <path class="cls-35" d="M437.71,213.44c18.72-13.06,17.63-52.58,7.81-69.12-12.02-20.26-26.33-26.22-38.33-31.9-10.65-5.1-32.96-10.88-48.11-12.22-18.22-1.61-40.57,2.24-58.01,7.18-19.3,5.47-55.56,20.39-68.71,34.43-15.37,16.42-7.01,53.4,1.76,64.08,7.83,9.53,14.37,21.65,30.94,27.85,14.03,5.25,25.74,2.58,34.2,4.04,7.75,1.34,34.73,10.27,57.71,6.04,17.22-3.14,35.61-12.09,41.5-15.14,6.93-3.59,23.17-4.03,39.24-15.23Z"/>
            <path class="cls-29" d="M434.24,211.59c18.41-12.5,17.62-50.15,7.94-66.85-11.77-20.31-25.97-25.57-37.83-31.18-10.38-4.91-31.04-10.71-46-12.21-17.62-1.77-39.89,1.85-57.15,6.77-19.16,5.47-54.96,20.4-67.44,33.66-14.59,15.51-7.5,51.18,1.61,62.25,7.5,9.11,13.33,21.1,29.94,27.11,13.85,5.01,25.36,2.09,33.47,3.61,7.63,1.43,33.25,10.86,56.23,6.69,17.32-3.11,34.69-12.5,40.37-15.46,6.88-3.59,22.91-3.56,38.86-14.39Z"/>
            <path class="cls-14" d="M430.77,209.74c18.1-11.94,17.62-47.71,8.07-64.59-11.51-20.36-25.6-24.95-37.33-30.46-10.1-4.75-29.12-10.53-43.89-12.2-17.03-1.93-39.22,1.47-56.29,6.37-19.02,5.47-54.36,20.42-66.17,32.9-13.81,14.61-7.99,48.95,1.46,60.41,7.17,8.69,12.29,20.55,28.94,26.37,13.67,4.78,24.99,1.61,32.74,3.18s31.78,11.45,54.75,7.34c17.43-3.08,33.77-12.91,39.23-15.77,6.84-3.58,22.64-3.09,38.48-13.54Z"/>
            <path class="cls-65" d="M427.3,207.9c17.78-11.39,17.61-45.28,8.2-62.33-11.26-20.4-25.22-24.32-36.82-29.74-9.82-4.58-27.2-10.35-41.78-12.19-16.44-2.07-38.54,1.08-55.43,5.97-18.88,5.47-53.77,20.43-64.91,32.13-13.03,13.7-8.48,46.73,1.32,58.57,6.84,8.26,11.25,20,27.94,25.63,13.49,4.55,24.61,1.13,32.01,2.75s30.3,12.03,53.27,7.99c17.53-3.05,32.85-13.32,38.1-16.09,6.79-3.58,22.38-2.62,38.11-12.7Z"/>
            <path class="cls-6" d="M423.84,206.05c17.46-10.84,17.61-42.84,8.33-60.06-11.01-20.45-24.85-23.7-36.32-29.02-9.54-4.42-25.28-10.17-39.68-12.18-15.84-2.22-37.86.69-54.57,5.56-18.74,5.46-53.17,20.44-63.64,31.37-12.24,12.79-8.97,44.51,1.17,56.74,6.51,7.84,10.21,19.46,26.94,24.89,13.31,4.32,24.24.66,31.29,2.32s28.82,12.62,51.79,8.63c17.63-3.02,31.93-13.73,36.96-16.4,6.74-3.58,22.11-2.15,37.73-11.85Z"/>
            <path class="cls-28" d="M420.37,204.2c17.14-10.29,17.6-40.41,8.46-57.8-10.76-20.49-24.47-23.08-35.82-28.29-9.26-4.25-23.35-9.98-37.57-12.17-15.25-2.35-37.18.31-53.72,5.16-18.6,5.46-52.57,20.45-62.37,30.61-11.46,11.89-9.47,42.29,1.03,54.9,6.18,7.42,9.17,18.92,25.94,24.15,13.13,4.09,23.86.19,30.56,1.89,7.16,1.83,27.34,13.21,50.32,9.28,17.74-2.99,31.01-14.14,35.83-16.72,6.7-3.58,21.84-1.69,37.35-11Z"/>
            <path class="cls-27" d="M416.9,202.35c16.82-9.75,17.59-37.97,8.59-55.54-10.51-20.53-24.1-22.46-35.32-27.57-8.97-4.09-21.43-9.79-35.46-12.17s-36.5-.08-52.86,4.75c-18.46,5.46-51.97,20.46-61.11,29.84-10.68,10.98-9.96,40.07.88,53.07,5.84,7,8.12,18.38,24.94,23.41,12.95,3.87,23.48-.28,29.83,1.46,7.04,1.94,25.86,13.8,48.84,9.93,17.84-2.97,30.09-14.56,34.69-17.03,6.65-3.58,21.57-1.23,36.97-10.16Z"/>
            <path class="cls-53" d="M413.43,200.51c16.5-9.21,17.58-35.53,8.72-53.27-10.27-20.58-23.72-21.84-34.82-26.85-8.69-3.93-19.52-9.59-33.35-12.16s-35.82-.47-52,4.35c-18.32,5.46-51.38,20.47-59.84,29.08-9.9,10.08-10.46,37.86.73,51.23,5.51,6.58,7.08,17.85,23.94,22.67,12.76,3.65,23.1-.74,29.11,1.04,6.92,2.05,24.38,14.39,47.36,10.58,17.95-2.94,29.17-14.97,33.56-17.35,6.6-3.58,21.29-.77,36.6-9.31Z"/>
            <path class="cls-64" d="M409.97,198.66c16.17-8.67,17.56-33.09,8.85-51.01-10.03-20.62-23.35-21.22-34.31-26.13-8.41-3.77-17.6-9.38-31.24-12.15s-35.15-.85-51.14,3.94c-18.18,5.46-50.78,20.48-58.57,28.31-9.12,9.17-10.96,35.64.59,49.39,5.18,6.16,6.03,17.32,22.94,21.93,12.58,3.43,22.72-1.2,28.38.61,6.79,2.17,22.91,14.97,45.88,11.23,18.05-2.91,28.25-15.38,32.42-17.66,6.55-3.58,21.02-.31,36.22-8.46Z"/>
            <path class="cls-44" d="M406.5,196.81c15.85-8.14,17.55-30.66,8.98-48.74-9.78-20.66-22.96-20.62-33.81-25.41-8.12-3.62-15.68-9.17-29.14-12.14s-34.47-1.24-50.29,3.54c-18.04,5.45-50.18,20.49-57.31,27.55-8.33,8.26-11.46,33.43.44,47.56,4.84,5.75,4.99,16.8,21.94,21.19,12.4,3.21,22.34-1.65,27.65.18,6.67,2.3,21.43,15.56,44.4,11.88,18.15-2.88,27.33-15.8,31.29-17.98,6.51-3.59,20.74.14,35.84-7.62Z"/>
            <path class="cls-66" d="M403.03,194.97c15.52-7.61,17.51-28.21,9.11-46.48-9.57-20.69-22.59-19.99-33.31-24.69-7.84-3.45-13.77-8.94-27.03-12.13-12.31-2.96-33.79-1.63-49.43,3.13-17.9,5.45-49.58,20.5-56.04,26.78-7.55,7.36-11.97,31.22.29,45.72,4.51,5.33,3.94,16.28,20.94,20.45,12.21,3,21.96-2.1,26.92-.25,6.53,2.43,19.95,16.15,42.93,12.53,18.26-2.85,26.41-16.21,30.15-18.3,6.46-3.59,20.46.58,35.46-6.77Z"/>
            <path class="cls-36" d="M399.57,193.12c15.18-7.11,17.5-25.77,9.24-44.22-9.32-20.73-22.21-19.37-32.81-23.96-7.56-3.29-11.87-8.71-24.92-12.12-11.73-3.06-33.11-2.02-48.57,2.73-17.76,5.45-48.99,20.52-54.77,26.02-6.77,6.45-12.5,29.04.15,43.89,4.17,4.92,2.89,15.76,19.94,19.71,12.03,2.78,21.57-2.55,26.2-.68,6.4,2.58,18.47,16.74,41.45,13.18,18.36-2.82,25.49-16.63,29.02-18.61,6.41-3.6,20.17,1,35.08-5.92Z"/>
            <path class="cls-50" d="M396.1,191.27c14.86-6.56,17.5-23.34,9.38-41.95-9.06-20.78-21.84-18.75-32.3-23.24-7.28-3.12-9.96-8.48-22.81-12.11-11.15-3.16-32.43-2.4-47.71,2.32-17.62,5.45-48.39,20.53-53.51,25.25-5.99,5.55-13,26.82,0,42.05,3.84,4.49,1.85,15.25,18.94,18.96,11.85,2.58,21.17-2.99,25.47-1.11,6.25,2.73,16.99,17.32,39.97,13.83,18.47-2.79,24.56-17.05,27.88-18.93,6.35-3.61,19.9,1.46,34.71-5.08Z"/>
          </g>
          <path class="cls-1" d="M376.24,121.35c-.8,0-1.59.04-2.38.1-4.28-12.17-15.86-20.9-29.48-20.9-4.08,0-7.96.8-11.51,2.21-4.23-11.66-15.4-20-28.52-20s-23.7,7.89-28.16,19.08c-1.49-.25-3.03-.41-4.6-.41-13.77,0-25.12,10.45-26.52,23.85-1.91-.37-3.91-.59-5.95-.59-16.61,0-30.08,13.48-30.08,30.08s13.47,30.1,30.08,30.1c.25,0,.52-.02.78-.04,2.94,12.17,13.88,21.19,26.94,21.19,10.1,0,18.95-5.41,23.79-13.5,6.6,11.29,18.84,18.89,32.85,18.89,15.52,0,28.87-9.3,34.79-22.62,5.29,3.05,11.43,4.8,17.98,4.8,19.94,0,36.11-16.17,36.11-36.13s-16.17-36.11-36.11-36.11Z"/>
          <path class="cls-25" d="M377.48,122.6c-.8,0-1.59.02-2.38.08-4.28-12.17-15.86-20.88-29.49-20.88-4.06,0-7.95.78-11.5,2.19-4.23-11.66-15.4-20-28.52-20s-23.7,7.91-28.16,19.08c-1.49-.25-3.03-.39-4.6-.39-13.78,0-25.12,10.45-26.52,23.85-1.92-.39-3.92-.59-5.95-.59-16.61,0-30.09,13.46-30.09,30.08s13.48,30.08,30.09,30.08c.25,0,.51-.02.78-.02,2.94,12.15,13.89,21.19,26.93,21.19,10.11,0,18.96-5.41,23.79-13.5,6.61,11.29,18.85,18.87,32.86,18.87,15.52,0,28.86-9.3,34.79-22.62,5.28,3.05,11.43,4.8,17.98,4.8,19.94,0,36.11-16.17,36.11-36.11s-16.17-36.11-36.11-36.11Z"/>
        </g>
        <g>
          <g class="cls-45">
            <path class="cls-24" d="M442.73,163.95c25.56-26.5,23.84-80.82,9.72-100.21-18.54-25.49-41.05-34.88-57.99-43.36-16.98-8.48-41.66-16.35-63.11-19.55-26.51-3.98-55.79,7.46-80.32,14.02-26.48,7.09-108.21,34.65-132.9,61.72-13.65,14.98-17.07,34.36-15.02,52.3,2.29,19.98,11.14,38.03,15.02,42.89,13.8,17.27,64.16,34.53,85.14,44.59,20.08,9.63,37.48,9.14,52.47,10.18,11.37.8,43.14-.04,72.72-6.21,20.97-4.38,41.81-20.62,51.93-25.64,9.43-4.67,42.95-10.61,62.33-30.72Z"/>
            <path class="cls-26" d="M438.91,162.37c25.23-25.64,23.91-78.71,10.02-97.99-18.12-25.14-40.18-34.05-56.94-42.39-16.61-8.26-40.1-15.98-61.51-19.39-25.9-4.02-54.43,6.87-78.81,13.48-26.27,7.13-108.45,34.6-132.47,60.44-13.63,14.65-17.03,33.93-14.69,51.57,2.61,19.62,12.09,36.81,16.32,41.65,14.01,16.05,61.9,33.76,82.9,43.56,19.83,9.33,36.88,8.42,51.41,9.57,11.2.89,41.81,1.07,71.92-5.31,21.05-4.45,41.17-20.85,51.02-25.74,9.37-4.66,41.48-9.89,60.84-29.44Z"/>
            <path class="cls-43" d="M435.09,160.79c24.98-24.7,23.98-76.61,10.33-95.77-17.7-24.79-39.31-33.21-55.89-41.42-16.24-8.04-38.53-15.7-59.92-19.22-25.26-4.16-53.06,6.27-77.29,12.94-26.05,7.17-108.69,34.56-132.05,59.15-13.61,14.33-16.99,33.5-14.36,50.83,2.93,19.27,13.02,35.57,17.61,40.41,14.11,14.87,59.66,32.93,80.66,42.53,19.61,8.97,36.29,7.72,50.36,8.97,11.04.98,40.48,2.18,71.11-4.41,21.14-4.52,40.54-21.07,50.1-25.84,9.3-4.66,40.07-9.12,59.34-28.17Z"/>
            <path class="cls-7" d="M431.28,159.21c24.69-23.79,24.05-74.5,10.63-93.55-17.29-24.44-38.44-32.38-54.85-40.45-15.87-7.83-36.96-15.38-58.32-19.06-24.64-4.24-51.7,5.68-75.77,12.41-25.83,7.21-108.94,34.5-131.62,57.87-13.59,14-16.95,33.08-14.03,50.09,3.24,18.91,13.94,34.32,18.91,39.17,14.12,13.75,57.41,32.13,78.43,41.5,19.38,8.64,35.69,7.01,49.3,8.36,10.88,1.08,39.14,3.29,70.3-3.51,21.23-4.6,39.9-21.29,49.18-25.93,9.23-4.65,38.63-8.38,57.84-26.89Z"/>
            <path class="cls-58" d="M427.46,157.63c24.39-22.89,24.12-72.39,10.94-91.33-16.87-24.09-37.57-31.55-53.8-39.49-15.5-7.61-35.39-15.05-56.73-18.89-24.01-4.32-50.34,5.08-74.26,11.87-25.61,7.25-109.21,34.44-131.19,56.58-13.57,13.68-16.91,32.65-13.7,49.36,3.56,18.55,14.83,33.07,20.21,37.92,14.04,12.68,55.15,31.33,76.19,40.47,19.14,8.32,35.1,6.32,48.25,7.76,10.72,1.18,37.81,4.4,69.49-2.61,21.32-4.67,39.27-21.51,48.26-26.03,9.16-4.65,37.19-7.64,56.34-25.61Z"/>
            <path class="cls-63" d="M423.64,156.05c24.1-21.99,24.19-70.29,11.24-89.11-16.46-23.74-36.7-30.71-52.75-38.52-15.12-7.4-33.82-14.72-55.13-18.73-23.39-4.4-48.97,4.48-72.74,11.33-25.39,7.29-109.49,34.36-130.77,55.3-13.56,13.35-16.87,32.23-13.36,48.62,3.87,18.19,15.71,31.82,21.5,36.68,13.89,11.66,52.89,30.53,73.96,39.44,18.91,8,34.5,5.62,47.19,7.16,10.56,1.28,36.48,5.51,68.69-1.71,21.41-4.75,38.64-21.71,47.34-26.12s35.75-6.9,54.84-24.33Z"/>
            <path class="cls-19" d="M419.82,154.47c23.79-21.1,24.3-68.21,11.54-86.89-15.99-23.43-35.83-29.88-51.7-37.55-14.75-7.18-32.26-14.39-53.54-18.56-22.77-4.46-47.61,3.89-71.23,10.79-25.17,7.34-109.79,34.28-130.34,54.02-13.56,13.02-16.83,31.8-13.03,47.89,4.19,17.84,16.57,30.56,22.8,35.44,13.66,10.7,50.64,29.74,71.72,38.41,18.67,7.68,33.9,4.93,46.13,6.55,10.4,1.38,35.15,6.62,67.88-.81,21.49-4.82,38.01-21.93,46.43-26.22,9.04-4.61,34.3-6.16,53.34-23.05Z"/>
            <path class="cls-52" d="M416.01,152.89c23.48-20.2,24.37-66.11,11.85-84.67-15.57-23.08-34.96-29.04-50.66-36.58-14.38-6.97-30.69-14.05-51.95-18.4-22.14-4.53-46.24,3.29-69.71,10.25-24.95,7.38-110.1,34.19-129.91,52.73-13.56,12.69-16.79,31.37-12.7,47.15,4.51,17.48,17.42,29.31,24.1,34.2,13.38,9.79,48.38,28.95,69.48,37.38,18.43,7.36,33.31,4.24,45.08,5.95,10.24,1.49,33.81,7.73,67.07.08,21.58-4.9,37.38-22.15,45.51-26.32,8.97-4.6,32.85-5.43,51.84-21.77Z"/>
            <path class="cls-59" d="M412.19,151.31c23.17-19.31,24.45-64,12.15-82.45-15.15-22.73-34.09-28.21-49.61-35.61-14.01-6.75-29.12-13.71-50.35-18.23s-44.88,2.7-68.19,9.71c-24.73,7.42-110.42,34.08-129.49,51.45-13.57,12.36-16.75,30.95-12.37,46.41,4.82,17.12,18.25,28.07,25.4,32.96,13.05,8.92,46.12,28.16,67.25,36.35,18.19,7.05,32.71,3.56,44.02,5.35,10.08,1.59,32.48,8.84,66.26.98,21.67-4.97,36.74-22.37,44.59-26.41,8.91-4.59,31.39-4.69,50.34-20.49Z"/>
            <path class="cls-35" d="M408.37,149.73c22.86-18.43,24.52-61.9,12.46-80.23-14.73-22.39-33.24-27.34-48.56-34.65-13.65-6.51-27.56-13.37-48.76-18.07s-43.52,2.1-66.68,9.17c-24.51,7.46-110.76,33.96-129.06,50.17-13.58,12.03-16.71,30.52-12.04,45.68,5.14,16.77,18.33,28.26,26.69,31.72,11.06,10.21,43.85,27.37,65.01,35.32,17.94,6.74,32.12,2.88,42.97,4.74,9.92,1.7,31.15,9.95,65.45,1.88,21.76-5.04,36.11-22.59,43.67-26.51,8.84-4.58,29.93-3.96,48.84-19.21Z"/>
            <path class="cls-29" d="M404.55,148.15c22.53-17.55,24.59-59.79,12.76-78.01-14.31-22.04-32.37-26.51-47.52-33.68-13.28-6.29-25.99-13.02-47.16-17.9s-42.15,1.51-65.16,8.63c-24.29,7.5-111.12,33.83-128.63,48.88-13.6,11.69-16.67,30.1-11.71,44.94,5.45,16.41,19.13,27.17,27.99,30.47,10.75,9.43,41.59,26.59,62.77,34.28,17.7,6.43,31.52,2.21,41.91,4.14,9.76,1.82,29.81,11.06,64.65,2.78,21.85-5.12,35.48-22.81,42.75-26.6,8.77-4.57,28.47-3.24,47.35-17.93Z"/>
            <path class="cls-14" d="M400.74,146.57c22.21-16.67,24.67-57.69,13.07-75.79-13.89-21.69-31.5-25.67-46.47-32.71-12.91-6.07-24.42-12.66-45.57-17.74-19.66-4.72-40.79.91-63.65,8.09-24.08,7.54-111.48,33.69-128.2,47.6-13.63,11.34-16.63,29.67-11.38,44.2,5.77,16.05,19.93,26.09,29.29,29.23,10.45,8.64,39.33,25.81,60.54,33.25,17.45,6.12,30.93,1.54,40.85,3.54,9.6,1.93,28.48,12.17,63.84,3.68,21.93-5.19,34.84-23.03,41.84-26.7,8.71-4.57,27.01-2.51,45.85-16.66Z"/>
            <path class="cls-65" d="M396.92,144.99c21.88-15.8,24.74-55.58,13.37-73.57-13.48-21.34-30.63-24.83-45.42-31.74-12.54-5.86-22.86-12.3-43.98-17.58-19.04-4.75-39.42.32-62.13,7.55-23.86,7.58-111.87,33.53-127.78,46.32-13.67,10.99-16.59,29.24-11.05,43.47,6.08,15.69,20.72,25,30.58,27.99,10.14,7.86,37.06,25.04,58.3,32.22,17.21,5.82,30.33.87,39.8,2.93s27.15,13.28,63.03,4.58c22.02-5.27,34.21-23.25,40.92-26.79,8.64-4.56,25.54-1.79,44.35-15.38Z"/>
            <path class="cls-6" d="M393.1,143.4c21.55-14.94,24.81-53.47,13.68-71.35-13.06-20.99-29.76-24-44.37-30.77-12.17-5.64-21.3-11.94-42.38-17.41-18.42-4.78-38.06-.28-60.61,7.01-23.64,7.62-112.27,33.35-127.35,45.03-13.72,10.63-16.55,28.82-10.72,42.73,6.4,15.34,21.52,23.92,31.88,26.75,9.84,7.07,34.79,24.27,56.06,31.19,16.96,5.52,29.73.21,38.74,2.33s25.81,14.39,62.22,5.48c22.11-5.34,33.57-23.47,40-26.89,8.57-4.56,24.07-1.08,42.85-14.1Z"/>
            <path class="cls-28" d="M389.28,141.82c21.21-14.08,24.87-51.37,13.98-69.13-12.65-20.64-28.89-23.17-43.33-29.8-11.79-5.42-19.74-11.56-40.79-17.25-17.81-4.81-36.7-.87-59.1,6.47-23.42,7.66-112.69,33.15-126.92,43.75s-16.51,28.39-10.38,41.99c6.72,14.98,22.93,21.03,33.18,25.51s32.52,23.5,53.83,30.16c16.71,5.23,29.13-.44,37.69,1.73,9.12,2.31,24.48,15.49,61.42,6.38,22.2-5.42,32.93-23.7,39.08-26.99,8.5-4.55,22.59-.37,41.35-12.82Z"/>
            <path class="cls-27" d="M385.47,140.24c20.87-13.22,24.94-49.26,14.29-66.91-12.24-20.28-28.02-22.33-42.28-28.84-11.42-5.21-18.18-11.19-39.19-17.08-17.19-4.82-35.33-1.47-57.58,5.93-23.2,7.7-113.12,32.94-126.5,42.47s-16.47,27.97-10.05,41.26c7.03,14.62,23.66,19.97,34.47,24.27,9.99,3.97,30.25,22.73,51.59,29.13,16.46,4.94,28.53-1.09,36.63,1.12,8.96,2.45,23.15,16.6,60.61,7.28,22.29-5.49,32.3-23.92,38.16-27.08,8.44-4.55,21.11.34,39.85-11.54Z"/>
            <path class="cls-53" d="M381.65,138.66c20.52-12.38,25.01-47.15,14.59-64.69-11.83-19.93-27.15-21.5-41.23-27.87-11.05-5-16.62-10.8-37.6-16.92-16.58-4.84-33.97-2.06-56.07,5.39-22.98,7.74-113.56,32.71-126.07,41.18-13.94,9.45-16.43,27.54-9.72,40.52,7.35,14.27,24.38,18.97,35.77,23.02,9.51,3.38,27.98,21.98,49.36,28.1,16.21,4.65,27.93-1.73,35.57.52,8.79,2.59,21.81,17.71,59.8,8.18,22.37-5.57,31.66-24.14,37.25-27.18,8.37-4.54,19.63,1.03,38.35-10.26Z"/>
            <path class="cls-64" d="M377.83,137.08c20.17-11.54,25.07-45.04,14.89-62.47-11.42-19.57-26.28-20.67-40.19-26.9-10.68-4.78-15.07-10.4-36.01-16.75-15.97-4.84-32.6-2.66-54.55,4.85-22.76,7.79-114.02,32.45-125.64,39.9-14.05,9-16.39,27.11-9.39,39.78,7.66,13.91,25.09,18.04,37.07,21.78,9.05,2.82,25.71,21.22,47.12,27.07,15.96,4.36,27.33-2.37,34.52-.09,8.62,2.74,20.48,18.82,58.99,9.08,22.46-5.64,31.03-24.37,36.33-27.27,8.3-4.54,18.14,1.72,36.85-8.98Z"/>
            <path class="cls-44" d="M374.02,135.5c19.82-10.71,25.13-42.92,15.2-60.25-11.02-19.22-25.41-19.84-39.14-25.93-10.3-4.57-13.52-10-34.41-16.59-15.36-4.85-31.24-3.25-53.03,4.31-22.54,7.83-114.49,32.17-125.22,38.62-14.17,8.52-16.35,26.69-9.06,39.05,7.98,13.55,25.79,17.19,38.36,20.54,8.59,2.29,23.44,20.47,44.88,26.04,15.71,4.08,26.72-3,33.46-.69,8.45,2.9,19.15,19.93,58.18,9.98,22.55-5.71,30.39-24.59,35.41-27.37,8.22-4.54,16.65,2.4,35.36-7.7Z"/>
            <path class="cls-66" d="M370.2,133.92c19.46-9.89,25.16-40.8,15.5-58.03-10.65-18.84-24.52-19.03-38.09-24.96-9.92-4.38-11.98-9.58-32.82-16.42-14.76-4.85-29.88-3.85-51.52,3.77-22.32,7.87-114.97,31.86-124.79,37.33-14.33,7.98-16.31,26.26-8.73,38.31,8.29,13.19,26.49,16.43,39.66,19.3,8.16,1.78,21.16,19.73,42.65,25.01,15.46,3.8,26.11-3.63,32.41-1.29,8.27,3.07,17.81,21.04,57.38,10.88,22.64-5.79,29.75-24.83,34.49-27.46,8.14-4.56,15.16,3.07,33.86-6.42Z"/>
            <path class="cls-36" d="M366.38,132.34c19.11-9.08,25.23-38.69,15.81-55.81-10.23-18.49-23.65-18.2-37.04-24-9.55-4.16-10.44-9.15-31.22-16.26-14.15-4.84-28.51-4.44-50,3.23-22.1,7.91-115.44,31.53-124.36,36.05-14.51,7.36-16.27,25.84-8.4,37.57,8.61,12.84,27.19,15.78,40.96,18.06,7.76,1.28,18.89,18.99,40.41,23.98,15.21,3.52,25.5-4.25,31.35-1.9,8.09,3.25,16.48,22.15,56.57,11.78,22.72-5.86,29.11-25.05,33.57-27.56,8.08-4.56,13.67,3.73,32.36-5.15Z"/>
            <path class="cls-50" d="M362.56,130.76c18.75-8.28,25.3-36.58,16.11-53.59-9.81-18.14-22.78-17.36-36-23.03-9.18-3.95-8.91-8.71-29.63-16.09-13.55-4.82-27.15-5.04-48.49,2.7-21.88,7.95-115.92,31.15-123.94,34.77-14.73,6.62-16.23,25.41-8.07,36.84,8.93,12.48,27.91,15.23,42.26,16.82,7.4.8,16.61,18.28,38.17,22.95,14.95,3.26,24.87-4.86,30.29-2.5,7.89,3.46,15.15,23.26,55.76,12.68,22.81-5.94,28.48-25.27,32.66-27.66,8.01-4.55,12.17,4.37,30.86-3.87Z"/>
          </g>
          <path class="cls-34" d="M346.68,48.4c-1.66,0-3.27.12-4.86.29-6.05-17.87-22.97-30.76-42.91-30.76-9.2,0-17.75,2.75-24.91,7.48-4.9-13.42-17.78-23.01-32.9-23.01-17.05,0-31.25,12.21-34.38,28.36-4.8-3.59-10.78-5.7-17.25-5.7-14.8,0-27.01,11.11-28.75,25.45h-.22c-23.04,0-41.7,18.67-41.7,41.7s18.66,41.7,41.7,41.7c7.34,0,14.25-1.89,20.23-5.23,2.17,14.45,14.63,25.55,29.69,25.55,11.9,0,22.2-6.93,27.05-16.97,9.19,13.5,24.68,22.36,42.25,22.36,22.69,0,41.89-14.79,48.56-35.23,5.51,2.83,11.76,4.45,18.4,4.45,22.21,0,40.21-18.01,40.21-40.21s-18.01-40.21-40.21-40.21Z"/>
          <path class="cls-62" d="M347.91,49.53c-1.65,0-3.27.12-4.87.29-6.05-17.87-22.96-30.76-42.9-30.76-9.2,0-17.77,2.75-24.92,7.48-4.9-13.42-17.77-22.99-32.89-22.99-17.05,0-31.26,12.19-34.38,28.34-4.81-3.57-10.78-5.7-17.25-5.7-14.81,0-27.01,11.11-28.75,25.45h-.23c-23.03,0-41.7,18.67-41.7,41.7s18.67,41.7,41.7,41.7c7.35,0,14.25-1.89,20.24-5.23,2.16,14.45,14.63,25.55,29.69,25.55,11.9,0,22.19-6.93,27.04-16.97,9.19,13.5,24.69,22.36,42.26,22.36,22.67,0,41.88-14.79,48.55-35.23,5.52,2.83,11.77,4.45,18.41,4.45,22.21,0,40.21-18.01,40.21-40.21s-18-40.21-40.21-40.21Z"/>
        </g>
        <g>
          <g class="cls-45">
            <path class="cls-24" d="M283.07,219.49c13.16-19.55,6.8-55.66-2.39-68.3-12.07-16.56-27.86-23.93-38.89-29.43-11.06-5.53-35.11-15.35-49.23-15.35-19.75,0-29.79,7.3-45.75,11.58-17.24,4.61-46.51,31.5-62.59,49.14-18.79,20.61-14,51.6-9.22,57.6,8.98,11.25,19.84,22.4,33.49,28.95,13.08,6.27,24.4,5.96,34.16,6.64,7.39.51,16.03,4.18,35.28.16,13.65-2.85,20.18-3.96,27.19-6.13,14.87-4.63,62.02-11.19,77.95-34.84Z"/>
            <path class="cls-26" d="M280.35,218.63c13.13-18.88,7.58-53.79-1.49-66.57-11.86-16.6-27.76-23.53-38.68-28.96-10.83-5.39-34.24-15.44-48.21-15.58-19.25-.13-29.66,6.86-45.48,11.12-17.12,4.61-45.77,31.23-61.29,48.21-18.13,19.85-14.49,50.1-9.42,56.42,8.71,10.89,19.25,21.87,32.94,28.12,13.17,5.99,24.23,5.3,33.69,6.05,7.29.58,15.96,4.19,35.21.22,13.74-2.83,20.37-4.09,27.18-6.07,14.43-4.25,59.78-10.16,75.54-32.95Z"/>
            <path class="cls-43" d="M277.62,217.78c13.05-18.25,8.37-51.93-.59-64.84-11.65-16.65-27.67-23.14-38.48-28.48-10.59-5.25-33.38-15.58-47.18-15.81-18.75-.32-29.54,6.42-45.2,10.66-17,4.61-45.04,30.95-59.99,47.28-17.48,19.09-14.97,48.59-9.62,55.24,8.46,10.52,18.66,21.34,32.4,27.29,13.27,5.7,24.05,4.64,33.22,5.46,7.19.64,15.88,4.2,35.14.28,13.83-2.8,20.56-4.21,27.17-6.01,13.99-3.87,57.48-9.18,73.13-31.06Z"/>
            <path class="cls-7" d="M274.9,216.92c12.99-17.6,9.19-50.08.31-63.12-11.39-16.72-27.57-22.75-38.28-28.01-10.35-5.11-32.51-15.69-46.16-16.04-18.26-.48-29.41,5.97-44.93,10.21-16.88,4.6-44.3,30.67-58.69,46.35-16.82,18.33-15.45,47.08-9.81,54.07,8.19,10.15,18.06,20.83,31.86,26.46s23.87,3.98,32.74,4.87c7.09.7,15.81,4.21,35.07.34,13.91-2.78,20.76-4.33,27.16-5.95,13.55-3.48,55.21-8.17,70.72-29.17Z"/>
            <path class="cls-58" d="M272.17,216.06c12.94-16.94,9.99-48.21,1.21-61.39-11.17-16.76-27.47-22.36-38.07-27.54-10.12-4.97-31.65-15.79-45.14-16.27-17.76-.63-29.29,5.53-44.66,9.75-16.77,4.6-43.56,30.39-57.39,45.42-16.17,17.57-15.93,45.58-10.01,52.89,7.93,9.79,17.47,20.31,31.32,25.63s23.7,3.33,32.27,4.27c6.99.77,15.74,4.22,35,.41,14-2.75,20.95-4.45,27.15-5.89,13.11-3.1,52.95-7.16,68.31-27.28Z"/>
            <path class="cls-63" d="M269.45,215.2c12.89-16.29,10.78-46.35,2.11-59.66-10.95-16.81-27.38-21.97-37.87-27.06-9.88-4.83-30.78-15.9-44.12-16.5-17.26-.78-29.17,5.09-44.38,9.29-16.65,4.6-42.82,30.11-56.09,44.49-15.51,16.81-16.41,44.07-10.21,51.72,7.66,9.43,16.88,19.78,30.78,24.8,13.55,4.89,23.52,2.68,31.8,3.68,6.89.84,15.67,4.23,34.93.47,14.09-2.73,21.15-4.56,27.14-5.84,12.68-2.7,50.69-6.16,65.9-25.39Z"/>
            <path class="cls-19" d="M266.73,214.34c12.84-15.64,11.58-44.48,3.01-57.93-10.73-16.86-27.28-21.58-37.66-26.59-9.64-4.7-29.92-16-43.09-16.74-16.76-.93-29.04,4.64-44.11,8.83-16.53,4.6-42.08,29.84-54.79,43.57-14.86,16.05-16.9,42.57-10.41,50.54,7.39,9.07,16.29,19.25,30.24,23.97,13.65,4.61,23.35,2.03,31.33,3.09,6.79.91,15.6,4.24,34.86.53,14.18-2.71,21.34-4.68,27.13-5.78,12.24-2.31,48.43-5.15,63.49-23.49Z"/>
            <path class="cls-52" d="M264,213.48c12.8-14.99,12.37-42.61,3.91-56.2-10.51-16.9-27.18-21.18-37.46-26.11-9.41-4.56-29.05-16.11-42.07-16.97-16.26-1.07-28.92,4.2-43.83,8.37-16.41,4.6-41.34,29.56-53.49,42.64-14.2,15.29-17.38,41.07-10.61,49.36,7.11,8.71,15.7,18.72,29.69,23.14s23.17,1.38,30.86,2.5c6.69.98,15.53,4.25,34.79.59,14.26-2.68,21.53-4.8,27.12-5.72,11.8-1.93,46.17-4.14,61.08-21.6Z"/>
            <path class="cls-59" d="M261.28,212.62c12.75-14.33,13.16-40.74,4.81-54.48-10.3-16.94-27.1-20.77-37.26-25.64-9.18-4.4-28.18-16.21-41.05-17.2-15.77-1.21-28.8,3.76-43.56,7.91-16.3,4.59-40.6,29.28-52.19,41.71-13.55,14.53-17.87,39.56-10.81,48.19s15.11,18.19,29.15,22.31c13.85,4.06,22.99.74,30.38,1.91,6.59,1.05,15.46,4.26,34.73.65,14.35-2.66,21.73-4.92,27.11-5.66,11.35-1.55,43.92-3.13,58.67-19.71Z"/>
            <path class="cls-35" d="M258.55,211.76c12.71-13.68,13.95-38.88,5.71-52.75-10.08-16.98-27-20.38-37.05-25.16-8.94-4.26-27.32-16.3-40.03-17.43-15.27-1.35-28.67,3.31-43.29,7.46-16.18,4.59-39.86,29-50.89,40.78-12.89,13.77-18.35,38.06-11.01,47.01,6.57,8,14.52,17.66,28.61,21.48,13.94,3.77,22.82.09,29.91,1.32,6.5,1.12,15.39,4.27,34.66.72,14.44-2.63,21.92-5.05,27.1-5.6,10.91-1.16,41.67-2.11,56.27-17.82Z"/>
            <path class="cls-29" d="M255.83,210.9c12.67-13.02,14.74-37.01,6.62-51.02-9.87-17.03-26.91-19.99-36.85-24.69-8.71-4.12-26.45-16.4-39-17.66-14.77-1.48-28.55,2.87-43.01,7-16.06,4.59-39.12,28.72-49.59,39.85-12.24,13.01-18.84,36.56-11.2,45.83,6.29,7.64,13.93,17.13,28.07,20.65s22.64-.55,29.44.73c6.4,1.2,15.32,4.28,34.59.78,14.53-2.61,22.11-5.17,27.09-5.54,10.47-.78,39.42-1.1,53.86-15.93Z"/>
            <path class="cls-14" d="M253.11,210.04c12.64-12.36,15.53-35.14,7.52-49.29-9.66-17.07-26.81-19.59-36.65-24.22-8.47-3.98-25.58-16.49-37.98-17.89-14.27-1.61-28.42,2.42-42.74,6.54-15.94,4.59-38.39,28.44-48.29,38.92-11.58,12.25-19.32,35.05-11.4,44.66,6.01,7.29,13.34,16.6,27.53,19.82,14.14,3.21,22.47-1.18,28.97.13s15.25,4.29,34.52.84c14.61-2.59,22.3-5.29,27.08-5.48,10.03-.4,37.18-.08,51.45-14.03Z"/>
            <path class="cls-65" d="M250.38,209.18c12.6-11.7,16.31-33.27,8.42-47.56-9.45-17.11-26.71-19.2-36.44-23.74-8.23-3.84-24.72-16.58-36.96-18.12-13.77-1.73-28.3,1.98-42.47,6.08-15.82,4.59-37.65,28.17-46.99,37.99-10.93,11.49-19.81,33.55-11.6,43.48,5.74,6.94,12.75,16.07,26.99,18.99,14.24,2.92,22.29-1.81,28.5-.46s15.18,4.3,34.45.9c14.7-2.56,22.5-5.38,27.07-5.42,9.59-.09,34.94.94,49.04-12.14Z"/>
            <path class="cls-6" d="M247.66,208.32c12.58-11.04,17.1-31.39,9.32-45.84-9.24-17.15-26.62-18.81-36.24-23.27-8-3.7-23.85-16.66-35.93-18.35-13.27-1.85-28.18,1.54-42.19,5.62-15.71,4.59-36.91,27.89-45.68,37.06-10.27,10.73-20.3,32.05-11.8,42.3,5.46,6.58,12.16,15.53,26.44,18.16s22.11-2.44,28.02-1.05,15.11,4.31,34.38.97c14.79-2.54,22.69-5.53,27.06-5.36,9.15.36,32.71,1.96,46.63-10.25Z"/>
            <path class="cls-28" d="M244.93,207.46c12.55-10.37,17.88-29.52,10.22-44.11-9.03-17.18-26.52-18.42-36.04-22.79-7.76-3.57-22.99-16.74-34.91-18.58-12.78-1.97-28.05,1.09-41.92,5.16-15.59,4.58-36.17,27.61-44.38,36.13-9.62,9.97-20.79,30.55-12,41.13,5.18,6.23,11.57,15,25.9,17.33s21.94-3.07,27.55-1.64c6,1.52,15.04,4.32,34.31,1.03,14.88-2.51,22.88-5.65,27.05-5.3,8.7.74,30.48,2.99,44.22-8.36Z"/>
            <path class="cls-27" d="M242.21,206.6c12.53-9.7,18.67-27.65,11.12-42.38-8.82-17.22-26.42-18.03-35.83-22.32-7.52-3.43-22.12-16.82-33.89-18.81s-27.93.65-41.64,4.7c-15.47,4.58-35.43,27.33-43.08,35.2-8.96,9.21-21.28,29.06-12.2,39.95,4.9,5.88,10.98,14.46,25.36,16.5s21.76-3.69,27.08-2.23c5.9,1.62,14.97,4.33,34.24,1.09,14.96-2.49,23.08-5.78,27.04-5.24,8.26,1.12,28.25,4.02,41.81-6.47Z"/>
            <path class="cls-53" d="M239.48,205.74c12.51-9.02,19.45-25.78,12.02-40.65-8.62-17.26-26.32-17.64-35.63-21.84-7.29-3.29-21.26-16.89-32.87-19.04s-27.81.21-41.37,4.25c-15.35,4.58-34.69,27.05-41.78,34.27-8.31,8.45-21.77,27.56-12.4,38.77,4.62,5.52,10.4,13.92,24.82,15.67,14.64,1.78,21.58-4.31,26.61-2.82,5.8,1.71,14.9,4.34,34.17,1.15,15.05-2.46,23.27-5.9,27.03-5.18,7.82,1.5,26.03,5.06,39.4-4.58Z"/>
            <path class="cls-64" d="M236.76,204.88c12.5-8.33,20.23-23.9,12.92-38.92-8.41-17.3-26.23-17.25-35.42-21.37-7.05-3.16-20.4-16.96-31.84-19.27s-27.68-.24-41.1,3.79c-15.24,4.58-33.95,26.78-40.48,33.35-7.65,7.69-22.27,26.06-12.59,37.6,4.34,5.17,9.81,13.38,24.28,14.84,14.74,1.49,21.4-4.92,26.14-3.42,5.69,1.81,14.83,4.35,34.1,1.22,15.14-2.44,23.46-6.03,27.02-5.12,7.38,1.88,23.81,6.11,36.99-2.68Z"/>
            <path class="cls-44" d="M234.04,204.03c12.48-7.64,20.98-22.01,13.82-37.2-8.24-17.32-26.12-16.88-35.22-20.9-6.8-3.03-19.54-17.02-30.82-19.5s-27.56-.68-40.82,3.33c-15.12,4.58-33.21,26.5-39.18,32.42-6.99,6.93-22.77,24.57-12.79,36.42,4.06,4.82,9.22,12.84,23.73,14.01,14.84,1.2,21.21-5.54,25.66-4.01,5.58,1.92,14.76,4.36,34.03,1.28,15.23-2.42,23.66-6.15,27.01-5.06,6.94,2.25,21.59,7.16,34.58-.79Z"/>
            <path class="cls-66" d="M231.31,203.17c12.47-6.94,21.76-20.15,14.72-35.47-8.03-17.36-26.02-16.49-35.02-20.42-6.57-2.89-18.68-17.07-29.8-19.73-10.31-2.47-27.43-1.12-40.55,2.87-15,4.57-32.47,26.22-37.88,31.49-6.34,6.17-23.27,23.08-12.99,35.24,3.78,4.47,8.63,12.28,23.19,13.18,14.94.88,21.03-6.14,25.19-4.6,5.47,2.03,14.69,4.37,33.96,1.34,15.31-2.39,23.85-6.28,27-5,6.51,2.62,19.38,8.22,32.17,1.1Z"/>
            <path class="cls-36" d="M228.59,202.31c12.47-6.23,22.55-18.28,15.62-33.74-7.82-17.4-25.93-16.09-34.81-19.95-6.33-2.76-17.82-17.11-28.78-19.96-9.82-2.56-27.31-1.57-40.27,2.41-14.88,4.57-31.74,25.94-36.58,30.56-5.68,5.41-23.8,21.62-13.19,34.07,3.49,4.13,8.04,11.74,22.65,12.35,15.04.6,20.84-6.75,24.72-5.19,5.36,2.15,14.62,4.38,33.89,1.4,15.4-2.37,24.04-6.4,26.99-4.94,6.07,3,17.16,9.29,29.76,2.99Z"/>
            <path class="cls-50" d="M225.86,201.45c12.46-5.51,23.34-16.41,16.52-32.01-7.61-17.44-25.83-15.7-34.61-19.47-6.09-2.62-16.97-17.15-27.75-20.2-9.34-2.64-27.19-2.01-40,1.95-14.77,4.57-31,25.66-35.28,29.63-5.03,4.65-24.29,20.12-13.39,32.89,3.21,3.77,7.45,11.21,22.11,11.52,15.14.31,20.64-7.34,24.25-5.78,5.23,2.29,14.55,4.39,33.82,1.46,15.49-2.34,24.24-6.52,26.98-4.88,5.62,3.38,14.95,10.37,27.35,4.88Z"/>
          </g>
          <path class="cls-42" d="M216.05,148.44c-3.49-.18-6.83.31-9.94,1.33-4.09-20.72-21.83-36.84-43.89-37.99-21.4-1.09-40.2,12.21-46.98,31.43h-.03c-18.1-.94-33.54,12.97-34.47,31.05-.95,18.11,12.96,33.54,31.06,34.47,9.33.49,17.94-2.99,24.24-8.93,6.29,3.65,13.51,5.94,21.27,6.33,13.87.72,26.65-4.61,35.78-13.69,4.69,6.04,11.88,10.08,20.12,10.51,15.06.78,27.89-10.78,28.67-25.84.78-15.04-10.78-27.87-25.83-28.67Z"/>
          <path class="cls-21" d="M217.72,148.63c-3.48-.18-6.83.29-9.94,1.33-4.09-20.72-21.83-36.84-43.89-37.99-21.4-1.11-40.2,12.19-46.99,31.41h-.02c-18.1-.94-33.54,12.97-34.47,31.07-.94,18.09,12.96,33.52,31.05,34.47,9.34.47,17.95-2.99,24.25-8.95,6.28,3.67,13.51,5.94,21.28,6.35,13.86.72,26.64-4.63,35.77-13.69,4.7,6.04,11.88,10.08,20.12,10.51,15.05.78,27.89-10.78,28.67-25.84.78-15.06-10.78-27.89-25.83-28.67Z"/>
        </g>
        <g>
          <g>
            <g class="cls-45">
              <path class="cls-24" d="M207.67,327.54c-.66-16,18.94-50.84,33.43-51.86,15.64-1.09,47.58,33.22,44.83,56.41-3.3,27.99-37.06,33.18-53.52,27.87-17.14-5.55-24.37-23.11-24.75-32.42Z"/>
              <path class="cls-33" d="M240.8,276.29c15.25-1.06,46.45,32.67,43.77,55.41-3.21,27.3-36.03,32.51-52.17,27.37-16.89-5.37-23.95-22.64-24.32-31.77-.64-15.67,18.58-50.03,32.72-51.02Z"/>
              <path class="cls-5" d="M240.51,276.9c14.86-1.02,45.32,32.12,42.71,54.42-3.12,26.62-34.99,31.83-50.83,26.86-16.65-5.19-23.53-22.17-23.89-31.11-.62-15.35,18.22-49.22,32.01-50.17Z"/>
              <path class="cls-9" d="M240.21,277.5c14.47-.99,44.2,31.57,41.65,53.43-3.03,25.93-33.96,31.16-49.48,26.36-16.4-5.01-23.11-21.7-23.46-30.45-.6-15.02,17.86-48.42,31.29-49.33Z"/>
              <path class="cls-57" d="M239.91,278.11c14.08-.95,43.07,31.01,40.58,52.44-2.95,25.24-32.91,30.44-48.14,25.85-16.15-4.87-22.7-21.24-23.03-29.8-.58-14.7,17.5-47.61,30.58-48.49Z"/>
              <path class="cls-20" d="M239.62,278.72c13.69-.92,41.94,30.46,39.52,51.45-2.86,24.56-31.87,29.76-46.79,25.35-15.9-4.7-22.28-20.77-22.6-29.14-.55-14.37,17.14-46.8,29.87-47.65Z"/>
              <path class="cls-56" d="M239.32,279.32c13.29-.88,40.82,29.91,38.46,50.46-2.77,23.87-30.84,29.07-45.45,24.84-15.65-4.53-21.86-20.3-22.17-28.49-.53-14.05,16.78-45.99,29.16-46.81Z"/>
              <path class="cls-18" d="M239.02,279.93c12.9-.85,39.69,29.35,37.39,49.46-2.68,23.19-29.8,28.39-44.1,24.34-15.4-4.36-21.44-19.83-21.74-27.83-.51-13.72,16.42-45.19,28.45-45.97Z"/>
              <path class="cls-39" d="M238.73,280.53c12.51-.81,38.56,28.8,36.33,48.47-2.59,22.5-28.76,27.7-42.76,23.83-15.16-4.19-21.03-19.37-21.31-27.17-.49-13.4,16.06-44.38,27.74-45.13Z"/>
              <path class="cls-40" d="M238.43,281.14c12.12-.78,37.44,28.25,35.27,47.48-2.5,21.81-27.73,27.02-41.42,23.33-14.91-4.02-20.61-18.9-20.88-26.52-.47-13.07,15.69-43.57,27.03-44.29Z"/>
              <path class="cls-12" d="M238.13,281.75c11.73-.74,36.31,27.7,34.21,46.49-2.41,21.13-26.69,26.34-40.07,22.82-14.66-3.85-20.19-18.43-20.45-25.86-.44-12.75,15.33-42.76,26.31-43.45Z"/>
              <path class="cls-61" d="M237.84,282.35c11.33-.71,35.18,27.14,33.14,45.5-2.32,20.44-25.65,25.66-38.73,22.32-14.42-3.68-19.77-17.96-20.02-25.21-.42-12.42,14.97-41.95,25.6-42.61Z"/>
              <path class="cls-31" d="M237.54,282.96c10.94-.67,34.06,26.59,32.08,44.51-2.23,19.75-24.62,24.97-37.38,21.82-14.17-3.51-19.36-17.5-19.59-24.55-.4-12.09,14.61-41.15,24.89-41.77Z"/>
              <path class="cls-11" d="M237.24,283.56c10.55-.64,32.93,26.04,31.02,43.51-2.15,19.07-23.58,24.29-36.04,21.31-13.93-3.34-18.94-17.03-19.16-23.9-.38-11.77,14.25-40.34,24.18-40.93Z"/>
              <path class="cls-22" d="M236.95,284.17c10.16-.6,31.8,25.49,29.95,42.52-2.06,18.38-22.55,23.61-34.69,20.81-13.68-3.16-18.52-16.56-18.73-23.24-.36-11.44,13.89-39.53,23.47-40.09Z"/>
              <path class="cls-55" d="M236.65,284.78c9.77-.56,30.68,24.93,28.89,41.53-1.97,17.7-21.51,22.93-33.35,20.3-13.44-2.99-18.1-16.09-18.3-22.58-.33-11.12,13.53-38.72,22.76-39.25Z"/>
              <path class="cls-41" d="M236.36,285.38c9.37-.53,29.55,24.38,27.83,40.54-1.88,17.01-20.48,22.25-32,19.8-13.19-2.81-17.69-15.63-17.87-21.93-.31-10.79,13.17-37.92,22.05-38.41Z"/>
              <path class="cls-4" d="M236.06,285.99c8.98-.49,28.46,23.83,26.77,39.55s-19.44,21.58-30.66,19.29c-12.95-2.64-17.27-15.16-17.44-21.27-.29-10.47,12.81-37.11,21.34-37.57Z"/>
              <path class="cls-54" d="M235.76,286.6c8.59-.46,27.33,23.28,25.7,38.56-1.67,15.64-18.41,20.9-29.31,18.79-12.7-2.46-16.85-14.69-17.01-20.62-.27-10.14,12.45-36.3,20.62-36.73Z"/>
              <path class="cls-38" d="M235.47,287.2c8.2-.42,26.2,22.73,24.64,37.56-1.58,14.96-17.38,20.22-27.97,18.28-12.46-2.28-16.43-14.22-16.58-19.96-.25-9.82,12.09-35.49,19.91-35.89Z"/>
              <path class="cls-30" d="M235.17,287.81c7.81-.39,25.08,22.18,23.58,36.57s-16.34,19.55-26.63,17.78c-12.21-2.1-16.02-13.76-16.15-19.3-.22-9.49,11.73-34.69,19.2-35.05Z"/>
              <path class="cls-13" d="M234.87,288.41c7.41-.35,23.95,21.62,22.51,35.58s-15.31,18.88-25.28,17.27c-11.97-1.92-15.6-13.29-15.72-18.65-.2-9.17,11.37-33.88,18.49-34.21Z"/>
              <path class="cls-37" d="M234.58,289.02c7.02-.32,22.82,21.07,21.45,34.59s-14.28,18.2-23.94,16.77c-11.73-1.74-15.18-12.82-15.29-17.99-.18-8.84,11.01-33.07,17.78-33.37Z"/>
              <path class="cls-16" d="M234.28,289.63c6.63-.28,21.7,20.52,20.39,33.6-1.22,12.21-13.24,17.53-22.59,16.26-11.49-1.56-14.76-12.35-14.86-17.34-.16-8.52,10.65-32.26,17.07-32.52Z"/>
              <path class="cls-48" d="M233.98,290.23c6.24-.25,20.57,19.97,19.32,32.61-1.14,11.52-12.21,16.86-21.25,15.76-11.24-1.37-14.35-11.89-14.43-16.68-.13-8.19,10.29-31.45,16.36-31.68Z"/>
              <path class="cls-17" d="M233.69,290.84c5.85-.21,19.44,19.41,18.26,31.61-1.05,10.84-11.18,16.19-19.9,15.25-11-1.19-13.93-11.42-14-16.03-.11-7.87,9.93-30.65,15.64-30.84Z"/>
              <path class="cls-10" d="M233.39,291.44c5.46-.18,18.31,18.86,17.2,30.62-.96,10.15-10.15,15.53-18.56,14.75-10.76-1-13.51-10.95-13.57-15.37-.09-7.54,9.57-29.84,14.93-30Z"/>
              <path class="cls-2" d="M233.09,292.05c5.06-.14,17.18,18.31,16.14,29.63-.88,9.47-9.11,14.86-17.21,14.25-10.52-.8-13.1-10.48-13.14-14.71-.07-7.22,9.21-29.03,14.22-29.16Z"/>
              <path class="cls-23" d="M232.8,292.66c4.67-.11,16.05,17.75,15.07,28.64-.79,8.78-8.08,14.2-15.87,13.74-10.27-.61-12.68-10.02-12.71-14.06-.05-6.89,8.85-28.22,13.51-28.32Z"/>
              <path class="cls-47" d="M232.5,293.26c4.28-.07,14.92,17.2,14.01,27.65-.71,8.09-7.05,13.54-14.53,13.24-10.03-.41-12.26-9.55-12.29-13.4-.02-6.57,8.49-27.42,12.8-27.48Z"/>
              <path class="cls-49" d="M232.2,293.87c3.89-.04,13.77,16.65,12.95,26.66-.64,7.4-6.01,12.88-13.18,12.73-9.79-.21-11.84-9.08-11.86-12.75,0-6.24,8.13-26.61,12.09-26.64Z"/>
              <path class="cls-8" d="M231.91,294.47c3.5,0,12.65,16.09,11.88,25.66-.55,6.72-4.98,12.23-11.84,12.23-9.54,0-11.43-8.61-11.43-12.09.02-5.92,7.77-25.8,11.38-25.8Z"/>
            </g>
            <path class="cls-46" d="M244.03,315.94c0,10.66-8.65,19.32-19.33,19.32s-20.06-8.65-20.06-19.32c0-18.12,20.24-42.34,20.24-42.34l1.45-.76s.02.84.37,1.39c3.69,5.74,17.32,27.87,17.32,41.72Z"/>
            <path class="cls-51" d="M245.67,316.49c0,10.66-8.65,19.32-19.34,19.32s-19.31-8.65-19.31-19.32c0-16.02,19.31-43.65,19.31-43.65,0,0,19.34,27.64,19.34,43.65Z"/>
          </g>
          <g>
            <g class="cls-45">
              <path class="cls-24" d="M163.48,269.08c-.5-11.84,13.98-37.58,24.7-38.32,11.56-.82,35.17,24.53,33.13,41.68-2.44,20.66-27.39,24.51-39.55,20.59-12.67-4.1-18.01-17.07-18.28-23.95Z"/>
              <path class="cls-33" d="M187.96,231.21c11.27-.79,34.33,24.12,32.35,40.95-2.38,20.16-26.63,24.01-38.56,20.21-12.48-3.97-17.7-16.72-17.96-23.46-.48-11.6,13.72-36.98,24.17-37.7Z"/>
              <path class="cls-5" d="M187.74,231.66c10.98-.77,33.5,23.72,31.56,40.22-2.31,19.65-25.86,23.51-37.56,19.84-12.3-3.84-17.39-16.38-17.65-22.98-.47-11.36,13.45-36.38,23.65-37.08Z"/>
              <path class="cls-9" d="M187.52,232.11c10.69-.74,32.67,23.31,30.78,39.48-2.24,19.14-25.1,23.01-36.57,19.47-12.12-3.7-17.08-16.03-17.33-22.49-.45-11.12,13.19-35.79,23.12-36.46Z"/>
              <path class="cls-57" d="M187.3,232.55c10.4-.71,31.83,22.9,29.99,38.75-2.18,18.64-24.32,22.49-35.58,19.09-11.93-3.6-16.77-15.69-17.01-22.01-.43-10.88,12.92-35.19,22.6-35.84Z"/>
              <path class="cls-20" d="M187.08,233c10.11-.69,31,22.49,29.21,38.02-2.11,18.13-23.56,21.98-34.58,18.72-11.75-3.47-16.47-15.34-16.69-21.52-.42-10.64,12.65-34.59,22.07-35.22Z"/>
              <path class="cls-56" d="M186.86,233.45c9.82-.66,30.17,22.09,28.42,37.29-2.05,17.62-22.79,21.48-33.59,18.35-11.57-3.35-16.16-14.99-16.38-21.04-.4-10.4,12.39-34,21.54-34.6Z"/>
              <path class="cls-18" d="M186.65,233.89c9.53-.64,29.34,21.68,27.64,36.55-1.98,17.12-22.02,20.97-32.6,17.98-11.38-3.22-15.85-14.65-16.06-20.55-.38-10.16,12.12-33.4,21.02-33.98Z"/>
              <path class="cls-39" d="M186.43,234.34c9.24-.61,28.5,21.27,26.85,35.82-1.91,16.61-21.26,20.46-31.6,17.6-11.2-3.1-15.54-14.3-15.74-20.07-.37-9.92,11.86-32.81,20.49-33.36Z"/>
              <path class="cls-40" d="M186.21,234.79c8.95-.58,27.67,20.86,26.06,35.09-1.85,16.11-20.49,19.96-30.61,17.23-11.02-2.97-15.23-13.96-15.42-19.58-.35-9.68,11.59-32.21,19.97-32.74Z"/>
              <path class="cls-12" d="M185.99,235.24c8.66-.56,26.84,20.45,25.28,34.36-1.78,15.6-19.72,19.45-29.62,16.86-10.83-2.85-14.92-13.61-15.11-19.1-.33-9.44,11.33-31.61,19.44-32.11Z"/>
              <path class="cls-61" d="M185.77,235.68c8.37-.53,26,20.05,24.49,33.63-1.72,15.09-18.96,18.95-28.62,16.48-10.65-2.72-14.62-13.27-14.79-18.62-.32-9.2,11.06-31.02,18.92-31.49Z"/>
              <path class="cls-31" d="M185.55,236.13c8.08-.5,25.17,19.64,23.71,32.89-1.65,14.59-18.19,18.45-27.63,16.11-10.47-2.59-14.31-12.92-14.47-18.13-.3-8.96,10.79-30.42,18.39-30.87Z"/>
              <path class="cls-11" d="M185.33,236.58c7.79-.48,24.34,19.23,22.92,32.16-1.59,14.08-17.43,17.94-26.63,15.74-10.29-2.46-14-12.57-14.15-17.65-.29-8.72,10.53-29.82,17.87-30.25Z"/>
              <path class="cls-22" d="M185.11,237.03c7.51-.45,23.51,18.82,22.14,31.43-1.52,13.57-16.66,17.44-25.64,15.36-10.11-2.34-13.69-12.23-13.84-17.16-.27-8.48,10.26-29.23,17.34-29.63Z"/>
              <path class="cls-55" d="M184.89,237.47c7.22-.42,22.67,18.42,21.35,30.7-1.45,13.07-15.9,16.94-24.65,14.99-9.92-2.21-13.38-11.88-13.52-16.68-.25-8.24,10-28.63,16.82-29.01Z"/>
              <path class="cls-41" d="M184.67,237.92c6.93-.4,21.84,18.01,20.56,29.97-1.39,12.56-15.13,16.44-23.65,14.62-9.74-2.08-13.07-11.54-13.2-16.19-.24-8,9.73-28.03,16.29-28.39Z"/>
              <path class="cls-4" d="M184.46,238.37c6.64-.37,21.03,17.6,19.78,29.23s-14.37,15.94-22.66,14.25c-9.56-1.95-12.76-11.19-12.88-15.71-.22-7.76,9.46-27.44,15.76-27.77Z"/>
              <path class="cls-54" d="M184.24,238.82c6.35-.34,20.2,17.2,18.99,28.5s-13.6,15.43-21.67,13.87c-9.38-1.82-12.46-10.84-12.57-15.22-.2-7.52,9.2-26.84,15.24-27.15Z"/>
              <path class="cls-38" d="M184.02,239.26c6.06-.32,19.37,16.79,18.21,27.77s-12.84,14.94-20.67,13.5c-9.2-1.69-12.15-10.5-12.25-14.74-.19-7.28,8.93-26.24,14.71-26.53Z"/>
              <path class="cls-30" d="M183.8,239.71c5.77-.29,18.53,16.38,17.42,27.04s-12.07,14.44-19.68,13.13c-9.02-1.55-11.84-10.15-11.93-14.26-.17-7.04,8.67-25.65,14.19-25.91Z"/>
              <path class="cls-13" d="M183.58,240.16c5.48-.26,17.7,15.97,16.64,26.31s-11.31,13.94-18.69,12.75c-8.84-1.42-11.53-9.81-11.61-13.77-.15-6.8,8.4-25.05,13.66-25.29Z"/>
              <path class="cls-37" d="M183.36,240.6c5.19-.24,16.87,15.57,15.85,25.57s-10.55,13.44-17.69,12.38c-8.66-1.29-11.22-9.46-11.3-13.29-.14-6.55,8.14-24.45,13.14-24.67Z"/>
              <path class="cls-16" d="M183.14,241.05c4.9-.21,16.03,15.16,15.06,24.84-.9,9.02-9.78,12.95-16.7,12.01-8.48-1.15-10.91-9.11-10.98-12.8-.12-6.31,7.87-23.86,12.61-24.05Z"/>
              <path class="cls-48" d="M182.92,241.5c4.61-.19,15.2,14.75,14.28,24.11-.84,8.51-9.02,12.45-15.71,11.63-8.3-1.01-10.61-8.77-10.66-12.32-.1-6.07,7.6-23.26,12.09-23.43Z"/>
              <path class="cls-17" d="M182.7,241.95c4.32-.16,14.37,14.34,13.49,23.38-.77,8-8.26,11.96-14.71,11.26-8.12-.87-10.3-8.42-10.34-11.83-.09-5.83,7.34-22.66,11.56-22.81Z"/>
              <path class="cls-10" d="M182.49,242.39c4.03-.13,13.53,13.93,12.71,22.64-.71,7.5-7.49,11.46-13.72,10.89-7.94-.73-9.99-8.08-10.03-11.35-.07-5.59,7.07-22.07,11.04-22.19Z"/>
              <path class="cls-2" d="M182.27,242.84c3.74-.11,12.7,13.53,11.92,21.91-.65,6.99-6.73,10.97-12.72,10.52-7.76-.59-9.68-7.73-9.71-10.86-.06-5.35,6.81-21.47,10.51-21.56Z"/>
              <path class="cls-23" d="M182.05,243.29c3.45-.08,11.86,13.12,11.14,21.18-.58,6.48-5.97,10.48-11.73,10.14-7.58-.45-9.37-7.39-9.39-10.38-.04-5.11,6.54-20.87,9.98-20.94Z"/>
              <path class="cls-47" d="M181.83,243.74c3.16-.05,11.01,12.71,10.35,20.45-.53,5.97-5.2,10-10.74,9.77-7.4-.3-9.06-7.04-9.07-9.89-.02-4.87,6.27-20.28,9.46-20.32Z"/>
              <path class="cls-49" d="M181.61,244.18c2.87-.03,10.18,12.3,9.56,19.72-.47,5.47-4.44,9.51-9.74,9.4-7.22-.15-8.76-6.69-8.76-9.41,0-4.63,6.01-19.68,8.93-19.7Z"/>
              <path class="cls-8" d="M181.39,244.63c2.58,0,9.35,11.89,8.78,18.98-.4,4.96-3.67,9.02-8.75,9.02-7.04,0-8.45-6.35-8.44-8.93,0-4.39,5.74-19.08,8.41-19.08Z"/>
            </g>
            <path class="cls-46" d="M190.34,260.49c0,7.89-6.39,14.28-14.28,14.28s-14.81-6.39-14.81-14.28c0-13.38,14.95-31.29,14.95-31.29l1.07-.55s.02.62.27,1.02c2.72,4.24,12.79,20.61,12.79,30.82Z"/>
            <path class="cls-51" d="M191.56,260.9c0,7.89-6.4,14.28-14.29,14.28s-14.28-6.39-14.28-14.28c0-11.82,14.28-32.25,14.28-32.25,0,0,14.29,20.43,14.29,32.25Z"/>
          </g>
          <g>
            <g class="cls-45">
              <path class="cls-24" d="M58.6,249.22c-.4-9.43,11.15-29.96,19.71-30.57,9.22-.64,28.04,19.59,26.43,33.24-1.95,16.5-21.86,19.57-31.55,16.43-10.1-3.26-14.37-13.61-14.58-19.1Z"/>
              <path class="cls-33" d="M78.13,219.01c8.99-.62,27.37,19.26,25.8,32.66-1.9,16.1-21.24,19.17-30.76,16.13-9.95-3.16-14.12-13.34-14.33-18.72-.39-9.24,10.94-29.49,19.29-30.07Z"/>
              <path class="cls-5" d="M77.95,219.37c8.76-.6,26.71,18.94,25.17,32.07-1.85,15.69-20.63,18.77-29.97,15.83-9.81-3.05-13.87-13.06-14.07-18.33-.37-9.05,10.73-29.01,18.87-29.58Z"/>
              <path class="cls-9" d="M77.78,219.73c8.53-.58,26.05,18.61,24.55,31.49-1.8,15.29-20.02,18.35-29.17,15.53-9.66-2.97-13.63-12.79-13.82-17.94-.36-8.86,10.52-28.53,18.45-29.08Z"/>
              <path class="cls-57" d="M77.6,220.08c8.3-.56,25.38,18.29,23.92,30.91-1.74,14.88-19.4,17.95-28.38,15.24-9.51-2.87-13.38-12.51-13.57-17.56-.35-8.67,10.3-28.06,18.03-28.59Z"/>
              <path class="cls-20" d="M77.43,220.44c8.07-.54,24.72,17.96,23.29,30.32-1.69,14.48-18.79,17.54-27.59,14.94-9.37-2.77-13.14-12.24-13.32-17.17-.33-8.48,10.09-27.58,17.61-28.09Z"/>
              <path class="cls-56" d="M77.25,220.8c7.84-.52,24.05,17.64,22.67,29.74-1.64,14.07-18.18,17.14-26.8,14.64-9.22-2.67-12.89-11.96-13.06-16.78-.32-8.28,9.88-27.11,17.19-27.6Z"/>
              <path class="cls-18" d="M77.08,221.15c7.6-.5,23.39,17.31,22.04,29.15-1.58,13.67-17.57,16.73-26,14.34-9.07-2.57-12.65-11.69-12.81-16.4-.31-8.09,9.67-26.63,16.77-27.1Z"/>
              <path class="cls-39" d="M76.9,221.51c7.37-.48,22.73,16.98,21.42,28.57-1.53,13.26-16.96,16.33-25.21,14.05-8.93-2.47-12.4-11.41-12.56-16.01-.29-7.9,9.46-26.16,16.35-26.6Z"/>
              <path class="cls-40" d="M76.73,221.87c7.14-.46,22.06,16.66,20.79,27.99-1.48,12.86-16.35,15.93-24.42,13.75-8.78-2.37-12.15-11.14-12.3-15.63-.28-7.71,9.24-25.68,15.93-26.11Z"/>
              <path class="cls-12" d="M76.55,222.23c6.91-.44,21.4,16.33,20.16,27.4-1.43,12.45-15.74,15.53-23.62,13.45-8.64-2.27-11.91-10.86-12.05-15.24-.27-7.52,9.03-25.2,15.51-25.61Z"/>
              <path class="cls-61" d="M76.38,222.58c6.68-.42,20.74,16.01,19.54,26.82-1.37,12.05-15.12,15.12-22.83,13.15-8.49-2.17-11.66-10.58-11.8-14.85-.25-7.33,8.82-24.73,15.09-25.12Z"/>
              <path class="cls-31" d="M76.2,222.94c6.45-.4,20.07,15.68,18.91,26.23-1.32,11.64-14.51,14.72-22.04,12.86-8.35-2.07-11.42-10.31-11.54-14.47-.24-7.14,8.61-24.25,14.67-24.62Z"/>
              <path class="cls-11" d="M76.03,223.3c6.22-.37,19.41,15.36,18.28,25.65-1.27,11.24-13.9,14.32-21.24,12.56-8.2-1.97-11.17-10.03-11.29-14.08-.23-6.94,8.4-23.78,14.25-24.13Z"/>
              <path class="cls-22" d="M75.85,223.66c5.99-.35,18.76,15.03,17.66,25.07-1.19,10.83-13.29,13.92-20.45,12.26-8.06-1.87-10.93-9.76-11.04-13.69-.22-6.75,8.18-23.3,13.83-23.63Z"/>
              <path class="cls-55" d="M75.68,224.01c5.76-.33,18.1,14.71,17.03,24.48-1.14,10.43-12.68,13.52-19.66,11.97-7.92-1.76-10.68-9.48-10.79-13.31-.2-6.56,7.97-22.83,13.41-23.14Z"/>
              <path class="cls-41" d="M75.5,224.37c5.53-.31,17.44,14.38,16.41,23.9-1.09,10.02-12.07,13.12-18.87,11.67-7.77-1.66-10.43-9.21-10.53-12.92-.19-6.37,7.76-22.35,12.99-22.64Z"/>
              <path class="cls-4" d="M75.33,224.73c5.3-.29,16.78,14.05,15.78,23.31s-11.46,12.72-18.07,11.37c-7.63-1.56-10.19-8.93-10.28-12.54-.18-6.18,7.55-21.87,12.57-22.15Z"/>
              <path class="cls-54" d="M75.15,225.08c5.07-.27,16.11,13.73,15.15,22.73s-10.85,12.32-17.28,11.07c-7.48-1.45-9.94-8.66-10.03-12.15-.16-5.99,7.34-21.4,12.15-21.65Z"/>
              <path class="cls-38" d="M74.98,225.44c4.84-.25,15.45,13.4,14.53,22.15s-10.24,11.92-16.49,10.78c-7.34-1.35-9.7-8.38-9.77-11.76-.15-5.79,7.12-20.92,11.73-21.16Z"/>
              <path class="cls-30" d="M74.8,225.8c4.61-.23,14.79,13.08,13.9,21.56s-9.63,11.52-15.69,10.48c-7.2-1.24-9.45-8.11-9.52-11.38-.14-5.6,6.91-20.45,11.31-20.66Z"/>
              <path class="cls-13" d="M74.63,226.16c4.38-.21,14.12,12.75,13.27,20.98s-9.02,11.13-14.9,10.18c-7.05-1.13-9.21-7.83-9.27-10.99-.12-5.41,6.7-19.97,10.9-20.17Z"/>
              <path class="cls-37" d="M74.45,226.51c4.15-.19,13.46,12.43,12.65,20.39s-8.41,10.73-14.11,9.88c-6.91-1.03-8.96-7.56-9.01-10.6-.11-5.22,6.49-19.5,10.48-19.67Z"/>
              <path class="cls-16" d="M74.28,226.87c3.92-.17,12.79,12.1,12.02,19.81-.72,7.19-7.8,10.33-13.32,9.59-6.77-.92-8.71-7.28-8.76-10.22-.1-5.03,6.28-19.02,10.06-19.18Z"/>
              <path class="cls-48" d="M74.1,227.23c3.68-.15,12.13,11.77,11.4,19.23-.67,6.78-7.2,9.94-12.52,9.29-6.63-.81-8.47-7.01-8.51-9.83-.08-4.84,6.06-18.54,9.64-18.68Z"/>
              <path class="cls-17" d="M73.93,227.59c3.45-.12,11.47,11.45,10.77,18.64-.62,6.38-6.59,9.55-11.73,8.99-6.48-.7-8.22-6.73-8.26-9.45-.07-4.65,5.85-18.07,9.22-18.19Z"/>
              <path class="cls-10" d="M73.75,227.94c3.22-.1,10.8,11.12,10.14,18.06-.57,5.97-5.98,9.15-10.94,8.69-6.34-.59-7.98-6.45-8-9.06-.06-4.45,5.64-17.59,8.8-17.69Z"/>
              <path class="cls-2" d="M73.58,228.3c2.99-.08,10.14,10.8,9.52,17.47-.52,5.57-5.37,8.76-10.14,8.4-6.2-.47-7.73-6.18-7.75-8.67-.04-4.26,5.43-17.12,8.38-17.2Z"/>
              <path class="cls-23" d="M73.4,228.66c2.76-.06,9.47,10.47,8.89,16.89-.47,5.16-4.76,8.37-9.35,8.1-6.06-.36-7.49-5.9-7.5-8.29-.03-4.07,5.22-16.64,7.96-16.7Z"/>
              <path class="cls-47" d="M73.23,229.01c2.53-.04,8.8,10.14,8.26,16.3-.42,4.76-4.15,7.98-8.56,7.8-5.91-.24-7.24-5.63-7.24-7.9-.02-3.88,5-16.17,7.54-16.21Z"/>
              <path class="cls-49" d="M73.05,229.37c2.3-.02,8.12,9.82,7.64,15.72-.37,4.35-3.54,7.59-7.77,7.5-5.77-.12-6.99-5.35-6.99-7.52,0-3.69,4.79-15.69,7.12-15.71Z"/>
              <path class="cls-8" d="M72.88,229.73c2.07,0,7.46,9.49,7.01,15.14-.32,3.95-2.93,7.21-6.97,7.21-5.62,0-6.75-5.08-6.74-7.13,0-3.5,4.58-15.21,6.7-15.21Z"/>
            </g>
            <path class="cls-46" d="M80.02,242.38c0,6.29-5.1,11.39-11.39,11.39s-11.83-5.1-11.83-11.39c0-10.68,11.92-24.96,11.92-24.96l.86-.45s.02.51.21.82c2.18,3.38,10.21,16.43,10.21,24.59Z"/>
            <path class="cls-51" d="M80.99,242.7c0,6.29-5.1,11.39-11.4,11.39s-11.39-5.1-11.39-11.39c0-9.43,11.39-25.72,11.39-25.72,0,0,11.4,16.29,11.4,25.72Z"/>
          </g>
          <g>
            <g class="cls-45">
              <path class="cls-24" d="M369.86,204.63c-.37-8.85,10.46-28.09,18.47-28.65,8.64-.61,26.29,18.36,24.78,31.15-1.83,15.47-20.49,18.34-29.57,15.41-9.47-3.07-13.47-12.77-13.67-17.91Z"/>
              <path class="cls-33" d="M388.16,176.31c8.43-.59,25.67,18.05,24.19,30.6-1.78,15.09-19.92,17.97-28.83,15.13-9.34-2.97-13.24-12.51-13.43-17.55-.36-8.67,10.26-27.64,18.07-28.19Z"/>
              <path class="cls-5" d="M388,176.65c8.21-.57,25.04,17.75,23.6,30.06-1.73,14.71-19.34,17.59-28.08,14.85-9.2-2.87-13.01-12.26-13.2-17.19-.35-8.49,10.06-27.19,17.68-27.72Z"/>
              <path class="cls-9" d="M387.83,176.98c7.99-.55,24.42,17.44,23.01,29.51-1.68,14.33-18.77,17.22-27.34,14.57-9.07-2.77-12.78-12-12.96-16.82-.33-8.31,9.86-26.75,17.29-27.26Z"/>
              <path class="cls-57" d="M387.67,177.32c7.78-.53,23.8,17.14,22.43,28.96-1.63,13.95-18.19,16.83-26.6,14.29-8.93-2.69-12.54-11.74-12.72-16.46-.32-8.13,9.66-26.3,16.9-26.79Z"/>
              <path class="cls-20" d="M387.51,177.65c7.56-.51,23.18,16.83,21.84,28.41-1.58,13.57-17.62,16.45-25.85,14.01-8.79-2.6-12.31-11.48-12.49-16.1-.31-7.95,9.47-25.86,16.5-26.33Z"/>
              <path class="cls-56" d="M387.34,177.99c7.34-.49,22.55,16.53,21.25,27.87-1.53,13.19-17.05,16.07-25.11,13.74-8.65-2.5-12.08-11.22-12.25-15.74-.3-7.77,9.27-25.41,16.11-25.87Z"/>
              <path class="cls-18" d="M387.18,178.32c7.13-.47,21.93,16.22,20.66,27.32-1.48,12.81-16.47,15.69-24.37,13.46-8.51-2.41-11.85-10.96-12.01-15.37-.29-7.59,9.07-24.96,15.72-25.4Z"/>
              <path class="cls-39" d="M387.01,178.65c6.91-.45,21.31,15.92,20.08,26.77-1.43,12.43-15.9,15.31-23.63,13.18-8.38-2.32-11.62-10.7-11.77-15.01-.27-7.41,8.87-24.52,15.32-24.94Z"/>
              <path class="cls-40" d="M386.85,178.99c6.69-.43,20.69,15.61,19.49,26.22-1.38,12.06-15.33,14.94-22.88,12.9-8.24-2.22-11.39-10.44-11.54-14.65-.26-7.23,8.67-24.07,14.93-24.47Z"/>
              <path class="cls-12" d="M386.69,179.32c6.48-.41,20.06,15.31,18.9,25.68-1.33,11.68-14.75,14.56-22.14,12.62-8.11-2.13-11.16-10.18-11.3-14.29-.25-7.05,8.47-23.63,14.54-24.01Z"/>
              <path class="cls-61" d="M386.52,179.66c6.26-.39,19.44,15.01,18.31,25.13-1.28,11.3-14.18,14.18-21.4,12.34-7.97-2.03-10.93-9.93-11.06-13.93-.24-6.87,8.27-23.18,14.15-23.54Z"/>
              <path class="cls-31" d="M386.36,179.99c6.05-.37,18.82,14.7,17.73,24.58-1.23,10.92-13.61,13.8-20.65,12.06-7.83-1.94-10.7-9.67-10.83-13.56-.22-6.69,8.07-22.73,13.75-23.08Z"/>
              <path class="cls-11" d="M386.19,180.33c5.83-.35,18.2,14.4,17.14,24.03-1.18,10.54-13.03,13.43-19.91,11.78-7.7-1.84-10.47-9.41-10.59-13.2-.21-6.51,7.87-22.29,13.36-22.62Z"/>
              <path class="cls-22" d="M386.03,180.66c5.61-.33,17.57,14.09,16.55,23.49-1.13,10.16-12.46,13.05-19.17,11.5-7.56-1.75-10.24-9.15-10.35-12.84-.2-6.33,7.68-21.84,12.97-22.15Z"/>
              <path class="cls-55" d="M385.87,181c5.4-.31,16.95,13.79,15.96,22.94-1.08,9.78-11.89,12.68-18.42,11.22-7.43-1.65-10.01-8.89-10.11-12.48-.19-6.15,7.48-21.39,12.57-21.69Z"/>
              <path class="cls-41" d="M385.7,181.33c5.18-.29,16.33,13.48,15.38,22.39-1.03,9.4-11.32,12.3-17.68,10.94-7.29-1.55-9.78-8.63-9.88-12.11-.17-5.97,7.28-20.95,12.18-21.22Z"/>
              <path class="cls-4" d="M385.54,181.67c4.96-.27,15.71,13.18,14.79,21.84-.99,9.02-10.74,11.93-16.94,10.67-7.16-1.46-9.55-8.37-9.64-11.75-.16-5.8,7.08-20.5,11.79-20.76Z"/>
              <path class="cls-54" d="M385.38,182c4.75-.25,15.08,12.87,14.2,21.3-.94,8.64-10.17,11.55-16.19,10.39-7.02-1.36-9.32-8.11-9.4-11.39-.15-5.62,6.88-20.06,11.4-20.29Z"/>
              <path class="cls-38" d="M385.21,182.33c4.53-.23,14.46,12.57,13.61,20.75-.89,8.26-9.6,11.18-15.45,10.11-6.89-1.26-9.09-7.85-9.16-11.03-.14-5.44,6.68-19.61,11-19.83Z"/>
              <path class="cls-30" d="M385.05,182.67c4.31-.21,13.84,12.26,13.03,20.2-.84,7.88-9.03,10.81-14.71,9.83-6.75-1.16-8.85-7.59-8.93-10.66-.13-5.26,6.48-19.16,10.61-19.37Z"/>
              <path class="cls-13" d="M384.88,183c4.1-.2,13.22,11.96,12.44,19.65-.79,7.5-8.46,10.43-13.96,9.55-6.62-1.06-8.62-7.34-8.69-10.3-.11-5.08,6.28-18.72,10.22-18.9Z"/>
              <path class="cls-37" d="M384.72,183.34c3.88-.18,12.59,11.65,11.85,19.11-.74,7.12-7.89,10.06-13.22,9.27-6.48-.96-8.39-7.08-8.45-9.94-.1-4.9,6.09-18.27,9.82-18.44Z"/>
              <path class="cls-16" d="M384.56,183.67c3.66-.16,11.97,11.35,11.26,18.56-.69,6.75-7.32,9.69-12.48,8.99-6.35-.86-8.16-6.82-8.22-9.58-.09-4.72,5.89-17.83,9.43-17.97Z"/>
              <path class="cls-48" d="M384.39,184.01c3.45-.14,11.35,11.04,10.68,18.01-.64,6.37-6.74,9.32-11.74,8.71-6.21-.76-7.93-6.56-7.98-9.22-.08-4.54,5.69-17.38,9.04-17.51Z"/>
              <path class="cls-17" d="M384.23,184.34c3.23-.12,10.73,10.74,10.09,17.46-.59,5.99-6.17,8.95-10.99,8.43-6.08-.65-7.7-6.3-7.74-8.85-.06-4.36,5.49-16.93,8.65-17.04Z"/>
              <path class="cls-10" d="M384.07,184.68c3.02-.1,10.1,10.43,9.5,16.92-.54,5.61-5.6,8.58-10.25,8.15-5.95-.55-7.47-6.04-7.5-8.49-.05-4.18,5.29-16.49,8.25-16.58Z"/>
              <path class="cls-2" d="M383.9,185.01c2.8-.08,9.48,10.13,8.91,16.37-.49,5.23-5.03,8.22-9.51,7.87-5.81-.44-7.24-5.78-7.27-8.13-.04-4,5.09-16.04,7.86-16.12Z"/>
              <path class="cls-23" d="M383.74,185.35c2.58-.06,8.86,9.82,8.33,15.82-.44,4.85-4.46,7.85-8.76,7.6-5.68-.34-7.01-5.52-7.03-7.77-.03-3.82,4.89-15.6,7.47-15.65Z"/>
              <path class="cls-47" d="M383.57,185.68c2.37-.04,8.24,9.52,7.74,15.27-.39,4.47-3.89,7.48-8.02,7.32-5.54-.23-6.78-5.26-6.79-7.4-.01-3.64,4.69-15.15,7.07-15.19Z"/>
              <path class="cls-49" d="M383.41,186.01c2.15-.02,7.61,9.21,7.15,14.73-.34,4.09-3.32,7.12-7.28,7.04-5.41-.11-6.55-5.01-6.56-7.04,0-3.46,4.5-14.7,6.68-14.72Z"/>
              <path class="cls-8" d="M383.25,186.35c1.93,0,6.99,8.91,6.56,14.18-.29,3.71-2.74,6.76-6.53,6.76-5.27,0-6.32-4.75-6.32-6.68,0-3.28,4.3-14.26,6.29-14.26Z"/>
            </g>
            <path class="cls-46" d="M389.95,198.21c0,5.9-4.79,10.68-10.68,10.68s-11.07-4.79-11.07-10.68c0-10,11.17-23.38,11.17-23.38l.81-.43s0,.47.21.78c2.03,3.16,9.57,15.39,9.57,23.03Z"/>
            <path class="cls-51" d="M390.84,198.52c0,5.9-4.78,10.66-10.67,10.66s-10.67-4.77-10.67-10.66c0-8.85,10.67-24.12,10.67-24.12,0,0,10.67,15.27,10.67,24.12Z"/>
          </g>
          <g>
            <g class="cls-45">
              <path class="cls-24" d="M346.53,302.29c-.37-8.85,10.46-28.11,18.47-28.65,8.64-.61,26.29,18.34,24.78,31.15-1.84,15.45-20.49,18.34-29.57,15.39-9.47-3.07-13.46-12.75-13.67-17.89Z"/>
              <path class="cls-33" d="M364.83,273.97c8.43-.59,25.67,18.03,24.19,30.6-1.79,15.07-19.92,17.97-28.83,15.11-9.34-2.97-13.23-12.5-13.43-17.53-.36-8.67,10.26-27.66,18.07-28.19Z"/>
              <path class="cls-5" d="M364.67,274.3c8.21-.57,25.04,17.73,23.6,30.06-1.74,14.69-19.34,17.59-28.08,14.83-9.2-2.87-13-12.24-13.2-17.17-.35-8.49,10.06-27.21,17.68-27.72Z"/>
              <path class="cls-9" d="M364.5,274.64c7.99-.55,24.42,17.42,23.01,29.51-1.69,14.31-18.77,17.2-27.34,14.56-9.06-2.79-12.77-11.98-12.96-16.81-.34-8.31,9.86-26.77,17.29-27.26Z"/>
              <path class="cls-57" d="M364.34,274.97c7.78-.53,23.8,17.12,22.43,28.96-1.64,13.93-18.19,16.82-26.6,14.28-8.92-2.7-12.54-11.72-12.72-16.44-.32-8.13,9.66-26.32,16.89-26.79Z"/>
              <path class="cls-20" d="M364.18,275.31c7.56-.51,23.18,16.82,21.84,28.41-1.59,13.56-17.62,16.44-25.86,14-8.79-2.6-12.31-11.46-12.48-16.08-.31-7.95,9.46-25.87,16.5-26.33Z"/>
              <path class="cls-56" d="M364.01,275.64c7.34-.49,22.55,16.51,21.25,27.87-1.54,13.18-17.05,16.06-25.11,13.72-8.65-2.51-12.08-11.2-12.25-15.72-.3-7.77,9.26-25.43,16.11-25.87Z"/>
              <path class="cls-18" d="M363.85,275.98c7.13-.47,21.93,16.21,20.67,27.32-1.49,12.8-16.47,15.68-24.37,13.44-8.51-2.42-11.85-10.95-12.01-15.36-.29-7.59,9.07-24.98,15.71-25.4Z"/>
              <path class="cls-39" d="M363.68,276.31c6.91-.45,21.31,15.9,20.08,26.77-1.44,12.42-15.9,15.31-23.63,13.16-8.38-2.32-11.61-10.69-11.77-15-.28-7.41,8.87-24.53,15.32-24.94Z"/>
              <path class="cls-40" d="M363.52,276.65c6.69-.43,20.68,15.6,19.49,26.22-1.39,12.04-15.33,14.93-22.88,12.88-8.24-2.23-11.38-10.43-11.53-14.64-.26-7.23,8.67-24.09,14.93-24.47Z"/>
              <path class="cls-12" d="M363.36,276.98c6.48-.41,20.06,15.29,18.9,25.68-1.34,11.66-14.75,14.55-22.14,12.61-8.1-2.13-11.15-10.17-11.3-14.27-.25-7.05,8.47-23.64,14.54-24.01Z"/>
              <path class="cls-61" d="M363.19,277.31c6.26-.39,19.44,14.99,18.32,25.13-1.29,11.28-14.18,14.17-21.4,12.33-7.97-2.04-10.92-9.91-11.06-13.91-.24-6.87,8.27-23.19,14.14-23.54Z"/>
              <path class="cls-31" d="M363.03,277.65c6.05-.37,18.84,14.68,17.73,24.58-1.22,10.91-13.61,13.8-20.66,12.05-7.83-1.94-10.69-9.65-10.82-13.55-.23-6.69,8.07-22.75,13.75-23.08Z"/>
              <path class="cls-11" d="M362.86,277.98c5.83-.35,18.21,14.38,17.14,24.03-1.17,10.53-13.04,13.42-19.91,11.77-7.7-1.85-10.46-9.4-10.58-13.19-.22-6.51,7.87-22.3,13.36-22.62Z"/>
              <path class="cls-22" d="M362.7,278.32c5.61-.33,17.59,14.07,16.55,23.49-1.12,10.15-12.46,13.05-19.17,11.49-7.56-1.75-10.23-9.14-10.35-12.83-.2-6.33,7.67-21.85,12.96-22.15Z"/>
              <path class="cls-55" d="M362.54,278.65c5.4-.31,16.97,13.77,15.97,22.94-1.07,9.77-11.89,12.67-18.43,11.21-7.42-1.66-10-8.88-10.11-12.47-.19-6.15,7.47-21.41,12.57-21.69Z"/>
              <path class="cls-41" d="M362.37,278.99c5.18-.29,16.35,13.46,15.38,22.39-1.02,9.39-11.32,12.3-17.69,10.93-7.29-1.56-9.77-8.62-9.87-12.1-.18-5.97,7.27-20.96,12.18-21.22Z"/>
              <path class="cls-4" d="M362.21,279.32c4.96-.27,15.73,13.16,14.79,21.84s-10.75,11.92-16.94,10.66c-7.15-1.46-9.54-8.36-9.63-11.74-.17-5.8,7.07-20.51,11.78-20.76Z"/>
              <path class="cls-54" d="M362.05,279.66c4.75-.25,15.1,12.85,14.21,21.3s-10.18,11.55-16.2,10.38c-7.02-1.36-9.31-8.1-9.4-11.38-.16-5.62,6.88-20.06,11.39-20.29Z"/>
              <path class="cls-38" d="M361.88,279.99c4.53-.23,14.48,12.55,13.62,20.75s-9.61,11.17-15.46,10.1c-6.88-1.27-9.08-7.85-9.16-11.02-.14-5.44,6.68-19.62,11-19.83Z"/>
              <path class="cls-30" d="M361.72,280.33c4.31-.21,13.86,12.24,13.03,20.2s-9.04,10.8-14.71,9.82c-6.75-1.17-8.85-7.59-8.92-10.66-.13-5.26,6.48-19.17,10.6-19.37Z"/>
              <path class="cls-13" d="M361.55,280.66c4.1-.2,13.24,11.94,12.44,19.65-.77,7.5-8.46,10.43-13.97,9.54-6.62-1.07-8.62-7.33-8.68-10.3-.12-5.08,6.28-18.72,10.21-18.9Z"/>
              <path class="cls-37" d="M361.39,280.99c3.88-.18,12.61,11.63,11.86,19.11s-7.89,10.06-13.23,9.26c-6.48-.97-8.39-7.07-8.45-9.93-.11-4.9,6.08-18.28,9.82-18.44Z"/>
              <path class="cls-16" d="M361.23,281.33c3.66-.16,11.99,11.33,11.27,18.56-.67,6.74-7.32,9.69-12.49,8.99-6.35-.86-8.16-6.81-8.21-9.57-.1-4.72,5.88-17.83,9.42-17.97Z"/>
              <path class="cls-48" d="M361.06,281.66c3.45-.14,11.37,11.02,10.68,18.01-.62,6.36-6.75,9.32-11.74,8.71-6.21-.76-7.93-6.55-7.97-9.21-.08-4.54,5.68-17.38,9.03-17.51Z"/>
              <path class="cls-17" d="M360.9,282c3.23-.12,10.75,10.72,10.1,17.46-.58,5.99-6.18,8.95-11,8.43-6.08-.66-7.7-6.3-7.73-8.85-.07-4.36,5.48-16.94,8.64-17.04Z"/>
              <path class="cls-10" d="M360.74,282.33c3.02-.1,10.12,10.41,9.51,16.92-.53,5.61-5.61,8.58-10.26,8.15-5.95-.55-7.47-6.04-7.5-8.49-.06-4.18,5.28-16.49,8.25-16.58Z"/>
              <path class="cls-2" d="M360.57,282.67c2.8-.08,9.5,10.11,8.92,16.37-.48,5.23-5.04,8.21-9.51,7.87-5.81-.44-7.24-5.78-7.26-8.13-.05-4,5.08-16.04,7.85-16.12Z"/>
              <path class="cls-23" d="M360.41,283c2.58-.06,8.87,9.8,8.33,15.82-.43,4.85-4.47,7.85-8.77,7.59-5.68-.34-7-5.52-7.02-7.76-.03-3.82,4.88-15.6,7.46-15.65Z"/>
              <path class="cls-47" d="M360.24,283.34c2.37-.04,8.25,9.5,7.75,15.27-.39,4.47-3.9,7.48-8.03,7.31-5.54-.23-6.77-5.26-6.78-7.4-.02-3.64,4.69-15.15,7.07-15.19Z"/>
              <path class="cls-49" d="M360.08,283.67c2.15-.02,7.62,9.19,7.16,14.73-.34,4.09-3.33,7.12-7.29,7.04-5.41-.11-6.54-5-6.55-7.04,0-3.46,4.49-14.7,6.67-14.72Z"/>
              <path class="cls-8" d="M359.92,284.01c1.93,0,6.98,8.89,6.57,14.18-.3,3.71-2.75,6.76-6.54,6.76-5.27,0-6.32-4.75-6.31-6.68,0-3.28,4.29-14.26,6.28-14.26Z"/>
            </g>
            <path class="cls-46" d="M366.61,295.86c0,5.9-4.78,10.66-10.66,10.66s-11.08-4.77-11.08-10.66c0-10.02,11.18-23.4,11.18-23.4l.8-.41s0,.47.21.76c2.04,3.18,9.56,15.41,9.56,23.05Z"/>
            <path class="cls-51" d="M367.5,296.15c0,5.9-4.77,10.68-10.66,10.68s-10.67-4.79-10.67-10.68c0-8.83,10.67-24.1,10.67-24.1,0,0,10.66,15.27,10.66,24.1Z"/>
          </g>
          <g>
            <g class="cls-45">
              <path class="cls-24" d="M298.03,272.44c-.6-14.16,16.73-44.96,29.55-45.84,13.83-.98,42.05,29.36,39.63,49.84-2.92,24.75-32.77,29.34-47.31,24.65-15.15-4.9-21.53-20.43-21.87-28.65Z"/>
              <path class="cls-33" d="M327.32,227.14c13.48-.95,41.06,28.87,38.69,48.97-2.84,24.14-31.86,28.74-46.13,24.2-14.93-4.74-21.16-20.02-21.49-28.07-.58-13.87,16.41-44.25,28.92-45.1Z"/>
              <path class="cls-5" d="M327.06,227.67c13.14-.91,40.06,28.38,37.75,48.09-2.76,23.53-30.94,28.14-44.94,23.76-14.71-4.59-20.8-19.6-21.11-27.49-.56-13.59,16.09-43.53,28.29-44.35Z"/>
              <path class="cls-9" d="M326.8,228.21c12.79-.88,39.06,27.89,36.81,47.22-2.68,22.93-30.03,27.54-43.75,23.31-14.5-4.43-20.43-19.19-20.73-26.91-.54-13.3,15.77-42.82,27.66-43.61Z"/>
              <path class="cls-57" d="M326.53,228.75c12.44-.85,38.07,27.4,35.87,46.34-2.6,22.32-29.1,26.92-42.56,22.86-14.27-4.3-20.06-18.78-20.35-26.33-.52-13.01,15.46-42.1,27.04-42.87Z"/>
              <path class="cls-20" d="M326.27,229.28c12.1-.82,37.07,26.91,34.93,45.47-2.53,21.71-28.19,26.31-41.37,22.41-14.05-4.15-19.69-18.36-19.97-25.75-.5-12.72,15.14-41.39,26.41-42.13Z"/>
              <path class="cls-56" d="M326.01,229.82c11.75-.79,36.08,26.43,33.99,44.59-2.45,21.11-27.27,25.7-40.18,21.97-13.83-4-19.32-17.95-19.59-25.17-.48-12.44,14.82-40.67,25.78-41.38Z"/>
              <path class="cls-18" d="M325.75,230.35c11.4-.76,35.08,25.94,33.05,43.71-2.37,20.5-26.35,25.1-38.99,21.52-13.62-3.85-18.95-17.54-19.21-24.59-.46-12.15,14.5-39.96,25.15-40.64Z"/>
              <path class="cls-39" d="M325.48,230.89c11.06-.72,34.08,25.45,32.11,42.84-2.29,19.89-25.43,24.49-37.8,21.07-13.4-3.7-18.58-17.12-18.83-24.02-.44-11.86,14.19-39.25,24.52-39.9Z"/>
              <path class="cls-40" d="M325.22,231.42c10.71-.69,33.09,24.96,31.17,41.96-2.21,19.29-24.52,23.89-36.61,20.63-13.18-3.55-18.22-16.71-18.45-23.44-.42-11.57,13.87-38.53,23.89-39.15Z"/>
              <path class="cls-12" d="M324.96,231.96c10.37-.66,32.09,24.47,30.23,41.09-2.13,18.68-23.6,23.28-35.43,20.18-12.96-3.4-17.85-16.3-18.07-22.86-.4-11.29,13.55-37.82,23.26-38.41Z"/>
              <path class="cls-61" d="M324.7,232.49c10.02-.63,31.1,23.98,29.3,40.21-2.05,18.07-22.68,22.68-34.24,19.73-12.74-3.25-17.48-15.88-17.69-22.28-.38-11,13.23-37.1,22.63-37.67Z"/>
              <path class="cls-31" d="M324.43,233.03c9.67-.6,30.1,23.5,28.36,39.33-1.97,17.47-21.77,22.08-33.05,19.29-12.53-3.1-17.11-15.47-17.31-21.7-.36-10.71,12.91-36.39,22.01-36.93Z"/>
              <path class="cls-11" d="M324.17,233.57c9.33-.57,29.11,23.01,27.42,38.46-1.9,16.86-20.85,21.48-31.86,18.84-12.31-2.95-16.74-15.06-16.93-21.12-.34-10.43,12.6-35.67,21.38-36.18Z"/>
              <path class="cls-22" d="M323.91,234.1c8.98-.54,28.11,22.52,26.48,37.58-1.82,16.25-19.94,20.87-30.67,18.39-12.09-2.79-16.37-14.64-16.56-20.54-.32-10.14,12.28-34.96,20.75-35.44Z"/>
              <path class="cls-55" d="M323.65,234.64c8.64-.5,27.11,22.03,25.54,36.71-1.74,15.65-19.02,20.27-29.48,17.95-11.88-2.64-16-14.23-16.18-19.96-.3-9.85,11.96-34.24,20.12-34.7Z"/>
              <path class="cls-41" d="M323.38,235.17c8.29-.47,26.12,21.54,24.6,35.83-1.66,15.04-18.1,19.67-28.29,17.5-11.66-2.48-15.64-13.82-15.8-19.38-.28-9.56,11.64-33.53,19.49-33.95Z"/>
              <path class="cls-4" d="M323.12,235.71c7.94-.44,25.15,21.06,23.66,34.96s-17.19,19.07-27.1,17.05c-11.44-2.33-15.27-13.4-15.42-18.8-.26-9.28,11.32-32.82,18.86-33.21Z"/>
              <path class="cls-54" d="M322.86,236.24c7.6-.41,24.16,20.57,22.72,34.08s-16.28,18.47-25.91,16.61c-11.23-2.17-14.9-12.99-15.04-18.22-.24-8.99,11.01-32.1,18.23-32.47Z"/>
              <path class="cls-38" d="M322.6,236.78c7.25-.38,23.16,20.08,21.78,33.2s-15.36,17.88-24.73,16.16c-11.01-2.02-14.53-12.58-14.66-17.64-.22-8.7,10.69-31.39,17.6-31.73Z"/>
              <path class="cls-30" d="M322.33,237.31c6.9-.35,22.17,19.59,20.84,32.33s-14.45,17.28-23.54,15.71c-10.8-1.86-14.16-12.16-14.28-17.06-.2-8.41,10.37-30.67,16.98-30.98Z"/>
              <path class="cls-13" d="M322.07,237.85c6.56-.32,21.17,19.1,19.9,31.45-1.23,12.01-13.53,16.68-22.35,15.27-10.58-1.7-13.79-11.75-13.9-16.48-.18-8.13,10.05-29.96,16.35-30.24Z"/>
              <path class="cls-37" d="M321.81,238.39c6.21-.28,20.18,18.62,18.96,30.58s-12.62,16.09-21.16,14.82c-10.37-1.54-13.42-11.34-13.52-15.9-.16-7.84,9.74-29.24,15.72-29.5Z"/>
              <path class="cls-16" d="M321.55,238.92c5.87-.25,19.18,18.13,18.02,29.7-1.08,10.79-11.71,15.49-19.97,14.37-10.15-1.38-13.06-10.92-13.14-15.32-.14-7.55,9.42-28.53,15.09-28.76Z"/>
              <path class="cls-48" d="M321.28,239.46c5.52-.22,18.18,17.64,17.08,28.83-1,10.19-10.79,14.9-18.78,13.93-9.94-1.21-12.69-10.51-12.76-14.74-.12-7.27,9.1-27.81,14.46-28.01Z"/>
              <path class="cls-17" d="M321.02,239.99c5.17-.19,17.19,17.15,16.14,27.95-.92,9.58-9.88,14.31-17.59,13.48-9.73-1.05-12.32-10.1-12.38-14.16-.1-6.98,8.78-27.1,13.83-27.27Z"/>
              <path class="cls-10" d="M320.76,240.53c4.83-.16,16.19,16.66,15.2,27.07-.85,8.97-8.97,13.72-16.4,13.03-9.51-.88-11.95-9.68-12-13.58-.08-6.69,8.46-26.38,13.2-26.53Z"/>
              <path class="cls-2" d="M320.5,241.06c4.48-.13,15.19,16.17,14.27,26.2-.77,8.37-8.05,13.13-15.21,12.59-9.3-.71-11.58-9.27-11.62-13-.06-6.4,8.15-25.67,12.57-25.78Z"/>
              <path class="cls-23" d="M320.23,241.6c4.13-.09,14.19,15.69,13.33,25.32-.7,7.76-7.14,12.55-14.03,12.14-9.08-.54-11.21-8.86-11.25-12.42-.04-6.12,7.83-24.96,11.94-25.04Z"/>
              <path class="cls-47" d="M319.97,242.13c3.79-.06,13.17,15.2,12.39,24.45-.64,7.15-6.22,11.96-12.84,11.69-8.87-.36-10.84-8.44-10.87-11.84-.02-5.83,7.51-24.24,11.32-24.3Z"/>
              <path class="cls-49" d="M319.71,242.67c3.44-.03,12.18,14.71,11.45,23.57-.56,6.54-5.31,11.38-11.65,11.25-8.65-.18-10.48-8.03-10.49-11.26,0-5.54,7.19-23.53,10.69-23.56Z"/>
              <path class="cls-8" d="M319.45,243.21c3.1,0,11.18,14.22,10.51,22.7-.48,5.94-4.39,10.8-10.46,10.8-8.44,0-10.11-7.62-10.11-10.68.02-5.25,6.88-22.81,10.06-22.81Z"/>
            </g>
            <path class="cls-46" d="M330.16,262.17c0,9.43-7.66,17.07-17.08,17.07s-17.72-7.64-17.72-17.07c0-16.02,17.88-37.42,17.88-37.42l1.29-.68s.02.76.32,1.23c3.26,5.08,15.31,24.65,15.31,36.88Z"/>
            <path class="cls-51" d="M331.61,262.66c0,9.43-7.64,17.07-17.08,17.07s-17.08-7.64-17.08-17.07c0-14.14,17.08-38.59,17.08-38.59,0,0,17.08,24.45,17.08,38.59Z"/>
          </g>
        </g>
      </g>
    </g>
  </g>
</svg>