<?xml version="1.0" encoding="UTF-8"?>
<svg xmlns="http://www.w3.org/2000/svg" xmlns:xlink="http://www.w3.org/1999/xlink" viewBox="0 0 507.34 371.21">
  <defs>
    <style>
      .cls-1 {
        fill: #bfe7f5;
      }

      .cls-2 {
        fill: #eff8fb;
      }

      .cls-3 {
        fill: #b3c1cd;
        opacity: .62;
      }

      .cls-4 {
        fill: #eaecef;
        opacity: .14;
      }

      .cls-5 {
        fill: url(#radial-gradient-3);
      }

      .cls-5, .cls-6, .cls-7, .cls-8, .cls-9, .cls-10, .cls-11, .cls-12, .cls-13, .cls-14 {
        mix-blend-mode: multiply;
      }

      .cls-6 {
        fill: url(#radial-gradient-6);
      }

      .cls-7 {
        fill: url(#radial-gradient);
      }

      .cls-15, .cls-16 {
        fill: #fff;
      }

      .cls-8 {
        fill: url(#radial-gradient-7);
      }

      .cls-17 {
        fill: #bec9d3;
        opacity: .52;
      }

      .cls-18 {
        fill: #d9dee4;
        opacity: .29;
      }

      .cls-16 {
        opacity: 0;
      }

      .cls-19 {
        fill: #f6f7f8;
        opacity: .05;
      }

      .cls-20 {
        fill: #a9b9c6;
        opacity: .71;
      }

      .cls-21 {
        fill: #aebdc9;
        opacity: .67;
      }

      .cls-22 {
        fill: #c3cdd6;
        opacity: .48;
      }

      .cls-23 {
        isolation: isolate;
      }

      .cls-24 {
        fill: #e1f0fb;
      }

      .cls-9 {
        fill: url(#radial-gradient-9);
      }

      .cls-25 {
        fill: #a5def1;
      }

      .cls-26 {
        fill: #c8d1da;
        opacity: .43;
      }

      .cls-27 {
        fill: #90a7b8;
        opacity: .95;
      }

      .cls-10 {
        fill: url(#radial-gradient-5);
      }

      .cls-28 {
        fill: #92d4ea;
      }

      .cls-11 {
        fill: url(#radial-gradient-8);
      }

      .cls-29 {
        fill: #f0f1f3;
        opacity: .1;
      }

      .cls-30 {
        fill: #9aaebd;
        opacity: .86;
      }

      .cls-31 {
        fill: #9fdcf0;
      }

      .cls-32 {
        fill: #8ba4b5;
      }

      .cls-33 {
        fill: #c9eaf6;
      }

      .cls-13 {
        fill: url(#radial-gradient-2);
      }

      .cls-34 {
        fill: #d3dae0;
        opacity: .33;
      }

      .cls-35 {
        fill: #a4b5c3;
        opacity: .76;
      }

      .cls-36 {
        fill: #e4e7eb;
        opacity: .19;
      }

      .cls-14 {
        fill: url(#radial-gradient-4);
      }

      .cls-37 {
        fill: #ced5dd;
        opacity: .38;
      }

      .cls-38 {
        fill: #dfe3e8;
        opacity: .24;
      }

      .cls-39 {
        fill: #9fb2c0;
        opacity: .81;
      }

      .cls-40 {
        fill: #b9c5d0;
        opacity: .57;
      }

      .cls-41 {
        fill: #95aabb;
        opacity: .9;
      }
    </style>
    <radialGradient id="radial-gradient" cx="94.64" cy="87.3" fx="94.64" fy="87.3" r="42.42" gradientTransform="translate(69.45 174.65) rotate(10.44)" gradientUnits="userSpaceOnUse">
      <stop offset="0" stop-color="#b0d5eb"/>
      <stop offset=".17" stop-color="#c0ddef"/>
      <stop offset=".69" stop-color="#edf5fa"/>
      <stop offset=".95" stop-color="#fff"/>
    </radialGradient>
    <radialGradient id="radial-gradient-2" cx="108.94" cy="66.04" fx="108.94" fy="66.04" r="52.08" xlink:href="#radial-gradient"/>
    <radialGradient id="radial-gradient-3" cx="109.27" cy="84.23" fx="109.27" fy="84.23" r="51.98" xlink:href="#radial-gradient"/>
    <radialGradient id="radial-gradient-4" cx="184.43" cy="125.56" fx="184.43" fy="125.56" r="32.58" xlink:href="#radial-gradient"/>
    <radialGradient id="radial-gradient-5" cx="195.42" cy="109.23" fx="195.42" fy="109.23" r="39.99" xlink:href="#radial-gradient"/>
    <radialGradient id="radial-gradient-6" cx="195.67" cy="123.22" fx="195.67" fy="123.22" r="39.92" xlink:href="#radial-gradient"/>
    <radialGradient id="radial-gradient-7" cx="268.41" cy="57.39" fx="268.41" fy="57.39" r="48.02" xlink:href="#radial-gradient"/>
    <radialGradient id="radial-gradient-8" cx="284.59" cy="33.34" fx="284.59" fy="33.34" r="58.95" xlink:href="#radial-gradient"/>
    <radialGradient id="radial-gradient-9" cx="284.97" cy="53.93" fx="284.97" fy="53.93" r="58.83" xlink:href="#radial-gradient"/>
  </defs>
  <g class="cls-23">
    <g id="Layer_1">
      <g>
        <g>
          <g class="cls-12">
            <path class="cls-16" d="M475.97,253.65c37.68-37.83,35.83-68.13,23.26-100.59-9.47-24.47-13.88-40.68-29.66-63.18-14.2-20.27-44.26-46.15-89.26-52.56-43.58-6.19-146.9,64.82-182.5,74.36-38.42,10.27-85.35,37.4-134.63,57.32C37.98,179.19.73,211.44.08,228.55c-1.05,27.83,8.15,39.2,20.51,50.37,12.35,11.17,37.9,30.57,53.12,37.87,14.47,6.93,52.03,17.05,64.69,18.4,27.75,2.95,37.87-5.53,59.96-3.16,28.79,3.11,38.39,5.12,51.53,4.75,12.04-.35,21.85-2.87,28.4-3.16,9.55-.41,24.01.88,35.76-1.58,30.43-6.33,35.19-4.06,50.83-8.93,33.14-10.31,80.15-38.38,111.09-69.45Z"/>
            <path class="cls-19" d="M471.65,252.21c36.62-36.22,34.9-66.06,22.41-97.55-9.58-23.92-14.44-39.61-29.94-61.51-14.02-19.81-42.44-45.37-87.16-52.64-43.09-6.89-143.68,63.27-178.94,72.77-38.16,10.27-83.42,37.3-131.62,56.78C41.71,180.04,1.91,210.6,1.56,228.12c-.53,26.9,8.83,37.62,21.18,48.57,12.45,11,37.36,30.21,52.46,37.01s50.64,15.49,63.57,16.81c27.46,2.84,37.56-4.33,59.54-2.08,28.67,2.96,37.74,4.54,50.82,4.24,11.76-.31,21.34-2.44,28.41-2.7,10.13-.37,24.3.33,35.88-2.06,29.65-6.1,34.37-3.66,50.32-8.7,32.66-10.25,77.54-37.17,107.9-66.99Z"/>
            <path class="cls-29" d="M467.33,250.77c35.68-34.48,34.07-64.04,21.55-94.52-9.61-23.41-15.01-38.53-30.22-59.84-13.83-19.35-40.61-44.69-85.06-52.71-42.57-7.68-140.46,61.72-175.39,71.18-37.89,10.27-81.48,37.2-128.62,56.24C45.44,180.88,3.08,209.75,3.04,227.69c-.06,25.96,9.5,36.05,21.86,46.78,12.55,10.83,36.83,29.84,51.8,36.15,15.32,6.46,49.26,13.93,62.45,15.21,27.16,2.74,37.25-3.14,59.13-1,28.55,2.81,37.09,3.99,50.11,3.74,11.49-.23,20.84-2,28.43-2.23,10.72-.33,24.58-.22,35.99-2.54,28.86-5.88,33.54-3.29,49.81-8.48,32.16-10.26,75.04-35.86,104.72-64.53Z"/>
            <path class="cls-4" d="M463.02,249.33c34.68-32.8,33.19-62,20.7-91.48-9.69-22.87-15.57-37.46-30.5-58.17-13.65-18.89-38.79-43.95-82.97-52.79-42.06-8.42-137.24,60.16-171.83,69.59-37.63,10.26-79.54,37.1-125.61,55.7-23.63,9.55-68.56,36.71-68.29,55.08.37,25.01,10.15,34.5,22.54,44.98s36.31,29.45,51.14,35.29c15.76,6.21,47.87,12.34,61.33,13.62,26.87,2.56,36.94-1.95,58.71.08,28.43,2.66,36.43,3.43,49.4,3.23,11.21-.17,20.33-1.57,28.44-1.77,11.3-.29,24.87-.77,36.11-3.02,28.08-5.66,32.72-2.9,49.3-8.26,31.67-10.23,72.48-34.6,101.53-62.08Z"/>
            <path class="cls-36" d="M458.7,247.89c33.67-31.13,32.3-59.95,19.85-88.45-9.76-22.34-16.14-36.38-30.78-56.49-13.47-18.42-36.96-43.2-80.87-52.87-41.56-9.15-134.02,58.61-168.27,68.01-37.37,10.26-77.61,36.99-122.61,55.16-23.11,9.33-70.61,34.78-70.02,53.58.76,24.06,10.81,32.93,23.21,43.18s35.8,29.04,50.48,34.43c16.21,5.95,46.49,10.77,60.22,12.03,26.57,2.43,36.62-.75,58.29,1.16,28.31,2.51,35.78,2.86,48.69,2.73,10.93-.11,19.83-1.13,28.45-1.3,11.88-.25,25.15-1.32,36.23-3.5,27.3-5.44,31.9-2.51,48.8-8.04,31.18-10.2,69.92-33.35,98.34-59.62Z"/>
            <path class="cls-38" d="M454.38,246.45c32.66-29.45,31.4-57.91,18.99-85.41-9.84-21.81-16.7-35.3-31.06-54.82-13.29-17.96-35.14-42.45-78.77-52.94-41.05-9.88-130.8,57.05-164.72,66.42-37.11,10.25-75.67,36.89-119.6,54.61-22.58,9.12-72.67,32.85-71.75,52.09,1.1,23.1,11.48,31.36,23.89,41.38s35.31,28.62,49.82,33.57c16.67,5.69,45.1,9.2,59.1,10.43,26.27,2.31,36.31.44,57.88,2.24,28.2,2.37,35.13,2.44,47.98,2.22,10.66-.18,19.32-.69,28.47-.84,12.46-.21,25.44-1.87,36.34-3.98,26.51-5.21,31.08-2.12,48.29-7.81,30.69-10.16,67.35-32.09,95.15-57.16Z"/>
            <path class="cls-18" d="M450.06,245.01c31.64-27.79,30.5-55.87,18.14-82.38-9.92-21.27-17.27-34.23-31.35-53.15-13.11-17.5-33.31-41.69-76.67-53.02-40.54-10.6-127.58,55.5-161.16,64.83-36.85,10.25-73.74,36.79-116.6,54.07-22.05,8.9-74.73,30.91-73.47,50.6,1.42,22.14,12.15,29.78,24.56,39.58,12.91,10.19,34.82,28.18,49.16,32.71,17.14,5.41,43.72,7.63,57.98,8.84,25.97,2.2,36,1.63,57.46,3.32,28.08,2.22,34.48,1.89,47.27,1.72,10.38-.14,18.82-.26,28.48-.37,13.04-.18,25.73-2.4,36.46-4.46,25.74-4.93,30.26-1.73,47.78-7.59,30.21-10.11,64.79-30.84,91.96-54.7Z"/>
            <path class="cls-34" d="M445.74,243.57c30.62-26.12,29.6-53.82,17.29-79.34-10.01-20.74-17.83-33.15-31.63-51.48-12.92-17.04-31.49-40.93-74.58-53.1-40.03-11.31-124.36,53.95-157.6,63.24-36.59,10.25-71.8,36.69-113.59,53.53-21.53,8.68-76.82,28.97-75.2,49.11,1.7,21.18,12.82,28.21,25.24,37.79s34.34,27.73,48.5,31.85c17.61,5.12,42.33,6.07,56.86,7.25,25.67,2.08,35.69,2.83,57.04,4.4,27.96,2.07,33.83,1.34,46.56,1.21,10.1-.1,18.31.18,28.5.09,13.63-.14,26.01-2.95,36.58-4.93,24.96-4.7,29.44-1.33,47.27-7.37,29.72-10.07,62.21-29.58,88.77-52.24Z"/>
            <path class="cls-37" d="M441.42,242.13c29.59-24.46,28.69-51.77,16.43-76.31-10.09-20.2-18.36-32.1-31.91-49.81-12.71-16.6-29.67-40.16-72.48-53.18-39.53-12.02-121.13,52.39-154.05,61.65-36.32,10.24-69.86,36.58-110.59,52.99-21,8.47-78.91,27.02-76.93,47.62s13.49,26.64,25.92,35.99c13.1,9.85,33.86,27.26,47.84,30.99,18.09,4.82,40.94,4.5,55.74,5.65,25.38,1.97,35.38,4.02,56.63,5.48,27.84,1.92,33.18.58,45.85.71,9.83.1,17.81.61,28.51.56,14.21-.1,26.3-3.49,36.69-5.41,24.18-4.47,28.63-.94,46.76-7.15,29.24-10.01,59.63-28.33,85.58-49.78Z"/>
            <path class="cls-26" d="M437.11,240.69c28.55-22.8,27.78-49.72,15.58-73.27-10.19-19.67-18.92-31.03-32.19-48.13-12.52-16.14-27.84-39.38-70.38-53.25-39.02-12.72-117.91,50.84-150.49,60.07-36.06,10.24-67.93,36.48-107.58,52.44-20.48,8.25-81.02,25.07-78.66,46.12,2.16,19.25,14.16,25.07,26.59,34.19,13.19,9.68,33.39,26.78,47.18,30.13,18.58,4.51,39.56,2.94,54.63,4.06,25.08,1.86,35.07,5.21,56.21,6.56,27.72,1.77,32.52,0,45.14.2,9.55.15,17.3,1.05,28.52,1.02,14.79-.06,26.59-4.04,36.81-5.89,23.39-4.24,27.81-.54,46.25-6.93,28.75-9.96,57.05-27.08,82.4-47.32Z"/>
            <path class="cls-22" d="M432.79,239.25c27.51-21.15,26.86-47.67,14.72-70.24-10.28-19.13-19.49-29.96-32.47-46.46s-26.02-38.6-68.28-53.33c-38.52-13.42-114.69,49.28-146.93,58.48-35.8,10.24-65.99,36.38-104.58,51.9-19.95,8.04-83.15,23.13-80.39,44.63,2.35,18.29,14.83,23.49,27.27,32.39,13.29,9.51,32.92,26.29,46.52,29.27,19.07,4.17,38.17,1.38,53.51,2.47,24.78,1.76,34.76,6.41,55.79,7.64,27.6,1.63,31.87-.57,44.43-.3,9.27.2,16.8,1.48,28.54,1.49,15.37-.02,26.87-4.59,36.92-6.37,22.61-4.01,26.99-.14,45.74-6.7,28.27-9.9,54.46-25.84,79.21-44.86Z"/>
            <path class="cls-17" d="M428.47,237.81c26.46-19.51,25.93-45.62,13.87-67.2-10.38-18.59-20.05-28.88-32.75-44.79s-24.2-37.82-66.19-53.41c-38.02-14.12-111.47,47.73-143.38,56.89-35.54,10.23-64.06,36.28-101.57,51.36-19.43,7.82-85.31,21.18-82.11,43.14,2.52,17.33,15.5,21.91,27.95,30.6,13.39,9.34,32.46,25.79,45.86,28.41,19.57,3.83,36.78-.18,52.39.87,24.48,1.65,34.44,7.6,55.38,8.72,27.48,1.48,31.22-1.15,43.72-.81,9,.24,16.29,1.92,28.55,1.95,15.96.02,27.16-5.14,37.04-6.85,21.83-3.78,26.17.27,45.23-6.48,27.79-9.84,51.87-24.6,76.02-42.4Z"/>
            <path class="cls-40" d="M424.15,236.37c25.4-17.87,25-43.56,13.02-64.17-10.49-18.05-20.61-27.8-33.03-43.12-11.97-14.76-22.38-37.03-64.09-53.48-37.52-14.8-108.25,46.17-139.82,55.3-35.28,10.23-62.12,36.17-98.57,50.82-18.9,7.61-87.48,19.23-83.84,41.65,2.66,16.38,16.17,20.34,28.62,28.8,13.49,9.17,32,25.27,45.2,27.55,20.07,3.46,35.4-1.74,51.27-.72,24.18,1.55,34.13,8.79,54.96,9.8,27.37,1.33,30.57-1.73,43.01-1.31,8.72.29,15.79,2.35,28.57,2.42,16.54.06,27.44-5.69,37.16-7.33,21.04-3.56,25.36.67,44.73-6.26,27.31-9.77,49.26-23.36,72.83-39.94Z"/>
            <path class="cls-3" d="M419.83,234.93c24.33-16.24,24.06-41.5,12.16-61.13-10.6-17.5-21.18-26.73-33.32-41.44s-20.57-36.23-61.99-53.56c-37.02-15.49-105.03,44.62-136.26,53.72-35.01,10.23-60.18,36.07-95.56,50.28-18.38,7.39-89.69,17.29-85.57,40.16,2.78,15.42,16.85,18.76,29.3,27,13.59,8.99,31.54,24.74,44.54,26.69,20.57,3.07,34.01-3.29,50.15-2.31,23.88,1.45,33.82,9.99,54.54,10.89,27.25,1.18,29.91-2.31,42.3-1.82,8.44.33,15.28,2.79,28.58,2.88,17.12.1,27.73-6.24,37.27-7.81,20.26-3.34,24.54,1.08,44.22-6.04,26.83-9.7,46.65-22.13,69.64-37.49Z"/>
            <path class="cls-21" d="M415.52,233.49c23.25-14.63,23.11-39.44,11.31-58.1-10.72-16.95-21.75-25.65-33.6-39.77s-18.76-35.43-59.9-53.64c-36.52-16.17-101.81,43.07-132.71,52.13-34.75,10.22-58.25,35.97-92.56,49.73-17.85,7.17-91.93,15.35-87.3,38.67,2.88,14.47,17.52,17.18,29.97,25.2,13.69,8.82,31.08,24.21,43.88,25.83,21.07,2.67,32.62-4.85,49.04-3.91,23.58,1.35,33.51,11.18,54.13,11.97,27.13,1.04,29.26-2.89,41.59-2.32,8.16.38,14.78,3.22,28.59,3.35,17.7.14,28.01-6.79,37.39-8.29,19.47-3.12,23.73,1.49,43.71-5.81,26.36-9.63,44.03-20.92,66.45-35.03Z"/>
            <path class="cls-20" d="M411.2,232.05c22.15-13.03,22.16-37.37,10.45-55.06-10.84-16.4-22.32-24.57-33.88-38.1s-16.95-34.62-57.8-53.72c-36.03-16.84-98.59,41.51-129.15,50.54-34.49,10.22-56.31,35.87-89.55,49.19-17.33,6.96-94.21,13.43-89.03,37.17,2.95,13.53,18.2,15.6,30.65,23.4,13.79,8.64,30.62,23.66,43.22,24.97,21.57,2.24,31.23-6.4,47.92-5.5,23.28,1.26,33.2,12.37,53.71,13.05,27.01.89,28.61-3.48,40.88-2.83,7.89.42,14.27,3.66,28.61,3.81,18.28.18,28.3-7.34,37.51-8.77,18.69-2.9,22.92,1.9,43.2-5.59,25.88-9.56,41.4-19.71,63.26-32.57Z"/>
            <path class="cls-35" d="M406.88,230.61c21.05-11.44,21.2-35.29,9.6-52.03-10.98-15.85-22.88-23.49-34.16-36.43s-15.14-33.81-55.7-53.79c-35.54-17.51-95.36,39.96-125.6,48.95-34.23,10.21-54.38,35.77-86.55,48.65-16.8,6.74-96.54,11.52-90.75,35.68,3.02,12.59,18.87,14.02,31.33,21.61,13.89,8.47,30.16,23.1,42.56,24.11,22.07,1.79,29.85-7.95,46.8-7.09,22.98,1.17,32.89,13.56,53.29,14.13,26.89.74,27.96-4.07,40.17-3.33,7.61.46,13.77,4.09,28.62,4.28,18.87.21,28.58-7.89,37.62-9.25,17.9-2.68,22.11,2.31,42.69-5.37,25.41-9.48,38.76-18.52,60.07-30.11Z"/>
            <path class="cls-39" d="M402.56,229.17c19.94-9.88,20.23-33.21,8.75-48.99s-23.46-22.41-34.44-34.76-13.34-32.99-53.6-53.87c-35.05-18.18-92.14,38.4-122.04,47.37-33.97,10.21-52.44,35.66-83.54,48.11-16.28,6.53-98.93,9.63-92.48,34.19,3.06,11.66,19.55,12.44,32,19.81,14,8.29,29.69,22.53,41.9,23.25,22.57,1.32,28.46-9.5,45.68-8.69,22.68,1.08,32.57,14.76,52.88,15.21,26.77.59,27.31-4.66,39.46-3.84,7.33.49,13.26,4.53,28.64,4.74,19.45.25,28.86-8.45,37.74-9.72,17.12-2.47,21.29,2.73,42.18-5.15,24.93-9.4,36.11-17.36,56.89-27.65Z"/>
            <path class="cls-30" d="M398.24,227.73c18.82-8.34,19.25-31.12,7.89-45.96-11.26-14.71-24.05-21.31-34.72-33.08-10.92-11.95-11.54-32.17-51.51-53.95-34.57-18.84-88.92,36.85-118.48,45.78-33.71,10.21-50.51,35.56-80.54,47.56-15.75,6.31-101.39,7.76-94.21,32.7,3.09,10.74,20.23,10.85,32.68,18.01,14.1,8.11,29.22,21.96,41.24,22.39,23.06.82,27.07-11.05,44.56-10.28,22.38.99,32.26,15.95,52.46,16.29,26.65.44,26.66-5.25,38.75-4.34,7.06.53,12.76,4.96,28.65,5.21,20.03.29,29.15-9,37.85-10.2,16.33-2.25,20.49,3.15,41.67-4.92,24.46-9.32,33.45-16.22,53.7-25.19Z"/>
            <path class="cls-41" d="M393.92,226.29c17.69-6.83,18.27-29.03,7.04-42.93-11.42-14.13-24.61-20.24-35-31.41-10.74-11.49-9.75-31.34-49.41-54.03-34.09-19.5-85.7,35.3-114.93,44.19-33.44,10.2-48.57,35.46-77.53,47.02-15.23,6.1-103.94,5.94-95.94,31.21,3.11,9.83,20.91,9.25,33.35,16.21,14.22,7.9,28.75,21.77,40.58,21.53,23.55-.49,25.68-12.57,43.45-11.87,22.08.93,31.95,17.14,52.04,17.37,26.54.3,26.01-5.85,38.04-4.85,6.78.56,12.25,5.4,28.66,5.67,20.61.33,29.43-9.56,37.97-10.68,15.55-2.05,19.68,3.57,41.16-4.7,23.99-9.24,30.79-15.11,50.51-22.73Z"/>
            <path class="cls-27" d="M389.61,224.85c16.57-5.36,17.28-26.92,6.19-39.89s-25.18-19.16-35.29-29.74c-10.55-11.03-7.99-30.45-47.31-54.1-33.64-20.11-82.48,33.74-111.37,42.6-33.18,10.2-46.63,35.36-74.53,46.48-14.7,5.88-106.59,4.16-97.67,29.71,3.12,8.94,21.58,7.67,34.03,14.42,14.32,7.73,28.27,20.79,39.92,20.66,24.04-.26,24.3-14.12,42.33-13.47,21.78.83,31.64,18.34,51.63,18.45,26.42.15,25.36-6.45,37.33-5.35,6.51.6,11.75,5.83,28.68,6.14,21.2.37,29.71-10.13,38.09-11.16,14.76-1.86,18.88,4.03,40.66-4.48,23.53-9.12,28.11-14.06,47.32-20.27Z"/>
            <path class="cls-32" d="M385.29,223.41c15.45-3.93,16.29-24.8,5.33-36.86-11.76-12.93-25.74-18.09-35.57-28.07-10.37-10.57-6.18-29.67-45.21-54.18-33.14-20.8-79.26,32.19-107.81,41.02-32.92,10.2-44.7,35.25-71.52,45.94-14.18,5.66-109.38,2.46-99.39,28.22,3.12,8.07,22.26,6.09,34.71,12.62,14.41,7.56,27.79,20.2,39.26,19.8,24.51-.84,22.91-15.68,41.21-15.06,21.48.72,31.33,19.53,51.21,19.53,26.3,0,24.71-7.07,36.62-5.86,6.23.63,11.24,6.27,28.69,6.6,21.78.41,30-10.68,38.2-11.64,13.97-1.64,18.07,4.43,40.15-4.26,23.05-9.06,25.44-13.07,44.13-17.81Z"/>
          </g>
          <path class="cls-2" d="M375.35,171.05c-3.4-11.86-10.57-22.19-20.18-29.53,2.43-6.52,3.92-13.52,4.23-20.84,1.59-37.3-27.35-68.85-64.67-70.45-28.54-1.23-53.67,15.43-64.65,40-1.96-.23-3.94-.43-5.95-.53-23.57-1-44.88,9.98-58.05,27.52-3.71-1.45-7.71-2.38-11.92-2.54-20.28-.88-37.43,14.86-38.31,35.16-.14,3.34.21,6.58.92,9.71-7.4,1.23-13.75,5.64-17.55,11.86-6.14-8.28-15.82-13.83-26.92-14.3-15.38-.66-28.85,8.59-34.32,22.09-.68-.08-1.37-.16-2.07-.2-14.04-.61-25.91,10.29-26.51,24.34-.6,14.04,10.29,25.9,24.33,26.5,7.23.31,13.86-2.44,18.69-7.07,4.89,2.97,10.58,4.79,16.7,5.08,5.53,12.25,17.57,21.02,31.91,21.64,14.88.64,28.05-7.68,34.37-20.16,4.2,1.91,8.82,3.11,13.71,3.32,1.54.06,3.07,0,4.56-.14,8.62,11.52,22.14,19.22,37.62,19.86,15.11.66,28.93-5.53,38.48-15.8,5.87,11.27,17.4,19.18,31.01,19.77,14.45.61,27.29-7.23,33.8-19.1,7.12,3.69,15.14,5.92,23.67,6.29,18.61.8,35.54-7.46,46.49-20.86,2.57.96,5.31,1.54,8.19,1.68,14.71.62,27.16-10.8,27.79-25.51.62-14.67-10.72-27.07-25.37-27.79Z"/>
          <path class="cls-28" d="M376.4,172.11c-3.4-11.86-10.57-22.19-20.19-29.53,2.44-6.52,3.92-13.52,4.24-20.84,1.59-37.3-27.35-68.85-64.67-70.45-28.54-1.23-53.68,15.43-64.66,40-1.95-.25-3.93-.43-5.94-.53-23.57-1-44.88,9.98-58.06,27.52-3.71-1.45-7.71-2.38-11.91-2.56-20.29-.88-37.44,14.88-38.31,35.16-.14,3.36.21,6.6.92,9.73-7.39,1.21-13.76,5.64-17.55,11.86-6.14-8.28-15.82-13.83-26.92-14.32-15.38-.64-28.85,8.61-34.32,22.11-.68-.08-1.39-.18-2.08-.2-14.03-.61-25.9,10.29-26.5,24.34-.6,14.02,10.29,25.9,24.33,26.5,7.23.31,13.86-2.44,18.69-7.07,4.89,2.97,10.58,4.79,16.69,5.08,5.54,12.25,17.58,21.04,31.92,21.64,14.88.64,28.05-7.68,34.37-20.16,4.2,1.91,8.82,3.09,13.71,3.3,1.54.08,3.06.02,4.56-.12,8.61,11.52,22.13,19.2,37.62,19.86,15.11.66,28.93-5.53,38.47-15.8,5.88,11.25,17.41,19.18,31.01,19.77,14.46.61,27.29-7.23,33.81-19.1,7.12,3.69,15.13,5.92,23.67,6.29,18.62.8,35.54-7.46,46.49-20.86,2.56.96,5.31,1.54,8.19,1.68,14.72.62,27.16-10.8,27.79-25.51.62-14.67-10.72-27.07-25.37-27.79Z"/>
        </g>
        <g>
          <path class="cls-7" d="M188.42,285.33c-4.25,23.05-26.37,38.28-49.4,34.04-23.05-4.26-38.27-26.37-34.03-49.41,4.25-23.03,26.36-38.28,49.4-34.02,23.04,4.24,38.26,26.37,34.03,49.39Z"/>
          <path class="cls-13" d="M215.84,268.78c-5.21,28.28-32.37,46.99-60.65,41.78-28.29-5.21-46.99-32.38-41.79-60.66,5.21-28.28,32.37-46.99,60.65-41.78,28.28,5.21,46.99,32.36,41.79,60.66Z"/>
          <path class="cls-5" d="M212.77,286.71c-5.2,28.24-32.3,46.91-60.54,41.7-28.23-5.2-46.9-32.3-41.71-60.53,5.21-28.24,32.3-46.91,60.55-41.72,28.23,5.21,46.9,32.3,41.7,60.55Z"/>
          <g>
            <path class="cls-15" d="M178.18,244.92c-.08.04-.16.1-.24.14l-75.61,35.02c-.48.21-1,.23-1.48.06-.49-.18-.88-.53-1.09-1-.4-.88-.11-1.93.69-2.46.08-.04.16-.08.25-.12l75.6-35.04c.98-.43,2.13-.02,2.59.96.39.86.1,1.91-.7,2.44Z"/>
            <path class="cls-15" d="M173.82,253.67c-.08.04-.17.1-.25.14-.98.45-2.13.02-2.58-.96l-5.13-11.07c-.4-.86-.11-1.91.69-2.44.08-.04.17-.1.25-.14.97-.45,2.13-.02,2.58.96l5.13,11.05c.4.88.11,1.93-.69,2.46Z"/>
            <path class="cls-15" d="M112.06,282.26c-.08.06-.17.1-.25.14-.97.45-2.13.04-2.58-.94l-5.13-11.07c-.4-.86-.1-1.91.69-2.44.08-.06.17-.1.25-.14.98-.45,2.13-.02,2.58.94l5.14,11.07c.4.88.1,1.93-.7,2.44Z"/>
            <path class="cls-15" d="M157.89,300.23c-.08.04-.16.1-.25.14-.46.21-1,.23-1.47.06-.49-.18-.88-.55-1.09-1.02l-35.02-75.59c-.41-.88-.11-1.91.69-2.44.08-.06.16-.1.23-.14.48-.23,1.02-.25,1.49-.08.5.2.89.55,1.1,1.02l35.02,75.61c.4.86.1,1.91-.7,2.44Z"/>
            <path class="cls-15" d="M160.22,290.74c-.07.04-.17.1-.25.14l-11.06,5.14c-.48.21-1.01.23-1.48.06-.49-.2-.88-.55-1.1-1.02-.4-.86-.1-1.91.69-2.44.08-.04.17-.1.25-.14l11.07-5.14c.47-.21,1-.23,1.48-.06.49.2.88.55,1.09,1.02.4.88.1,1.91-.69,2.44Z"/>
            <path class="cls-15" d="M131.62,228.98c-.08.06-.17.1-.25.16l-11.07,5.12c-.47.21-1,.23-1.48.06-.49-.18-.87-.53-1.09-1-.4-.88-.1-1.93.69-2.44.07-.06.17-.1.25-.16l11.07-5.12c.46-.21,1-.25,1.48-.06.49.18.88.53,1.09,1,.4.88.11,1.91-.69,2.44Z"/>
            <path class="cls-15" d="M126.03,301.54c-.08.04-.16.1-.24.14-.48.21-1.01.23-1.48.06-.5-.18-.88-.53-1.1-1-.21-.49-.23-1.02-.06-1.5l28.69-78.22c.16-.39.41-.7.76-.94.52-.35,1.15-.43,1.74-.2.49.16.88.53,1.09,1,.21.47.23,1,.06,1.48l-28.69,78.22c-.15.39-.41.72-.76.96Z"/>
            <path class="cls-15" d="M134.39,296.48c-.08.04-.17.1-.25.14-.47.21-1,.23-1.48.06l-11.46-4.2c-.49-.2-.87-.55-1.09-1.02-.21-.47-.24-1-.06-1.48.15-.39.4-.72.75-.96.52-.33,1.15-.41,1.74-.2l11.46,4.2c.49.18.88.55,1.09,1,.22.49.24,1.02.07,1.5-.16.39-.41.72-.76.96Z"/>
            <path class="cls-15" d="M157.82,232.57c-.07.06-.17.1-.24.16-.47.2-1,.23-1.48.06l-11.46-4.22c-1.01-.37-1.52-1.48-1.16-2.48.16-.41.41-.74.77-.96.52-.35,1.15-.41,1.73-.2l11.46,4.2c.49.18.88.53,1.08,1.02.23.47.25.98.07,1.46-.15.41-.4.74-.76.96Z"/>
            <path class="cls-15" d="M179.49,276.77c-.08.04-.16.1-.25.14-.47.23-1,.23-1.47.06l-78.23-28.69c-.48-.18-.87-.53-1.09-1.02-.21-.47-.23-1-.06-1.48.16-.39.41-.72.76-.94.52-.35,1.15-.43,1.74-.21l78.21,28.69c.5.18.89.55,1.1,1.02.21.47.23,1,.06,1.48-.15.39-.41.72-.76.96Z"/>
            <path class="cls-15" d="M106.33,256.44c-.09.04-.17.1-.25.14-.47.21-1,.23-1.48.06-.49-.18-.87-.55-1.1-1.02-.21-.47-.23-1-.06-1.48l4.2-11.45c.16-.39.42-.72.76-.96.53-.35,1.15-.41,1.74-.21.49.2.88.55,1.09,1.02.21.47.24,1,.06,1.48l-4.2,11.46c-.15.39-.4.72-.75.96Z"/>
            <path class="cls-15" d="M170.22,279.88c-.09.04-.17.1-.24.14-.47.21-1,.23-1.48.06-.49-.18-.88-.53-1.09-1.02-.22-.47-.24-1-.06-1.48l4.2-11.45c.15-.39.41-.72.76-.96.51-.33,1.15-.41,1.73-.21.49.2.88.55,1.09,1.02.22.47.24,1,.05,1.48l-4.2,11.46c-.14.39-.4.72-.75.96Z"/>
            <path class="cls-15" d="M150.02,283.32c-.08.04-.15.08-.22.12-.51.23-1.1.21-1.59-.06l-8.15-4.59-7.75,5.23c-.49.33-1.05.39-1.58.2-.53-.2-.93-.62-1.07-1.17l-2.53-9-9.18-1.78c-.56-.1-1.03-.47-1.26-.98-.23-.51-.2-1.09.07-1.58l4.58-8.16-5.23-7.75c-.32-.47-.39-1.05-.2-1.58.12-.35.37-.64.68-.86.15-.1.31-.16.49-.21l9-2.52,1.78-9.2c.09-.45.36-.86.75-1.11.08-.06.15-.1.22-.14.51-.23,1.1-.21,1.59.06l8.15,4.59q7.75-5.23,7.76-5.23c.48-.33,1.05-.39,1.57-.2s.92.62,1.07,1.17l2.54,9,9.18,1.78c.55.12,1.02.47,1.25.98.23.51.21,1.11-.06,1.6l-4.59,8.14,5.11,7.56c.12.12.21.27.28.43.37.78.1,1.72-.62,2.19-.07.06-.15.1-.22.14l-.06.02c-.08.04-.15.06-.22.08l-9.01,2.54-1.78,9.18c-.09.47-.36.88-.75,1.13ZM139,275.29c.08-.04.16-.1.23-.14.51-.23,1.1-.21,1.59.06l6.98,3.93,1.52-7.85c.1-.47.37-.88.75-1.13.16-.1.31-.18.49-.23l7.72-2.15-4.49-6.64c-.36-.55-.4-1.27-.08-1.84l3.93-6.99-7.86-1.52c-.64-.12-1.18-.61-1.35-1.25l-2.17-7.71-6.64,4.49c-.56.37-1.26.39-1.84.08l-6.98-3.93-1.52,7.87c-.09.45-.36.86-.76,1.13-.15.1-.31.16-.48.21l-7.72,2.17,4.49,6.64c.37.55.41,1.25.08,1.84l-3.93,6.97,7.86,1.52c.64.14,1.18.62,1.36,1.25l2.16,7.71,6.64-4.49h0Z"/>
            <path class="cls-15" d="M162.85,283.06c-.08.04-.16.08-.22.12-.29.14-.62.2-.95.14l-12.63-1.5-7.02,10.61c-.13.21-.29.39-.5.51-.26.18-.57.27-.88.29-.56.02-1.1-.23-1.45-.66l-7.86-10.02-12.47,2.56c-.56.1-1.12-.06-1.53-.43-.41-.39-.62-.94-.55-1.48l1.51-12.64-10.63-7.03c-.45-.31-.74-.82-.76-1.39-.04-.55.21-1.09.65-1.43l10.01-7.87-2.55-12.46c-.11-.57.05-1.13.42-1.54.11-.1.21-.2.33-.27.35-.23.76-.33,1.16-.27l12.65,1.52,7.01-10.62c.13-.2.29-.37.5-.51.26-.18.56-.27.89-.27.55-.04,1.09.21,1.45.66l7.86,10,12.47-2.54c.54-.12,1.11.04,1.53.43.4.37.62.94.54,1.48l-1.5,12.64,10.62,7.01c.47.31.76.82.78,1.39.02.57-.22,1.09-.66,1.45l-10.01,7.87,2.55,12.46c.11.55-.04,1.11-.42,1.52-.11.12-.21.21-.33.29ZM147.22,278.49c.35-.23.76-.33,1.17-.27l11.31,1.35-2.29-11.15c-.14-.64.11-1.31.63-1.72l8.96-7.03-9.51-6.29c-.55-.35-.84-1-.77-1.66l1.37-11.29-11.16,2.29c-.64.12-1.31-.12-1.72-.64l-7.03-8.95-6.28,9.49c-.14.2-.3.37-.5.51-.35.21-.76.31-1.17.25l-11.3-1.35,2.28,11.15c.14.64-.1,1.31-.62,1.74l-8.96,7.03,9.5,6.27c.56.37.85,1,.77,1.66l-1.36,11.31,11.15-2.29c.64-.14,1.31.12,1.72.62l7.04,8.96,6.28-9.51c.12-.2.29-.35.49-.49Z"/>
          </g>
          <g>
            <path class="cls-24" d="M179.17,244.92c-.09.04-.17.1-.25.14l-75.61,35.02c-.47.21-1,.23-1.48.06s-.88-.53-1.09-1c-.41-.88-.11-1.93.69-2.46.08-.04.17-.08.24-.12l75.61-35.04c.98-.43,2.13-.02,2.58.96.41.86.11,1.91-.68,2.44Z"/>
            <path class="cls-24" d="M174.81,253.67c-.09.04-.17.1-.25.14-.98.45-2.13.02-2.58-.96l-5.13-11.07c-.41-.86-.11-1.91.69-2.44.08-.04.17-.1.24-.14.98-.45,2.13-.02,2.59.96l5.13,11.05c.4.88.1,1.93-.69,2.46Z"/>
            <path class="cls-24" d="M113.06,282.26c-.09.06-.17.1-.26.14-.97.45-2.13.04-2.58-.94l-5.13-11.07c-.4-.86-.11-1.91.69-2.44.08-.06.17-.1.24-.14.98-.45,2.14-.02,2.59.94l5.13,11.07c.41.88.1,1.93-.68,2.44Z"/>
            <path class="cls-24" d="M158.87,300.23c-.08.04-.17.1-.25.14-.46.21-.99.23-1.47.06s-.88-.55-1.09-1.02l-35.04-75.59c-.39-.88-.09-1.91.7-2.44.08-.06.16-.1.25-.14.47-.23,1-.25,1.48-.08.49.2.88.55,1.09,1.02l35.03,75.61c.4.86.1,1.91-.7,2.44Z"/>
            <path class="cls-24" d="M161.21,290.74c-.08.04-.16.1-.25.14l-11.07,5.14c-.47.21-1,.23-1.48.06-.49-.2-.88-.55-1.09-1.02-.4-.86-.1-1.91.7-2.44.08-.04.16-.1.24-.14l11.06-5.14c.48-.21,1.01-.23,1.49-.06.49.2.87.55,1.09,1.02.4.88.11,1.91-.69,2.44Z"/>
            <path class="cls-24" d="M132.59,228.98c-.08.06-.16.1-.24.16l-11.07,5.12c-.47.21-1,.23-1.49.06-.48-.18-.86-.53-1.08-1-.4-.88-.11-1.93.69-2.44.08-.06.16-.1.25-.16l11.07-5.12c.47-.21,1-.25,1.48-.06.49.18.88.53,1.09,1,.4.88.1,1.91-.7,2.44Z"/>
            <path class="cls-24" d="M127.03,301.54c-.09.04-.18.1-.25.14-.48.21-1.01.23-1.49.06-.48-.18-.87-.53-1.09-1-.21-.49-.24-1.02-.06-1.5l28.69-78.22c.15-.39.41-.7.75-.94.53-.35,1.16-.43,1.75-.2.48.16.88.53,1.09,1,.21.47.24,1,.06,1.48l-28.7,78.22c-.14.39-.4.72-.74.96Z"/>
            <path class="cls-24" d="M135.38,296.48c-.09.04-.17.1-.25.14-.47.21-1,.23-1.48.06l-11.46-4.2c-.49-.2-.88-.55-1.09-1.02-.21-.47-.23-1-.06-1.48.14-.39.41-.72.75-.96.52-.33,1.15-.41,1.73-.2l11.46,4.2c.49.18.88.55,1.09,1,.21.49.23,1.02.06,1.5-.16.39-.4.72-.75.96Z"/>
            <path class="cls-24" d="M158.8,232.57c-.08.06-.16.1-.24.16-.47.2-1,.23-1.48.06l-11.46-4.22c-1.01-.37-1.52-1.48-1.15-2.48.14-.41.41-.74.75-.96.52-.35,1.15-.41,1.74-.2l11.46,4.2c.49.18.88.53,1.09,1.02.21.47.24.98.06,1.46-.15.41-.41.74-.76.96Z"/>
            <path class="cls-24" d="M180.48,276.77c-.09.04-.17.1-.25.14-.48.23-1,.23-1.49.06l-78.21-28.69c-.49-.18-.88-.53-1.09-1.02-.22-.47-.24-1-.07-1.48.15-.39.41-.72.76-.94.52-.35,1.15-.43,1.73-.21l78.22,28.69c.49.18.88.55,1.09,1.02.22.47.23,1,.06,1.48-.14.39-.4.72-.74.96Z"/>
            <path class="cls-24" d="M107.31,256.44c-.08.04-.17.1-.24.14-.47.21-1,.23-1.48.06s-.88-.55-1.09-1.02c-.22-.47-.23-1-.06-1.48l4.2-11.45c.14-.39.41-.72.76-.96.51-.35,1.14-.41,1.73-.21.49.2.88.55,1.1,1.02.21.47.23,1,.05,1.48l-4.2,11.46c-.15.39-.42.72-.76.96Z"/>
            <path class="cls-24" d="M171.21,279.88c-.08.04-.16.1-.24.14-.47.21-1,.23-1.48.06-.49-.18-.88-.53-1.1-1.02-.21-.47-.23-1-.06-1.48l4.2-11.45c.16-.39.41-.72.76-.96.53-.33,1.15-.41,1.74-.21.49.2.88.55,1.09,1.02.21.47.24,1,.06,1.48l-4.2,11.46c-.16.39-.41.72-.76.96Z"/>
            <path class="cls-24" d="M151.01,283.32c-.08.04-.15.08-.22.12-.51.23-1.1.21-1.59-.06l-8.16-4.59-7.74,5.23c-.49.33-1.06.39-1.57.2-.54-.2-.94-.62-1.09-1.17l-2.52-9-9.19-1.78c-.55-.1-1.02-.47-1.26-.98-.23-.51-.21-1.09.08-1.58l4.58-8.16-5.24-7.75c-.31-.47-.38-1.05-.2-1.58.14-.35.37-.64.69-.86.15-.1.31-.16.48-.21l9.01-2.52,1.78-9.2c.09-.45.36-.86.75-1.11.08-.06.15-.1.22-.14.51-.23,1.1-.21,1.59.06l8.15,4.59,7.76-5.23c.48-.33,1.04-.39,1.57-.2.52.2.93.62,1.07,1.17l2.53,9,9.18,1.78c.56.12,1.02.47,1.26.98.23.51.21,1.11-.07,1.6l-4.58,8.14,5.11,7.56c.12.12.21.27.29.43.35.78.09,1.72-.62,2.19-.08.06-.16.1-.23.14l-.06.02c-.08.04-.15.06-.21.08l-9.02,2.54-1.77,9.18c-.09.47-.36.88-.75,1.13ZM139.97,275.29c.08-.04.16-.1.24-.14.51-.23,1.1-.21,1.59.06l6.98,3.93,1.52-7.85c.09-.47.36-.88.75-1.13.16-.1.31-.18.49-.23l7.72-2.15-4.49-6.64c-.36-.55-.4-1.27-.07-1.84l3.93-6.99-7.87-1.52c-.64-.12-1.17-.61-1.35-1.25l-2.17-7.71-6.64,4.49c-.57.37-1.26.39-1.84.08l-6.98-3.93-1.52,7.87c-.09.45-.37.86-.75,1.13-.16.1-.31.16-.49.21l-7.72,2.17,4.49,6.64c.37.55.4,1.25.08,1.84l-3.94,6.97,7.87,1.52c.64.14,1.17.62,1.35,1.25l2.17,7.71,6.64-4.49h0Z"/>
            <path class="cls-24" d="M163.83,283.06c-.08.04-.15.08-.22.12-.29.14-.62.2-.94.14l-12.65-1.5-7,10.61c-.15.21-.31.39-.51.51-.25.18-.57.27-.88.29-.57.02-1.1-.23-1.46-.66l-7.85-10.02-12.46,2.56c-.56.1-1.13-.06-1.54-.43-.41-.39-.61-.94-.55-1.48l1.52-12.64-10.62-7.03c-.47-.31-.76-.82-.78-1.39-.02-.55.22-1.09.66-1.43l10.01-7.87-2.55-12.46c-.12-.57.04-1.13.43-1.54.1-.1.2-.2.33-.27.33-.23.75-.33,1.16-.27l12.63,1.52,7.02-10.62c.13-.2.3-.37.5-.51.26-.18.57-.27.88-.27.57-.04,1.1.21,1.45.66l7.87,10,12.46-2.54c.55-.12,1.11.04,1.54.43.41.37.62.94.55,1.48l-1.52,12.64,10.62,7.01c.47.31.76.82.78,1.39.02.57-.22,1.09-.66,1.45l-10.01,7.87,2.55,12.46c.12.55-.05,1.11-.43,1.52-.1.12-.21.21-.32.29ZM148.21,278.49c.34-.23.76-.33,1.16-.27l11.31,1.35-2.28-11.15c-.14-.64.11-1.31.63-1.72l8.95-7.03-9.51-6.29c-.54-.35-.84-1-.76-1.66l1.36-11.29-11.15,2.29c-.65.12-1.31-.12-1.72-.64l-7.03-8.95-6.28,9.49c-.14.2-.31.37-.51.51-.34.21-.75.31-1.16.25l-11.31-1.35,2.29,11.15c.14.64-.11,1.31-.62,1.74l-8.96,7.03,9.5,6.27c.56.37.85,1,.77,1.66l-1.36,11.31,11.14-2.29c.65-.14,1.32.12,1.73.62l7.04,8.96,6.27-9.51c.14-.2.3-.35.5-.49Z"/>
          </g>
        </g>
        <g>
          <path class="cls-14" d="M260.12,337.46c-3.27,17.7-20.24,29.39-37.94,26.13-17.7-3.26-29.39-20.25-26.13-37.93,3.26-17.71,20.24-29.41,37.94-26.15s29.39,20.25,26.13,37.95Z"/>
          <path class="cls-10" d="M281.19,324.74c-4,21.72-24.86,36.07-46.58,32.07-21.73-4-36.09-24.84-32.09-46.58,4-21.72,24.85-36.07,46.58-32.07,21.72,3.98,36.07,24.84,32.09,46.58Z"/>
          <path class="cls-6" d="M278.82,338.51c-3.99,21.68-24.81,36.02-46.49,32.03-21.69-4-36.03-24.8-32.03-46.5,3.99-21.68,24.81-36.02,46.49-32.01,21.68,3.98,36.03,24.8,32.03,46.48Z"/>
          <g>
            <path class="cls-15" d="M254.7,305.54c-.07.04-.13.08-.2.12l-58.06,26.89c-.36.18-.77.18-1.14.04-.38-.14-.67-.41-.84-.76-.31-.66-.08-1.48.53-1.88.07-.04.13-.08.2-.12l58.06-26.89c.75-.33,1.64-.02,1.98.72.31.68.08,1.48-.53,1.88Z"/>
            <path class="cls-15" d="M251.35,312.26c-.06.04-.13.08-.2.12-.75.35-1.64.02-1.98-.74l-3.94-8.5c-.31-.66-.08-1.46.53-1.88.07-.04.13-.08.2-.1.75-.35,1.64-.02,1.98.72l3.95,8.5c.3.66.08,1.48-.54,1.88Z"/>
            <path class="cls-15" d="M203.92,334.23c-.06.04-.12.08-.19.12-.75.33-1.64.02-1.98-.74l-3.94-8.5c-.31-.66-.08-1.48.53-1.88.07-.04.13-.08.19-.12.76-.33,1.64,0,1.99.74l3.94,8.5c.31.66.08,1.48-.54,1.88Z"/>
            <path class="cls-15" d="M239.12,348.02c-.06.04-.13.1-.2.12-.36.16-.76.18-1.13.04-.38-.14-.67-.41-.85-.76l-26.89-58.07c-.3-.66-.08-1.46.54-1.88.06-.04.13-.08.2-.12.35-.16.76-.18,1.13-.04.38.14.68.41.85.76l26.89,58.07c.3.68.08,1.48-.54,1.88Z"/>
            <path class="cls-15" d="M240.9,340.74c-.06.04-.13.08-.2.12l-8.5,3.93c-.36.18-.77.2-1.14.06-.37-.16-.67-.41-.84-.78-.31-.66-.08-1.48.53-1.88.07-.04.13-.08.2-.1l8.51-3.95c.36-.16.77-.18,1.14-.04s.67.41.84.76c.3.68.08,1.48-.54,1.88Z"/>
            <path class="cls-15" d="M218.94,293.32c-.06.04-.13.08-.2.12l-8.51,3.93c-.36.18-.77.2-1.14.06s-.67-.43-.84-.78c-.3-.66-.08-1.46.54-1.88.06-.04.13-.08.2-.1l8.5-3.95c.36-.18.77-.18,1.14-.04.38.14.67.41.84.76.31.66.08,1.48-.53,1.88Z"/>
            <path class="cls-15" d="M214.65,349.04c-.07.04-.13.08-.2.1-.36.18-.77.2-1.14.06s-.68-.41-.84-.78c-.17-.37-.19-.76-.04-1.13l22.03-60.08c.11-.29.31-.57.58-.72.4-.27.89-.33,1.34-.16.37.14.67.39.84.76.17.37.19.76.05,1.15l-22.04,60.06c-.11.31-.31.57-.58.74Z"/>
            <path class="cls-15" d="M221.07,345.15c-.08.04-.13.06-.2.1-.36.18-.76.2-1.14.06l-8.8-3.22c-.37-.16-.66-.43-.84-.78-.17-.37-.19-.76-.05-1.15.12-.29.31-.55.59-.72.4-.27.89-.31,1.33-.16l8.8,3.22c.38.14.67.41.84.78.18.35.19.76.05,1.13-.11.31-.3.57-.58.74Z"/>
            <path class="cls-15" d="M239.06,296.07c-.06.06-.12.1-.19.12-.36.18-.77.18-1.14.04l-8.79-3.22c-.77-.27-1.17-1.13-.89-1.91.11-.31.31-.55.58-.74.4-.25.89-.31,1.34-.14l8.8,3.22c.37.14.67.41.84.78.17.35.18.76.04,1.13-.11.29-.31.55-.59.72Z"/>
            <path class="cls-15" d="M255.71,330.02c-.06.04-.14.08-.2.1-.36.18-.77.2-1.14.06l-60.08-22.05c-.37-.12-.66-.39-.84-.76-.17-.37-.18-.76-.04-1.13.12-.31.31-.57.59-.72.39-.27.88-.33,1.33-.18l60.07,22.05c.38.12.67.41.84.76.18.37.19.76.05,1.15-.12.29-.31.55-.58.72Z"/>
            <path class="cls-15" d="M199.52,314.39c-.06.06-.13.1-.19.12-.36.18-.77.18-1.14.04s-.67-.41-.84-.76c-.17-.37-.19-.78-.05-1.13l3.22-8.81c.12-.31.31-.57.59-.74.4-.25.88-.31,1.34-.16.36.14.66.43.84.78.16.35.19.76.04,1.15l-3.22,8.79c-.12.31-.31.55-.59.72Z"/>
            <path class="cls-15" d="M248.59,332.4c-.06.04-.13.08-.2.12-.35.16-.76.18-1.13.04-.39-.14-.68-.41-.85-.78-.17-.35-.18-.76-.04-1.13l3.22-8.79c.11-.31.31-.57.58-.74.4-.25.89-.33,1.34-.16.38.14.67.41.84.78.17.35.19.76.05,1.13l-3.22,8.81c-.12.29-.31.55-.59.72Z"/>
            <path class="cls-15" d="M233.07,335.03s-.11.08-.17.1c-.39.18-.85.18-1.22-.06l-6.26-3.52-5.97,4.04c-.36.23-.81.29-1.21.14-.4-.14-.71-.49-.83-.9l-1.93-6.91-7.06-1.37c-.42-.08-.79-.37-.97-.76-.18-.37-.16-.84.06-1.21l3.52-6.27-4.01-5.96c-.24-.35-.3-.8-.17-1.21.12-.27.29-.49.54-.66.12-.06.24-.12.37-.16l6.91-1.95,1.36-7.05c.08-.35.29-.66.6-.86.05-.04.11-.08.17-.1.39-.18.84-.16,1.22.06l6.27,3.52,5.96-4.02c.37-.25.79-.29,1.21-.16.4.16.7.49.83.9l1.93,6.93,7.06,1.35c.42.08.77.37.96.76.19.39.17.84-.05,1.23l-3.53,6.25,3.93,5.8c.09.1.17.21.22.33.27.61.07,1.33-.48,1.68-.05.04-.11.08-.17.1l-.05.02c-.06.04-.12.06-.18.06l-6.92,1.95-1.37,7.05c-.06.35-.27.66-.58.86ZM224.6,328.88c.06-.04.12-.08.18-.1.39-.2.86-.18,1.23.04l5.36,3.01,1.17-6.04c.07-.35.28-.66.58-.86.12-.08.24-.14.37-.18l5.94-1.66-3.46-5.1c-.27-.43-.3-.98-.05-1.41l3.02-5.37-6.05-1.17c-.5-.1-.91-.47-1.04-.96l-1.66-5.92-5.1,3.44c-.43.29-.97.31-1.41.06l-5.36-3.01-1.17,6.04c-.07.37-.28.66-.58.88-.12.06-.24.12-.37.16l-5.94,1.66,3.45,5.12c.28.41.31.96.06,1.41l-3.02,5.35,6.04,1.17c.5.1.89.47,1.04.96l1.66,5.94,5.1-3.46h0Z"/>
            <path class="cls-15" d="M242.92,334.84c-.06.04-.12.08-.18.1-.22.1-.47.14-.72.12l-9.71-1.17-5.38,8.16c-.11.16-.23.27-.39.39-.2.12-.43.2-.67.2-.43.02-.84-.16-1.11-.49l-6.04-7.7-9.58,1.95c-.42.08-.86-.04-1.17-.33-.32-.29-.48-.7-.42-1.13l1.16-9.71-8.15-5.39c-.37-.23-.59-.62-.61-1.05,0-.45.18-.86.52-1.13l7.68-6.02-1.95-9.59c-.09-.41.04-.86.33-1.17.07-.08.16-.16.24-.21.26-.18.59-.23.9-.21l9.71,1.17,5.38-8.14c.11-.16.23-.29.38-.39.21-.14.44-.21.68-.21.43-.02.84.18,1.11.51l6.04,7.68,9.58-1.95c.41-.08.86.04,1.18.33.31.29.47.72.42,1.15l-1.18,9.69,8.16,5.39c.36.23.59.64.61,1.07.02.43-.18.84-.52,1.11l-7.69,6.04,1.95,9.57c.1.43-.03.86-.32,1.17-.07.1-.16.16-.24.21ZM230.92,331.34c.26-.18.59-.25.89-.21l8.69,1.04-1.75-8.55c-.11-.51.08-1.02.48-1.33l6.88-5.41-7.29-4.8c-.42-.29-.65-.78-.6-1.29l1.05-8.67-8.57,1.76c-.51.1-1.01-.1-1.33-.49l-5.39-6.89-4.82,7.3c-.1.16-.23.27-.38.39-.26.18-.59.23-.9.2l-8.68-1.04,1.76,8.57c.1.49-.09,1-.49,1.33l-6.88,5.39,7.3,4.82c.43.27.65.76.6,1.27l-1.04,8.67,8.56-1.74c.5-.1,1.01.08,1.32.49l5.4,6.88,4.82-7.3c.11-.16.23-.27.38-.37Z"/>
          </g>
          <g>
            <path class="cls-24" d="M255.45,305.54c-.06.04-.13.08-.2.12l-58.06,26.89c-.37.18-.76.18-1.14.04-.37-.14-.67-.41-.84-.76-.31-.66-.09-1.48.54-1.88.06-.04.13-.08.2-.12l58.06-26.89c.74-.33,1.63-.02,1.98.72.3.68.08,1.48-.54,1.88Z"/>
            <path class="cls-24" d="M252.1,312.26c-.06.04-.13.08-.2.12-.74.35-1.63.02-1.97-.74l-3.95-8.5c-.3-.66-.08-1.46.54-1.88.06-.04.13-.08.2-.1.74-.35,1.63-.02,1.98.72l3.93,8.5c.32.66.09,1.48-.53,1.88Z"/>
            <path class="cls-24" d="M204.68,334.23c-.06.04-.13.08-.2.12-.74.33-1.63.02-1.98-.74l-3.94-8.5c-.31-.66-.08-1.48.54-1.88.06-.04.13-.08.2-.12.74-.33,1.63,0,1.97.74l3.94,8.5c.31.66.09,1.48-.53,1.88Z"/>
            <path class="cls-24" d="M239.87,348.02c-.06.04-.13.1-.2.12-.36.16-.76.18-1.14.04-.36-.14-.66-.41-.84-.76l-26.89-58.07c-.3-.66-.07-1.46.55-1.88.06-.04.12-.08.19-.12.36-.16.77-.18,1.14-.04s.67.41.84.76l26.89,58.07c.31.68.08,1.48-.54,1.88Z"/>
            <path class="cls-24" d="M241.66,340.74c-.06.04-.13.08-.2.12l-8.51,3.93c-.36.18-.76.2-1.15.06-.36-.16-.66-.41-.84-.78-.29-.66-.06-1.48.55-1.88.06-.04.13-.08.19-.1l8.51-3.95c.36-.16.76-.18,1.14-.04.38.14.67.41.84.76.31.68.09,1.48-.53,1.88Z"/>
            <path class="cls-24" d="M219.69,293.32c-.06.04-.13.08-.2.12l-8.51,3.93c-.36.18-.76.2-1.14.06-.36-.14-.66-.43-.83-.78-.31-.66-.08-1.46.53-1.88.07-.04.13-.08.2-.1l8.51-3.95c.36-.18.76-.18,1.14-.04.37.14.67.41.84.76.3.66.08,1.48-.54,1.88Z"/>
            <path class="cls-24" d="M215.4,349.04c-.06.04-.13.08-.2.1-.36.18-.76.2-1.14.06-.37-.14-.66-.41-.83-.78-.18-.37-.19-.76-.05-1.13l22.03-60.08c.12-.29.31-.57.58-.72.41-.27.89-.33,1.34-.16.38.14.67.39.84.76.17.37.19.76.05,1.15l-22.05,60.06c-.1.31-.29.57-.57.74Z"/>
            <path class="cls-24" d="M221.81,345.15s-.12.06-.18.1c-.37.18-.77.2-1.14.06l-8.8-3.22c-.38-.16-.68-.43-.84-.78-.18-.37-.19-.76-.05-1.15.11-.29.31-.55.59-.72.4-.27.88-.31,1.33-.16l8.8,3.22c.37.14.67.41.84.78.17.35.19.76.05,1.13-.12.31-.31.57-.6.74Z"/>
            <path class="cls-24" d="M239.82,296.07c-.06.06-.12.1-.2.12-.35.18-.76.18-1.13.04l-8.8-3.22c-.77-.27-1.18-1.13-.89-1.91.12-.31.31-.55.59-.74.4-.25.88-.31,1.33-.14l8.8,3.22c.38.14.67.41.84.78.17.35.19.76.05,1.13-.12.29-.31.55-.59.72Z"/>
            <path class="cls-24" d="M256.46,330.02c-.06.04-.13.08-.2.1-.36.18-.76.2-1.14.06l-60.07-22.05c-.37-.12-.68-.39-.84-.76-.17-.37-.19-.76-.04-1.13.11-.31.3-.57.58-.72.4-.27.89-.33,1.33-.18l60.08,22.05c.37.12.65.41.84.76.17.37.18.76.05,1.15-.12.29-.31.55-.59.72Z"/>
            <path class="cls-24" d="M200.27,314.39c-.06.06-.12.1-.19.12-.36.18-.77.18-1.14.04s-.67-.41-.84-.76c-.17-.37-.19-.78-.05-1.13l3.23-8.81c.11-.31.31-.57.57-.74.41-.25.9-.31,1.35-.16.37.14.67.43.84.78.17.35.19.76.05,1.15l-3.23,8.79c-.11.31-.31.55-.59.72Z"/>
            <path class="cls-24" d="M249.33,332.4s-.12.08-.18.12c-.36.16-.77.18-1.14.04-.38-.14-.67-.41-.84-.78-.17-.35-.19-.76-.05-1.13l3.22-8.79c.12-.31.32-.57.59-.74.4-.25.88-.33,1.33-.16.37.14.68.41.85.78.17.35.19.76.04,1.13l-3.22,8.81c-.11.29-.31.55-.6.72Z"/>
            <path class="cls-24" d="M233.83,335.03c-.06.04-.12.08-.18.1-.39.18-.85.18-1.22-.06l-6.26-3.52-5.96,4.04c-.37.23-.81.29-1.21.14-.41-.14-.71-.49-.83-.9l-1.94-6.91-7.05-1.37c-.42-.08-.78-.37-.97-.76-.18-.37-.16-.84.05-1.21l3.53-6.27-4.02-5.96c-.24-.35-.3-.8-.15-1.21.1-.27.28-.49.52-.66.12-.06.24-.12.37-.16l6.92-1.95,1.37-7.05c.07-.35.27-.66.58-.86.06-.04.12-.08.18-.1.39-.18.84-.16,1.22.06l6.26,3.52,5.96-4.02c.37-.25.8-.29,1.21-.16.4.16.71.49.83.9l1.94,6.93,7.05,1.35c.42.08.78.37.97.76.18.39.16.84-.05,1.23l-3.53,6.25,3.92,5.8c.1.1.18.21.22.33.28.61.08,1.33-.48,1.68-.05.04-.11.08-.17.1l-.05.02c-.06.04-.12.06-.18.06l-6.91,1.95-1.37,7.05c-.08.35-.28.66-.58.86ZM225.36,328.88c.07-.04.13-.08.19-.1.39-.2.85-.18,1.23.04l5.36,3.01,1.17-6.04c.06-.35.27-.66.58-.86.12-.08.23-.14.37-.18l5.92-1.66-3.44-5.1c-.28-.43-.3-.98-.06-1.41l3.03-5.37-6.05-1.17c-.49-.1-.9-.47-1.04-.96l-1.66-5.92-5.1,3.44c-.43.29-.98.31-1.41.06l-5.37-3.01-1.17,6.04c-.06.37-.27.66-.58.88-.12.06-.23.12-.37.16l-5.93,1.66,3.45,5.12c.28.41.3.96.06,1.41l-3.02,5.35,6.04,1.17c.49.1.9.47,1.04.96l1.66,5.94,5.1-3.46h0Z"/>
            <path class="cls-24" d="M243.68,334.84c-.06.04-.11.08-.17.1-.23.1-.48.14-.72.12l-9.71-1.17-5.39,8.16c-.11.16-.23.27-.38.39-.21.12-.44.2-.68.2-.43.02-.85-.16-1.1-.49l-6.04-7.7-9.57,1.95c-.42.08-.87-.04-1.18-.33-.31-.29-.47-.7-.42-1.13l1.16-9.71-8.15-5.39c-.36-.23-.58-.62-.6-1.05-.02-.45.18-.86.51-1.13l7.69-6.02-1.96-9.59c-.08-.41.04-.86.33-1.17.08-.08.16-.16.25-.21.26-.18.58-.23.89-.21l9.71,1.17,5.38-8.14c.11-.16.23-.29.39-.39.2-.14.43-.21.68-.21.42-.02.84.18,1.1.51l6.04,7.68,9.57-1.95c.42-.08.86.04,1.18.33.31.29.47.72.42,1.15l-1.16,9.69,8.15,5.39c.36.23.59.64.6,1.07.02.43-.17.84-.51,1.11l-7.69,6.04,1.95,9.57c.08.43-.03.86-.32,1.17-.08.1-.17.16-.25.21ZM231.68,331.34c.26-.18.58-.25.89-.21l8.68,1.04-1.75-8.55c-.1-.51.09-1.02.49-1.33l6.88-5.41-7.29-4.8c-.42-.29-.65-.78-.6-1.29l1.04-8.67-8.56,1.76c-.51.1-1.01-.1-1.33-.49l-5.4-6.89-4.82,7.3c-.1.16-.23.27-.38.39-.26.18-.59.23-.9.2l-8.68-1.04,1.76,8.57c.11.49-.08,1-.49,1.33l-6.88,5.39,7.31,4.82c.42.27.64.76.59,1.27l-1.04,8.67,8.56-1.74c.5-.1,1.01.08,1.33.49l5.4,6.88,4.82-7.3c.1-.16.22-.27.38-.37Z"/>
          </g>
        </g>
        <g>
          <path class="cls-8" d="M370.25,288.41c-4.81,26.09-29.84,43.34-55.92,38.54-26.08-4.8-43.34-29.84-38.53-55.92,4.8-26.09,29.83-43.34,55.92-38.54,26.07,4.8,43.32,29.84,38.53,55.92Z"/>
          <path class="cls-11" d="M401.28,269.68c-5.91,32.01-36.64,53.18-68.66,47.29-32.01-5.9-53.18-36.64-47.29-68.65,5.9-32.03,36.64-53.2,68.66-47.29,32,5.88,53.18,36.62,47.29,68.65Z"/>
          <path class="cls-9" d="M397.81,289.98c-5.89,31.97-36.57,53.11-68.53,47.21-31.96-5.88-53.1-36.56-47.21-68.52,5.89-31.95,36.56-53.11,68.53-47.21,31.96,5.88,53.09,36.56,47.21,68.52Z"/>
          <g>
            <path class="cls-15" d="M357.98,240.56c-.1.06-.19.12-.29.16l-85.57,39.63c-.53.25-1.13.27-1.68.08-.56-.2-1-.61-1.24-1.13-.45-.98-.11-2.19.79-2.77.09-.06.18-.1.28-.16l85.57-39.63c1.1-.51,2.41-.04,2.92,1.07.46.98.12,2.15-.78,2.75Z"/>
            <path class="cls-15" d="M353.04,250.46c-.09.06-.18.12-.27.16-1.1.51-2.42.04-2.93-1.07l-5.8-12.54c-.46-.98-.12-2.17.78-2.75.1-.06.19-.12.29-.16,1.09-.51,2.4-.04,2.92,1.07l5.8,12.52c.46.98.12,2.19-.79,2.77Z"/>
            <path class="cls-15" d="M283.15,282.85c-.09.04-.19.1-.28.16-1.1.51-2.41.02-2.92-1.07l-5.81-12.54c-.45-.98-.12-2.17.79-2.75.09-.06.19-.12.28-.16,1.1-.51,2.41-.04,2.92,1.05l5.81,12.54c.45.98.12,2.17-.79,2.77Z"/>
            <path class="cls-15" d="M335.01,303.16c-.09.08-.19.12-.29.18-.53.23-1.12.27-1.67.06-.56-.2-.99-.61-1.24-1.13l-39.64-85.59c-.46-.98-.12-2.17.78-2.75.1-.06.19-.12.28-.16.54-.25,1.13-.27,1.68-.08.56.21,1,.61,1.24,1.15l39.65,85.57c.45.98.12,2.17-.79,2.75Z"/>
            <path class="cls-15" d="M337.65,292.42c-.08.06-.19.12-.28.18l-12.53,5.8c-.54.25-1.13.27-1.68.06-.56-.2-1-.61-1.25-1.13-.45-.98-.11-2.17.78-2.75.1-.06.2-.12.29-.16l12.54-5.82c.53-.23,1.13-.27,1.68-.06.55.2.99.61,1.24,1.13.44,1,.12,2.17-.79,2.75Z"/>
            <path class="cls-15" d="M305.27,222.53c-.08.06-.18.12-.28.16l-12.53,5.8c-.54.25-1.13.27-1.68.08-.55-.21-1-.61-1.24-1.15-.46-.98-.12-2.17.78-2.75.09-.06.19-.12.29-.16l12.53-5.8c.54-.25,1.13-.27,1.69-.08.55.2.99.61,1.23,1.13.46,1,.12,2.19-.79,2.77Z"/>
            <path class="cls-15" d="M298.96,304.64c-.1.06-.19.12-.28.16-.54.25-1.14.27-1.69.08-.55-.2-1-.61-1.24-1.13-.24-.55-.26-1.13-.06-1.7l32.47-88.54c.17-.45.46-.82.86-1.07.59-.39,1.31-.47,1.95-.21.57.2,1.01.59,1.25,1.13.24.53.27,1.13.07,1.68l-32.47,88.54c-.17.45-.46.82-.86,1.07Z"/>
            <path class="cls-15" d="M308.41,298.92c-.09.06-.19.12-.28.16-.53.25-1.13.27-1.68.08l-12.98-4.77c-.55-.2-.98-.61-1.23-1.13-.24-.55-.27-1.13-.07-1.68.17-.45.46-.84.86-1.09.59-.37,1.3-.47,1.96-.21l12.97,4.75c.55.21.99.61,1.24,1.15.24.53.27,1.11.07,1.68-.17.45-.46.82-.86,1.07Z"/>
            <path class="cls-15" d="M334.94,226.6c-.09.06-.19.12-.27.16-.54.25-1.13.27-1.69.08l-12.96-4.77c-1.13-.41-1.73-1.68-1.31-2.81.17-.45.46-.82.86-1.09.59-.39,1.31-.47,1.96-.21l12.96,4.75c.56.21,1,.61,1.24,1.15.24.53.26,1.11.07,1.68-.17.45-.46.82-.86,1.07Z"/>
            <path class="cls-15" d="M359.47,276.62c-.09.06-.2.12-.29.16-.53.25-1.12.27-1.68.08l-88.54-32.48c-.55-.2-1-.61-1.24-1.13-.24-.55-.26-1.13-.07-1.68.17-.45.47-.82.86-1.09.59-.39,1.31-.47,1.96-.23l88.54,32.48c.56.21,1,.62,1.24,1.15.25.53.27,1.13.07,1.68-.17.45-.46.82-.85,1.07Z"/>
            <path class="cls-15" d="M276.65,253.61c-.1.06-.19.12-.28.16-.53.25-1.13.27-1.68.06-.56-.2-.99-.61-1.24-1.13-.25-.55-.27-1.13-.07-1.68l4.76-12.97c.17-.45.46-.82.86-1.09.59-.39,1.3-.47,1.96-.21.55.2.99.61,1.24,1.13.24.53.27,1.13.07,1.68l-4.76,12.99c-.17.43-.46.8-.86,1.07Z"/>
            <path class="cls-15" d="M348.97,280.13c-.09.06-.19.12-.27.16-.54.25-1.13.27-1.69.06-.55-.2-1-.59-1.23-1.13-.25-.53-.27-1.13-.07-1.68l4.76-12.97c.16-.45.46-.82.86-1.07.59-.39,1.3-.47,1.96-.23.55.21.99.61,1.23,1.15.25.53.27,1.13.07,1.68l-4.75,12.97c-.18.45-.47.82-.87,1.07Z"/>
            <path class="cls-15" d="M326.11,284.02c-.08.06-.17.1-.25.14-.58.27-1.25.25-1.8-.06l-9.23-5.2-8.78,5.94c-.55.35-1.19.43-1.79.21s-1.05-.7-1.22-1.33l-2.87-10.2-10.39-2.01c-.62-.12-1.15-.53-1.42-1.11-.26-.57-.23-1.23.08-1.78l5.19-9.24-5.94-8.79c-.35-.53-.43-1.19-.21-1.78.15-.41.42-.74.77-.98.18-.12.36-.2.56-.25l10.2-2.85,2.01-10.41c.1-.51.41-.98.84-1.27.1-.06.18-.1.26-.14.58-.27,1.25-.23,1.81.08l9.23,5.18,8.78-5.92c.55-.37,1.18-.45,1.79-.21.59.21,1.05.7,1.22,1.31l2.86,10.2,10.39,2.01c.62.12,1.14.55,1.42,1.11.27.59.24,1.25-.07,1.8l-5.21,9.24,5.79,8.54c.14.16.24.33.33.51.41.88.11,1.93-.7,2.46-.08.06-.17.12-.25.16l-.07.04c-.08.02-.17.06-.25.08l-10.2,2.85-2.02,10.41c-.11.53-.41,1-.85,1.27ZM313.63,274.96c.09-.08.18-.12.26-.16.58-.27,1.26-.25,1.81.06l7.91,4.45,1.72-8.91c.11-.53.42-1,.86-1.27.17-.12.35-.2.55-.25l8.74-2.46-5.08-7.52c-.42-.61-.46-1.43-.09-2.07l4.44-7.91-8.91-1.72c-.72-.14-1.33-.68-1.53-1.41l-2.44-8.73-7.52,5.08c-.63.41-1.43.45-2.08.08l-7.9-4.45-1.74,8.93c-.09.53-.4.98-.84,1.27-.18.12-.36.2-.55.25l-8.75,2.44,5.09,7.52c.42.62.46,1.43.09,2.07l-4.44,7.91,8.91,1.72c.72.16,1.32.7,1.52,1.41l2.45,8.75,7.51-5.08h0Z"/>
            <path class="cls-15" d="M340.62,283.75c-.08.04-.17.08-.24.12-.34.16-.7.23-1.07.18l-14.3-1.72-7.94,12.01c-.16.23-.34.43-.57.59-.29.2-.64.31-1,.31-.63.02-1.25-.25-1.64-.74l-8.9-11.35-14.12,2.89c-.62.14-1.26-.06-1.73-.49-.47-.43-.7-1.05-.62-1.68l1.72-14.3-12.02-7.95c-.54-.35-.86-.94-.89-1.56-.02-.64.25-1.25.75-1.64l11.32-8.89-2.87-14.12c-.14-.62.05-1.27.48-1.74.12-.12.23-.21.37-.31.39-.25.86-.35,1.32-.31l14.31,1.72,7.94-12.01c.15-.23.33-.41.56-.57.3-.2.65-.31,1.01-.31.63-.04,1.24.23,1.64.74l8.9,11.33,14.11-2.89c.62-.12,1.27.06,1.74.49.47.43.7,1.05.62,1.7l-1.72,14.3,12.02,7.93c.53.35.86.94.88,1.58.03.62-.24,1.23-.75,1.62l-11.33,8.91,2.89,14.1c.12.62-.06,1.29-.49,1.74-.11.14-.23.23-.37.33ZM322.94,278.57c.39-.25.86-.37,1.32-.31l12.79,1.54-2.58-12.64c-.17-.72.13-1.46.71-1.95l10.14-7.95-10.76-7.11c-.62-.41-.96-1.15-.87-1.88l1.54-12.81-12.63,2.6c-.74.14-1.48-.14-1.95-.72l-7.97-10.14-7.09,10.76c-.16.21-.35.41-.57.57-.39.25-.86.35-1.33.29l-12.79-1.52,2.58,12.62c.16.74-.12,1.48-.7,1.95l-10.16,7.97,10.77,7.09c.63.43.97,1.15.87,1.89l-1.53,12.79,12.63-2.58c.73-.16,1.46.12,1.94.7l7.97,10.14,7.1-10.74c.16-.23.34-.43.57-.57Z"/>
          </g>
          <g>
            <path class="cls-24" d="M359.1,240.56c-.09.06-.19.12-.28.16l-85.58,39.63c-.53.25-1.12.27-1.68.08-.55-.2-.99-.61-1.24-1.13-.46-.98-.13-2.19.79-2.77.09-.06.19-.1.28-.16l85.58-39.63c1.09-.51,2.4-.04,2.91,1.07.46.98.12,2.15-.78,2.75Z"/>
            <path class="cls-24" d="M354.16,250.46c-.1.06-.19.12-.29.16-1.1.51-2.4.04-2.91-1.07l-5.81-12.54c-.45-.98-.12-2.17.79-2.75.09-.06.19-.12.28-.16,1.09-.51,2.4-.04,2.92,1.07l5.8,12.52c.46.98.12,2.19-.78,2.77Z"/>
            <path class="cls-24" d="M284.27,282.85c-.1.04-.2.1-.29.16-1.1.51-2.41.02-2.92-1.07l-5.81-12.54c-.45-.98-.12-2.17.78-2.75.1-.06.2-.12.29-.16,1.1-.51,2.41-.04,2.93,1.05l5.79,12.54c.46.98.12,2.17-.77,2.77Z"/>
            <path class="cls-24" d="M336.13,303.16c-.1.08-.19.12-.29.18-.52.23-1.12.27-1.67.06-.55-.2-.99-.61-1.24-1.13l-39.64-85.59c-.46-.98-.12-2.17.79-2.75.09-.06.19-.12.27-.16.54-.25,1.13-.27,1.68-.08.56.21,1,.61,1.25,1.15l39.64,85.57c.45.98.11,2.17-.79,2.75Z"/>
            <path class="cls-24" d="M338.76,292.42c-.09.06-.18.12-.29.18l-12.52,5.8c-.54.25-1.13.27-1.69.06-.55-.2-.99-.61-1.24-1.13-.45-.98-.11-2.17.8-2.75.08-.06.18-.12.27-.16l12.54-5.82c.53-.23,1.12-.27,1.68-.06.55.2.99.61,1.23,1.13.46,1,.13,2.17-.78,2.75Z"/>
            <path class="cls-24" d="M306.38,222.53c-.09.06-.18.12-.27.16l-12.54,5.8c-.53.25-1.13.27-1.68.08-.55-.21-.99-.61-1.24-1.15-.46-.98-.11-2.17.79-2.75.09-.06.18-.12.28-.16l12.53-5.8c.53-.25,1.13-.27,1.68-.08.56.2,1,.61,1.24,1.13.46,1,.12,2.19-.79,2.77Z"/>
            <path class="cls-24" d="M300.07,304.64c-.1.06-.2.12-.28.16-.54.25-1.13.27-1.69.08-.55-.2-.99-.61-1.23-1.13-.25-.55-.27-1.13-.07-1.7l32.47-88.54c.17-.45.47-.82.86-1.07.6-.39,1.31-.47,1.96-.21.56.2,1,.59,1.24,1.13.24.53.27,1.13.07,1.68l-32.48,88.54c-.16.45-.46.82-.85,1.07Z"/>
            <path class="cls-24" d="M309.53,298.92c-.09.06-.2.12-.28.16-.53.25-1.13.27-1.68.08l-12.97-4.77c-.55-.2-.99-.61-1.24-1.13-.24-.55-.26-1.13-.07-1.68.17-.45.47-.84.86-1.09.6-.37,1.3-.47,1.96-.21l12.97,4.75c.56.21,1,.61,1.24,1.15.24.53.26,1.11.07,1.68-.17.45-.46.82-.86,1.07Z"/>
            <path class="cls-24" d="M336.05,226.6c-.09.06-.18.12-.28.16-.53.25-1.12.27-1.68.08l-12.96-4.77c-1.14-.41-1.73-1.68-1.31-2.81.17-.45.46-.82.86-1.09.59-.39,1.3-.47,1.95-.21l12.98,4.75c.55.21.99.61,1.24,1.15.23.53.26,1.11.06,1.68-.16.45-.46.82-.86,1.07Z"/>
            <path class="cls-24" d="M360.58,276.62c-.09.06-.19.12-.29.16-.53.25-1.12.27-1.68.08l-88.54-32.48c-.55-.2-1-.61-1.23-1.13-.25-.55-.27-1.13-.08-1.68.18-.45.46-.82.86-1.09.6-.39,1.31-.47,1.96-.23l88.55,32.48c.55.21.99.62,1.23,1.15.25.53.27,1.13.07,1.68-.16.45-.46.82-.85,1.07Z"/>
            <path class="cls-24" d="M277.77,253.61c-.1.06-.19.12-.28.16-.53.25-1.12.27-1.68.06-.56-.2-1-.61-1.24-1.13-.25-.55-.27-1.13-.07-1.68l4.76-12.97c.16-.45.47-.82.86-1.09.59-.39,1.3-.47,1.96-.21.56.2,1,.61,1.24,1.13.24.53.27,1.13.07,1.68l-4.76,12.99c-.17.43-.46.8-.86,1.07Z"/>
            <path class="cls-24" d="M350.09,280.13c-.1.06-.2.12-.28.16-.53.25-1.13.27-1.68.06-.56-.2-1-.59-1.24-1.13-.25-.53-.27-1.13-.08-1.68l4.77-12.97c.17-.45.46-.82.86-1.07.59-.39,1.3-.47,1.96-.23.56.21.99.61,1.23,1.15.25.53.27,1.13.07,1.68l-4.76,12.97c-.16.45-.46.82-.85,1.07Z"/>
            <path class="cls-24" d="M327.22,284.02c-.08.06-.17.1-.25.14-.57.27-1.24.25-1.8-.06l-9.23-5.2-8.78,5.94c-.55.35-1.2.43-1.78.21-.61-.21-1.05-.7-1.23-1.33l-2.86-10.2-10.4-2.01c-.62-.12-1.15-.53-1.42-1.11-.26-.57-.24-1.23.07-1.78l5.2-9.24-5.93-8.79c-.36-.53-.44-1.19-.21-1.78.15-.41.41-.74.77-.98.17-.12.35-.2.54-.25l10.2-2.85,2.01-10.41c.1-.51.41-.98.86-1.27.08-.06.16-.1.25-.14.57-.27,1.24-.23,1.8.08l9.23,5.18,8.78-5.92c.55-.37,1.18-.45,1.79-.21.6.21,1.04.7,1.22,1.31l2.85,10.2,10.4,2.01c.62.12,1.15.55,1.43,1.11.26.59.23,1.25-.08,1.8l-5.19,9.24,5.77,8.54c.14.16.24.33.33.51.41.88.11,1.93-.7,2.46-.08.06-.17.12-.25.16l-.07.04c-.08.02-.17.06-.25.08l-10.2,2.85-2.01,10.41c-.11.53-.43,1-.86,1.27ZM314.74,274.96c.09-.08.18-.12.27-.16.57-.27,1.24-.25,1.8.06l7.91,4.45,1.72-8.91c.1-.53.41-1,.86-1.27.17-.12.35-.2.55-.25l8.74-2.46-5.09-7.52c-.41-.61-.44-1.43-.08-2.07l4.45-7.91-8.92-1.72c-.73-.14-1.33-.68-1.52-1.41l-2.45-8.73-7.52,5.08c-.63.41-1.43.45-2.07.08l-7.91-4.45-1.73,8.93c-.1.53-.41.98-.85,1.27-.18.12-.35.2-.55.25l-8.74,2.44,5.08,7.52c.42.62.46,1.43.09,2.07l-4.45,7.91,8.92,1.72c.72.16,1.32.7,1.52,1.41l2.45,8.75,7.52-5.08h0Z"/>
            <path class="cls-24" d="M341.74,283.75c-.09.04-.17.08-.26.12-.32.16-.69.23-1.05.18l-14.32-1.72-7.93,12.01c-.16.23-.34.43-.57.59-.29.2-.64.31-1.01.31-.63.02-1.24-.25-1.63-.74l-8.91-11.35-14.1,2.89c-.62.14-1.28-.06-1.74-.49-.47-.43-.69-1.05-.62-1.68l1.72-14.3-12.02-7.95c-.54-.35-.86-.94-.89-1.56-.02-.64.26-1.25.76-1.64l11.32-8.89-2.88-14.12c-.13-.62.04-1.27.48-1.74.12-.12.24-.21.38-.31.38-.25.84-.35,1.31-.31l14.31,1.72,7.94-12.01c.15-.23.34-.41.57-.57.29-.2.64-.31,1-.31.63-.04,1.25.23,1.64.74l8.91,11.33,14.1-2.89c.62-.12,1.27.06,1.74.49.47.43.7,1.05.62,1.7l-1.72,14.3,12.02,7.93c.53.35.86.94.89,1.58.02.62-.25,1.23-.76,1.62l-11.33,8.91,2.88,14.1c.14.62-.05,1.29-.48,1.74-.11.14-.23.23-.36.33ZM324.06,278.57c.39-.25.86-.37,1.32-.31l12.79,1.54-2.58-12.64c-.15-.72.13-1.46.72-1.95l10.13-7.95-10.75-7.11c-.62-.41-.97-1.15-.88-1.88l1.53-12.81-12.62,2.6c-.74.14-1.48-.14-1.95-.72l-7.95-10.14-7.12,10.76c-.15.21-.34.41-.57.57-.38.25-.85.35-1.31.29l-12.8-1.52,2.58,12.62c.17.74-.11,1.48-.7,1.95l-10.14,7.97,10.76,7.09c.61.43.96,1.15.86,1.89l-1.53,12.79,12.63-2.58c.73-.16,1.48.12,1.94.7l7.97,10.14,7.1-10.74c.16-.23.34-.43.57-.57Z"/>
          </g>
        </g>
        <g>
          <g class="cls-12">
            <path class="cls-16" d="M333.8,208.32c17.35-30.39-.34-71.86-8.71-93.48-6.31-16.31-27.27-38.54-43.65-46.74-16.42-8.18-22.62-16.87-45.02-19.12-29.18-2.93-67.93,19.37-91.63,25.7-25.61,6.86-69.51,27.83-93.38,54-27.92,30.61-28.56,54.94-21.04,72.75,8.02,19.02,21.37,29.47,29.6,36.91s17.33,14.02,27.47,18.89c19.4,9.3,36.24,8.83,50.72,9.84,11,.76,39.35,3.07,67.94-2.91,20.28-4.22,38.61-7.27,49.04-10.51,22.08-6.86,64.16-19.98,78.65-45.35Z"/>
            <path class="cls-19" d="M330.66,206.95c17.35-29.44.55-69.52-7.77-90.49-6.38-15.94-26.42-37.14-42.65-45.22-16.07-7.98-21.39-18.4-43.98-21.21-28.83-3.59-67.75,19.84-91.22,26.15-25.43,6.85-68.9,27.35-91.94,52.56-26.95,29.48-29.06,53.74-21.26,71.69,8.05,18.52,21.37,28.21,29.89,35.44s17.58,13.38,27.67,17.99c19.53,8.93,35.86,7.65,49.9,8.76,10.84.86,38.55,3.58,67.14-2.32,20.41-4.18,37.86-7.41,47.99-10.38,21.43-6.29,61.91-18.49,76.23-42.97Z"/>
            <path class="cls-29" d="M327.51,205.57c17.27-28.54,1.5-67.21-6.83-87.51-6.4-15.6-25.58-35.75-41.64-43.71-15.72-7.77-20.16-19.91-42.94-23.29-28.47-4.23-67.56,20.31-90.82,26.59-25.26,6.85-68.3,26.87-90.5,51.12-25.97,28.35-29.57,52.54-21.48,70.63s21.37,26.95,30.19,33.96,17.82,12.73,27.86,17.1c19.65,8.55,35.48,6.46,49.08,7.68,10.69.96,37.75,4.09,66.34-1.73,20.54-4.15,37.1-7.56,46.93-10.26,20.77-5.72,59.58-17.05,73.82-40.58Z"/>
            <path class="cls-4" d="M324.37,204.2c17.22-27.61,2.42-64.89-5.9-84.53-6.45-15.24-24.73-34.36-40.64-42.19-15.37-7.57-18.92-21.41-41.89-25.38-28.11-4.85-67.38,20.77-90.41,27.04-25.08,6.84-67.69,26.4-89.06,49.67-25,27.22-30.08,51.35-21.71,69.57s21.36,25.69,30.48,32.49c8.64,6.44,18.07,12.08,28.05,16.21,19.78,8.18,35.1,5.28,48.26,6.6,10.54,1.05,36.94,4.6,65.54-1.14,20.67-4.11,36.35-7.7,45.87-10.13,20.12-5.16,57.29-15.58,71.4-38.19Z"/>
            <path class="cls-36" d="M321.22,202.83c17.19-26.69,3.33-62.57-4.96-81.55-6.5-14.89-23.89-32.97-39.63-40.68-15.02-7.37-17.69-22.9-40.85-27.46-27.75-5.46-67.19,21.24-90.01,27.48-24.91,6.84-67.08,25.92-87.61,48.23-24.02,26.09-30.6,50.15-21.93,68.51,8.05,17.05,21.34,24.44,30.77,31.01,8.76,6.11,18.32,11.43,28.25,15.31,19.92,7.8,34.71,4.11,47.45,5.51,10.4,1.15,36.14,5.12,64.74-.55,20.8-4.08,35.59-7.85,44.81-10.01,19.47-4.59,55-14.11,68.98-35.81Z"/>
            <path class="cls-38" d="M318.08,201.46c17.15-25.76,4.24-60.24-4.02-78.56-6.55-14.53-23.04-31.58-38.63-39.16-14.67-7.16-16.45-24.39-39.81-29.55-27.38-6.05-67.01,21.7-89.6,27.93-24.73,6.84-66.47,25.44-86.17,46.78-23.05,24.96-31.13,48.96-22.16,67.45,8.03,16.56,21.32,23.19,31.06,29.53,8.88,5.79,18.57,10.77,28.44,14.42,20.06,7.41,34.33,2.93,46.63,4.43,10.25,1.25,35.34,5.63,63.94.04,20.93-4.04,34.84-8,43.75-9.88,18.81-4.03,52.72-12.64,66.56-33.42Z"/>
            <path class="cls-18" d="M314.94,200.09c17.12-24.83,5.15-57.92-3.08-75.58-6.61-14.17-22.2-30.19-37.63-37.65-14.32-6.96-15.21-25.86-38.77-31.63-27.02-6.62-66.83,22.17-89.19,28.37-24.56,6.83-65.86,24.96-84.73,45.34-22.07,23.84-31.66,47.77-22.38,66.39,8.01,16.08,21.3,21.94,31.36,28.06,8.99,5.47,18.83,10.11,28.64,13.52,20.2,7.02,33.95,1.76,45.81,3.35,10.1,1.35,34.54,6.14,63.14.63,21.06-4.01,34.08-8.14,42.7-9.76,18.16-3.46,50.44-11.17,64.14-31.04Z"/>
            <path class="cls-34" d="M311.79,198.72c17.1-23.9,6.06-55.6-2.15-72.6-6.67-13.82-21.35-28.8-36.62-36.13-13.96-6.75-13.97-27.32-37.72-33.72-26.66-7.18-66.64,22.64-88.79,28.82-24.38,6.83-65.26,24.48-83.29,43.89-21.1,22.71-32.2,46.58-22.61,65.33,7.97,15.6,21.27,20.69,31.65,26.58,9.09,5.15,19.08,9.45,28.83,12.63,20.34,6.63,33.57.6,44.99,2.27,9.95,1.46,33.74,6.65,62.34,1.22,21.19-3.97,33.33-8.29,41.64-9.64,17.51-2.9,48.17-9.7,61.73-28.65Z"/>
            <path class="cls-37" d="M308.65,197.35c17.08-22.97,6.96-53.27-1.21-69.61-6.72-13.46-20.51-27.41-35.62-34.62-13.61-6.55-12.73-28.76-36.68-35.8-26.3-7.73-66.46,23.1-88.38,29.26-24.21,6.83-64.65,24-81.85,42.45-20.13,21.58-32.74,45.39-22.83,64.27,7.93,15.12,21.23,19.46,31.94,25.11,9.19,4.85,19.34,8.79,29.03,11.74,20.49,6.23,33.19-.57,44.17,1.18,9.8,1.56,32.94,7.17,61.54,1.81,21.32-3.94,32.58-8.43,40.58-9.51,16.85-2.33,45.9-8.23,59.31-26.27Z"/>
            <path class="cls-26" d="M305.5,195.98c17.06-22.04,7.86-50.94-.27-66.63-6.79-13.1-19.66-26.02-34.61-33.1-13.26-6.34-11.5-30.2-35.64-37.89-25.95-8.26-66.28,23.57-87.97,29.7-24.04,6.82-64.04,23.52-80.41,41-19.15,20.45-33.29,44.2-23.06,63.21,7.88,14.65,21.19,18.22,32.24,23.63,9.29,4.55,19.59,8.12,29.22,10.84,20.63,5.83,32.81-1.72,43.35.1,9.66,1.67,32.14,7.68,60.74,2.4,21.45-3.9,31.82-8.56,39.52-9.39,16.2-1.73,43.63-6.75,56.89-23.88Z"/>
            <path class="cls-22" d="M302.36,194.61c17.05-21.11,8.75-48.62.67-63.65-6.85-12.74-18.83-24.6-33.61-31.59-12.93-6.11-10.26-31.63-34.6-39.97-25.59-8.78-66.09,24.03-87.57,30.15-23.86,6.82-63.43,23.04-78.97,39.56-18.18,19.32-33.85,43.02-23.28,62.15,7.83,14.18,21.15,17,32.53,22.15,9.38,4.25,19.85,7.46,29.41,9.95,20.78,5.42,32.43-2.88,42.53-.98,9.51,1.79,31.34,8.19,59.95,2.99,21.58-3.87,31.07-8.71,38.46-9.26,15.55-1.16,41.37-5.28,54.47-21.5Z"/>
            <path class="cls-17" d="M299.21,193.24c17.04-20.17,9.64-46.29,1.61-60.67-6.92-12.38-17.99-23.21-32.6-30.07-12.58-5.91-9.04-33.04-33.56-42.06-25.24-9.29-65.91,24.5-87.16,30.59-23.69,6.81-62.83,22.56-77.53,38.12-17.2,18.2-34.41,41.84-23.51,61.09,7.77,13.71,21.1,15.78,32.82,20.68,9.47,3.96,20.11,6.79,29.61,9.06,20.93,5,32.05-4.03,41.71-2.06,9.36,1.9,30.54,8.7,59.15,3.58,21.71-3.83,30.31-8.85,37.41-9.14,14.89-.6,39.12-3.8,52.05-19.11Z"/>
            <path class="cls-40" d="M296.07,191.87c17.05-19.23,10.52-43.96,2.54-57.68-6.99-12.02-17.14-21.82-31.6-28.56-12.23-5.7-7.81-34.44-32.51-44.14s-65.73,24.97-86.75,31.04c-23.51,6.81-62.22,22.08-76.09,36.67-16.23,17.07-34.99,40.67-23.73,60.03,7.7,13.24,21.05,14.57,33.12,19.2,9.56,3.67,20.37,6.11,29.8,8.16,21.09,4.58,31.67-5.17,40.89-3.15s29.74,9.22,58.35,4.17c21.83-3.79,29.56-8.96,36.35-9.01,14.24-.11,36.87-2.32,49.63-16.72Z"/>
            <path class="cls-3" d="M292.92,190.49c17.05-18.29,11.41-41.62,3.48-54.7-7.06-11.66-16.3-20.43-30.59-27.04-11.88-5.5-6.59-35.83-31.47-46.23-24.56-10.27-65.54,25.43-86.35,31.48-23.34,6.81-61.61,21.61-74.64,35.23-15.25,15.94-35.57,39.5-23.96,58.97,7.63,12.78,21,13.36,33.41,17.73,9.65,3.39,20.63,5.44,30,7.27,21.24,4.15,31.29-6.31,40.07-4.23s28.94,9.73,57.55,4.76c21.96-3.76,28.8-9.14,35.29-8.89,13.58.54,34.62-.83,47.22-14.34Z"/>
            <path class="cls-21" d="M289.78,189.12c17.07-17.34,12.28-39.29,4.42-51.72-7.14-11.3-15.45-19.04-29.59-25.53-11.53-5.29-5.38-37.21-30.43-48.31s-65.36,25.9-85.94,31.93c-23.16,6.8-61,21.13-73.2,33.78-14.28,14.81-36.17,38.34-24.18,57.91,7.55,12.33,20.95,12.17,33.7,16.25,9.74,3.12,20.89,4.76,30.19,6.37,21.4,3.72,30.9-7.44,39.25-5.31,8.91,2.28,28.14,10.24,56.75,5.35,22.09-3.72,28.05-9.29,34.23-8.76,12.93,1.1,32.38.66,44.8-11.95Z"/>
            <path class="cls-20" d="M286.64,187.75c17.09-16.38,13.15-36.95,5.36-48.74-7.23-10.93-14.61-17.65-28.59-24.01-11.18-5.09-4.18-38.58-29.39-50.4-23.9-11.21-65.17,26.36-85.53,32.37-22.99,6.8-60.39,20.65-71.76,32.34-13.31,13.68-36.77,37.19-24.4,56.85,7.47,11.87,20.89,10.98,33.99,14.77,9.83,2.85,21.15,4.07,30.39,5.48,21.55,3.28,30.52-8.57,38.43-6.4,8.76,2.41,27.34,10.75,55.95,5.93,22.22-3.69,27.29-9.44,33.17-8.64,12.27,1.67,30.14,2.16,42.38-9.57Z"/>
            <path class="cls-35" d="M283.49,186.38c17.12-15.41,14.02-34.6,6.3-45.75-7.31-10.56-13.76-16.26-27.58-22.5-10.82-4.89-2.98-39.94-28.35-52.48-23.58-11.67-64.99,26.83-85.13,32.82-22.82,6.8-59.79,20.17-70.32,30.89-12.33,12.55-37.38,36.04-24.63,55.79,7.38,11.43,20.84,9.79,34.29,13.3,9.92,2.58,21.41,3.39,30.58,4.59,21.71,2.83,30.13-9.7,37.61-7.48,8.61,2.55,26.54,11.27,55.15,6.52,22.35-3.65,26.53-9.58,32.12-8.51,11.62,2.23,27.91,3.66,39.96-7.18Z"/>
            <path class="cls-39" d="M280.35,185.01c17.16-14.43,14.88-32.26,7.23-42.77-7.41-10.18-12.9-14.9-26.58-20.98-10.46-4.71-1.79-41.29-27.3-54.57-23.27-12.12-64.81,27.3-84.72,33.26-22.64,6.79-59.18,19.69-68.88,29.45-11.36,11.43-38.01,34.9-24.85,54.73,7.29,10.98,20.79,8.62,34.58,11.82,10,2.32,21.67,2.7,30.78,3.69,21.86,2.38,29.74-10.81,36.79-8.56,8.45,2.7,25.74,11.78,54.35,7.11,22.48-3.62,25.78-9.73,31.06-8.39,10.96,2.79,25.69,5.17,37.54-4.8Z"/>
            <path class="cls-30" d="M277.2,183.64c17.21-13.44,15.74-29.9,8.17-39.79s-12.06-13.51-25.57-19.47c-10.11-4.5-.61-42.62-26.26-56.65-22.96-12.56-64.62,27.76-84.32,33.71-22.47,6.79-58.57,19.21-67.44,28.01-10.38,10.3-38.65,33.78-25.08,53.67,7.19,10.54,20.74,7.45,34.87,10.35,10.09,2.07,21.93,2.01,30.97,2.8,22.02,1.92,29.35-11.93,35.97-9.64,8.29,2.86,24.94,12.29,53.55,7.7,22.61-3.58,25.02-9.88,30-8.26,10.31,3.35,23.47,6.69,35.13-2.41Z"/>
            <path class="cls-41" d="M274.06,182.27c17.26-12.43,16.6-27.55,9.11-36.81s-11.21-12.12-24.57-17.95c-9.76-4.3.56-43.95-25.22-58.74-22.66-13-64.44,28.23-83.91,34.15-22.29,6.78-57.96,18.73-66,26.56-9.41,9.17-39.3,32.66-25.3,52.61,7.09,10.1,20.68,6.29,35.17,8.87,10.19,1.81,22.19,1.32,31.16,1.9,22.17,1.45,28.96-13.03,35.15-10.73,8.13,3.03,24.14,12.8,52.75,8.29,22.74-3.55,24.27-10.03,28.94-8.14,9.66,3.91,21.25,8.22,32.71-.03Z"/>
            <path class="cls-27" d="M270.91,180.9c17.32-11.4,17.44-25.18,10.05-33.82s-10.37-10.73-23.56-16.44c-9.41-4.09,1.72-45.27-24.18-60.82-22.37-13.44-64.26,28.69-83.5,34.59-22.12,6.78-57.36,18.25-64.56,25.12-8.44,8.04-39.97,31.56-25.53,51.55,6.99,9.67,20.63,5.14,35.46,7.39,10.28,1.56,22.45.62,31.36,1.01,22.32.97,28.56-14.14,34.34-11.81,7.95,3.21,23.34,13.32,51.95,8.88,22.87-3.51,23.52-10.19,27.88-8.02,9.01,4.45,19.04,9.76,30.29,2.36Z"/>
            <path class="cls-32" d="M267.77,179.53c17.38-10.35,18.29-22.81,10.99-30.84-7.83-8.61-9.52-9.34-22.56-14.92-9.06-3.89,2.87-46.58-23.13-62.91-22.09-13.87-64.07,29.16-83.1,35.04-21.94,6.78-56.75,17.77-63.12,23.67-7.46,6.91-40.64,30.47-25.75,50.49,6.88,9.24,20.59,4,35.75,5.92,10.37,1.33,22.71-.08,31.55.12,22.47.47,28.15-15.23,33.52-12.89,7.77,3.4,22.54,13.83,51.15,9.47,23-3.48,22.76-10.33,26.83-7.89,8.36,5.02,16.83,11.31,27.87,4.75Z"/>
          </g>
          <path class="cls-15" d="M268.63,133.36c1.73-6.23,2.67-12.77,2.67-19.55,0-40.33-32.7-73.05-73.04-73.05-34.15,0-62.82,23.46-70.81,55.12-.74-.04-1.48-.06-2.23-.06-15.97,0-29.99,8.22-38.12,20.66-4.17-1.72-8.73-2.68-13.52-2.68-19.55,0-35.38,15.84-35.38,35.37s15.83,35.39,35.38,35.39c8.59,0,16.47-3.09,22.61-8.18,7.88,6.52,17.99,10.45,29.02,10.45,12.31,0,23.48-4.88,31.67-12.83,11.77,8.09,26.01,12.83,41.37,12.83,14.03,0,27.13-3.95,38.26-10.82,5.05,6.33,12.81,10.39,21.53,10.39,15.23,0,27.58-12.34,27.58-27.58,0-11.48-7.02-21.33-17-25.47Z"/>
          <path class="cls-31" d="M269.67,134.41c1.73-6.23,2.68-12.77,2.68-19.55,0-40.35-32.71-73.05-73.04-73.05-34.16,0-62.83,23.46-70.82,55.12-.73-.04-1.47-.06-2.22-.06-15.97,0-30,8.22-38.12,20.66-4.17-1.72-8.73-2.68-13.53-2.68-19.54,0-35.38,15.84-35.38,35.37s15.84,35.39,35.38,35.39c8.6,0,16.48-3.09,22.62-8.18,7.87,6.52,17.99,10.45,29.02,10.45,12.31,0,23.48-4.9,31.67-12.85,11.76,8.11,26.01,12.85,41.37,12.85,14.02,0,27.13-3.96,38.25-10.82,5.06,6.33,12.82,10.39,21.54,10.39,15.22,0,27.58-12.34,27.58-27.58,0-11.48-7.02-21.33-17.01-25.47Z"/>
        </g>
        <g>
          <g class="cls-12">
            <path class="cls-16" d="M468.9,230.05c21.46-18.14,17.61-74.43,6.65-89.47-14.4-19.79-29.7-31.82-42.86-38.4-13.18-6.6-50.24-12.3-67.08-12.3-23.55,0-46.68,5.7-65.72,10.8-20.56,5.51-60.93,20.29-80.1,41.31-22.41,24.57-2.64,73.44,3.08,80.61,10.7,13.42,23.66,26.72,39.94,34.53,15.58,7.46,29.1,7.09,40.72,7.91,8.84.61,48.05,4.98,71.02.18,16.28-3.38,43.87-8.42,51.73-12.3,7.33-3.63,25.49-8.34,42.63-22.85Z"/>
            <path class="cls-19" d="M465.43,228.21c21.15-17.59,17.6-72,6.78-87.21-14.15-19.83-29.32-31.19-42.36-37.68-12.9-6.44-48.33-12.12-64.97-12.3-22.96-.15-46,5.32-64.87,10.4-20.42,5.51-60.33,20.3-78.83,40.54-21.63,23.66-3.13,71.22,2.93,78.77,10.38,12.99,22.62,26.17,38.94,33.79,15.4,7.23,28.72,6.61,40,7.48,8.71.71,46.57,5.57,69.54.83,16.38-3.35,42.95-8.83,50.59-12.62,7.29-3.63,25.22-7.87,42.25-22.01Z"/>
            <path class="cls-29" d="M461.97,226.36c20.84-17.04,17.6-69.57,6.91-84.95-13.9-19.88-28.95-30.57-41.86-36.95-12.62-6.27-46.41-12-62.86-12.29-22.37-.39-45.32,4.93-64.01,10-20.28,5.5-59.73,20.31-77.56,39.78-20.85,22.76-3.61,68.98,2.78,76.93,10.08,12.54,21.6,25.59,37.94,33.05,15.24,6.96,28.35,6.08,39.27,7.05,8.6.77,45.09,6.16,68.06,1.48,16.49-3.32,42.03-9.24,49.46-12.94,7.24-3.63,24.96-7.41,41.87-21.16Z"/>
            <path class="cls-4" d="M458.5,224.51c20.56-16.44,17.63-67.16,7.04-82.68-13.6-19.96-28.58-29.95-41.35-36.23-12.34-6.1-44.49-11.85-60.75-12.28-21.78-.57-44.64,4.55-63.15,9.59-20.14,5.5-59.14,20.32-76.3,39.02-20.07,21.85-4.09,66.75,2.64,75.1,9.76,12.11,20.57,25.02,36.94,32.31,15.07,6.71,27.98,5.57,38.54,6.62,8.47.84,43.61,6.74,66.58,2.13,16.59-3.3,41.11-9.65,48.32-13.25,7.19-3.63,24.72-6.9,41.5-20.31Z"/>
            <path class="cls-36" d="M455.03,222.67c20.26-15.87,17.63-64.73,7.17-80.42-13.34-20.01-28.2-29.33-40.85-35.51-12.06-5.94-42.57-11.69-58.65-12.27-21.19-.76-43.97,4.16-62.29,9.19-19.99,5.5-58.54,20.33-75.03,38.25-19.29,20.95-4.57,64.52,2.49,73.26,9.44,11.68,19.54,24.46,35.94,31.57,14.9,6.46,27.6,5.06,37.82,6.19,8.36.92,42.13,7.33,65.1,2.78,16.7-3.27,40.2-10.05,47.18-13.57,7.15-3.61,24.47-6.42,41.12-19.47Z"/>
            <path class="cls-38" d="M451.56,220.82c19.95-15.3,17.63-62.3,7.3-78.16-13.07-20.06-27.83-28.71-40.35-34.79-11.78-5.77-40.65-11.53-56.54-12.26-20.59-.94-43.29,3.78-61.44,8.79-19.85,5.49-57.94,20.34-73.76,37.49-18.5,20.04-5.06,62.3,2.34,71.43,9.12,11.24,18.51,23.89,34.94,30.82,14.72,6.21,27.23,4.56,37.09,5.76,8.24,1,40.65,7.92,63.63,3.43,16.8-3.24,39.28-10.45,46.05-13.89,7.11-3.6,24.21-5.94,40.74-18.62Z"/>
            <path class="cls-18" d="M448.1,218.97c19.65-14.74,17.64-59.87,7.43-75.9-12.81-20.12-27.47-28.06-39.85-34.07-11.51-5.59-38.72-11.37-54.43-12.25-20-1.11-42.61,3.39-60.58,8.38-19.71,5.49-57.35,20.35-72.5,36.72-17.72,19.14-5.55,60.07,2.2,69.59,8.8,10.82,17.47,23.33,33.94,30.08,14.55,5.97,26.85,4.05,36.36,5.33,8.12,1.09,39.17,8.51,62.15,4.08,16.9-3.21,38.36-10.86,44.91-14.2,7.06-3.6,23.95-5.46,40.36-17.77Z"/>
            <path class="cls-34" d="M444.63,217.12c19.34-14.17,17.64-57.44,7.56-73.63-12.55-20.17-27.09-27.43-39.35-33.35-11.23-5.42-36.8-11.21-52.32-12.24-19.4-1.29-41.93,3.01-59.72,7.98-19.57,5.49-56.75,20.36-71.23,35.96-16.94,18.23-6.03,57.84,2.05,67.75s16.44,22.77,32.94,29.34c14.38,5.72,26.48,3.56,35.63,4.9,8,1.17,37.7,9.1,60.67,4.73,17.01-3.18,37.44-11.27,43.78-14.52,7.02-3.6,23.69-4.98,39.99-16.93Z"/>
            <path class="cls-37" d="M441.16,215.28c19.03-13.61,17.64-55.01,7.69-71.37-12.29-20.22-26.72-26.81-38.84-32.62-10.95-5.25-34.88-11.05-50.21-12.23-18.81-1.45-41.25,2.62-58.87,7.58-19.43,5.49-56.15,20.37-69.96,35.19-16.16,17.32-6.52,55.62,1.9,65.92s15.4,22.21,31.94,28.6c14.2,5.48,26.1,3.06,34.91,4.47,7.88,1.26,36.22,9.68,59.19,5.38,17.11-3.16,36.52-11.68,42.64-14.83,6.97-3.59,23.43-4.51,39.61-16.08Z"/>
            <path class="cls-26" d="M437.7,213.43c18.72-13.05,17.64-52.58,7.82-69.11-12.03-20.26-26.35-26.19-38.34-31.9-10.66-5.08-32.96-10.88-48.1-12.22-18.21-1.62-40.57,2.24-58.01,7.18-19.29,5.48-55.55,20.39-68.7,34.43-15.38,16.42-7.01,53.39,1.76,64.08,7.82,9.53,14.36,21.66,30.94,27.86,14.02,5.25,25.73,2.57,34.18,4.03,7.76,1.34,34.74,10.27,57.71,6.04,17.22-3.13,35.61-12.09,41.5-15.15,6.93-3.59,23.17-4.03,39.23-15.23Z"/>
            <path class="cls-22" d="M434.23,211.58c18.41-12.49,17.63-50.15,7.95-66.84-11.78-20.31-25.97-25.56-37.84-31.18-10.38-4.92-31.04-10.71-46-12.21-17.62-1.77-39.89,1.85-57.15,6.77-19.15,5.48-54.96,20.4-67.43,33.66-14.59,15.51-7.5,51.17,1.61,62.25,7.49,9.11,13.32,21.11,29.94,27.12,13.85,5.01,25.36,2.08,33.45,3.6,7.64,1.43,33.26,10.86,56.24,6.69,17.32-3.1,34.69-12.51,40.37-15.47,6.88-3.59,22.91-3.56,38.86-14.39Z"/>
            <path class="cls-17" d="M430.76,209.74c18.09-11.94,17.63-47.71,8.08-64.58-11.52-20.36-25.6-24.94-37.34-30.46-10.1-4.75-29.11-10.53-43.89-12.2-17.02-1.93-39.22,1.47-56.3,6.37-19.01,5.48-54.36,20.41-66.16,32.9-13.81,14.61-7.99,48.94,1.46,60.41,7.16,8.68,12.28,20.56,28.94,26.38,13.67,4.78,24.98,1.6,32.73,3.17s31.78,11.45,54.76,7.34c17.43-3.07,33.77-12.92,39.23-15.78,6.83-3.58,22.64-3.09,38.48-13.54Z"/>
            <path class="cls-40" d="M427.29,207.89c17.78-11.39,17.63-45.28,8.21-62.32-11.27-20.4-25.23-24.32-36.83-29.74-9.82-4.59-27.19-10.35-41.78-12.19-16.43-2.07-38.54,1.08-55.44,5.97-18.87,5.47-53.76,20.42-64.9,32.13-13.03,13.7-8.48,46.72,1.32,58.57,6.83,8.26,11.24,20.01,27.94,25.64,13.49,4.54,24.61,1.12,32,2.74s30.3,12.03,53.28,7.99c17.53-3.04,32.85-13.33,38.1-16.1,6.79-3.58,22.37-2.62,38.1-12.7Z"/>
            <path class="cls-3" d="M423.83,206.04c17.46-10.84,17.62-42.84,8.34-60.06-11.02-20.45-24.85-23.69-36.33-29.02-9.54-4.42-25.27-10.17-39.67-12.18-15.84-2.22-37.86.7-54.58,5.57-18.73,5.47-53.17,20.43-63.63,31.37-12.25,12.79-8.97,44.5,1.17,56.74,6.5,7.84,10.2,19.47,26.94,24.89,13.31,4.32,24.23.65,31.27,2.31s28.82,12.62,51.8,8.64c17.63-3.02,31.93-13.74,36.96-16.42,6.74-3.58,22.11-2.16,37.72-11.85Z"/>
            <path class="cls-21" d="M420.36,204.19c17.14-10.29,17.61-40.41,8.47-57.79-10.77-20.49-24.48-23.07-35.83-28.29-9.26-4.26-23.35-9.98-37.56-12.17-15.24-2.35-37.18.31-53.72,5.16-18.59,5.47-52.57,20.44-62.36,30.61-11.47,11.89-9.47,42.28,1.03,54.9,6.17,7.42,9.16,18.93,25.94,24.15,13.13,4.09,23.85.17,30.55,1.88,7.17,1.83,27.34,13.21,50.33,9.29,17.74-2.99,31.01-14.15,35.82-16.73,6.69-3.58,21.84-1.69,37.35-11Z"/>
            <path class="cls-20" d="M416.89,202.35c16.82-9.74,17.6-37.97,8.6-55.53-10.52-20.53-24.1-22.45-35.33-27.57-8.97-4.09-21.43-9.79-35.45-12.17s-36.5-.07-52.87,4.76c-18.45,5.47-51.97,20.45-61.1,29.84-10.69,10.98-9.96,40.06.88,53.07,5.83,7,8.11,18.39,24.94,23.41,12.94,3.87,23.48-.29,29.82,1.45,7.04,1.94,25.86,13.8,48.85,9.94,17.84-2.96,30.09-14.57,34.69-17.05,6.64-3.58,21.57-1.23,36.97-10.16Z"/>
            <path class="cls-35" d="M413.42,200.5c16.49-9.2,17.59-35.53,8.73-53.27-10.28-20.58-23.73-21.83-34.83-26.85-8.69-3.93-19.51-9.59-33.34-12.16s-35.82-.46-52.01,4.36c-18.31,5.46-51.37,20.46-59.83,29.08-9.9,10.08-10.46,37.84.73,51.23,5.5,6.57,7.07,17.86,23.94,22.67,12.76,3.64,23.1-.76,29.09,1.02,6.92,2.05,24.39,14.39,47.37,10.59,17.95-2.93,29.16-14.98,33.55-17.36,6.59-3.58,21.29-.77,36.59-9.31Z"/>
            <path class="cls-39" d="M409.96,198.65c16.17-8.66,17.58-33.1,8.86-51-10.03-20.62-23.35-21.21-34.32-26.13-8.41-3.77-17.59-9.38-31.24-12.15s-35.15-.84-51.15,3.95c-18.17,5.46-50.78,20.47-58.56,28.31-9.12,9.17-10.96,35.63.59,49.39,5.16,6.15,6.02,17.33,22.94,21.93,12.58,3.42,22.71-1.22,28.37.59,6.8,2.17,22.91,14.97,45.89,11.24,18.05-2.9,28.24-15.4,32.42-17.68,6.54-3.58,21.02-.32,36.22-8.46Z"/>
            <path class="cls-30" d="M406.49,196.81c15.84-8.13,17.56-30.66,8.99-48.74-9.79-20.66-22.97-20.62-33.82-25.41-8.12-3.62-15.68-9.17-29.13-12.14s-34.47-1.23-50.3,3.55c-18.03,5.46-50.18,20.48-57.3,27.55-8.34,8.26-11.47,33.42.44,47.56,4.83,5.73,4.98,16.8,21.94,21.19,12.4,3.21,22.33-1.67,27.64.16,6.67,2.3,21.43,15.56,44.41,11.89,18.15-2.88,27.32-15.82,31.28-18,6.49-3.6,20.74.13,35.84-7.62Z"/>
            <path class="cls-41" d="M403.02,194.96c15.51-7.6,17.52-28.21,9.12-46.48-9.58-20.69-22.59-19.99-33.32-24.69-7.84-3.46-13.77-8.94-27.02-12.13-12.3-2.96-33.79-1.61-49.44,3.15-17.89,5.45-49.58,20.49-56.03,26.78-7.56,7.36-11.98,31.21.29,45.72,4.49,5.31,3.93,16.28,20.94,20.45,12.21,2.99,21.95-2.12,26.91-.27,6.53,2.43,19.95,16.15,42.94,12.55,18.26-2.85,26.4-16.23,30.14-18.31,6.44-3.6,20.47.58,35.46-6.77Z"/>
            <path class="cls-27" d="M399.56,193.11c15.18-7.1,17.51-25.77,9.25-44.22-9.33-20.73-22.22-19.37-32.82-23.96-7.56-3.29-11.86-8.71-24.91-12.12-11.72-3.06-33.11-2-48.58,2.75-17.75,5.45-48.99,20.5-54.76,26.02-6.78,6.45-12.5,29.02.15,43.89,4.16,4.9,2.88,15.76,19.94,19.71,12.03,2.78,21.56-2.57,26.19-.7,6.4,2.58,18.47,16.74,41.46,13.2,18.36-2.82,25.48-16.64,29.01-18.63,6.39-3.6,20.18,1,35.08-5.92Z"/>
            <path class="cls-32" d="M396.09,191.27c14.86-6.54,17.51-23.34,9.38-41.95-9.07-20.78-21.85-18.75-32.31-23.24-7.28-3.12-9.96-8.46-22.8-12.11-11.14-3.14-32.43-2.38-47.72,2.34-17.61,5.45-48.39,20.51-53.5,25.25-6,5.55-13,26.8,0,42.05,3.83,4.47,1.84,15.25,18.94,18.96,11.85,2.58,21.16-3.01,25.46-1.13,6.25,2.73,16.99,17.32,39.98,13.85,18.47-2.79,24.56-17.05,27.87-18.95,6.35-3.59,19.91,1.46,34.71-5.08Z"/>
          </g>
          <path class="cls-15" d="M376.24,121.36c-.81,0-1.6.02-2.38.08-4.29-12.17-15.87-20.88-29.49-20.88-4.07,0-7.95.78-11.51,2.19-4.22-11.66-15.39-20-28.53-20s-23.68,7.91-28.14,19.08c-1.5-.25-3.04-.39-4.6-.39-13.78,0-25.12,10.43-26.52,23.85-1.92-.39-3.92-.59-5.96-.59-16.61,0-30.08,13.46-30.08,30.08s13.47,30.08,30.08,30.08c.26,0,.53-.02.79-.02,2.93,12.15,13.88,21.17,26.93,21.17,10.11,0,18.95-5.39,23.79-13.48,6.6,11.29,18.85,18.87,32.85,18.87,15.53,0,28.87-9.3,34.79-22.62,5.29,3.05,11.44,4.8,17.99,4.8,19.94,0,36.11-16.17,36.11-36.11s-16.17-36.11-36.11-36.11Z"/>
          <path class="cls-25" d="M377.47,122.59c-.8,0-1.59.04-2.38.1-4.27-12.19-15.86-20.9-29.48-20.9-4.06,0-7.96.78-11.51,2.21-4.22-11.68-15.39-20.02-28.52-20.02s-23.71,7.91-28.16,19.1c-1.49-.27-3.03-.41-4.59-.41-13.79,0-25.12,10.45-26.52,23.85-1.93-.37-3.92-.59-5.96-.59-16.61,0-30.08,13.48-30.08,30.08s13.47,30.08,30.08,30.08c.26,0,.52,0,.78-.02,2.94,12.17,13.89,21.19,26.94,21.19,10.11,0,18.95-5.41,23.78-13.5,6.61,11.29,18.85,18.87,32.87,18.87,15.52,0,28.86-9.28,34.78-22.6,5.29,3.05,11.43,4.79,17.98,4.79,19.95,0,36.12-16.17,36.12-36.11s-16.17-36.11-36.12-36.11Z"/>
        </g>
        <g>
          <g class="cls-12">
            <path class="cls-16" d="M442.73,163.96c25.56-26.5,23.83-80.84,9.71-100.23-18.54-25.47-41.04-34.86-57.99-43.34-16.97-8.5-41.66-16.35-63.11-19.57-26.5-3.96-55.78,7.46-80.31,14.02-26.49,7.09-108.21,34.65-132.9,61.72-13.65,14.98-17.08,34.37-15.02,52.3,2.29,20,11.14,38.03,15.02,42.89,13.8,17.27,64.16,34.55,85.13,44.61,20.08,9.61,37.49,9.14,52.47,10.18,11.38.8,43.15-.04,72.72-6.21,20.98-4.38,41.81-20.64,51.93-25.66,9.43-4.67,42.95-10.61,62.34-30.7Z"/>
            <path class="cls-19" d="M438.91,162.02c25.23-25.64,23.9-78.38,10.01-97.66-18.12-25.12-40.17-34.03-56.94-42.37-16.6-8.28-40.09-16.04-61.51-19.4-25.88-4.07-54.42,6.87-78.8,13.48-26.27,7.13-108.45,34.61-132.47,60.44-13.63,14.65-17.04,33.95-14.69,51.57,2.61,19.64,12.09,36.81,16.32,41.65,14.01,16.05,61.9,33.78,82.89,43.58,19.83,9.31,36.89,7.71,51.41,8.86,11.21.89,41.82,1.43,71.92-4.95,21.06-4.45,40.98-21.03,50.82-25.93,9.37-4.66,41.68-9.72,61.04-29.26Z"/>
            <path class="cls-29" d="M435.09,160.08c24.99-24.69,23.97-75.91,10.32-95.08-17.7-24.77-39.3-33.2-55.89-41.41-16.23-8.06-38.52-15.71-59.92-19.24-25.25-4.16-53.05,6.27-77.28,12.94-26.06,7.17-108.69,34.56-132.05,59.15-13.61,14.33-17,33.52-14.36,50.83,2.93,19.28,13.02,35.57,17.61,40.41,14.11,14.87,59.66,32.95,80.66,42.55,19.61,8.96,36.3,6.29,50.36,7.54,11.05.98,40.49,2.89,71.11-3.7,21.15-4.52,40.15-21.42,49.71-26.19,9.3-4.66,40.47-8.78,59.73-27.81Z"/>
            <path class="cls-4" d="M431.28,158.15c24.7-23.78,24.04-73.45,10.62-92.5-17.29-24.43-38.43-32.37-54.85-40.44-15.86-7.84-36.96-15.39-58.32-19.07-24.63-4.25-51.69,5.68-75.77,12.41-25.84,7.21-108.94,34.5-131.62,57.87-13.59,14-16.96,33.09-14.02,50.09,3.24,18.93,13.94,34.32,18.91,39.16,14.12,13.75,57.4,32.15,78.42,41.52,19.38,8.63,35.7,4.87,49.3,6.22,10.89,1.08,39.15,4.36,70.3-2.44,21.24-4.6,39.32-21.81,48.6-26.45,9.23-4.65,39.22-7.87,58.43-26.37Z"/>
            <path class="cls-36" d="M427.46,156.21c24.4-22.88,24.11-70.98,10.93-89.92-16.87-24.08-37.56-31.53-53.8-39.47-15.49-7.63-35.39-15.06-56.73-18.91-24-4.32-50.33,5.08-74.25,11.87-25.62,7.25-109.21,34.44-131.19,56.59-13.57,13.68-16.92,32.67-13.69,49.36,3.56,18.57,14.83,33.07,20.21,37.92,14.04,12.68,55.15,31.35,76.19,40.48,19.14,8.31,35.1,3.46,48.25,4.9,10.73,1.18,37.82,5.83,69.49-1.18,21.32-4.67,38.5-22.18,47.48-26.71s37.98-6.96,57.12-24.92Z"/>
            <path class="cls-38" d="M423.64,154.27c24.1-21.99,24.18-68.52,11.23-87.34-16.46-23.73-36.69-30.7-52.75-38.51-15.12-7.41-33.82-14.73-55.13-18.74-23.38-4.4-48.96,4.48-72.73,11.33-25.4,7.29-109.49,34.37-130.77,55.31-13.56,13.35-16.88,32.24-13.36,48.62,3.87,18.21,15.71,31.81,21.5,36.68,13.89,11.66,52.89,30.55,73.95,39.45,18.9,7.99,34.5,2.05,47.19,3.59,10.56,1.28,36.48,7.29,68.69.07,21.41-4.75,37.67-22.56,46.37-26.98s36.72-6.06,55.82-23.48Z"/>
            <path class="cls-18" d="M419.82,152.33c23.8-21.09,24.29-66.08,11.54-84.76-15.99-23.42-35.82-29.87-51.7-37.54-14.75-7.19-32.25-14.4-53.54-18.58-22.76-4.47-47.6,3.89-71.22,10.79-25.18,7.34-109.79,34.29-130.34,54.02-13.56,13.02-16.84,31.81-13.03,47.89,4.19,17.85,16.57,30.56,22.8,35.44,13.66,10.7,50.64,29.76,71.71,38.42,18.67,7.67,33.91.64,46.13,2.27,10.4,1.38,35.15,8.76,67.88,1.33,21.5-4.82,36.84-22.95,45.26-27.24,9.04-4.61,35.47-5.15,54.51-22.03Z"/>
            <path class="cls-34" d="M416,150.39c23.49-20.2,24.37-63.62,11.84-82.18-15.57-23.07-34.97-29-50.66-36.58-14.39-6.94-30.69-14.06-51.95-18.41s-46.23,3.29-69.7,10.25c-24.96,7.38-110.1,34.19-129.91,52.74-13.56,12.69-16.8,31.39-12.7,47.15,4.5,17.49,17.42,29.31,24.1,34.19,13.38,9.79,48.38,28.97,69.48,37.39,18.43,7.35,33.31-.76,45.08.95,10.24,1.49,33.82,10.23,67.07,2.58,21.59-4.9,36.01-23.34,44.14-27.5,8.98-4.6,34.21-4.25,53.21-20.59Z"/>
            <path class="cls-37" d="M412.19,148.45c23.18-19.31,24.44-61.16,12.15-79.6-15.15-22.73-34.1-28.17-49.61-35.61-14.02-6.72-29.12-13.72-50.35-18.25s-44.87,2.7-68.19,9.71c-24.74,7.42-110.42,34.09-129.49,51.46-13.57,12.36-16.76,30.96-12.37,46.41,4.82,17.14,18.25,28.06,25.39,32.95,13.05,8.93,46.12,28.18,67.24,36.36,18.18,7.04,32.72-2.15,44.02-.37,10.08,1.59,32.48,11.69,66.26,3.84,21.67-4.97,35.18-23.72,43.03-27.76,8.91-4.59,32.95-3.35,51.9-19.14Z"/>
            <path class="cls-26" d="M408.37,146.52c22.86-18.42,24.52-58.69,12.45-77.02-14.73-22.38-33.23-27.34-48.56-34.64-13.65-6.51-27.55-13.37-48.76-18.08s-43.51,2.1-66.67,9.17c-24.52,7.46-110.76,33.97-129.06,50.18-13.58,12.03-16.72,30.53-12.04,45.68,5.13,16.78,18.32,28.25,26.69,31.71,11.06,10.22,43.86,27.39,65.01,35.33,17.94,6.73,32.12-3.55,42.97-1.69,9.92,1.7,31.15,13.16,65.45,5.1,21.76-5.04,34.35-24.11,41.92-28.02,8.84-4.58,31.69-2.45,50.6-17.7Z"/>
            <path class="cls-22" d="M404.55,144.58c22.54-17.54,24.59-56.23,12.76-74.44-14.31-22.03-32.36-26.5-47.52-33.68-13.28-6.29-25.99-13.02-47.16-17.91s-42.14,1.51-65.16,8.63c-24.3,7.5-111.12,33.84-128.63,48.89-13.6,11.69-16.68,30.11-11.7,44.94,5.45,16.42,19.12,27.16,27.98,30.47,10.75,9.43,41.59,26.61,62.77,34.3,17.7,6.42,31.52-4.94,41.91-3,9.76,1.82,29.81,14.63,64.65,6.35,21.85-5.12,33.52-24.5,40.81-28.29,8.78-4.57,30.42-1.56,49.29-16.25Z"/>
            <path class="cls-17" d="M400.73,142.64c22.21-16.67,24.66-53.76,13.06-71.86-13.9-21.69-31.49-25.67-46.47-32.71-12.91-6.07-24.42-12.67-45.57-17.75-19.65-4.72-40.78.91-63.64,8.09-24.08,7.54-111.48,33.7-128.2,47.61-13.63,11.34-16.64,29.68-11.37,44.2,5.76,16.06,19.92,26.08,29.28,29.22,10.45,8.65,39.33,25.83,60.54,33.26,17.45,6.12,30.93-6.32,40.85-4.32s28.48,16.09,63.84,7.61c21.93-5.19,32.69-24.88,39.69-28.55,8.71-4.56,29.15-.67,47.99-14.8Z"/>
            <path class="cls-40" d="M396.91,140.7c21.88-15.8,24.73-51.3,13.37-69.29-13.48-21.34-30.62-24.84-45.42-31.74-12.54-5.85-22.86-12.31-43.98-17.58-19.03-4.76-39.41.32-62.13,7.55-23.86,7.58-111.87,33.54-127.78,46.33-13.67,10.99-16.59,29.25-11.04,43.47,6.08,15.7,20.72,24.99,30.58,27.98,10.14,7.87,37.06,25.05,58.3,32.23,17.2,5.82,30.33-7.7,39.8-5.64s27.14,17.56,63.03,8.87c22.02-5.27,31.86-25.27,38.58-28.81,8.64-4.55,27.88.22,46.69-13.36Z"/>
            <path class="cls-3" d="M393.1,138.76c21.55-14.93,24.8-48.83,13.67-66.71-13.07-20.99-29.75-24-44.37-30.78-12.16-5.63-21.3-11.94-42.38-17.42-18.41-4.79-38.05-.28-60.61,7.01-23.64,7.62-112.27,33.36-127.35,45.05-13.72,10.63-16.55,28.83-10.71,42.73,6.39,15.35,21.52,23.91,31.87,26.74,9.84,7.09,34.8,24.28,56.07,31.2,16.96,5.52,29.73-9.07,38.74-6.96s25.81,19.03,62.22,10.12c22.11-5.34,31.03-25.66,37.47-29.07,8.58-4.55,26.6,1.1,45.38-11.91Z"/>
            <path class="cls-21" d="M389.28,136.83c21.21-14.07,24.87-46.37,13.98-64.13-12.65-20.64-28.88-23.17-43.33-29.81-11.79-5.42-19.74-11.56-40.79-17.25-17.8-4.81-36.69-.87-59.1,6.47-23.42,7.66-112.69,33.17-126.92,43.76-13.78,10.25-16.51,28.4-10.38,41.99,6.71,14.99,22.93,21.01,33.17,25.49s32.53,23.51,53.83,30.17c16.71,5.22,29.13-10.44,37.69-8.27,9.12,2.31,24.48,20.49,61.42,11.38,22.19-5.42,30.2-26.05,36.35-29.34,8.51-4.54,25.32,1.98,44.08-10.47Z"/>
            <path class="cls-20" d="M385.46,134.89c20.87-13.22,24.94-43.9,14.28-61.55-12.24-20.28-28.01-22.34-42.28-28.84-11.42-5.2-18.18-11.18-39.19-17.09-17.19-4.83-35.32-1.47-57.58,5.93-23.2,7.7-113.12,32.95-126.5,42.48s-16.47,27.97-10.05,41.26c7.02,14.63,23.66,19.95,34.47,24.25,9.99,3.98,30.26,22.74,51.6,29.14,16.46,4.93,28.53-11.81,36.63-9.59,8.95,2.45,23.14,21.96,60.61,12.64,22.28-5.49,29.37-26.44,35.24-29.6,8.44-4.54,24.04,2.85,42.77-9.02Z"/>
            <path class="cls-35" d="M381.64,132.95c20.52-12.38,25-41.43,14.59-58.97-11.83-19.93-27.14-21.51-41.23-27.88-11.05-4.99-16.62-10.79-37.6-16.92-16.57-4.84-33.96-2.06-56.06,5.39-22.98,7.74-113.56,32.72-126.07,41.2-13.94,9.45-16.43,27.54-9.71,40.52,7.34,14.27,24.38,18.95,35.76,23.01,9.52,3.39,27.99,21.98,49.36,28.11,16.21,4.64,27.93-13.16,35.57-10.91,8.79,2.59,21.81,23.43,59.8,13.89,22.37-5.57,28.54-26.83,34.13-29.86,8.37-4.53,22.75,3.71,41.47-7.58Z"/>
            <path class="cls-39" d="M377.82,131.01c20.17-11.54,25.07-38.96,14.89-56.39-11.43-19.58-26.25-20.71-40.19-26.91-10.66-4.8-15.07-10.4-36.01-16.76-15.97-4.85-32.59-2.66-54.55,4.85-22.76,7.79-114.02,32.47-125.64,39.92-14.05,9-16.39,27.12-9.38,39.78,7.65,13.91,25.09,18.02,37.06,21.77,9.05,2.83,25.72,21.23,47.13,27.07,15.96,4.36,27.32-14.52,34.52-12.23,8.62,2.74,20.47,24.89,58.99,15.15,22.45-5.64,27.71-27.23,33.02-30.12,8.3-4.53,21.46,4.57,40.16-6.13Z"/>
            <path class="cls-30" d="M374.01,129.07c19.82-10.71,25.1-36.48,15.2-53.81-11.05-19.21-25.38-19.88-39.14-25.95-10.29-4.58-13.52-9.99-34.41-16.59-15.36-4.85-31.23-3.25-53.03,4.31-22.54,7.83-114.49,32.19-125.22,38.63-14.17,8.52-16.35,26.69-9.05,39.05,7.97,13.55,25.79,17.16,38.36,20.52,8.6,2.3,23.44,20.48,44.89,26.04,15.71,4.08,26.71-15.86,33.46-13.55,8.44,2.9,19.14,26.36,58.18,16.41,22.54-5.71,26.88-27.62,31.9-30.39,8.23-4.53,20.16,5.41,38.86-4.69Z"/>
            <path class="cls-41" d="M370.19,127.13c19.46-9.89,25.17-34.01,15.5-51.23-10.64-18.86-24.51-19.05-38.09-24.98-9.92-4.36-11.98-9.57-32.82-16.42-14.75-4.85-29.87-3.85-51.52,3.77-22.32,7.87-114.97,31.88-124.79,37.35-14.33,7.98-16.31,26.26-8.72,38.31,8.29,13.2,26.48,16.4,39.65,19.28,8.17,1.79,21.17,19.73,42.65,25.01,15.46,3.8,26.1-17.2,32.41-14.86,8.27,3.07,17.81,27.83,57.38,17.66,22.63-5.79,26.05-28.01,30.79-30.65,8.16-4.53,18.86,6.25,37.55-3.24Z"/>
            <path class="cls-27" d="M366.37,125.2c19.11-9.08,25.24-31.55,15.81-48.65-10.22-18.51-23.64-18.22-37.04-24.01-9.55-4.14-10.44-9.14-31.22-16.26-14.15-4.84-28.5-4.44-50,3.23-22.1,7.91-115.44,31.54-124.36,36.07-14.51,7.36-16.27,25.84-8.39,37.57,8.6,12.84,27.18,15.75,40.95,18.04,7.77,1.29,18.9,19,40.42,23.98,15.21,3.52,25.49-18.54,31.35-16.18,8.08,3.25,16.47,29.29,56.57,18.92,22.72-5.86,25.21-28.41,29.68-30.91,8.09-4.53,17.56,7.08,36.25-1.8Z"/>
            <path class="cls-32" d="M362.55,123.26c18.75-8.28,25.31-29.08,16.11-46.07-9.8-18.16-22.77-17.38-36-23.05-9.18-3.93-8.91-8.69-29.63-16.09-13.55-4.82-27.14-5.04-48.49,2.7-21.88,7.95-115.92,31.17-123.94,34.79-14.73,6.62-16.23,25.41-8.06,36.84,8.92,12.48,27.9,15.21,42.25,16.8,7.4.82,16.62,18.28,38.18,22.95,14.95,3.26,24.86-19.86,30.29-17.5,7.88,3.46,15.14,30.76,55.76,20.18,22.8-5.94,24.38-28.81,28.56-31.17,8.01-4.55,16.26,7.89,34.94-.35Z"/>
          </g>
          <path class="cls-15" d="M346.67,48.41c-1.64,0-3.26.1-4.86.29-6.05-17.89-22.97-30.76-42.9-30.76-9.21,0-17.76,2.75-24.91,7.46-4.9-13.42-17.78-22.99-32.9-22.99-17.05,0-31.26,12.19-34.37,28.34-4.82-3.57-10.8-5.7-17.27-5.7-14.8,0-27.01,11.11-28.75,25.45h-.21c-23.04,0-41.71,18.67-41.71,41.72s18.67,41.7,41.71,41.7c7.34,0,14.24-1.91,20.23-5.25,2.17,14.47,14.63,25.55,29.69,25.55,11.9,0,22.19-6.91,27.04-16.97,9.19,13.5,24.69,22.36,42.26,22.36,22.68,0,41.89-14.79,48.55-35.23,5.51,2.85,11.77,4.45,18.4,4.45,22.21,0,40.21-17.99,40.21-40.2s-18.01-40.21-40.21-40.21Z"/>
          <path class="cls-1" d="M347.9,49.53c-1.65,0-3.27.12-4.86.31-6.06-17.89-22.97-30.78-42.91-30.78-9.2,0-17.76,2.77-24.91,7.48-4.9-13.42-17.78-22.99-32.9-22.99-17.05,0-31.25,12.19-34.37,28.34-4.81-3.57-10.79-5.7-17.26-5.7-14.8,0-27.01,11.11-28.75,25.47-.08,0-.15-.02-.21-.02-23.04,0-41.71,18.67-41.71,41.72s18.67,41.7,41.71,41.7c7.34,0,14.24-1.91,20.22-5.25,2.17,14.45,14.64,25.55,29.69,25.55,11.9,0,22.2-6.91,27.05-16.97,9.19,13.5,24.68,22.36,42.25,22.36,22.68,0,41.88-14.79,48.56-35.23,5.51,2.85,11.76,4.45,18.4,4.45,22.21,0,40.21-18.01,40.21-40.21s-18.01-40.21-40.21-40.21Z"/>
        </g>
        <g>
          <g class="cls-12">
            <path class="cls-16" d="M283.07,219.49c13.16-19.55,6.79-55.66-2.4-68.28-12.07-16.58-27.85-23.95-38.89-29.45-11.05-5.53-35.11-15.33-49.22-15.33-19.75,0-29.79,7.29-45.75,11.56-17.25,4.63-46.51,31.52-62.59,49.14-18.79,20.61-14.01,51.6-9.22,57.62,8.97,11.23,19.83,22.4,33.49,28.95,13.07,6.27,24.4,5.94,34.16,6.62,7.4.53,16.02,4.18,35.27.16,13.65-2.83,20.18-3.95,27.2-6.13,14.86-4.63,62.02-11.17,77.95-34.84Z"/>
            <path class="cls-19" d="M280.35,218.63c13.13-18.88,7.57-53.79-1.5-66.55-11.86-16.62-27.76-23.55-38.68-28.98-10.82-5.39-34.24-15.42-48.2-15.56-19.25-.13-29.66,6.84-45.48,11.1-17.13,4.63-45.77,31.24-61.29,48.21-18.13,19.85-14.5,50.1-9.42,56.44,8.7,10.87,19.24,21.87,32.95,28.12,13.16,5.99,24.23,5.27,33.69,6.03,7.3.59,15.95,4.19,35.21.22,13.74-2.81,20.37-4.07,27.19-6.07,14.42-4.25,59.78-10.15,75.54-32.95Z"/>
            <path class="cls-29" d="M277.62,217.77c13.05-18.25,8.36-51.93-.6-64.83-11.64-16.66-27.66-23.16-38.48-28.5-10.58-5.25-33.38-15.56-47.17-15.79-18.75-.32-29.54,6.4-45.2,10.65-17.01,4.62-45.04,30.96-59.99,47.28-17.48,19.09-14.99,48.6-9.62,55.26,8.43,10.52,18.66,21.34,32.4,27.29,13.26,5.7,24.05,4.61,33.21,5.44,7.2.65,15.88,4.2,35.14.28,13.83-2.78,20.56-4.19,27.17-6.01,13.98-3.87,57.48-9.17,73.13-31.06Z"/>
            <path class="cls-4" d="M274.9,216.91c12.99-17.6,9.18-50.07.3-63.1-11.4-16.73-27.56-22.77-38.28-28.03-10.35-5.11-32.51-15.66-46.15-16.02-18.26-.48-29.42,5.96-44.93,10.19-16.89,4.62-44.3,30.68-58.69,46.35-16.82,18.33-15.46,47.09-9.81,54.09,8.18,10.14,18.07,20.8,31.86,26.46,13.36,5.42,23.87,3.96,32.74,4.85,7.1.71,15.81,4.21,35.07.34,13.91-2.76,20.76-4.31,27.16-5.95,13.54-3.48,55.21-8.16,70.72-29.17Z"/>
            <path class="cls-36" d="M272.17,216.05c12.94-16.94,9.97-48.21,1.2-61.37-11.18-16.77-27.47-22.38-38.07-27.55-10.11-4.97-31.65-15.77-45.13-16.25-17.76-.64-29.29,5.51-44.66,9.73-16.78,4.61-43.56,30.4-57.39,45.42-16.17,17.57-15.94,45.58-10.01,52.91,7.91,9.78,17.46,20.3,31.32,25.63s23.7,3.3,32.27,4.26c7,.78,15.74,4.22,35,.4,14-2.74,20.95-4.44,27.15-5.89,13.11-3.1,52.95-7.16,68.32-27.28Z"/>
            <path class="cls-38" d="M269.45,215.19c12.89-16.29,10.77-46.34,2.1-59.65-10.95-16.82-27.37-21.98-37.87-27.08-9.87-4.83-30.78-15.88-44.11-16.49-17.26-.79-29.17,5.07-44.38,9.27-16.66,4.61-42.82,30.12-56.09,44.49-15.51,16.81-16.43,44.08-10.21,51.73,7.64,9.42,16.87,19.78,30.78,24.8s23.52,2.65,31.8,3.67c6.9.85,15.67,4.23,34.93.46,14.09-2.71,21.14-4.56,27.14-5.83,12.67-2.72,50.69-6.15,65.91-25.39Z"/>
            <path class="cls-18" d="M266.73,214.33c12.84-15.64,11.56-44.48,3-57.92-10.73-16.86-27.28-21.57-37.66-26.6-9.65-4.68-29.92-15.98-43.08-16.72-16.77-.93-29.05,4.63-44.11,8.82-16.54,4.61-42.08,29.84-54.79,43.56-14.85,16.05-16.91,42.57-10.41,50.56,7.37,9.06,16.28,19.25,30.24,23.97s23.34,2,31.32,3.08c6.8.92,15.6,4.24,34.86.52,14.18-2.69,21.34-4.68,27.13-5.77,12.23-2.34,48.43-5.14,63.5-23.5Z"/>
            <path class="cls-34" d="M264,213.47c12.79-14.98,12.35-42.61,3.9-56.19-10.52-16.9-27.19-21.18-37.46-26.13-9.41-4.54-29.05-16.08-42.06-16.95-16.27-1.08-28.92,4.19-43.83,8.36-16.42,4.6-41.34,29.56-53.49,42.63-14.2,15.29-17.39,41.07-10.61,49.38s15.69,18.72,29.7,23.14,23.17,1.36,30.85,2.49c6.7.99,15.53,4.24,34.79.59,14.26-2.66,21.53-4.79,27.12-5.71,11.79-1.93,46.17-4.13,61.09-21.61Z"/>
            <path class="cls-37" d="M261.28,212.61c12.75-14.33,13.14-40.74,4.8-54.46-10.3-16.94-27.09-20.78-37.26-25.65-9.18-4.4-28.18-16.18-41.04-17.18-15.77-1.22-28.8,3.74-43.56,7.9-16.3,4.6-40.6,29.28-52.19,41.7-13.54,14.53-17.88,39.57-10.81,48.2s15.1,18.19,29.16,22.31,22.99.71,30.38,1.9c6.6,1.06,15.47,4.25,34.73.65,14.35-2.64,21.73-4.91,27.11-5.65,11.35-1.55,43.92-3.13,58.68-19.72Z"/>
            <path class="cls-26" d="M258.55,211.75c12.71-13.67,13.93-38.87,5.7-52.74-10.08-16.98-27-20.39-37.05-25.18-8.94-4.26-27.32-16.28-40.02-17.41-15.27-1.35-28.68,3.3-43.29,7.44-16.19,4.6-39.86,29-50.89,40.77-12.89,13.78-18.36,38.06-11.01,47.03,6.55,7.99,14.52,17.66,28.61,21.48s22.82.07,29.9,1.31c6.51,1.13,15.4,4.26,34.66.71,14.44-2.61,21.92-5.04,27.1-5.59,10.91-1.17,41.67-2.11,56.27-17.83Z"/>
            <path class="cls-22" d="M255.83,210.89c12.67-13.01,14.72-37,6.61-51.01-9.87-17.02-26.9-19.99-36.85-24.7-8.7-4.12-26.45-16.38-38.99-17.64-14.77-1.49-28.55,2.86-43.01,6.99-16.07,4.59-39.12,28.72-49.59,39.84-12.23,13.02-18.85,36.56-11.2,45.85,6.28,7.63,13.93,17.13,28.07,20.65,14.04,3.49,22.64-.56,29.43.72,6.41,1.21,15.33,4.27,34.59.77,14.53-2.59,22.11-5.16,27.09-5.53,10.47-.78,39.43-1.1,53.87-15.94Z"/>
            <path class="cls-17" d="M253.11,210.03c12.63-12.35,15.51-35.13,7.51-49.28-9.66-17.06-26.81-19.6-36.65-24.23-8.47-3.98-25.58-16.47-37.97-17.87-14.27-1.62-28.43,2.42-42.74,6.53-15.95,4.59-38.39,28.44-48.29,38.91-11.58,12.26-19.34,35.06-11.4,44.68,6,7.28,13.34,16.6,27.53,19.82,14.14,3.21,22.46-1.2,28.96.12s15.26,4.28,34.52.83c14.61-2.57,22.3-5.28,27.07-5.47,10.03-.4,37.18-.09,51.46-14.04Z"/>
            <path class="cls-40" d="M250.38,209.18c12.6-11.69,16.3-33.26,8.41-47.56-9.44-17.1-26.71-19.21-36.44-23.75-8.23-3.84-24.72-16.56-36.95-18.1-13.78-1.74-28.31,1.97-42.47,6.07-15.83,4.58-37.65,28.16-46.99,37.98-10.92,11.5-19.82,33.56-11.6,43.5,5.72,6.92,12.75,16.07,26.99,18.99s22.28-1.83,28.49-.47,15.19,4.29,34.45.89c14.7-2.54,22.5-5.36,27.06-5.41,9.59-.09,34.95.93,49.05-12.15Z"/>
            <path class="cls-3" d="M247.66,208.32c12.57-11.03,17.09-31.39,9.31-45.83-9.23-17.14-26.61-18.82-36.24-23.27-7.99-3.7-23.85-16.64-35.93-18.33-13.28-1.86-28.18,1.53-42.19,5.61-15.72,4.58-36.91,27.88-45.69,37.05-10.27,10.74-20.31,32.06-11.8,42.32,5.45,6.57,12.16,15.53,26.45,18.16s22.11-2.46,28.01-1.06,15.12,4.3,34.38.95c14.79-2.52,22.69-5.52,27.05-5.35,9.15.37,32.71,1.95,46.64-10.26Z"/>
            <path class="cls-21" d="M244.93,207.46c12.55-10.36,17.87-29.52,10.21-44.1-9.02-17.18-26.52-18.42-36.04-22.8-7.76-3.57-22.99-16.72-34.9-18.56-12.78-1.98-28.06,1.09-41.92,5.16-15.6,4.58-36.17,27.6-44.39,36.12-9.61,9.98-20.8,30.56-12,41.15,5.17,6.21,11.58,15,25.91,17.33s21.93-3.08,27.54-1.65c6.01,1.54,15.05,4.31,34.32,1.02,14.88-2.49,22.88-5.64,27.04-5.29,8.71.75,30.48,2.98,44.23-8.37Z"/>
            <path class="cls-20" d="M242.21,206.6c12.53-9.69,18.65-27.65,11.11-42.37-8.82-17.21-26.42-18.03-35.83-22.32-7.52-3.43-22.12-16.8-33.88-18.79s-27.94.64-41.64,4.7c-15.48,4.57-35.43,27.32-43.09,35.19-8.95,9.22-21.29,29.06-12.2,39.97,4.89,5.86,10.99,14.46,25.37,16.5s21.75-3.7,27.07-2.24c5.91,1.63,14.98,4.32,34.25,1.08,14.96-2.47,23.07-5.77,27.03-5.23,8.27,1.13,28.26,4.01,41.82-6.48Z"/>
            <path class="cls-35" d="M239.48,205.74c12.51-9.01,19.44-25.78,12.01-40.65-8.61-17.25-26.32-17.64-35.63-21.85-7.28-3.29-21.26-16.87-32.86-19.02s-27.81.2-41.37,4.24c-15.36,4.57-34.69,27.04-41.79,34.26-8.3,8.46-21.79,27.57-12.4,38.79,4.61,5.51,10.4,13.92,24.83,15.67s21.57-4.32,26.59-2.83c5.8,1.72,14.91,4.33,34.18,1.14,15.05-2.45,23.27-5.89,27.02-5.17,7.82,1.51,26.03,5.05,39.42-4.59Z"/>
            <path class="cls-39" d="M236.76,204.88c12.49-8.32,20.22-23.9,12.91-38.92-8.41-17.28-26.22-17.25-35.42-21.37-7.05-3.16-20.4-16.93-31.83-19.25s-27.69-.24-41.1,3.78c-15.25,4.57-33.95,26.76-40.49,33.33-7.64,7.7-22.28,26.08-12.59,37.62,4.33,5.16,9.81,13.38,24.28,14.84,14.74,1.49,21.39-4.94,26.12-3.42,5.7,1.82,14.85,4.34,34.11,1.2,15.14-2.42,23.46-6.01,27.01-5.11,7.38,1.89,23.81,6.09,37.01-2.7Z"/>
            <path class="cls-30" d="M234.04,204.02c12.48-7.63,20.97-22.01,13.81-37.19-8.24-17.3-26.12-16.88-35.22-20.9-6.8-3.03-19.54-16.99-30.81-19.48s-27.57-.68-40.82,3.33c-15.13,4.56-33.21,26.48-39.19,32.4-6.99,6.94-22.78,24.58-12.79,36.44,4.05,4.81,9.23,12.84,23.74,14.01s21.2-5.55,25.65-4.01c5.59,1.93,14.78,4.35,34.04,1.26,15.23-2.4,23.65-6.14,27-5.04,6.94,2.27,21.6,7.14,34.6-.81Z"/>
            <path class="cls-41" d="M231.31,203.16c12.47-6.93,21.75-20.15,14.71-35.47-8.02-17.34-26.02-16.49-35.02-20.42-6.57-2.89-18.68-17.04-29.79-19.71-10.32-2.48-27.44-1.13-40.55,2.87-15.01,4.56-32.47,26.2-37.89,31.47-6.33,6.19-23.31,23.12-12.99,35.26,3.76,4.46,8.64,12.28,23.2,13.18,14.94.88,21.01-6.15,25.17-4.6,5.48,2.04,14.71,4.36,33.97,1.32,15.31-2.37,23.85-6.26,26.99-4.98,6.5,2.65,19.38,8.2,32.19,1.08Z"/>
            <path class="cls-27" d="M228.59,202.3c12.46-6.22,22.54-18.28,15.61-33.74-7.81-17.38-25.93-16.1-34.81-19.95-6.33-2.76-17.82-17.09-28.77-19.95-9.83-2.57-27.32-1.57-40.27,2.41-14.89,4.55-31.74,25.92-36.59,30.54-5.68,5.43-23.8,21.62-13.19,34.09,3.49,4.11,8.05,11.74,22.66,12.35,15.04.6,20.82-6.76,24.7-5.19,5.36,2.17,14.64,4.37,33.91,1.38,15.4-2.35,24.04-6.39,26.97-4.92,6.06,3.02,17.17,9.26,29.78,2.97Z"/>
            <path class="cls-32" d="M225.86,201.44c12.46-5.49,23.33-16.41,16.51-32.01-7.6-17.42-25.83-15.7-34.61-19.47-6.09-2.62-16.97-17.13-27.74-20.18-9.35-2.66-27.2-2.01-40,1.95-14.78,4.55-31,25.64-35.29,29.61-5.02,4.67-24.29,20.12-13.39,32.91,3.21,3.75,7.46,11.21,22.12,11.52,15.14.31,20.63-7.36,24.23-5.78,5.24,2.29,14.57,4.38,33.84,1.45,15.49-2.32,24.24-6.52,26.96-4.86,5.63,3.38,14.96,10.35,27.37,4.86Z"/>
          </g>
          <path class="cls-15" d="M216.48,147.4c-3.48-.18-6.83.31-9.94,1.33-4.09-20.72-21.83-36.84-43.89-37.99-21.4-1.11-40.2,12.21-46.99,31.43h-.02c-18.1-.96-33.54,12.95-34.47,31.05-.94,18.11,12.97,33.54,31.06,34.47,9.33.49,17.94-2.99,24.24-8.93,6.28,3.65,13.51,5.92,21.28,6.33,13.86.72,26.64-4.61,35.76-13.69,4.71,6.04,11.89,10.08,20.13,10.51,15.05.78,27.89-10.78,28.68-25.84.78-15.04-10.79-27.89-25.84-28.67Z"/>
          <path class="cls-33" d="M217.71,148.63c-3.47-.18-6.82.31-9.94,1.33-4.09-20.72-21.83-36.84-43.89-37.99-21.4-1.11-40.2,12.21-46.98,31.43h-.03c-18.1-.94-33.53,12.97-34.47,31.05-.94,18.11,12.97,33.54,31.06,34.47,9.33.49,17.95-2.99,24.23-8.93,6.3,3.65,13.52,5.94,21.29,6.33,13.87.72,26.65-4.61,35.77-13.69,4.7,6.04,11.88,10.08,20.13,10.51,15.05.78,27.89-10.78,28.67-25.84.78-15.04-10.79-27.89-25.84-28.67Z"/>
        </g>
      </g>
    </g>
  </g>
</svg>