<?xml version="1.0" encoding="UTF-8"?>
<svg xmlns="http://www.w3.org/2000/svg" viewBox="0 0 484.92 244.19">
  <defs>
    <style>
      .cls-1 {
        fill: #eff8fb;
      }

      .cls-2 {
        fill: #b3c1cd;
        opacity: .62;
      }

      .cls-3 {
        fill: #eaecef;
        opacity: .14;
      }

      .cls-4, .cls-5 {
        fill: #fff;
      }

      .cls-6 {
        fill: #bec9d3;
        opacity: .52;
      }

      .cls-7 {
        fill: #d9dee4;
        opacity: .29;
      }

      .cls-5 {
        opacity: 0;
      }

      .cls-8 {
        fill: #f6f7f8;
        opacity: .05;
      }

      .cls-9 {
        fill: #a9b9c6;
        opacity: .71;
      }

      .cls-10 {
        fill: #aebdc9;
        opacity: .67;
      }

      .cls-11 {
        fill: #c3cdd6;
        opacity: .48;
      }

      .cls-12 {
        isolation: isolate;
      }

      .cls-13 {
        fill: #e5f2f5;
      }

      .cls-14 {
        fill: #c8d1da;
        opacity: .43;
      }

      .cls-15 {
        fill: #90a7b8;
        opacity: .95;
      }

      .cls-16 {
        fill: #f0f1f3;
        opacity: .1;
      }

      .cls-17 {
        fill: #9aaebd;
        opacity: .86;
      }

      .cls-18 {
        mix-blend-mode: multiply;
      }

      .cls-19 {
        fill: #8ba4b5;
      }

      .cls-20 {
        fill: #d3dae0;
        opacity: .33;
      }

      .cls-21 {
        fill: #a4b5c3;
        opacity: .76;
      }

      .cls-22 {
        fill: #e4e7eb;
        opacity: .19;
      }

      .cls-23 {
        fill: #ced5dd;
        opacity: .38;
      }

      .cls-24 {
        fill: #dfe3e8;
        opacity: .24;
      }

      .cls-25 {
        fill: #9fb2c0;
        opacity: .81;
      }

      .cls-26 {
        fill: #b9c5d0;
        opacity: .57;
      }

      .cls-27 {
        fill: #95aabb;
        opacity: .9;
      }
    </style>
  </defs>
  <g class="cls-12">
    <g id="Layer_1">
      <g>
        <g>
          <g class="cls-18">
            <path class="cls-5" d="M361.05,180.72c41.89-10.59,53.3-69.26,3.61-75.02-81.64-9.47-263.83-.43-321.8-.43-65.68,0-46.93,55.04-3.46,65,60.55,13.85,266.05,24.51,321.64,10.45Z"/>
            <path class="cls-8" d="M359.83,178.56c40.58-9.97,51.28-66.64,3.16-72.14-78.7-9.04-262.95-.32-320.09-.32-63.23,0-45.48,52.83-3.53,62.32,59.11,13.19,265.26,23.71,320.46,10.14Z"/>
            <path class="cls-16" d="M358.62,176.4c39.26-9.37,49.25-64.02,2.71-69.27-75.76-8.61-262.08-.21-318.39-.2-60.77,0-44.06,50.74-3.6,59.64,57.64,12.68,264.47,22.9,319.28,9.83Z"/>
            <path class="cls-3" d="M357.4,174.24c37.94-8.77,47.23-61.4,2.25-66.39-72.82-8.18-261.2-.09-316.69-.09-58.32,0-42.62,48.58-3.67,56.96,56.19,12.09,263.67,22.09,318.1,9.51Z"/>
            <path class="cls-22" d="M356.19,172.08c36.62-8.18,45.2-58.77,1.8-63.51-69.88-7.75-260.33.02-314.98.02-55.87,0-41.18,46.42-3.74,54.29,54.74,11.5,262.87,21.28,316.92,9.2Z"/>
            <path class="cls-24" d="M354.98,169.92c35.29-7.6,43.18-56.15,1.35-60.64-66.94-7.32-259.45.13-313.28.14-53.41,0-39.73,44.26-3.81,51.61,53.29,10.9,262.07,20.46,315.74,8.89Z"/>
            <path class="cls-7" d="M353.76,167.75c33.96-7.04,41.15-53.53.9-57.76-64-6.89-258.58.24-311.57.25-50.96,0-38.29,42.09-3.88,48.93,51.84,10.3,261.26,19.63,314.56,8.58Z"/>
            <path class="cls-20" d="M352.55,165.59c32.62-6.48,39.13-50.91.44-54.88-61.05-6.46-257.7.35-309.87.36-48.5,0-36.85,39.92-3.95,46.25,50.4,9.7,260.44,18.79,313.38,8.27Z"/>
            <path class="cls-23" d="M351.34,163.43c31.28-5.94,37.1-48.29-.01-52.01-58.11-6.04-256.83.46-308.17.48-46.05,0-35.4,37.75-4.02,43.57,48.96,9.09,259.62,17.94,312.2,7.96Z"/>
            <path class="cls-14" d="M350.12,161.27c29.94-5.41,35.07-45.59-.46-49.13-55.18-5.49-255.95.57-306.46.59-43.59,0-33.95,35.57-4.09,40.89,47.51,8.48,258.8,17.08,311.02,7.65Z"/>
            <path class="cls-11" d="M348.91,159.11c28.59-4.89,33.05-42.97-.92-46.25-52.24-5.05-255.08.69-304.76.71-41.14,0-32.5,33.38-4.16,38.21,46.08,7.86,257.97,16.21,309.84,7.33Z"/>
            <path class="cls-6" d="M347.69,156.95c27.25-4.39,31.02-40.34-1.37-43.38-49.3-4.62-254.2.8-303.05.82-38.68.01-31.05,31.19-4.23,35.54,44.64,7.24,257.14,15.31,308.66,7.02Z"/>
            <path class="cls-26" d="M346.48,154.79c25.9-3.89,29-37.72-1.82-40.5-46.36-4.18-253.33.91-301.35.93-36.23.01-29.6,28.99-4.31,32.86,43.2,6.6,256.3,14.4,307.48,6.71Z"/>
            <path class="cls-2" d="M345.27,152.62c24.54-3.41,26.97-35.1-2.27-37.62-43.42-3.75-252.45,1.02-299.65,1.05-33.78.01-28.15,26.79-4.38,30.18,41.77,5.96,255.46,13.47,306.3,6.4Z"/>
            <path class="cls-10" d="M344.05,150.46c23.19-2.95,24.95-32.47-2.73-34.75-40.48-3.32-251.58,1.13-297.94,1.16-31.32.01-26.69,24.57-4.45,27.5,40.34,5.31,254.62,12.51,305.12,6.09Z"/>
            <path class="cls-9" d="M342.84,148.3c21.83-2.5,22.92-29.85-3.18-31.87-37.54-2.9-250.7,1.24-296.24,1.27-28.87.01-25.23,22.35-4.52,24.82,38.91,4.64,253.77,11.52,303.94,5.78Z"/>
            <path class="cls-21" d="M341.63,146.14c20.47-2.06,20.9-27.24-3.63-28.99-34.6-2.48-249.83,1.36-294.54,1.39-26.41.01-23.77,20.12-4.59,22.14,37.49,3.95,252.91,10.49,302.76,5.46Z"/>
            <path class="cls-25" d="M340.41,143.98c19.11-1.64,18.88-24.62-4.09-26.12-31.65-2.06-248.95,1.47-292.83,1.5-23.96.02-22.31,17.88-4.66,19.46,36.07,3.24,252.06,9.41,301.58,5.15Z"/>
            <path class="cls-17" d="M339.2,141.82c17.75-1.24,16.85-22.01-4.54-23.24-28.71-1.65-248.07,1.58-291.13,1.61-21.5.02-20.85,15.62-4.73,16.79,34.65,2.5,251.2,8.27,300.4,4.84Z"/>
            <path class="cls-27" d="M337.98,139.66c16.39-.85,14.83-19.41-4.99-20.36-25.77-1.24-247.2,1.69-289.42,1.73-19.05.02-19.4,13.35-4.8,14.11,33.23,1.72,250.34,7.06,299.22,4.53Z"/>
            <path class="cls-15" d="M336.77,137.49c15.04-.48,12.81-16.84-5.45-17.49-22.82-.88-246.32,1.8-287.72,1.84-16.6.02-17.94,11.06-4.87,11.43,31.8.89,249.49,5.76,298.04,4.22Z"/>
            <path class="cls-19" d="M335.56,135.33c13.69-.12,10.78-14.22-5.9-14.61-19.88-.45-245.45,1.91-286.02,1.95-14.14.02-16.48,8.75-4.94,8.75,30.37-.04,248.65,4.36,296.86,3.91Z"/>
          </g>
          <path class="cls-4" d="M360.36,110.23c0,11.19-9.06,20.27-20.27,20.27H27.71c-11.21,0-20.27-9.08-20.27-20.27h0c0-11.17,9.06-20.25,20.27-20.25h312.38c11.21,0,20.27,9.08,20.27,20.25h0Z"/>
          <path class="cls-13" d="M362.71,112.6c0,11.19-9.06,20.25-20.25,20.25H30.05c-11.19,0-20.25-9.06-20.25-20.25h0c0-11.19,9.06-20.25,20.25-20.25h312.4c11.19,0,20.25,9.06,20.25,20.25h0Z"/>
        </g>
        <g>
          <g class="cls-18">
            <path class="cls-5" d="M451.3,159.06c41.87-10.59,48.22-76.45-1.48-82.23-81.64-9.45-263.81-.43-321.8-.43-65.66,0-49.37,66.15-4.88,68.85,53.2,3.2,272.58,27.87,328.16,13.81Z"/>
            <path class="cls-8" d="M449.84,156.56c40.56-9.97,46.44-73.48-1.7-79.01-78.7-9.03-262.93-.32-320.09-.32-63.21,0-47.81,63.42-4.88,65.98,52.12,3.05,271.48,26.91,326.67,13.34Z"/>
            <path class="cls-16" d="M448.39,154.06c39.25-9.37,44.66-70.52-1.91-75.79-75.76-8.6-262.06-.21-318.39-.2-60.76,0-46.24,60.69-4.89,63.12,51.03,2.9,270.37,25.95,325.18,12.87Z"/>
            <path class="cls-3" d="M446.93,151.55c37.93-8.77,42.87-67.56-2.12-72.57-72.82-8.17-261.18-.09-316.69-.09-58.3,0-44.68,57.95-4.89,60.26,49.94,2.74,269.26,24.98,323.69,12.4Z"/>
            <path class="cls-22" d="M445.48,149.05c36.6-8.18,41.09-64.6-2.33-69.35-69.88-7.74-260.31.02-314.98.02-55.85,0-43.11,55.22-4.89,57.4,48.85,2.59,268.15,24.01,322.2,11.93Z"/>
            <path class="cls-24" d="M444.02,146.54c35.27-7.6,39.31-61.63-2.54-66.13-66.94-7.31-259.43.13-313.28.14-53.39,0-41.55,52.57-4.89,54.53,47.76,2.55,267.03,23.03,320.71,11.46Z"/>
            <path class="cls-7" d="M442.57,144.04c33.94-7.04,37.53-58.67-2.75-62.91-64-6.89-258.56.24-311.57.25-50.94,0-39.98,49.85-4.89,51.67,46.67,2.42,265.91,22.04,319.22,10.98Z"/>
            <path class="cls-20" d="M441.11,141.54c32.61-6.48,35.74-55.71-2.96-59.69-61.05-6.46-257.68.35-309.87.36-48.48,0-38.42,47.13-4.9,48.81,45.58,2.28,264.79,21.04,317.73,10.51Z"/>
            <path class="cls-23" d="M439.66,139.03c31.27-5.94,33.96-52.75-3.17-56.47-58.11-6.03-256.81.46-308.17.48-46.03,0-36.85,44.41-4.9,45.95,44.49,2.14,263.66,20.03,316.24,10.04Z"/>
            <path class="cls-14" d="M438.2,136.53c29.93-5.41,32.17-49.71-3.38-53.25-55.18-5.49-255.93.57-306.46.59-43.57,0-35.29,41.68-4.9,43.08,43.4,2.01,262.52,19.01,314.75,9.57Z"/>
            <path class="cls-11" d="M436.74,134.03c28.59-4.89,30.39-46.74-3.6-50.03-52.24-5.05-255.06.69-304.76.7-41.12,0-33.72,38.95-4.9,40.22,42.31,1.86,261.38,17.98,313.26,9.1Z"/>
            <path class="cls-6" d="M435.29,131.52c27.24-4.39,28.6-43.77-3.81-46.81-49.3-4.62-254.18.8-303.05.82-38.67,0-32.15,36.22-4.9,37.36,41.23,1.72,260.24,16.93,311.76,8.63Z"/>
            <path class="cls-26" d="M433.83,129.02c25.89-3.9,26.82-40.81-4.02-43.59-46.36-4.18-253.31.91-301.35.93-36.21,0-30.59,33.49-4.91,34.49,40.14,1.57,259.09,15.86,310.27,8.16Z"/>
            <path class="cls-2" d="M432.38,126.51c24.54-3.42,25.04-37.84-4.23-40.37-43.42-3.75-252.43,1.02-299.65,1.05-33.76,0-29.02,30.75-4.91,31.63,39.05,1.43,257.94,14.77,308.78,7.69Z"/>
            <path class="cls-10" d="M430.92,124.01c23.18-2.95,23.25-34.88-4.44-37.15-40.48-3.32-251.56,1.13-297.94,1.16-31.3,0-27.45,28.01-4.91,28.77,37.96,1.27,256.78,13.65,307.29,7.22Z"/>
            <path class="cls-9" d="M429.47,121.51c21.82-2.5,21.47-31.91-4.65-33.93-37.54-2.9-250.68,1.24-296.24,1.27-28.85,0-25.89,25.27-4.91,25.91,36.87,1.12,255.62,12.5,305.8,6.75Z"/>
            <path class="cls-21" d="M428.01,119c20.47-2.07,19.69-28.95-4.86-30.71-34.6-2.47-249.81,1.36-294.53,1.39-26.39,0-24.32,22.53-4.91,23.04,35.79.95,254.45,11.32,304.31,6.28Z"/>
            <path class="cls-25" d="M426.56,116.5c19.11-1.65,17.91-26-5.07-27.49-31.65-2.06-248.93,1.47-292.83,1.5-23.94,0-22.75,19.78-4.91,20.18,34.7.78,253.29,10.08,302.82,5.81Z"/>
            <path class="cls-17" d="M425.1,114c17.75-1.24,16.13-23.04-5.28-24.27-28.71-1.64-248.06,1.58-291.13,1.61-21.48,0-21.18,17.03-4.92,17.32,33.61.6,252.12,8.79,301.33,5.34Z"/>
            <path class="cls-27" d="M423.64,111.49c16.39-.86,14.34-20.1-5.5-21.05-25.77-1.24-247.18,1.69-289.42,1.73-19.03,0-19.62,14.27-4.92,14.46,32.53.41,250.95,7.42,299.84,4.87Z"/>
            <path class="cls-15" d="M422.19,108.99c15.04-.48,12.56-17.16-5.71-17.83-22.83-.84-246.3,1.8-287.72,1.84-16.58,0-18.05,11.51-4.92,11.59,31.44.2,249.79,5.96,298.35,4.4Z"/>
            <path class="cls-19" d="M420.73,106.48c13.69-.14,10.78-14.24-5.92-14.61-19.88-.47-245.43,1.91-286.02,1.95-14.12,0-16.48,8.75-4.92,8.73,30.35-.02,248.63,4.36,296.86,3.93Z"/>
          </g>
          <path class="cls-4" d="M445.52,81.39c0,11.19-9.06,20.25-20.25,20.25H112.86c-11.19,0-20.25-9.06-20.25-20.25h0c0-11.19,9.06-20.25,20.25-20.25h312.4c11.19,0,20.25,9.06,20.25,20.25h0Z"/>
          <path class="cls-1" d="M447.88,83.75c0,11.19-9.08,20.25-20.25,20.25H115.21c-11.17,0-20.23-9.06-20.23-20.25h0c0-11.19,9.06-20.27,20.23-20.27h312.42c11.17,0,20.25,9.08,20.25,20.27h0Z"/>
        </g>
        <g>
          <g class="cls-18">
            <path class="cls-5" d="M302.53,86.7c32.17-10.59,35.23-65.39-2.95-71.15-62.7-9.47-131.62-.45-176.17-.45-50.43,0-34.45,58.75-.27,61.45,40.88,3.2,136.7,24.22,179.39,10.16Z"/>
            <path class="cls-8" d="M301.33,84.72c31.17-9.98,33.95-62.95-3.02-68.46-60.44-9.04-130.95-.34-174.86-.33-48.54,0-33.42,56.37-.44,58.94,40.04,3.05,135.95,23.42,178.33,9.86Z"/>
            <path class="cls-16" d="M300.12,82.74c30.18-9.37,32.67-60.52-3.1-65.77-58.18-8.62-130.28-.22-173.55-.22-46.66,0-32.38,53.99-.61,56.42,39.21,2.9,135.2,22.63,177.26,9.56Z"/>
            <path class="cls-3" d="M298.92,80.77c29.17-8.78,31.38-58.08-3.18-63.07-55.92-8.19-129.61-.11-172.25-.11-44.77,0-31.34,51.67-.78,53.91,38.37,2.82,134.44,21.83,176.2,9.27Z"/>
            <path class="cls-22" d="M297.71,78.79c28.17-8.19,30.1-55.65-3.25-60.38-53.66-7.76-128.93,0-170.94,0-42.89,0-30.31,49.3-.94,51.4,37.53,2.69,133.68,21.03,175.13,8.97Z"/>
            <path class="cls-24" d="M296.51,76.81c27.15-7.62,28.82-53.21-3.33-57.69-51.4-7.33-128.26.11-169.63.12-41,0-29.27,46.93-1.11,48.89,36.69,2.56,132.92,20.22,174.07,8.67Z"/>
            <path class="cls-7" d="M295.3,74.84c26.14-7.05,27.53-50.78-3.4-55-49.15-6.9-127.59.23-168.32.24-39.12,0-28.23,44.56-1.28,46.38,35.86,2.42,132.14,19.4,173,8.38Z"/>
            <path class="cls-20" d="M294.1,72.86c25.12-6.5,26.24-48.27-3.48-52.3-46.9-6.36-126.92.34-167.01.35-37.23,0-27.2,42.19-1.45,43.87,35.02,2.29,131.37,18.58,171.93,8.08Z"/>
            <path class="cls-23" d="M292.89,70.88c24.09-5.96,24.96-45.83-3.55-49.61-44.65-5.92-126.25.45-165.7.47-35.35,0-26.16,39.82-1.61,41.36,34.19,2.15,130.58,17.74,170.87,7.78Z"/>
            <path class="cls-14" d="M291.69,68.9c23.06-5.43,23.67-43.39-3.63-46.92-42.39-5.49-125.58.56-164.39.58-33.46,0-25.12,37.45-1.78,38.85,33.35,2.01,129.8,16.9,169.8,7.49Z"/>
            <path class="cls-11" d="M290.49,66.93c22.03-4.91,22.39-40.94-3.7-44.23-40.13-5.05-124.91.68-163.09.69-31.58,0-24.08,35.07-1.95,36.34,32.52,1.87,129,16.04,168.74,7.19Z"/>
            <path class="cls-6" d="M289.28,64.95c20.99-4.4,21.1-38.5-3.78-41.53-37.87-4.61-124.23.79-161.78.81-29.69.01-23.04,32.69-2.11,33.83,31.68,1.73,128.2,15.16,167.67,6.89Z"/>
            <path class="cls-26" d="M288.08,62.97c19.95-3.91,19.82-36.06-3.85-38.84-35.61-4.18-123.56.9-160.47.92-27.81.01-22.01,30.31-2.28,31.32,30.85,1.58,127.39,14.27,166.6,6.6Z"/>
            <path class="cls-2" d="M286.87,60.99c18.91-3.43,18.54-33.62-3.93-36.15-33.36-3.75-122.89,1.01-159.16,1.04-25.92.01-20.97,27.93-2.45,28.81,30.01,1.44,126.58,13.36,165.54,6.3Z"/>
            <path class="cls-10" d="M285.67,59.02c17.86-2.96,17.25-31.19-4-33.46-31.1-3.32-122.22,1.13-157.85,1.15-24.04.01-19.93,25.54-2.62,26.3,29.18,1.28,125.76,12.42,164.47,6Z"/>
            <path class="cls-9" d="M284.46,57.04c16.81-2.51,15.97-28.75-4.08-30.76-28.84-2.9-121.55,1.24-156.54,1.27-22.15.01-18.89,23.15-2.78,23.79,28.34,1.13,124.94,11.44,163.41,5.71Z"/>
            <path class="cls-21" d="M283.26,55.06c15.76-2.07,14.69-26.32-4.15-28.07-26.58-2.47-120.88,1.35-155.23,1.38-20.27.01-17.85,20.76-2.95,21.28,27.51.97,124.11,10.43,162.34,5.41Z"/>
            <path class="cls-25" d="M282.05,53.09c14.71-1.65,13.41-23.89-4.23-25.38-24.32-2.06-120.21,1.46-153.93,1.5-18.38.02-16.81,18.36-3.12,18.77,26.68.8,123.28,9.37,161.28,5.11Z"/>
            <path class="cls-17" d="M280.85,51.11c13.66-1.25,12.13-21.46-4.31-22.69-22.06-1.64-119.53,1.58-152.62,1.61-16.5.02-15.77,15.96-3.29,16.26,25.84.62,122.45,8.26,160.21,4.82Z"/>
            <path class="cls-27" d="M279.65,49.13c12.61-.86,10.84-19.04-4.38-19.99-19.8-1.24-118.86,1.69-151.31,1.72-14.61.02-14.73,13.56-3.45,13.75,25.01.43,121.62,7.07,159.14,4.52Z"/>
            <path class="cls-15" d="M278.44,47.15c11.57-.48,9.56-16.63-4.46-17.3-17.53-.84-118.19,1.8-150,1.84-12.73.02-13.69,11.15-3.62,11.24,24.17.22,120.79,5.78,158.08,4.22Z"/>
            <path class="cls-19" d="M277.24,45.18c10.53-.14,8.28-14.24-4.53-14.61-15.27-.47-117.52,1.91-148.69,1.95-10.84.02-12.66,8.73-3.79,8.73,23.34-.02,119.98,4.36,157.01,3.93Z"/>
          </g>
          <path class="cls-4" d="M289.7,20.25c0,11.19-9.08,20.25-20.27,20.25H106.12c-11.19,0-20.25-9.06-20.25-20.25h0c0-11.19,9.06-20.25,20.25-20.25h163.3c11.19,0,20.27,9.06,20.27,20.25h0Z"/>
          <path class="cls-13" d="M292.04,22.6c0,11.19-9.06,20.27-20.25,20.27H108.49c-11.19,0-20.27-9.08-20.27-20.27h0c0-11.19,9.08-20.25,20.27-20.25h163.3c11.19,0,20.25,9.06,20.25,20.25h0Z"/>
        </g>
        <g>
          <g class="cls-18">
            <path class="cls-5" d="M367.57,117.95c32.17-10.61,39.2-67.27,1.04-73.03-62.71-9.47-131.64-.45-176.19-.45-50.45,0-38.22,55.18-4.63,62.03,41.48,8.48,137.09,25.51,179.79,11.45Z"/>
            <path class="cls-8" d="M366.55,115.88c31.17-9.99,37.73-64.74.77-70.25-60.46-9.04-130.97-.34-174.88-.33-48.56,0-37.01,52.97-4.59,59.49,40.62,8.07,136.33,24.66,178.7,11.09Z"/>
            <path class="cls-16" d="M365.54,113.82c30.18-9.38,36.25-62.21.5-67.46-58.2-8.61-130.3-.22-173.57-.22-46.68,0-35.8,50.84-4.55,56.95,39.73,7.78,135.56,23.81,177.62,10.73Z"/>
            <path class="cls-3" d="M364.52,111.75c29.17-8.79,34.78-59.69.24-64.68-55.94-8.18-129.62-.11-172.26-.11-44.79,0-34.59,48.67-4.51,54.42,38.86,7.42,134.78,22.95,176.53,10.37Z"/>
            <path class="cls-22" d="M363.51,109.68c28.16-8.2,33.31-57.16-.03-61.9-53.68-7.75-128.95,0-170.95,0-42.91,0-33.38,46.5-4.47,51.88,37.99,7.07,134,22.08,175.45,10.01Z"/>
            <path class="cls-24" d="M362.5,107.62c27.15-7.62,31.84-54.64-.29-59.12-51.42-7.32-128.28.11-169.64.12-41.02,0-32.17,44.32-4.43,49.34,37.11,6.72,133.22,21.21,174.37,9.65Z"/>
            <path class="cls-7" d="M361.48,105.55c26.13-7.06,30.37-52.11-.56-56.34-49.16-6.89-127.61.23-168.33.24-39.14,0-30.96,42.14-4.39,46.8,36.24,6.36,132.43,20.33,173.28,9.3Z"/>
            <path class="cls-20" d="M360.47,103.48c25.11-6.5,28.88-49.52-.83-53.55-46.91-6.37-126.93.34-167.02.35-37.25,0-29.75,39.96-4.35,44.26,35.37,6,131.63,19.44,172.2,8.94Z"/>
            <path class="cls-23" d="M359.45,101.42c24.09-5.96,27.41-46.99-1.09-50.77-44.66-5.93-126.26.45-165.72.47-35.37,0-28.53,37.77-4.31,41.73,34.5,5.64,130.83,18.55,171.12,8.58Z"/>
            <path class="cls-14" d="M358.44,99.35c23.06-5.43,25.94-44.46-1.36-47.99-42.4-5.49-125.59.56-164.41.58-33.48,0-27.31,35.58-4.27,39.19,33.63,5.27,130.02,17.64,170.03,8.22Z"/>
            <path class="cls-11" d="M357.42,97.28c22.02-4.91,24.47-41.93-1.62-45.21-40.14-5.05-124.92.68-163.1.69-31.6,0-26.1,33.38-4.23,36.65,32.77,4.9,129.21,16.72,168.95,7.86Z"/>
            <path class="cls-6" d="M356.41,95.22c20.98-4.4,22.99-39.39-1.89-42.43-37.88-4.62-124.24.79-161.79.81-29.71.01-24.88,31.18-4.19,34.11,31.9,4.52,128.39,15.78,167.87,7.51Z"/>
            <path class="cls-26" d="M355.39,93.15c19.94-3.9,21.52-36.86-2.16-39.65-35.62-4.18-123.57.9-160.48.92-27.83.01-23.66,28.97-4.15,31.57,31.04,4.14,127.56,14.82,166.78,7.15Z"/>
            <path class="cls-2" d="M354.38,91.08c18.9-3.42,20.05-34.34-2.42-36.86-33.36-3.75-122.9,1.01-159.17,1.04-25.94.01-22.44,26.76-4.11,29.04,30.18,3.75,126.73,13.85,165.7,6.79Z"/>
            <path class="cls-10" d="M353.36,89.02c17.85-2.96,18.58-31.81-2.69-34.08-31.1-3.32-122.23,1.13-157.86,1.15-24.06.01-21.22,24.54-4.07,26.5,29.32,3.35,125.89,12.84,164.62,6.43Z"/>
            <path class="cls-9" d="M352.35,86.95c16.8-2.5,17.11-29.28-2.95-31.3-28.84-2.9-121.55,1.24-156.55,1.27-22.17.01-19.99,22.31-4.03,23.96,28.46,2.94,125.05,11.81,163.53,6.07Z"/>
            <path class="cls-21" d="M351.33,84.88c15.75-2.07,15.63-26.76-3.22-28.52-26.58-2.48-120.88,1.35-155.24,1.38-20.29.01-18.77,20.08-3.99,21.42,27.6,2.51,124.21,10.73,162.45,5.72Z"/>
            <path class="cls-25" d="M350.32,82.82c14.69-1.64,14.16-24.24-3.49-25.74-24.32-2.06-120.21,1.46-153.93,1.5-18.4.02-17.55,17.83-3.95,18.88,26.75,2.07,123.36,9.61,161.37,5.36Z"/>
            <path class="cls-17" d="M349.3,80.75c13.64-1.24,12.69-21.73-3.75-22.95-22.06-1.65-119.54,1.58-152.62,1.61-16.52.02-16.32,15.58-3.91,16.34,25.89,1.6,122.51,8.43,160.28,5Z"/>
            <path class="cls-27" d="M348.29,78.68c12.59-.85,11.22-19.22-4.02-20.17-19.8-1.24-118.86,1.69-151.31,1.72-14.63.02-15.1,13.31-3.87,13.81,25.04,1.1,121.66,7.17,159.2,4.64Z"/>
            <path class="cls-15" d="M347.28,76.62c11.55-.48,9.75-16.72-4.28-17.39-17.53-.84-118.19,1.8-150,1.84-12.74.02-13.88,11.03-3.83,11.27,24.18.56,120.81,5.82,158.11,4.28Z"/>
            <path class="cls-19" d="M346.26,74.55c10.51-.12,8.28-14.22-4.55-14.61-15.27-.45-117.52,1.91-148.69,1.95-10.86.02-12.66,8.75-3.79,8.73,23.32-.02,119.98,4.36,157.03,3.93Z"/>
          </g>
          <path class="cls-4" d="M361.05,51.99c0,11.19-9.08,20.25-20.25,20.25h-163.32c-11.17,0-20.23-9.06-20.23-20.25h0c0-11.19,9.06-20.25,20.23-20.25h163.32c11.17,0,20.25,9.06,20.25,20.25h0Z"/>
        </g>
        <g>
          <g class="cls-18">
            <path class="cls-5" d="M412.33,239.43c41.89-10.59,51.64-67.95,1.93-73.71-81.64-9.47-171.37-.45-229.36-.45-65.68,0-45.53,61.02-1.02,63.69,53.2,3.22,172.85,24.53,228.44,10.47Z"/>
            <path class="cls-8" d="M411.04,237.33c40.58-9.97,49.7-65.39,1.56-70.9-78.7-9.04-170.49-.34-227.65-.33-63.23,0-44.14,58.53-1.2,61.08,52.12,3.07,172.1,23.72,227.29,10.16Z"/>
            <path class="cls-16" d="M409.75,235.24c39.26-9.37,47.75-62.83,1.19-68.08-75.76-8.61-169.62-.22-225.95-.22-60.77,0-42.76,56.04-1.39,58.46,51.03,2.91,171.34,22.92,226.15,9.84Z"/>
            <path class="cls-3" d="M408.46,233.14c37.94-8.77,45.81-60.27.81-65.27-72.82-8.18-168.74-.11-224.25-.11-58.31,0-41.38,53.55-1.57,55.84,49.94,2.76,170.58,22.11,225.01,9.53Z"/>
            <path class="cls-22" d="M407.16,231.04c36.62-8.18,43.86-57.71.44-62.45-69.88-7.75-167.87,0-222.54,0-55.86,0-39.99,51.06-1.76,53.23,48.85,2.6,169.81,21.29,223.87,9.22Z"/>
            <path class="cls-24" d="M405.87,228.94c35.29-7.6,41.92-55.16.06-59.64-66.94-7.32-167,.11-220.84.12-53.4,0-38.61,48.65-1.95,50.61,47.76,2.55,169.05,20.47,222.72,8.91Z"/>
            <path class="cls-7" d="M404.58,226.84c33.96-7.04,39.97-52.6-.31-56.82-64-6.89-166.12.23-219.14.24-50.95,0-37.23,46.18-2.13,47.99,46.67,2.42,168.27,19.64,221.58,8.59Z"/>
            <path class="cls-20" d="M403.29,224.74c32.62-6.48,38.03-50.04-.68-54.01-61.05-6.46-165.25.34-217.43.35-48.49,0-35.85,43.7-2.32,45.38,45.59,2.28,167.49,18.8,220.44,8.28Z"/>
            <path class="cls-23" d="M401.99,222.64c31.28-5.94,36.08-47.48-1.06-51.2-58.11-6.04-164.37.45-215.73.47-46.03,0-34.46,41.22-2.5,42.76,44.5,2.14,166.71,17.95,219.29,7.97Z"/>
            <path class="cls-14" d="M400.7,220.54c29.94-5.41,34.13-44.85-1.43-48.38-55.18-5.49-163.5.56-214.03.58-43.58,0-33.08,38.74-2.69,40.15,43.41,2,165.92,17.09,218.15,7.66Z"/>
            <path class="cls-11" d="M399.41,218.44c28.6-4.89,32.19-42.28-1.81-45.57-52.24-5.05-162.62.68-212.33.69-41.12,0-31.69,36.26-2.88,37.53,42.32,1.86,165.13,16.21,217.01,7.34Z"/>
            <path class="cls-6" d="M398.11,216.34c27.25-4.38,30.24-39.72-2.18-42.75-49.3-4.61-161.75.79-210.62.81-38.66.01-30.31,33.78-3.06,34.91,41.24,1.72,164.34,15.32,215.86,7.03Z"/>
            <path class="cls-26" d="M396.82,214.24c25.9-3.89,28.3-37.16-2.55-39.94-46.36-4.18-160.88.9-208.92.92-36.21.01-28.93,31.29-3.25,32.3,40.15,1.58,163.54,14.41,214.72,6.72Z"/>
            <path class="cls-2" d="M395.53,212.14c24.54-3.41,26.35-34.6-2.93-37.12-43.42-3.75-160,1.01-207.22,1.04-33.75.01-27.54,28.8-3.43,29.68,39.06,1.43,162.73,13.47,213.58,6.41Z"/>
            <path class="cls-10" d="M394.24,210.05c23.19-2.95,24.41-32.04-3.3-34.31-40.48-3.32-159.13,1.13-205.51,1.15-31.3.01-26.16,26.31-3.62,27.06,37.97,1.28,161.92,12.51,212.43,6.09Z"/>
            <path class="cls-9" d="M392.94,207.95c21.83-2.5,22.46-29.48-3.67-31.5-37.54-2.9-158.25,1.24-203.81,1.27-28.84.01-24.77,23.81-3.81,24.45,36.89,1.12,161.11,11.52,211.29,5.78Z"/>
            <path class="cls-21" d="M391.65,205.85c20.47-2.06,20.52-26.92-4.05-28.68-34.6-2.47-157.38,1.35-202.11,1.38-26.38.01-23.39,21.31-3.99,21.83,35.8.96,160.29,10.49,210.15,5.47Z"/>
            <path class="cls-25" d="M390.36,203.75c19.11-1.64,18.57-24.37-4.42-25.87-31.65-2.06-156.5,1.46-200.41,1.5-23.93.02-22,18.81-4.18,19.22,34.72.79,159.47,9.41,209.01,5.16Z"/>
            <path class="cls-17" d="M389.06,201.65c17.75-1.24,16.63-21.82-4.8-23.05-28.71-1.64-155.63,1.58-198.7,1.61-21.47.02-20.62,16.3-4.36,16.6,33.63.61,158.65,8.27,207.86,4.84Z"/>
            <path class="cls-27" d="M387.77,199.55c16.39-.85,14.69-19.28-5.17-20.24-25.77-1.24-154.76,1.69-197,1.72-19.01.02-19.23,13.79-4.55,13.98,32.54.42,157.83,7.06,206.72,4.53Z"/>
            <path class="cls-15" d="M386.48,197.45c15.04-.47,12.75-16.78-5.54-17.42-22.82-.88-153.88,1.8-195.3,1.84-16.56.02-17.85,11.28-4.74,11.37,31.46.21,157.02,5.75,205.58,4.22Z"/>
            <path class="cls-19" d="M385.19,195.35c13.69-.12,10.8-14.22-5.92-14.61-19.88-.45-153.01,1.91-193.59,1.95-14.1.02-16.46,8.75-4.92,8.75,30.37-.04,156.21,4.34,204.43,3.91Z"/>
          </g>
          <path class="cls-4" d="M409.97,170.25c0,11.19-9.06,20.27-20.23,20.27h-220c-11.17,0-20.23-9.08-20.23-20.27h0c0-11.19,9.06-20.25,20.23-20.25h220c11.17,0,20.23,9.06,20.23,20.25h0Z"/>
          <path class="cls-13" d="M412.33,172.62c0,11.19-9.06,20.25-20.25,20.25h-219.98c-11.19,0-20.25-9.06-20.25-20.25h0c0-11.19,9.06-20.25,20.25-20.25h219.98c11.19,0,20.25,9.06,20.25,20.25h0Z"/>
        </g>
      </g>
    </g>
  </g>
</svg>